<?xml version="1.0" standalone="no"?><!DOCTYPE svg PUBLIC "-//W3C//DTD SVG 1.1//EN" "http://www.w3.org/Graphics/SVG/1.1/DTD/svg11.dtd" ><svg xmlns="http://www.w3.org/2000/svg"><metadata></metadata><defs><font id="FontForge 2.0 : GlowSansSCBook : 24-10-2023" horiz-adv-x="1102"><font-face font-family="" font-weight="400" font-stretch="normal" units-per-em="1000" panose-1="2 0 5 3 0 0 0 0 0 0" ascent="1323" descent="-549" x-height="0" bbox="-10 -350 1023 1050" underline-thickness="50" underline-position="-125" unicode-range="U+0009-ff65" /><missing-glyph horiz-adv-x="666" d="M543 1050 l0 -1400 l-420 0 l0 1400 l420 0 ZM489 998 l-311 0 l0 -1296 l311 0 l0 1296 ZM324 451 q111 0 111 -115 q0 -104 -95 -118 l0 -45 q0 -11 -7.5 -17.5 q-7.5 -6.5 -17.5 -6.5 q-10 0 -17.5 6.5 q-7.5 6.5 -7.5 17.5 l0 84 q53 3 72 19.5 q19 16.5 19 57.5 q0 33 -13 51 q-13 18 -48 18 q-29 0 -52 -11 q-8 -3 -13 -3 q-24 0 -24 23 q0 19 29.5 29 q29.5 10 63.5 10 ZM290 110 q10 10 25 10 q15 0 25 -10 q10 -10 10 -25 q0 -16 -10 -26.5 q-10 -10.5 -25 -10.5 q-15 0 -25 10.5 q-10 10.5 -10 26.5 q0 15 10 25 Z" /><glyph glyph-name="nonmarkingreturn" unicode="" d="" /><glyph glyph-name="nonbreakingspace" unicode=" " d="" /><glyph glyph-name="exclam" unicode="!" d="M178 743 l-8 -498 l-81 0 l-10 498 l99 0 ZM130 126 q30 0 50 -20 q20 -20 20 -49 q0 -29 -20 -49.5 q-20 -20.5 -50 -20.5 q-29 0 -49.5 20.5 q-20.5 20.5 -20.5 49.5 q0 29 20.5 49 q20.5 20 49.5 20 Z" /><glyph glyph-name="quotedbl" unicode="&quot;" d="M82 463 l-14 280 l97 0 l-15 -280 l-68 0 ZM271 463 l-15 280 l98 0 l-15 -280 l-68 0 Z" /><glyph glyph-name="numbersign" unicode="#" d="M540 484 l-83 0 l-31 -235 l74 0 l0 -69 l-83 0 l-24 -180 l-78 0 l24 180 l-174 0 l-24 -180 l-77 0 l23 180 l-71 0 l0 69 l80 0 l31 235 l-71 0 l0 70 l81 0 l22 167 l78 0 l-22 -167 l174 0 l21 167 l78 0 l-21 -167 l73 0 l0 -70 ZM348 249 l31 235 l-174 0 l-31 -235 l174 0 Z" /><glyph glyph-name="dollar" unicode="$" d="M525 200 q0 -83 -51.5 -139 q-51.5 -56 -144.5 -70 l0 -157 l-78 0 l0 153 q-132 7 -221 93 l54 58 q80 -75 187 -75 q70 0 115 35 q45 35 45 99 q0 55 -33.5 85 q-33.5 30 -126.5 59 q-111 34 -161.5 80 q-50.5 46 -50.5 125 q0 75 53 126 q53 51 139 59 l0 158 l78 0 l0 -158 q99 -11 174 -81 l-53 -57 q-69 65 -163 65 q-59 0 -96.5 -28 q-37.5 -28 -37.5 -79 q0 -49 32.5 -76.5 q32.5 -27.5 127.5 -56.5 q51 -16 84.5 -31.5 q33.5 -15.5 65 -40 q31.5 -24.5 47 -61 q15.5 -36.5 15.5 -85.5 Z" /><glyph glyph-name="percent" unicode="%" d="M661 766 l64 -41 l-500 -756 l-64 41 l500 756 ZM222 732 q77 0 125 -49 q48 -49 48 -131 q0 -82 -48 -132 q-48 -50 -125 -50 q-75 0 -123 50 q-48 50 -48 132 q0 82 48 131 q48 49 123 49 ZM313 552 q0 119 -91 119 q-91 0 -91 -119 q0 -119 91 -119 q91 0 91 119 ZM536.5 300 q48.5 49 124.5 49 q76 0 124 -49 q48 -49 48 -132 q0 -82 -48 -131.5 q-48 -49.5 -124 -49.5 q-76 0 -124.5 49.5 q-48.5 49.5 -48.5 131.5 q0 83 48.5 132 ZM661 286 q-91 0 -91 -118 q0 -51 21.5 -84.5 q21.5 -33.5 69.5 -33.5 q92 0 92 118 q0 118 -92 118 Z" /><glyph glyph-name="ampersand" unicode="&amp;" d="M326 756 q86 0 139.5 -46 q53.5 -46 53.5 -117 q0 -63 -40 -109 q-40 -46 -115 -90 l198 -186 q43 90 65 188 l86 -23 q-37 -122 -95 -217 l124 -116 l-66 -53 l-109 105 q-92 -105 -239 -105 q-105 0 -171.5 55 q-66.5 55 -66.5 146 q0 67 38.5 117.5 q38.5 50.5 113.5 97.5 q-56 52 -81.5 93 q-25.5 41 -25.5 93 q0 73 51 120 q51 47 140 47 ZM327 688 q-48 0 -75 -27.5 q-27 -27.5 -27 -70.5 q0 -39 20 -70.5 q20 -31.5 67 -75.5 q59 34 88.5 68 q29.5 34 29.5 76 q0 47 -28 73.5 q-28 26.5 -75 26.5 ZM294 353 q-57 -36 -84 -74.5 q-27 -38.5 -27 -87.5 q0 -61 43 -96.5 q43 -35.5 112 -35.5 q98 0 176 84 l-220 210 Z" /><glyph glyph-name="quotesingle" unicode="&#39;" d="M82 463 l-14 280 l97 0 l-15 -280 l-68 0 Z" /><glyph glyph-name="parenleft" unicode="(" d="M246 910 l57 -38 q-85 -126 -123.5 -230 q-38.5 -104 -38.5 -264 q0 -160 38.5 -264 q38.5 -104 123.5 -230 l-57 -38 q-44 61 -63 89.5 q-19 28.5 -51.5 86.5 q-32.5 58 -47 103 q-14.5 45 -26.5 112 q-12 67 -12 141 q0 74 12 141 q12 67 26.5 112 q14.5 45 47 103 q32.5 58 51.5 86.5 q19 28.5 63 89.5 Z" /><glyph glyph-name="parenright" unicode=")" d="M104 910 q43 -60 63 -89.5 q20 -29.5 51.5 -87 q31.5 -57.5 46 -103 q14.5 -45.5 26.5 -112 q12 -66.5 12 -140.5 q0 -74 -12 -140.5 q-12 -66.5 -26.5 -112 q-14.5 -45.5 -46 -103 q-31.5 -57.5 -51.5 -87 q-20 -29.5 -63 -89.5 l-58 38 q85 124 123.5 229 q38.5 105 38.5 265 q0 161 -38.5 265 q-38.5 104 -123.5 229 l58 38 Z" /><glyph glyph-name="asterisk" unicode="*" d="M448 611 l-164 -38 l110 -126 l-71 -53 l-86 145 l-87 -145 l-71 52 l110 127 l-164 38 l27 81 l154 -66 l-14 171 l89 0 l-14 -170 l153 66 l28 -82 Z" /><glyph glyph-name="plus" unicode="+" d="M310 557 l0 -162 l159 0 l0 -75 l-159 0 l0 -162 l-83 0 l0 162 l-158 0 l0 75 l158 0 l0 162 l83 0 Z" /><glyph glyph-name="comma" unicode="," d="M124 126 q30 0 50 -20 q20 -20 20 -49 q0 -32 -18 -72 l-70 -161 l-65 0 l43 175 q-29 22 -29 58 q0 29 20 49 q20 20 49 20 Z" /><glyph glyph-name="period" unicode="." d="M124 126 q30 0 50 -20 q20 -20 20 -49 q0 -30 -20 -50 q-20 -20 -50 -20 q-29 0 -49 20.5 q-20 20.5 -20 49.5 q0 29 20 49 q20 20 49 20 Z" /><glyph glyph-name="slash" unicode="/" d="M367 870 l78 -18 l-250 -963 l-78 19 l250 962 Z" /><glyph glyph-name="zero" unicode="0" d="M300 732 q118 0 178 -95 q60 -95 60 -277 q0 -182 -60 -277.5 q-60 -95.5 -178 -95.5 q-118 0 -177.5 95.5 q-59.5 95.5 -59.5 278.5 q0 371 237 371 ZM408 588.5 q-36 71.5 -108 71.5 q-72 0 -107.5 -71 q-35.5 -71 -35.5 -228 q0 -158 35.5 -230 q35.5 -72 107.5 -72 q72 0 108 72 q36 72 36 229 q0 157 -36 228.5 Z" /><glyph glyph-name="one" unicode="1" d="M341 721 l0 -721 l-90 0 l0 624 l-171 -105 l-40 65 l221 137 l80 0 Z" /><glyph glyph-name="two" unicode="2" d="M245 732 q97 0 155 -55 q58 -55 58 -140 q0 -97 -62.5 -184.5 q-62.5 -87.5 -248.5 -275.5 l328 0 l-11 -77 l-421 0 l0 72 q205 215 262.5 295 q57.5 80 57.5 165 q0 58 -33.5 92 q-33.5 34 -88.5 34 q-46 0 -80.5 -19 q-34.5 -19 -71.5 -61 l-60 47 q86 107 216 107 Z" /><glyph glyph-name="three" unicode="3" d="M242 732 q98 0 154.5 -52.5 q56.5 -52.5 56.5 -129.5 q0 -67 -39 -109.5 q-39 -42.5 -103 -57.5 q72 -6 117.5 -51 q45.5 -45 45.5 -125 q0 -96 -66.5 -158 q-66.5 -62 -175.5 -62 q-134 0 -215 96 l55 51 q69 -72 157 -72 q70 0 110 39.5 q40 39.5 40 105.5 q0 74 -37.5 104.5 q-37.5 30.5 -109.5 30.5 l-53 0 l11 71 l37 0 q57 0 95.5 34.5 q38.5 34.5 38.5 96.5 q0 54 -33.5 84.5 q-33.5 30.5 -90.5 30.5 q-80 0 -152 -65 l-47 54 q90 84 204 84 Z" /><glyph glyph-name="four" unicode="4" d="M537 254 l0 -74 l-94 0 l0 -180 l-89 0 l0 180 l-310 0 l0 66 l218 486 l76 -31 l-198 -447 l215 0 l9 197 l79 0 l0 -197 l94 0 Z" /><glyph glyph-name="five" unicode="5" d="M463 721 l-13 -71 l-285 0 l0 -220 q58 29 118 29 q93 0 148.5 -61 q55.5 -61 55.5 -167 q0 -109 -67.5 -176.5 q-67.5 -67.5 -178.5 -67.5 q-122 0 -211 91 l54 53 q68 -69 157 -69 q70 0 111 45 q41 45 41 126 q0 81 -37 118 q-37 37 -100 37 q-52 0 -106 -27 l-71 0 l0 360 l384 0 Z" /><glyph glyph-name="six" unicode="6" d="M329 473 q85 0 141.5 -59 q56.5 -59 56.5 -170 q0 -116 -64.5 -186.5 q-64.5 -70.5 -161.5 -70.5 q-124 0 -181 93 q-57 93 -57 256 q0 181 72 288.5 q72 107.5 197 107.5 q80 0 145 -43 l-35 -60 q-53 31 -112 31 q-80 0 -126.5 -77 q-46.5 -77 -50.5 -207 q69 97 176 97 ZM301 59 q65 0 99.5 49.5 q34.5 49.5 34.5 133.5 q0 159 -121 159 q-97 0 -160 -103 q4 -122 38.5 -180.5 q34.5 -58.5 108.5 -58.5 Z" /><glyph glyph-name="seven" unicode="7" d="M444 721 l0 -68 l-273 -663 l-84 27 l265 630 l-324 0 l0 74 l416 0 Z" /><glyph glyph-name="eight" unicode="8" d="M388 387 q153 -64 153 -195 q0 -91 -69 -148 q-69 -57 -178 -57 q-109 0 -176 56.5 q-67 56.5 -67 146.5 q0 128 146 190 q-116 57 -116 169 q0 85 64 134 q64 49 151 49 q88 0 152 -47.5 q64 -47.5 64 -133.5 q0 -54 -30 -93 q-30 -39 -94 -71 ZM296 664 q-58 0 -91.5 -30.5 q-33.5 -30.5 -33.5 -85.5 q0 -52 31 -80 q31 -28 101 -52 l22 -8 q52 29 74.5 61 q22.5 32 22.5 79 q0 54 -33.5 85 q-33.5 31 -92.5 31 ZM295 60 q70 0 110.5 35.5 q40.5 35.5 40.5 95.5 q0 59 -34.5 91.5 q-34.5 32.5 -123.5 64.5 l-29 9 q-113 -49 -113 -166 q0 -61 40 -95.5 q40 -34.5 109 -34.5 Z" /><glyph glyph-name="nine" unicode="9" d="M279 732 q113 0 171.5 -75.5 q58.5 -75.5 58.5 -207.5 q0 -110 -22 -187 q-22 -77 -71.5 -131.5 q-49.5 -54.5 -116 -89 q-66.5 -34.5 -169.5 -64.5 l-22 68 q146 42 223.5 114.5 q77.5 72.5 83.5 193.5 q-59 -89 -166 -89 q-86 0 -142 63 q-56 63 -56 168 q0 109 65 173 q65 64 163 64 ZM268 336 q88 0 148 94 q2 121 -30.5 175.5 q-32.5 54.5 -104.5 54.5 q-66 0 -102 -44 q-36 -44 -36 -124 q0 -77 34 -116.5 q34 -39.5 91 -39.5 Z" /><glyph glyph-name="colon" unicode=":" d="M124 529 q30 0 50 -19.5 q20 -19.5 20 -49.5 q0 -30 -20 -49.5 q-20 -19.5 -50 -19.5 q-29 0 -49 20 q-20 20 -20 49 q0 29 20 49 q20 20 49 20 ZM124 126 q30 0 50 -20 q20 -20 20 -49 q0 -30 -20 -50 q-20 -20 -50 -20 q-29 0 -49 20.5 q-20 20.5 -20 49.5 q0 29 20 49 q20 20 49 20 Z" /><glyph glyph-name="semicolon" unicode=";" d="M124 529 q30 0 50 -19.5 q20 -19.5 20 -49.5 q0 -30 -20 -49.5 q-20 -19.5 -50 -19.5 q-29 0 -49 20 q-20 20 -20 49 q0 29 20 49 q20 20 49 20 ZM124 126 q30 0 50 -20 q20 -20 20 -49 q0 -32 -18 -72 l-70 -161 l-65 0 l43 175 q-29 22 -29 58 q0 29 20 49 q20 20 49 20 Z" /><glyph glyph-name="less" unicode="&lt;" d="M449 590 l33 -76 l-351 -154 l351 -157 l-33 -73 l-392 184 l0 91 l392 185 Z" /><glyph glyph-name="equal" unicode="=" d="M69 421 l0 77 l401 0 l0 -77 l-401 0 ZM69 217 l0 77 l401 0 l0 -77 l-401 0 Z" /><glyph glyph-name="greater" unicode="&gt;" d="M91 590 l391 -185 l0 -91 l-391 -184 l-34 73 l351 157 l-351 154 l34 76 Z" /><glyph glyph-name="question" unicode="?" d="M256 756 q94 0 148 -48.5 q54 -48.5 54 -117.5 q0 -40 -14.5 -71 q-14.5 -31 -36.5 -49 q-22 -18 -47.5 -36.5 q-25.5 -18.5 -47.5 -34.5 q-22 -16 -36.5 -42.5 q-14.5 -26.5 -14.5 -60.5 l0 -51 l-89 0 l0 56 q0 50 19.5 87 q19.5 37 48 57.5 q28.5 20.5 56.5 38.5 q28 18 47.5 42.5 q19.5 24.5 19.5 57.5 q0 45 -30 70.5 q-30 25.5 -82 25.5 q-88 0 -154 -77 l-61 47 q90 106 220 106 ZM219 126 q30 0 50 -20 q20 -20 20 -49 q0 -30 -20 -50 q-20 -20 -50 -20 q-29 0 -49 20.5 q-20 20.5 -20 49.5 q0 29 20 49 q20 20 49 20 Z" /><glyph glyph-name="at" unicode="@" d="M568 756 q144 0 249 -60 q105 -60 155.5 -154.5 q50.5 -94.5 50.5 -209.5 q0 -144 -54.5 -232.5 q-54.5 -88.5 -155.5 -88.5 q-59 0 -92.5 33 q-33.5 33 -43.5 79 q-51 -110 -156 -110 q-85 0 -135.5 64 q-50.5 64 -50.5 172 q0 136 64 208 q64 72 169 72 q85 0 166 -42 l0 -280 q0 -126 78 -126 q119 0 119 248 q0 160 -94.5 255.5 q-94.5 95.5 -268.5 95.5 q-181 0 -289 -118.5 q-108 -118.5 -108 -302.5 q0 -186 105.5 -298.5 q105.5 -112.5 291.5 -112.5 q104 0 206 35 l25 -70 q-120 -41 -232 -41 q-218 0 -353 132.5 q-135 132.5 -135 354.5 q0 214 136.5 355.5 q136.5 141.5 352.5 141.5 ZM531 80 q83 0 121 97 l0 269 q-36 17 -82 17 q-147 0 -147 -214 q0 -83 28 -126 q28 -43 80 -43 Z" /><glyph glyph-name="A" unicode="A" d="M509 0 l-58 190 l-289 0 l-58 -190 l-95 0 l240 743 l119 0 l240 -743 l-99 0 ZM186 267 l242 0 l-121 398 l-121 -398 Z" /><glyph glyph-name="B" unicode="B" d="M432 393 q172 -28 172 -182 q0 -211 -289 -211 l-204 0 l0 743 l173 0 q286 0 286 -187 q0 -66 -39.5 -108.5 q-39.5 -42.5 -98.5 -54.5 ZM294 669 l-90 0 l0 -243 l121 0 q66 0 107.5 32.5 q41.5 32.5 41.5 91.5 q0 66 -45 92.5 q-45 26.5 -135 26.5 ZM315 76 q93 0 141 29 q48 29 48 106 q0 74 -46.5 108 q-46.5 34 -122.5 34 l-131 0 l0 -277 l111 0 Z" /><glyph glyph-name="C" unicode="C" d="M369 756 q65 0 110 -17.5 q45 -17.5 92 -54.5 l-50 -61 q-69 55 -146 55 q-96 0 -154.5 -73 q-58.5 -73 -58.5 -233 q0 -155 58 -230 q58 -75 154 -75 q48 0 84 16 q36 16 76 46 l46 -60 q-82 -82 -210 -82 q-137 0 -222 101 q-85 101 -85 284 q0 182 87 283 q87 101 219 101 Z" /><glyph glyph-name="D" unicode="D" d="M265 743 q61 0 110 -8.5 q49 -8.5 98.5 -32.5 q49.5 -24 82.5 -63.5 q33 -39.5 54 -106.5 q21 -67 21 -156 q0 -88 -21 -156 q-21 -68 -55 -108.5 q-34 -40.5 -81 -66.5 q-47 -26 -92.5 -35.5 q-45.5 -9.5 -97.5 -9.5 l-173 0 l0 743 l154 0 ZM284 667 l-80 0 l0 -592 l88 0 q49 0 88 12.5 q39 12.5 74.5 43.5 q35.5 31 55.5 93 q20 62 20 152 q0 92 -20.5 153 q-20.5 61 -58.5 89.5 q-38 28.5 -76.5 38.5 q-38.5 10 -90.5 10 Z" /><glyph glyph-name="E" unicode="E" d="M508 743 l-11 -76 l-293 0 l0 -250 l254 0 l0 -76 l-254 0 l0 -265 l311 0 l0 -76 l-404 0 l0 743 l397 0 Z" /><glyph glyph-name="F" unicode="F" d="M111 0 l0 743 l389 0 l-11 -76 l-285 0 l0 -261 l246 0 l0 -74 l-246 0 l0 -332 l-93 0 Z" /><glyph glyph-name="G" unicode="G" d="M381 756 q69 0 119.5 -19.5 q50.5 -19.5 99.5 -60.5 l-55 -58 q-73 60 -164 60 q-92 0 -155.5 -75 q-63.5 -75 -63.5 -230 q0 -308 211 -308 q80 0 144 34 l0 234 l-135 0 l-10 76 l238 0 l0 -357 q-112 -65 -237 -65 q-146 0 -228 98.5 q-82 98.5 -82 287.5 q0 180 92 281.5 q92 101.5 226 101.5 Z" /><glyph glyph-name="H" unicode="H" d="M527 0 l0 352 l-323 0 l0 -352 l-93 0 l0 743 l93 0 l0 -313 l323 0 l0 313 l94 0 l0 -743 l-94 0 Z" /><glyph glyph-name="I" unicode="I" d="M204 743 l0 -743 l-93 0 l0 743 l93 0 Z" /><glyph glyph-name="J" unicode="J" d="M220 743 l0 -640 q0 -107 -45.5 -161 q-45.5 -54 -142.5 -86 l-24 68 q71 29 94.5 67.5 q23.5 38.5 23.5 115.5 l0 636 l94 0 Z" /><glyph glyph-name="K" unicode="K" d="M204 743 l0 -743 l-93 0 l0 743 l93 0 ZM606 743 l-288 -340 l307 -403 l-115 0 l-300 397 l289 346 l107 0 Z" /><glyph glyph-name="L" unicode="L" d="M204 743 l0 -661 l307 0 l-11 -82 l-389 0 l0 743 l93 0 Z" /><glyph glyph-name="M" unicode="M" d="M705 743 l65 -743 l-91 0 l-28 340 q-18 195 -20 308 l-168 -563 l-87 0 l-175 564 q-1 -124 -17 -314 l-26 -335 l-89 0 l63 743 l127 0 l163 -550 l156 550 l127 0 Z" /><glyph glyph-name="N" unicode="N" d="M624 743 l0 -743 l-125 0 l-313 640 q13 -153 13 -281 l0 -359 l-88 0 l0 743 l122 0 l316 -641 q-12 80 -12 225 l0 416 l87 0 Z" /><glyph glyph-name="O" unicode="O" d="M148 653 q85 103 226 103 q141 0 226 -101 q85 -101 85 -285 q0 -181 -85 -282 q-85 -101 -226 -101 q-142 0 -226.5 100 q-84.5 100 -84.5 282 q0 181 85 284 ZM374 678 q-100 0 -156 -75.5 q-56 -75.5 -56 -233.5 q0 -156 56.5 -230 q56.5 -74 155.5 -74 q211 0 211 305 q0 308 -211 308 Z" /><glyph glyph-name="P" unicode="P" d="M301 743 q136 0 210.5 -57 q74.5 -57 74.5 -171 q0 -121 -77.5 -180 q-77.5 -59 -207.5 -59 l-97 0 l0 -276 l-93 0 l0 743 l190 0 ZM298 351 q92 0 140.5 36 q48.5 36 48.5 127 q0 156 -187 156 l-96 0 l0 -319 l94 0 Z" /><glyph glyph-name="Q" unicode="Q" d="M511 38 q112 0 204 -68 l-62 -79 q-63 56 -122.5 77 q-59.5 21 -158.5 21 q-141 0 -225 99 q-84 99 -84 281 q0 181 85 284 q85 103 226 103 q141 0 226 -101 q85 -101 85 -285 q0 -133 -44.5 -212 q-44.5 -79 -129.5 -120 ZM162 369 q0 -156 56.5 -230 q56.5 -74 155.5 -74 q211 0 211 305 q0 308 -211 308 q-100 0 -156 -75.5 q-56 -75.5 -56 -233.5 Z" /><glyph glyph-name="R" unicode="R" d="M509 0 l-182 320 l-123 0 l0 -320 l-93 0 l0 743 l191 0 q279 0 279 -208 q0 -152 -162 -199 l201 -336 l-111 0 ZM204 392 l109 0 q169 0 169 143 q0 71 -43 103 q-43 32 -138 32 l-97 0 l0 -278 Z" /><glyph glyph-name="S" unicode="S" d="M291 756 q73 0 125.5 -21 q52.5 -21 99.5 -64 l-51 -58 q-79 65 -170 65 q-61 0 -99.5 -29 q-38.5 -29 -38.5 -81 q0 -51 33 -79.5 q33 -28.5 132 -58.5 q52 -16 86.5 -31.5 q34.5 -15.5 67 -41 q32.5 -25.5 48.5 -63 q16 -37.5 16 -88.5 q0 -98 -69.5 -158.5 q-69.5 -60.5 -190.5 -60.5 q-150 0 -250 95 l52 58 q91 -75 197 -75 q71 0 117.5 36 q46.5 36 46.5 102 q0 58 -34.5 89 q-34.5 31 -129.5 60 q-114 34 -166.5 82 q-52.5 48 -52.5 131 q0 83 65 137 q65 54 166 54 Z" /><glyph glyph-name="T" unicode="T" d="M542 743 l-11 -80 l-208 0 l0 -663 l-93 0 l0 663 l-214 0 l0 80 l526 0 Z" /><glyph glyph-name="U" unicode="U" d="M612 743 l0 -506 q0 -113 -67.5 -181.5 q-67.5 -68.5 -189.5 -68.5 q-123 0 -189 68.5 q-66 68.5 -66 181.5 l0 506 l93 0 l0 -499 q0 -177 162 -177 q162 0 162 177 l0 499 l95 0 Z" /><glyph glyph-name="V" unicode="V" d="M589 743 l-238 -743 l-102 0 l-240 743 l101 0 l191 -643 l193 643 l95 0 Z" /><glyph glyph-name="W" unicode="W" d="M860 743 l-155 -743 l-120 0 l-142 634 l-144 -634 l-116 0 l-155 743 l93 0 l124 -660 l148 660 l101 0 l151 -660 l128 660 l87 0 Z" /><glyph glyph-name="X" unicode="X" d="M342 402 l228 -402 l-107 0 l-177 336 l-178 -336 l-102 0 l225 396 l-204 347 l106 0 l155 -284 l155 284 l100 0 l-201 -341 Z" /><glyph glyph-name="Y" unicode="Y" d="M580 743 l-239 -456 l0 -287 l-95 0 l0 286 l-238 457 l103 0 l186 -374 l185 374 l98 0 Z" /><glyph glyph-name="Z" unicode="Z" d="M513 743 l0 -76 l-375 -587 l373 0 l-11 -80 l-467 0 l0 76 l378 588 l-338 0 l0 79 l440 0 Z" /><glyph glyph-name="bracketleft" unicode="[" d="M288 879 l0 -75 l-127 0 l0 -854 l127 0 l0 -74 l-212 0 l0 1003 l212 0 Z" /><glyph glyph-name="backslash" unicode="\" d="M194 870 l251 -962 l-79 -19 l-249 963 l77 18 Z" /><glyph glyph-name="bracketright" unicode="]" d="M271 879 l0 -1003 l-213 0 l0 74 l128 0 l0 854 l-128 0 l0 75 l213 0 Z" /><glyph glyph-name="asciicircum" unicode="^" d="M330 905 l204 -336 l-98 0 l-147 256 l-145 -256 l-96 0 l203 336 l79 0 Z" /><glyph glyph-name="underscore" unicode="_" d="M22 -148 l0 78 l518 0 l0 -78 l-518 0 Z" /><glyph glyph-name="grave" unicode="`" d="M73 861 l212 -121 l-28 -49 l-225 92 l41 78 Z" /><glyph glyph-name="a" unicode="a" d="M476 131 q0 -37 11.5 -54 q11.5 -17 36.5 -26 l-22 -64 q-43 6 -69 26.5 q-26 20.5 -37 61.5 q-56 -88 -170 -88 q-84 0 -132 47 q-48 47 -48 125 q0 90 64.5 138 q64.5 48 182.5 48 l93 0 l0 45 q0 62 -29.5 89.5 q-29.5 27.5 -92.5 27.5 q-66 0 -154 -32 l-23 67 q104 39 193 39 q196 0 196 -187 l0 -263 ZM246 56 q89 0 140 92 l0 136 l-81 0 q-162 0 -162 -121 q0 -107 103 -107 Z" /><glyph glyph-name="b" unicode="b" d="M356 581 q98 0 154.5 -78 q56.5 -78 56.5 -218 q0 -135 -59.5 -216.5 q-59.5 -81.5 -161.5 -81.5 q-93 0 -155 78 l-8 -65 l-80 0 l0 797 l90 11 l0 -312 q63 85 163 85 ZM324 59 q68 0 106.5 55.5 q38.5 55.5 38.5 170.5 q0 224 -137 224 q-77 0 -139 -91 l0 -280 q55 -79 131 -79 Z" /><glyph glyph-name="c" unicode="c" d="M310 581 q98 0 171 -60 l-45 -58 q-56 42 -123 42 q-72 0 -112 -56.5 q-40 -56.5 -40 -167.5 q0 -216 152 -216 q61 0 125 44 l43 -59 q-75 -63 -171 -63 q-114 0 -180 78 q-66 78 -66 215 q0 137 66.5 219 q66.5 82 179.5 82 Z" /><glyph glyph-name="d" unicode="d" d="M441 808 l90 -11 l0 -797 l-78 0 l-10 80 q-60 -93 -165 -93 q-102 0 -158 79.5 q-56 79.5 -56 215.5 q0 133 59.5 216 q59.5 83 162.5 83 q88 0 155 -71 l0 298 ZM296 59 q47 0 81 22.5 q34 22.5 64 67.5 l0 283 q-59 77 -135 77 q-68 0 -106.5 -57.5 q-38.5 -57.5 -38.5 -168.5 q0 -111 35 -167.5 q35 -56.5 100 -56.5 Z" /><glyph glyph-name="e" unicode="e" d="M528 302 q0 -25 -2 -49 l-366 0 q6 -98 48.5 -144.5 q42.5 -46.5 110.5 -46.5 q75 0 149 50 l40 -54 q-89 -71 -196 -71 q-117 0 -182.5 78 q-65.5 78 -65.5 214 q0 135 63 218.5 q63 83.5 170 83.5 q112 0 171.5 -74 q59.5 -74 59.5 -205 ZM438 320 l0 8 q0 181 -139 181 q-129 0 -139 -189 l278 0 Z" /><glyph glyph-name="f" unicode="f" d="M293 734 q-47 0 -67.5 -20 q-20.5 -20 -20.5 -64 l0 -82 l141 0 l-10 -70 l-131 0 l0 -498 l-91 0 l0 498 l-100 0 l0 70 l100 0 l0 81 q0 72 45.5 115.5 q45.5 43.5 127.5 43.5 q68 0 135 -29 l-29 -66 q-49 21 -100 21 Z" /><glyph glyph-name="g" unicode="g" d="M528 629 l27 -84 q-49 -15 -164 -17 q99 -43 99 -146 q0 -85 -57.5 -138 q-57.5 -53 -156.5 -53 q-40 0 -72 11 q-31 -21 -31 -56 q0 -49 78 -49 l90 0 q86 0 138.5 -43.5 q52.5 -43.5 52.5 -110.5 q0 -83 -66 -127 q-66 -44 -195 -44 q-133 0 -187.5 40.5 q-54.5 40.5 -54.5 129.5 l82 0 q0 -53 34 -76 q34 -23 126 -23 q91 0 130.5 23.5 q39.5 23.5 39.5 69.5 q0 41 -31 63 q-31 22 -87 22 l-90 0 q-70 0 -107 30 q-37 30 -37 75 q0 60 61 100 q-95 50 -95 158 q0 87 61 142 q61 55 155 55 q68 -1 117.5 5.5 q49.5 6.5 75 15.5 q25.5 9 64.5 27 ZM271 515 q-59 0 -91 -36 q-32 -36 -32 -95 q0 -60 33 -96 q33 -36 92 -36 q60 0 92 34.5 q32 34.5 32 97.5 q0 131 -126 131 Z" /><glyph glyph-name="h" unicode="h" d="M366 581 q77 0 120 -46.5 q43 -46.5 43 -127.5 l0 -407 l-91 0 l0 394 q0 63 -24 89.5 q-24 26.5 -69 26.5 q-85 0 -152 -104 l0 -406 l-90 0 l0 796 l90 11 l0 -321 q70 95 173 95 Z" /><glyph glyph-name="i" unicode="i" d="M147 836 q29 0 47 -18 q18 -18 18 -45 q0 -27 -18 -44.5 q-18 -17.5 -47 -17.5 q-28 0 -46 17.5 q-18 17.5 -18 44.5 q0 27 18 45 q18 18 46 18 ZM193 568 l0 -568 l-90 0 l0 568 l90 0 Z" /><glyph glyph-name="j" unicode="j" d="M149 836 q29 0 47 -18 q18 -18 18 -45 q0 -27 -18 -44.5 q-18 -17.5 -47 -17.5 q-28 0 -46 17.5 q-18 17.5 -18 44.5 q0 27 18 45 q18 18 46 18 ZM194 568 l0 -537 q0 -77 -20.5 -126 q-20.5 -49 -54.5 -76 q-34 -27 -98 -56 l-26 66 q62 30 85.5 65.5 q23.5 35.5 23.5 121.5 l0 542 l90 0 Z" /><glyph glyph-name="k" unicode="k" d="M193 808 l0 -808 l-90 0 l0 797 l90 11 ZM518 568 l-216 -252 l240 -316 l-109 0 l-233 310 l216 258 l102 0 Z" /><glyph glyph-name="l" unicode="l" d="M211 -13 q-53 0 -84 31.5 q-31 31.5 -31 89.5 l0 689 l91 11 l0 -698 q0 -47 38 -47 q22 0 37 6 l24 -64 q-36 -18 -75 -18 Z" /><glyph glyph-name="m" unicode="m" d="M669 581 q69 0 111 -47 q42 -47 42 -127 l0 -407 l-91 0 l0 394 q0 116 -84 116 q-44 0 -74.5 -25.5 q-30.5 -25.5 -64.5 -79.5 l0 -405 l-91 0 l0 394 q0 116 -84 116 q-44 0 -75.5 -26 q-31.5 -26 -64.5 -79 l0 -405 l-90 0 l0 568 l77 0 l8 -86 q67 99 167 99 q53 0 90 -27.5 q37 -27.5 53 -77.5 q68 105 171 105 Z" /><glyph glyph-name="n" unicode="n" d="M366 581 q78 0 120.5 -46 q42.5 -46 42.5 -128 l0 -407 l-91 0 l0 394 q0 63 -23 89.5 q-23 26.5 -69 26.5 q-86 0 -153 -105 l0 -405 l-90 0 l0 568 l77 0 l8 -86 q69 99 178 99 Z" /><glyph glyph-name="o" unicode="o" d="M314 581 q119 0 184.5 -79 q65.5 -79 65.5 -217 q0 -135 -66.5 -216.5 q-66.5 -81.5 -184.5 -81.5 q-118 0 -183.5 79.5 q-65.5 79.5 -65.5 216.5 q0 135 66.5 216.5 q66.5 81.5 183.5 81.5 ZM314 508 q-74 0 -113.5 -56.5 q-39.5 -56.5 -39.5 -168.5 q0 -223 152 -223 q154 0 154 225 q0 223 -153 223 Z" /><glyph glyph-name="p" unicode="p" d="M357 581 q107 0 158.5 -77.5 q51.5 -77.5 51.5 -218.5 q0 -134 -58 -216 q-58 -82 -163 -82 q-97 0 -153 68 l0 -272 l-90 -11 l0 796 l77 0 l8 -79 q64 92 169 92 ZM324 62 q145 0 145 223 q0 224 -133 224 q-80 0 -143 -92 l0 -282 q51 -73 131 -73 Z" /><glyph glyph-name="q" unicode="q" d="M454 568 l77 0 l0 -796 l-90 11 l0 293 q-61 -89 -163 -89 q-102 0 -158 79.5 q-56 79.5 -56 215.5 q0 133 59.5 216 q59.5 83 162.5 83 q90 0 161 -78 l7 65 ZM297 59 q47 0 80.5 22.5 q33.5 22.5 63.5 67.5 l0 283 q-59 77 -135 77 q-68 0 -106.5 -57.5 q-38.5 -57.5 -38.5 -168.5 q0 -112 35 -168 q35 -56 101 -56 Z" /><glyph glyph-name="r" unicode="r" d="M343 581 q30 0 57 -6 l-18 -89 q-24 6 -49 6 q-54 0 -87.5 -39 q-33.5 -39 -52.5 -124 l0 -329 l-90 0 l0 568 l77 0 l9 -119 q45 132 154 132 Z" /><glyph glyph-name="s" unicode="s" d="M255 581 q105 0 191 -65 l-40 -57 q-76 50 -148 50 q-50 0 -79.5 -22 q-29.5 -22 -29.5 -58 q0 -36 26.5 -56 q26.5 -20 98.5 -39 q96 -25 141.5 -65 q45.5 -40 45.5 -111 q0 -82 -63.5 -126.5 q-63.5 -44.5 -155.5 -44.5 q-128 0 -212 75 l49 55 q73 -57 161 -57 q57 0 91.5 25 q34.5 25 34.5 67 q0 45 -28 66.5 q-28 21.5 -112 45.5 q-91 24 -131.5 63 q-40.5 39 -40.5 100 q0 67 57.5 110.5 q57.5 43.5 143.5 43.5 Z" /><glyph glyph-name="t" unicode="t" d="M351 86 l35 -61 q-56 -38 -126 -38 q-71 0 -110.5 41 q-39.5 41 -39.5 118 l0 352 l-98 0 l0 70 l98 0 l0 131 l91 9 l0 -140 l137 0 l-10 -70 l-127 0 l0 -348 q0 -45 16.5 -66 q16.5 -21 54.5 -21 q39 0 79 23 Z" /><glyph glyph-name="u" unicode="u" d="M518 568 l0 -568 l-77 0 l-7 92 q-64 -105 -179 -105 q-75 0 -117 45.5 q-42 45.5 -42 128.5 l0 407 l91 0 l0 -397 q0 -60 22 -86 q22 -26 71 -26 q86 0 148 102 l0 407 l90 0 Z" /><glyph glyph-name="v" unicode="v" d="M514 568 l-194 -568 l-110 0 l-198 568 l99 0 l155 -487 l152 487 l96 0 Z" /><glyph glyph-name="w" unicode="w" d="M746 568 l-130 -568 l-125 0 l-104 486 l-108 -486 l-121 0 l-135 568 l91 0 l107 -504 l117 504 l102 0 l112 -504 l108 504 l86 0 Z" /><glyph glyph-name="x" unicode="x" d="M312 305 l199 -305 l-110 0 l-145 246 l-147 -246 l-103 0 l199 300 l-175 268 l106 0 l124 -213 l124 213 l103 0 l-175 -263 Z" /><glyph glyph-name="y" unicode="y" d="M513 568 l-191 -571 q-33 -99 -91 -155 q-58 -56 -165 -70 l-11 71 q82 16 117.5 49.5 q35.5 33.5 62.5 107.5 l-31 0 l-192 568 l97 0 l157 -502 l153 502 l94 0 Z" /><glyph glyph-name="z" unicode="z" d="M432 568 l0 -69 l-301 -422 l303 0 l-11 -77 l-395 0 l0 68 l300 423 l-275 0 l0 77 l379 0 Z" /><glyph glyph-name="braceleft" unicode="{" d="M295 901 l0 -70 q-54 0 -77.5 -17.5 q-23.5 -17.5 -23.5 -58.5 l0 -263 q0 -54 -19 -78 q-19 -24 -62 -37 q43 -13 62 -36.5 q19 -23.5 19 -78.5 l0 -261 q0 -41 23.5 -58.5 q23.5 -17.5 77.5 -17.5 l0 -70 q-101 0 -143.5 36 q-42.5 36 -42.5 119 l0 248 q0 44 -17.5 62.5 q-17.5 18.5 -59.5 18.5 l0 76 q42 0 59.5 19 q17.5 19 17.5 64 l0 248 q0 83 42.5 119 q42.5 36 143.5 36 Z" /><glyph glyph-name="bar" unicode="|" d="M259 870 l0 -980 l-82 0 l0 980 l82 0 Z" /><glyph glyph-name="braceright" unicode="}" d="M54 901 q101 0 143.5 -36 q42.5 -36 42.5 -119 l0 -248 q0 -45 17 -64 q17 -19 59 -19 l0 -76 q-42 0 -59 -18.5 q-17 -18.5 -17 -62.5 l0 -248 q0 -83 -42.5 -119 q-42.5 -36 -143.5 -36 l0 70 q53 0 76.5 17.5 q23.5 17.5 23.5 58.5 l0 261 q0 55 19 78.5 q19 23.5 62 36.5 q-42 13 -61.5 37 q-19.5 24 -19.5 78 l0 263 q0 41 -23.5 58.5 q-23.5 17.5 -76.5 17.5 l0 70 Z" /><glyph glyph-name="asciitilde" unicode="~" d="M342 273 q-34 0 -66.5 16.5 q-32.5 16.5 -57.5 33 q-25 16.5 -43 16.5 q-40 0 -78 -56 l-55 29 q53 99 142 99 q42 0 94 -32 q52 -32 73 -32 q42 0 76 50 l54 -30 q-50 -94 -139 -94 Z" /><glyph glyph-name="Identity.117" unicode="&#x30fb;" d="M171 482 q47 0 79 -32.5 q32 -32.5 32 -80.5 q0 -47 -32 -79 q-32 -32 -79 -32 q-48 0 -80 32.5 q-32 32.5 -32 79.5 q0 48 32 80 q32 32 80 32 Z" /><glyph glyph-name="Oacute" unicode="Ó" d="M460 978 l40 -77 l-229 -85 l-24 49 l213 113 ZM148 653 q85 103 226 103 q141 0 226 -101 q85 -101 85 -285 q0 -181 -85 -282 q-85 -101 -226 -101 q-142 0 -226.5 100 q-84.5 100 -84.5 282 q0 181 85 284 ZM374 678 q-100 0 -156 -75.5 q-56 -75.5 -56 -233.5 q0 -156 56.5 -230 q56.5 -74 155.5 -74 q211 0 211 305 q0 308 -211 308 Z" /><glyph glyph-name="aacute" unicode="á" d="M401 783 l-225 -92 l-28 49 l212 121 l41 -78 ZM476 131 q0 -37 11.5 -54 q11.5 -17 36.5 -26 l-22 -64 q-44 6 -69.5 26 q-25.5 20 -36.5 62 q-58 -88 -170 -88 q-84 0 -132 47 q-48 47 -48 125 q0 90 64.5 138 q64.5 48 182.5 48 l93 0 l0 45 q0 62 -29.5 89.5 q-29.5 27.5 -92.5 27.5 q-66 0 -154 -32 l-23 67 q104 39 193 39 q196 0 196 -187 l0 -263 ZM246 56 q90 0 140 93 l0 135 l-81 0 q-162 0 -162 -121 q0 -107 103 -107 Z" /><glyph glyph-name="adieresis" unicode="ä" d="M123.5 806.5 q16.5 16.5 41.5 16.5 q25 0 41 -16.5 q16 -16.5 16 -40.5 q0 -25 -16 -41.5 q-16 -16.5 -41 -16.5 q-25 0 -41.5 16.5 q-16.5 16.5 -16.5 41.5 q0 24 16.5 40.5 ZM344.5 806.5 q16.5 16.5 41.5 16.5 q25 0 41.5 -16.5 q16.5 -16.5 16.5 -40.5 q0 -25 -16.5 -41.5 q-16.5 -16.5 -41.5 -16.5 q-25 0 -41.5 16.5 q-16.5 16.5 -16.5 41.5 q0 24 16.5 40.5 ZM476 131 q0 -37 11.5 -54 q11.5 -17 36.5 -26 l-22 -64 q-43 6 -69 26.5 q-26 20.5 -37 61.5 q-56 -88 -170 -88 q-84 0 -132 47 q-48 47 -48 125 q0 90 64.5 138 q64.5 48 182.5 48 l93 0 l0 45 q0 62 -29.5 89.5 q-29.5 27.5 -92.5 27.5 q-66 0 -154 -32 l-23 67 q104 39 193 39 q196 0 196 -187 l0 -263 ZM246 56 q89 0 140 92 l0 136 l-81 0 q-162 0 -162 -121 q0 -107 103 -107 Z" /><glyph glyph-name="ccedilla" unicode="ç" d="M481 50 q-69 -58 -151 -62 l0 -51 q52 -4 76.5 -28.5 q24.5 -24.5 24.5 -60.5 q0 -50 -36.5 -77.5 q-36.5 -27.5 -93.5 -27.5 q-59 0 -95 26 l25 52 q34 -18 68 -18 q55 0 55 45 q0 46 -96 46 l11 96 q-97 14 -151 89.5 q-54 75.5 -54 200.5 q0 137 66.5 219 q66.5 82 179.5 82 q98 0 171 -60 l-45 -58 q-56 42 -123 42 q-72 0 -112 -56.5 q-40 -56.5 -40 -167.5 q0 -216 152 -216 q61 0 125 44 l43 -59 Z" /><glyph glyph-name="egrave" unicode="è" d="M225 861 l211 -121 l-28 -49 l-224 92 l41 78 ZM528 302 q0 -25 -2 -49 l-366 0 q6 -98 48.5 -144.5 q42.5 -46.5 110.5 -46.5 q75 0 149 50 l40 -54 q-89 -71 -196 -71 q-117 0 -182.5 78 q-65.5 78 -65.5 214 q0 135 63 218.5 q63 83.5 170 83.5 q112 0 171.5 -74 q59.5 -74 59.5 -205 ZM438 320 l0 8 q0 181 -139 181 q-129 0 -139 -189 l278 0 Z" /><glyph glyph-name="eacute" unicode="é" d="M426 783 l-225 -92 l-28 49 l211 121 l42 -78 ZM528 302 q0 -25 -2 -49 l-366 0 q14 -191 159 -191 q75 0 149 50 l40 -54 q-89 -71 -196 -71 q-117 0 -182.5 78 q-65.5 78 -65.5 214 q0 135 63 218.5 q63 83.5 170 83.5 q112 0 171.5 -74 q59.5 -74 59.5 -205 ZM438 320 l0 8 q0 181 -139 181 q-129 0 -139 -189 l278 0 Z" /><glyph glyph-name="iacute" unicode="í" d="M232 861 l41 -78 l-224 -92 l-28 49 l211 121 ZM193 568 l0 -568 l-90 0 l0 568 l90 0 Z" /><glyph glyph-name="odieresis" unicode="ö" d="M203 823 q24 0 40.5 -16.5 q16.5 -16.5 16.5 -40.5 q0 -25 -16.5 -41.5 q-16.5 -16.5 -40.5 -16.5 q-25 0 -41.5 16.5 q-16.5 16.5 -16.5 41.5 q0 24 16.5 40.5 q16.5 16.5 41.5 16.5 ZM423 823 q25 0 42 -16.5 q17 -16.5 17 -40.5 q0 -25 -17 -41.5 q-17 -16.5 -42 -16.5 q-24 0 -40.5 16.5 q-16.5 16.5 -16.5 41.5 q0 24 16.5 40.5 q16.5 16.5 40.5 16.5 ZM314 581 q119 0 184.5 -79 q65.5 -79 65.5 -217 q0 -135 -66.5 -216.5 q-66.5 -81.5 -184.5 -81.5 q-118 0 -183.5 79.5 q-65.5 79.5 -65.5 216.5 q0 135 66.5 216.5 q66.5 81.5 183.5 81.5 ZM314 508 q-74 0 -113.5 -56.5 q-39.5 -56.5 -39.5 -168.5 q0 -223 152 -223 q154 0 154 225 q0 223 -153 223 Z" /><glyph glyph-name="oslash" unicode="ø" d="M444 549 q120 -72 120 -264 q0 -135 -66.5 -216.5 q-66.5 -81.5 -184.5 -81.5 q-28 0 -58 5 l-42 -131 l-74 21 l46 137 q-121 73 -121 264 q0 135 66.5 216.5 q66.5 81.5 183.5 81.5 q27 0 59 -5 l42 130 l74 -21 l-45 -136 ZM314 508 q-74 0 -113.5 -56.5 q-39.5 -56.5 -39.5 -168.5 q0 -147 58 -194 l137 414 q-16 5 -42 5 ZM313 60 q154 0 154 225 q0 146 -58 193 l-137 -414 q26 -4 41 -4 Z" /><glyph glyph-name="udieresis" unicode="ü" d="M198 823 q24 0 40.5 -16.5 q16.5 -16.5 16.5 -40.5 q0 -25 -16.5 -41.5 q-16.5 -16.5 -40.5 -16.5 q-25 0 -42 16.5 q-17 16.5 -17 41.5 q0 24 17 40.5 q17 16.5 42 16.5 ZM418 823 q25 0 41.5 -16.5 q16.5 -16.5 16.5 -40.5 q0 -25 -16.5 -41.5 q-16.5 -16.5 -41.5 -16.5 q-24 0 -40.5 16.5 q-16.5 16.5 -16.5 41.5 q0 24 16.5 40.5 q16.5 16.5 40.5 16.5 ZM518 568 l0 -568 l-77 0 l-7 92 q-64 -105 -179 -105 q-75 0 -117 45.5 q-42 45.5 -42 128.5 l0 407 l91 0 l0 -397 q0 -60 22 -86 q22 -26 71 -26 q86 0 148 102 l0 407 l90 0 Z" /><glyph glyph-name="yacute" unicode="ý" d="M347 861 l41 -78 l-225 -92 l-28 49 l212 121 ZM513 568 l-191 -571 q-33 -99 -91 -155 q-58 -56 -165 -70 l-11 71 q82 16 117.5 49.5 q35.5 33.5 62.5 107.5 l-31 0 l-192 568 l97 0 l157 -502 l153 502 l94 0 Z" /><glyph glyph-name="Identity.305" unicode="&#x410;" d="M509 0 l-58 190 l-289 0 l-58 -190 l-95 0 l240 743 l119 0 l240 -743 l-99 0 ZM186 267 l242 0 l-121 398 l-121 -398 Z" /><glyph glyph-name="Identity.309" unicode="&#x414;" d="M546 78 l60 0 l0 -239 l-74 0 l-16 161 l-437 0 l-15 -161 l-74 0 l0 239 l50 0 q40 40 58 116 q18 76 50 319 l28 230 l370 0 l0 -665 ZM453 78 l0 587 l-195 0 l-17 -155 q-27 -229 -48.5 -310 q-21.5 -81 -72.5 -122 l333 0 Z" /><glyph glyph-name="Identity.320" unicode="&#x41f;" d="M616 743 l0 -743 l-94 0 l0 663 l-318 0 l0 -663 l-93 0 l0 743 l505 0 Z" /><glyph glyph-name="Identity.321" unicode="&#x420;" d="M301 743 q136 0 210.5 -57 q74.5 -57 74.5 -171 q0 -121 -77.5 -180 q-77.5 -59 -207.5 -59 l-97 0 l0 -276 l-93 0 l0 743 l190 0 ZM298 351 q92 0 140.5 36 q48.5 36 48.5 127 q0 156 -187 156 l-96 0 l0 -319 l94 0 Z" /><glyph glyph-name="Identity.323" unicode="&#x422;" d="M542 743 l-11 -80 l-208 0 l0 -663 l-93 0 l0 663 l-214 0 l0 80 l526 0 Z" /><glyph glyph-name="Identity.328" unicode="&#x427;" d="M451 743 l94 0 l0 -743 l-94 0 l0 303 q-47 -36 -90 -52 q-43 -16 -100 -16 q-98 0 -157.5 60.5 q-59.5 60.5 -59.5 161.5 l0 286 l94 0 l0 -280 q0 -147 146 -147 q101 0 167 66 l0 361 Z" /><glyph glyph-name="Identity.337" unicode="&#x430;" d="M476 131 q0 -37 11.5 -54 q11.5 -17 36.5 -26 l-22 -64 q-43 6 -69 26.5 q-26 20.5 -37 61.5 q-56 -88 -170 -88 q-84 0 -132 47 q-48 47 -48 125 q0 90 64.5 138 q64.5 48 182.5 48 l93 0 l0 45 q0 62 -29.5 89.5 q-29.5 27.5 -92.5 27.5 q-66 0 -154 -32 l-23 67 q104 39 193 39 q196 0 196 -187 l0 -263 ZM246 56 q89 0 140 92 l0 136 l-81 0 q-162 0 -162 -121 q0 -107 103 -107 Z" /><glyph glyph-name="Identity.339" unicode="&#x432;" d="M395 308 q144 -14 144 -134 q0 -88 -64 -131 q-64 -43 -173 -43 l-199 0 l0 561 q104 20 183 20 q104 0 164 -40 q60 -40 60 -113 q0 -100 -115 -120 ZM287 511 q-44 0 -94 -8 l0 -168 l114 0 q110 0 110 88 q0 88 -130 88 ZM302 71 q142 0 142 104 q0 49 -31.5 71 q-31.5 22 -103.5 22 l-116 0 l0 -197 l109 0 Z" /><glyph glyph-name="Identity.341" unicode="&#x434;" d="M496 73 l58 0 l0 -234 l-74 0 l-16 161 l-373 0 l-16 -161 l-74 0 l0 234 l39 0 q27 18 40.5 37 q13.5 19 28 78.5 q14.5 59.5 22.5 166.5 l15 213 l350 0 l0 -495 ZM405 73 l0 423 l-177 0 l-10 -129 q-10 -149 -29 -204.5 q-19 -55.5 -67 -89.5 l283 0 Z" /><glyph glyph-name="Identity.342" unicode="&#x435;" d="M528 302 q0 -25 -2 -49 l-366 0 q6 -98 48.5 -144.5 q42.5 -46.5 110.5 -46.5 q75 0 149 50 l40 -54 q-89 -71 -196 -71 q-117 0 -182.5 78 q-65.5 78 -65.5 214 q0 135 63 218.5 q63 83.5 170 83.5 q112 0 171.5 -74 q59.5 -74 59.5 -205 ZM438 320 l0 8 q0 181 -139 181 q-129 0 -139 -189 l278 0 Z" /><glyph glyph-name="Identity.343" unicode="&#x436;" d="M731 568 l-142 -266 l164 -302 l-100 0 l-139 261 l-80 0 l0 -261 l-86 0 l0 261 l-80 0 l-139 -261 l-99 0 l164 302 l-143 266 l95 0 l121 -235 l81 0 l0 235 l86 0 l0 -235 l81 0 l122 235 l94 0 Z" /><glyph glyph-name="Identity.344" unicode="&#x437;" d="M242 581 q83 0 141.5 -40.5 q58.5 -40.5 58.5 -111.5 q0 -49 -28 -79.5 q-28 -30.5 -87 -46.5 q72 -11 108.5 -43 q36.5 -32 36.5 -94 q0 -88 -66.5 -133.5 q-66.5 -45.5 -170.5 -45.5 q-127 0 -217 72 l48 57 q75 -56 166 -56 q143 0 143 107 q0 94 -154 94 l-73 0 l6 72 l58 0 q61 0 99 22.5 q38 22.5 38 68.5 q0 44 -32 65 q-32 21 -85 21 q-78 0 -149 -48 l-44 55 q87 64 203 64 Z" /><glyph glyph-name="Identity.345" unicode="&#x438;" d="M538 568 l0 -568 l-90 0 l0 279 q0 98 11 186 l-249 -465 l-107 0 l0 568 l89 0 l0 -274 q0 -103 -9 -188 l246 462 l109 0 Z" /><glyph glyph-name="Identity.346" unicode="&#x439;" d="M319 697 q-64 0 -107 32.5 q-43 32.5 -50 88.5 l60 13 q22 -64 97 -64 q78 0 99 64 l60 -13 q-6 -56 -50 -88.5 q-44 -32.5 -109 -32.5 ZM538 568 l0 -568 l-90 0 l0 279 q0 98 11 186 l-249 -465 l-107 0 l0 568 l89 0 l0 -274 q0 -103 -9 -188 l246 462 l109 0 Z" /><glyph glyph-name="Identity.348" unicode="&#x43b;" d="M156 568 l359 0 l0 -568 l-91 0 l0 494 l-186 0 l-17 -195 q-14 -169 -41.5 -226.5 q-27.5 -57.5 -114.5 -84.5 l-23 72 q51 18 65 58.5 q14 40.5 26 190.5 l23 259 Z" /><glyph glyph-name="Identity.350" unicode="&#x43d;" d="M441 0 l0 254 l-248 0 l0 -254 l-90 0 l0 568 l90 0 l0 -241 l248 0 l0 241 l90 0 l0 -568 l-90 0 Z" /><glyph glyph-name="Identity.351" unicode="&#x43e;" d="M314 581 q119 0 184.5 -79 q65.5 -79 65.5 -217 q0 -135 -66.5 -216.5 q-66.5 -81.5 -184.5 -81.5 q-118 0 -183.5 79.5 q-65.5 79.5 -65.5 216.5 q0 135 66.5 216.5 q66.5 81.5 183.5 81.5 ZM314 508 q-74 0 -113.5 -56.5 q-39.5 -56.5 -39.5 -168.5 q0 -223 152 -223 q154 0 154 225 q0 223 -153 223 Z" /><glyph glyph-name="Identity.352" unicode="&#x43f;" d="M437 0 l0 494 l-244 0 l0 -494 l-90 0 l0 568 l425 0 l0 -568 l-91 0 Z" /><glyph glyph-name="Identity.353" unicode="&#x440;" d="M357 581 q107 0 158.5 -77.5 q51.5 -77.5 51.5 -218.5 q0 -134 -58 -216 q-58 -82 -163 -82 q-97 0 -153 68 l0 -272 l-90 -11 l0 796 l77 0 l8 -79 q64 92 169 92 ZM324 62 q145 0 145 223 q0 224 -133 224 q-80 0 -143 -92 l0 -282 q51 -73 131 -73 Z" /><glyph glyph-name="Identity.354" unicode="&#x441;" d="M310 581 q98 0 171 -60 l-45 -58 q-56 42 -123 42 q-72 0 -112 -56.5 q-40 -56.5 -40 -167.5 q0 -216 152 -216 q61 0 125 44 l43 -59 q-75 -63 -171 -63 q-114 0 -180 78 q-66 78 -66 215 q0 137 66.5 219 q66.5 82 179.5 82 Z" /><glyph glyph-name="Identity.355" unicode="&#x442;" d="M481 568 l-11 -74 l-184 0 l0 -494 l-91 0 l0 494 l-189 0 l0 74 l475 0 Z" /><glyph glyph-name="Identity.357" unicode="&#x444;" d="M612 581 q102 0 146 -77 q44 -77 44 -219 q0 -137 -50.5 -217.5 q-50.5 -80.5 -142.5 -80.5 q-80 0 -133 73 l0 -277 l-86 -11 l0 288 q-53 -73 -141 -73 q-86 0 -135.5 81 q-49.5 81 -49.5 217 q0 296 187 296 q87 0 139 -67 l0 294 l86 -11 l0 -284 q50 68 136 68 ZM269 59 q72 0 121 77 l0 302 q-49 71 -121 71 q-108 0 -108 -224 q0 -111 28 -168.5 q28 -57.5 80 -57.5 ZM594 59 q53 0 82 57.5 q29 57.5 29 168.5 q0 224 -111 224 q-72 0 -118 -73 l0 -302 q49 -75 118 -75 Z" /><glyph glyph-name="Identity.358" unicode="&#x445;" d="M312 305 l199 -305 l-110 0 l-145 246 l-147 -246 l-103 0 l199 300 l-175 268 l106 0 l124 -213 l124 213 l103 0 l-175 -263 Z" /><glyph glyph-name="Identity.359" unicode="&#x446;" d="M522 73 l86 0 l0 -234 l-73 0 l-16 161 l-416 0 l0 568 l90 0 l0 -493 l238 0 l0 493 l91 0 l0 -495 Z" /><glyph glyph-name="Identity.362" unicode="&#x449;" d="M752 73 l86 0 l0 -234 l-73 0 l-17 161 l-645 0 l0 568 l88 0 l0 -495 l192 0 l0 495 l88 0 l0 -495 l192 0 l0 495 l89 0 l0 -495 Z" /><glyph glyph-name="Identity.365" unicode="&#x44c;" d="M274 383 q239 0 239 -190 q0 -95 -63.5 -144 q-63.5 -49 -157.5 -49 l-189 0 l0 568 l90 0 l0 -185 l81 0 ZM283 71 q133 0 133 122 q0 61 -32 90.5 q-32 29.5 -110 29.5 l-81 0 l0 -242 l90 0 Z" /><glyph glyph-name="Identity.462" unicode="&#x3000;" d="" /><glyph glyph-name="endash" unicode="&#x2013;" d="M37 299 l0 78 l488 0 l0 -78 l-488 0 Z" /><glyph glyph-name="emdash" unicode="&#x2014;" d="M46 249 l0 64 l802 0 l0 -64 l-802 0 Z" /><glyph glyph-name="quoteleft" unicode="&#x2018;" d="M952 809 q-40 -20 -64.5 -54.5 q-24.5 -34.5 -24.5 -68.5 q10 8 27 8 q28 0 45.5 -18.5 q17.5 -18.5 17.5 -45.5 q0 -25 -18 -45 q-18 -20 -50 -20 q-33 0 -56 27 q-23 27 -23 68 q0 63 36.5 113 q36.5 50 88.5 74 l21 -38 Z" /><glyph glyph-name="quoteright" unicode="&#x2019;" d="M48 599 q40 20 64.5 54.5 q24.5 34.5 24.5 68.5 q-12 -8 -27 -8 q-28 0 -45.5 18.5 q-17.5 18.5 -17.5 45.5 q0 26 18 45.5 q18 19.5 50 19.5 q33 0 56 -27 q23 -27 23 -68 q0 -63 -36.5 -112.5 q-36.5 -49.5 -88.5 -74.5 l-21 38 Z" /><glyph glyph-name="quotedblleft" unicode="&#x201c;" d="M770 809 q-40 -20 -64.5 -54.5 q-24.5 -34.5 -24.5 -68.5 q10 8 28 8 q27 0 44.5 -18.5 q17.5 -18.5 17.5 -45.5 q0 -25 -18 -45 q-18 -20 -50 -20 q-33 0 -55.5 27 q-22.5 27 -22.5 68 q0 63 36 113.5 q36 50.5 88 73.5 l21 -38 ZM962 809 q-40 -20 -64.5 -54.5 q-24.5 -34.5 -24.5 -68.5 q10 8 27 8 q28 0 45.5 -18.5 q17.5 -18.5 17.5 -45.5 q0 -25 -18 -45 q-18 -20 -50 -20 q-33 0 -56 27 q-23 27 -23 68 q0 63 36.5 113 q36.5 50 88.5 74 l21 -38 Z" /><glyph glyph-name="quotedblright" unicode="&#x201d;" d="M230 599 q40 20 64.5 54.5 q24.5 34.5 24.5 68.5 q-12 -8 -28 -8 q-27 0 -44.5 18.5 q-17.5 18.5 -17.5 45.5 q0 26 18 45.5 q18 19.5 50 19.5 q33 0 56 -27 q23 -27 23 -68 q0 -63 -36.5 -112.5 q-36.5 -49.5 -88.5 -74.5 l-21 38 ZM38 599 q40 20 64.5 54.5 q24.5 34.5 24.5 68.5 q-12 -8 -27 -8 q-28 0 -45.5 18.5 q-17.5 18.5 -17.5 45.5 q0 26 18 45.5 q18 19.5 50 19.5 q33 0 56 -27 q23 -27 23 -68 q0 -63 -36.5 -112.5 q-36.5 -49.5 -88.5 -74.5 l-21 38 Z" /><glyph glyph-name="radical" unicode="&#x221a;" d="M767 916 l0 -77 l-194 0 l-238 -839 l-103 0 l-181 494 l80 25 l150 -425 l228 822 l258 0 Z" /><glyph glyph-name="approxequal" unicode="&#x2248;" d="M342 379 q-34 0 -66.5 16.5 q-32.5 16.5 -57.5 33 q-25 16.5 -43 16.5 q-39 0 -78 -56 l-55 28 q52 99 142 99 q42 0 94 -32.5 q52 -32.5 73 -32.5 q41 0 76 51 l54 -29 q-49 -94 -139 -94 ZM342 179 q-34 0 -66.5 16.5 q-32.5 16.5 -57.5 33.5 q-25 17 -43 17 q-39 0 -78 -57 l-55 29 q53 100 142 100 q42 0 94 -32.5 q52 -32.5 73 -32.5 q42 0 76 50 l54 -30 q-50 -94 -139 -94 Z" /><glyph glyph-name="Identity.746" unicode="&#x5df3;" d="M934 189 q-7 -64 -22 -104 q-15 -40 -47.5 -71.5 q-32.5 -31.5 -89.5 -45 q-57 -13.5 -144 -13.5 l-183 0 q-120 0 -186.5 19 q-66.5 19 -91.5 56 q-25 37 -25 103 l0 660 l680 0 l0 -411 l-601 0 l0 -251 q0 -38 14.5 -57 q14.5 -19 62 -29.5 q47.5 -10.5 143.5 -10.5 l185 0 q92 0 139 19 q47 19 62 51.5 q15 32.5 22 99.5 l82 -15 ZM224 459 l521 0 l0 255 l-521 0 l0 -255 Z" /><glyph glyph-name="Identity.758" unicode="&#x6bcd;" d="M663 -68 q-46 -6 -153 3 l-1 70 q78 -5 124 -5 q28 0 40 20 q15 17 31 81 l-573 0 q16 76 36 204 l2 11 q0 1 1 3 l0 2 l2 11 l1 11 q1 1 1 5 l2 11 q2 10 5.5 32.5 q3.5 22.5 5.5 33.5 l-118 0 l0 74 l131 0 q4 28 12 86 l1 10 l1 10 q2 10 2 16 l2 10 q0 7 1 10 l1 10 q11 103 18 151 l598 0 l0 -44 q0 -9 -0.5 -27 q-0.5 -18 -1.5 -27 l-1 -11 q-2 -36 -7 -101.5 q-5 -65.5 -6 -92.5 l111 0 l0 -74 l-115 0 q-7 -110 -21 -251 l107 0 l0 -73 l-118 0 q-16 -93 -37 -120 q-31 -44 -84 -49 ZM278 499 l467 0 q3 42 12 229 l-449 0 q-6 -48 -15 -121 l-3 -20 l-2 -15 q-2 -13 -5.5 -37.5 q-3.5 -24.5 -4.5 -35.5 ZM638 575 l-49 -56 q-27 28 -85 67 q-58 39 -110 66 l46 48 q52 -26 111.5 -62.5 q59.5 -36.5 86.5 -62.5 ZM226 174 l492 0 q9 57 20 228 l0 12 q1 4 1 11 l-474 0 q-34 -228 -39 -251 ZM617 244 l-52 -53 q-40 33 -119 91 l-9 6 q-54 39 -82 57 l49 47 q28 -17 78 -51 l9 -6 q87 -60 126 -91 Z" /><glyph glyph-name="Identity.759" unicode="&#x6c11;" d="M478 47 q-321 -95 -353 -121 l-42 71 q15 7 30 28.5 q15 21.5 15 47.5 l0 727 l689 0 l0 -288 l-285 0 q4 -66 22 -145 l337 0 l0 -74 l-316 0 q38 -115 98.5 -194.5 q60.5 -79.5 119.5 -78.5 q38 1 46 141 l72 -13 q-9 -109 -38.5 -158 q-29.5 -49 -81.5 -49 q-90 -1 -171 101.5 q-81 102.5 -124 250.5 l-289 0 l0 -252 l261 80 q2 -45 10 -74 ZM207 588 l533 0 l0 135 l-533 0 l0 -135 ZM207 367 l268 0 q-11 59 -16 145 l-252 0 l0 -145 Z" /><glyph glyph-name="Identity.795" unicode="&#x89c1;" d="M271 715 l0 -485 l-81 0 l0 566 l617 0 l0 -566 l-82 0 l0 485 l-454 0 ZM533 635 q-2 -83 -7 -145 q-5 -62 -17.5 -131.5 q-12.5 -69.5 -32 -120.5 q-19.5 -51 -52.5 -103 q-33 -52 -77.5 -89 q-44.5 -37 -108.5 -68.5 q-64 -31.5 -144 -51.5 l-24 74 q56 13 102.5 32 q46.5 19 82.5 41.5 q36 22.5 64 53.5 q28 31 47.5 62 q19.5 31 34 73 q14.5 42 23.5 80 q9 38 14.5 90.5 q5.5 52.5 8 97 q2.5 44.5 3.5 105.5 l83 0 ZM935 169 q-7 -120 -42 -167 q-35 -47 -128 -47 l-88 0 q-96 0 -130 25 q-34 25 -34 85 l0 257 l79 0 l0 -256 q0 -23 13.5 -29.5 q13.5 -6.5 74.5 -6.5 l81 0 q62 0 79.5 29.5 q17.5 29.5 20.5 119.5 l74 -10 Z" /><glyph glyph-name="Identity.796" unicode="&#x89d2;" d="M261 168 q-41 -171 -123 -248 q-8 11 -29 31 q-21 20 -31 26 q47 48 77 125.5 q30 77.5 39 143 q9 65.5 9 131.5 l0 175 q-22 -22 -78 -66 l-50 63 q86 60 160 143 q74 83 111 157 l80 -16 q-3 -7 -10.5 -25 q-7.5 -18 -13.5 -26 l262 0 l9 8 l51 -36 q-45 -83 -93 -128 l232 0 l0 -595 q0 -66 -44 -84 q-38 -14 -181 -14 l-6 78 q10 0 32 -0.5 q22 -0.5 33 -0.5 l11 0 q15 0 33.5 0.5 q18.5 0.5 19.5 0.5 q23 1 23 21 l0 136 l-223 0 l0 -216 l-74 0 l0 216 l-226 0 ZM279 626 l267 0 q33 36 69 93 l-255 0 q-31 -43 -81 -93 ZM561 436 l223 0 l0 118 l-223 0 l0 -118 ZM280 436 l207 0 l0 118 l-207 0 l0 -118 ZM272 240 l215 0 l0 126 l-207 0 q0 -59 -8 -126 ZM561 240 l223 0 l0 126 l-223 0 l0 -126 Z" /><glyph glyph-name="Identity.799" unicode="&#x8d1d;" d="M268 724 l0 -511 l-78 0 l0 586 l625 0 l0 -584 l-81 0 l0 509 l-466 0 ZM543 450 q0 -53 -9 -102.5 q-9 -49.5 -37 -111.5 q-28 -62 -73.5 -115 q-45.5 -53 -125.5 -105.5 q-80 -52.5 -187 -89.5 l-32 73 q382 123 382 452 l0 212 l82 0 l0 -213 ZM903 -3 l-47 -64 q-80 57 -171 109 l-10 6 q-75 44 -149 77 l42 55 q76 -31 176 -86.5 q100 -55.5 159 -96.5 Z" /><glyph glyph-name="Identity.801" unicode="&#x8f66;" d="M584 126 l0 -198 l-78 0 l0 198 l-432 0 l0 79 l432 0 l0 149 l-216 0 q-25 0 -49.5 -2 q-24.5 -2 -36.5 -4 l-13 -2 l-35 75 q24 6 66 78 q28 40 78 135 l-211 0 l0 75 l248 0 q11 27 26.5 79.5 q15.5 52.5 20.5 65.5 l88 -27 q-39 -89 -55 -118 l494 0 l0 -75 l-532 0 l-12 -24 l-5 -9 q-56 -114 -96 -172 l240 0 l0 152 l78 0 l0 -152 l262 0 l0 -75 l-262 0 l0 -149 l345 0 l0 -79 l-345 0 Z" /><glyph glyph-name="Identity.809" unicode="&#x957f;" d="M575 41 q-275 -73 -320 -103 l-38 68 q42 21 42 64 l0 323 l-191 0 l0 76 l191 0 l0 374 l80 0 l0 -374 l592 0 l0 -76 l-370 0 q53 -121 157 -221.5 q104 -100.5 226 -139.5 l-34 -75 q-147 52 -258 169 q-111 117 -169 267 l-144 0 l0 -339 l228 62 q0 -43 8 -75 ZM832 793 q-66 -78 -172.5 -155.5 q-106.5 -77.5 -212.5 -128.5 l-42 73 q91 38 190.5 106.5 q99.5 68.5 158.5 138.5 l78 -34 Z" /><glyph glyph-name="Identity.810" unicode="&#x95e8;" d="M346 672 l-66 -46 q-35 63 -142 186 l62 38 q28 -30 64 -72 l7 -9 q50 -58 75 -97 ZM850 -56 q-41 -15 -204 -12 l-5 76 q39 -1 90.5 -1.5 q51.5 -0.5 63.5 0.5 q25 1 25 27 l0 702 l-462 0 l0 78 l541 0 l0 -780 q0 -72 -49 -90 ZM185 657 l0 -728 l-80 0 l0 728 l80 0 Z" /><glyph glyph-name="Identity.814" unicode="&#x9752;" d="M928 537 l0 -64 l-856 0 l0 64 l389 0 l0 65 l-290 0 l0 62 l290 0 l0 56 l-324 0 l0 64 l324 0 l0 65 l74 0 l0 -65 l339 0 l0 -64 l-339 0 l0 -56 l297 0 l0 -62 l-297 0 l0 -65 l393 0 ZM287 100 l0 -174 l-76 0 l0 492 l586 0 l0 -402 q0 -60 -42 -73 q-31 -12 -156 -12 l-14 0 l-7 65 l109 0 l11 0 q21 0 21 20 l0 84 l-432 0 ZM287 287 l432 0 l0 68 l-432 0 l0 -68 ZM287 158 l432 0 l0 71 l-432 0 l0 -71 Z" /><glyph glyph-name="Identity.815" unicode="&#x97e6;" d="M528 271 l0 -341 l-79 0 l0 341 l-356 0 l0 74 l356 0 l0 124 l-292 0 l0 73 l292 0 l0 118 l-340 0 l0 76 l340 0 l0 110 l79 0 l0 -110 l358 0 l0 -76 l-358 0 l0 -118 l311 0 l0 -73 l-311 0 l0 -124 l387 0 q-2 -25 -4 -35 q-21 -232 -57 -268 q-24 -27 -68 -30 q-56 -2 -132 3 l-1 73 q62 -5 104 -3 q24 0 33 9 q22 21 41 177 l-303 0 Z" /><glyph glyph-name="Identity.816" unicode="&#x9875;" d="M263 540 l0 -396 l-79 0 l0 469 l222 0 q20 42 42 109 l-362 0 l0 74 l837 0 l0 -74 l-389 0 q-18 -45 -52 -109 l345 0 l0 -467 l-83 0 l0 394 l-481 0 ZM543 301 q0 -42 -10 -80.5 q-10 -38.5 -40 -83 q-30 -44.5 -77.5 -81.5 q-47.5 -37 -129 -72 q-81.5 -35 -188.5 -58 l-23 70 q387 78 387 306 l0 182 l81 0 l0 -183 ZM919 -11 l-49 -64 q-60 46 -158 107.5 q-98 61.5 -171 94.5 l44 55 q74 -33 174.5 -92 q100.5 -59 159.5 -101 Z" /><glyph glyph-name="Identity.817" unicode="&#x98ce;" d="M251 725 l0 -216 q0 -90 -10.5 -187.5 q-10.5 -97.5 -42 -211.5 q-31.5 -114 -80.5 -182 l-69 51 q68 94 95 240.5 q27 146.5 27 289.5 l0 294 l652 0 q0 -35 -0.5 -100.5 q-0.5 -65.5 -0.5 -96.5 l0 -22 q1 -280 13.5 -421 q12.5 -141 47.5 -141 q17 0 22 138 l54 -16 q-6 -107 -25 -155.5 q-19 -48.5 -56 -48.5 q-22 0 -40 13 q-18 13 -31 42.5 q-13 29.5 -23 65 q-10 35.5 -16.5 92.5 q-6.5 57 -10.5 111.5 q-4 54.5 -6 135.5 q-2 81 -3 152.5 q-1 71.5 -1 172.5 l-496 0 ZM513 300 q-18 -28 -28 -42 l-5 -9 q-100 -149 -175 -205 l-52 67 q92 62 211 252 q-13 19 -41 57 l-6 8 q-6 8 -9 13 l-15 20 l-6 9 l-6 8 q-55 75 -89 115 l65 34 q42 -49 106 -135 l6 -8 q6 -9 19 -26.5 q13 -17.5 20 -25.5 q35 65 90 235 l70 -19 q-3 -11 -10.5 -33 q-7.5 -22 -10.5 -31 l-4 -9 q-8 -26 -13 -38 l-4 -10 l-3 -9 q-33 -89 -67 -149 q75 -95 171 -265 l-73 -42 q-7 12 -27.5 49 q-20.5 37 -35 62.5 q-14.5 25.5 -36.5 61.5 q-22 36 -42 65 Z" /><glyph glyph-name="Identity.818" unicode="&#x98de;" d="M949 192 q-8 -121 -33.5 -177 q-25.5 -56 -74.5 -56 q-71 0 -121.5 56 q-50.5 56 -79 163 q-28.5 107 -42.5 236 q-14 129 -18 302 l-501 0 l0 76 l580 0 q0 -33 -2 -97 l-1 -10 q0 -10 -1 -15 l0 -10 q-4 -90 -2 -128 q117 97 195 184 l72 -34 q-101 -106 -222 -200 q69 -37 77 -42 l10 -6 q109 -62 147 -95 l-44 -63 q-72 67 -226 153 q17 -174 63.5 -281 q46.5 -107 119.5 -107 q34 0 42 166 l62 -15 Z" /><glyph glyph-name="Identity.819" unicode="&#x98df;" d="M867 -14 l-55 -55 q-89 70 -217 151 l-9 5 q-78 50 -150 84 l51 48 q31 -13 78 -42 l8 -5 q1 0 2.5 -1 q1.5 -1 2.5 -2 l9 -5 q13 -8 39 -22 q49 27 134 90 l-458 0 l0 -199 l234 47 q-5 -46 0 -70 q-273 -56 -309 -78 l-33 67 q12 6 23 24 q11 18 11 43 l0 478 q-53 -31 -137 -60 l-30 72 q125 40 247.5 122 q122.5 82 184.5 175 l72 -34 q-3 -4 -10.5 -13.5 q-7.5 -9.5 -10.5 -13.5 q65 -69 182 -130.5 q117 -61.5 224 -88.5 l-29 -75 q-88 27 -153 59 l0 -314 q3 2 16 13 q13 11 18 15 l58 -45 q-24 -19 -82 -61 l-9 -6 q-33 -24 -82 -53 q12 -7 36 -23 l10 -6 q78 -50 134 -91 ZM300 585 l176 0 q-28 54 -42 72 l60 28 q38 -47 59 -100 l165 0 q-126 67 -217 161 q-95 -102 -201 -161 ZM302 445 l394 0 l0 76 l-394 0 l0 -76 ZM302 298 l394 0 l0 85 l-394 0 l0 -85 Z" /><glyph glyph-name="Identity.824" unicode="&#x9a6c;" d="M736 -69 q-57 -4 -160 2 l-1 76 q72 -6 135 -6 q29 0 41 12 q42 37 69 328 l-615 0 q11 78 18 145 l1 11 q9 80 14 153 l79 -6 q-4 -48 -9 -93 l-1 -10 q0 -3 -0.5 -8 q-0.5 -5 -0.5 -8 l-1 -10 q-10 -96 -11 -102 l363 0 q1 11 4.5 43.5 q3.5 32.5 5.5 51.5 l2 11 q0 2 0.5 7.5 q0.5 5.5 0.5 8.5 l1 10 q0 1 0.5 3 q0.5 2 0.5 3 l1 10 q9 104 15 152 l-542 0 l0 76 l557 0 l12 4 l58 -5 q-7 -92 -20 -198 l-1 -16 q-2 -10 -2 -16 l-2 -10 l0 -5 l-2 -11 q-10 -80 -16 -119 l177 0 q-2 -25 -4 -36 q-32 -362 -85 -414 q-29 -31 -82 -34 ZM702 223 l0 -77 l-632 0 l0 77 l632 0 Z" /><glyph glyph-name="Identity.825" unicode="&#x9aa8;" d="M163 488 l0 -125 l-72 0 l0 194 l141 0 l0 251 l535 0 l0 -251 l142 0 l0 -194 l-75 0 l0 125 l-671 0 ZM562 557 l129 0 l0 186 l-388 0 l0 -53 l259 0 l0 -133 ZM303 557 l191 0 l0 77 l-191 0 l0 -77 ZM294 97 l0 -168 l-73 0 l0 505 l559 0 l0 -421 q0 -57 -39 -73 q-35 -11 -160 -11 l-5 66 q43 -1 109 -1 q20 1 20 21 l0 82 l-411 0 ZM294 295 l411 0 l0 73 l-411 0 l0 -73 ZM294 157 l411 0 l0 78 l-411 0 l0 -78 Z" /><glyph glyph-name="Identity.826" unicode="&#x9b3c;" d="M484 297 q-43 -107 -135 -204 q-92 -97 -239 -163 l-38 67 q134 58 223 153 q89 95 127 192 l-256 0 l0 412 l234 0 q26 43 48 98 l83 -20 q-26 -47 -50 -78 l342 0 l0 -412 l-323 0 q-3 -11 -11 -33 l74 0 l0 -255 q0 -23 16.5 -29.5 q16.5 -6.5 88.5 -6.5 l100 0 q67 0 87.5 21.5 q20.5 21.5 22.5 81.5 l71 -11 q-8 -91 -44 -126.5 q-36 -35.5 -133 -35.5 l-103 0 q-107 0 -146 24.5 q-39 24.5 -39 81.5 l0 243 ZM531 584 l212 0 l0 102 l-212 0 l0 -102 ZM243 584 l215 0 l0 102 l-215 0 l0 -102 ZM518 410 l225 0 l0 108 l-214 0 q-5 -77 -11 -108 ZM243 410 l197 0 q15 70 17 108 l-214 0 l0 -108 ZM811 126 q-170 -27 -208 -42 l-19 63 q6 1 33 30 q1 3 25.5 59.5 q24.5 56.5 33.5 90.5 l66 -20 q-20 -50 -74 -149 l119 18 q-25 44 -40 63 l49 20 q24 -32 48 -78.5 q24 -46.5 31 -73.5 l-49 -22 q-2 11 -15 41 Z" /><glyph glyph-name="Identity.827" unicode="&#x9c7c;" d="M837 596 l0 -449 l-657 0 l0 393 q-35 -29 -64 -49 l-47 66 q89 58 166.5 140.5 q77.5 82.5 114.5 153.5 l79 -18 q-7 -10 -13 -25 l-4 -8 q-11 -22 -20 -32 l249 0 l2 7 l53 -35 q-44 -87 -96 -144 l237 0 ZM243 596 l266 0 q45 48 84 105 l-250 0 q-45 -56 -100 -105 ZM253 409 l213 0 l0 121 l-213 0 l0 -121 ZM536 409 l224 0 l0 121 l-224 0 l0 -121 ZM253 216 l213 0 l0 128 l-213 0 l0 -128 ZM536 216 l224 0 l0 128 l-224 0 l0 -128 ZM928 53 l0 -77 l-855 0 l0 77 l855 0 Z" /><glyph glyph-name="Identity.828" unicode="&#x9e1f;" d="M764 -65 q-48 -4 -137 2 l-1 71 q41 -5 104 -5 l6 0 q26 0 35 13 q33 26 54 308 l-629 0 l0 433 l213 0 q17 36 34 94 l90 -14 q-20 -46 -47 -80 l314 0 q-4 -23 -4 -32 q-16 -221 -50 -257 q-20 -23 -59 -26 q-29 -4 -96 1 l0 69 q39 -3 66 -3 q18 0 27 9 q21 22 36 168 l-448 0 l0 -290 l635 0 q-1 -27 -2 -35 q-23 -341 -68 -393 q-29 -30 -73 -33 ZM576 541 l-43 -55 q-130 77 -196 113 l37 48 q132 -67 202 -106 ZM715 208 l0 -71 l-653 0 l0 71 l653 0 Z" /><glyph glyph-name="Identity.830" unicode="&#x9ea6;" d="M502 54 q-194 -93 -412 -127 l-16 74 q173 20 356 98 q-70 47 -144 154 q-83 -61 -174 -104 l-37 65 q83 35 161 94.5 q78 59.5 126 116.5 l-298 0 l0 68 l398 0 l0 77 l-289 0 l0 65 l289 0 l0 69 l-348 0 l0 68 l348 0 l0 76 l73 0 l0 -76 l358 0 l0 -68 l-358 0 l0 -69 l302 0 l0 -65 l-302 0 l0 -77 l402 0 l0 -68 l-480 0 q-45 -62 -61 -77 l333 0 l13 6 l52 -32 q-36 -65 -92.5 -125.5 q-56.5 -60.5 -120.5 -98.5 q175 -75 359 -92 l-17 -77 q-232 27 -421 125 ZM347 285 q71 -100 158 -148 q95 49 174 148 l-332 0 Z" /><glyph glyph-name="Identity.831" unicode="&#x9ec4;" d="M833 469 l0 -349 l-658 0 l0 349 l288 0 l0 65 l-396 0 l0 73 l248 0 l0 85 l-176 0 l0 73 l176 0 l0 83 l70 0 l0 -83 l233 0 l0 83 l71 0 l0 -83 l180 0 l0 -73 l-180 0 l0 -85 l247 0 l0 -73 l-400 0 l0 -65 l297 0 ZM385 607 l233 0 l0 85 l-233 0 l0 -85 ZM250 325 l213 0 l0 84 l-213 0 l0 -84 ZM536 325 l220 0 l0 84 l-220 0 l0 -84 ZM250 181 l213 0 l0 88 l-213 0 l0 -88 ZM536 181 l220 0 l0 88 l-220 0 l0 -88 ZM930 -16 l-58 -54 q-200 95 -286 125 l40 51 q63 -22 114 -42 l10 -4 q1 0 2.5 -1 q1.5 -1 2.5 -1 l10 -4 q54 -21 165 -70 ZM426 60 q-61 -37 -150 -76.5 q-89 -39.5 -165 -60.5 l-27 65 q59 15 146.5 52 q87.5 37 133.5 66 l62 -46 Z" /><glyph glyph-name="Identity.834" unicode="&#x9f50;" d="M502 458 q-132 -68 -332 -110 l-10 -2 q-5 -1 -15.5 -3 q-10.5 -2 -15.5 -3 l-11 -2 q-5 -1 -15.5 -3 q-10.5 -2 -15.5 -3 l-20 75 q76 11 105 17 l11 2 q149 31 246 74 q-106 68 -175 182 l-179 0 l0 67 l411 0 q-16 29 -54 82 l75 21 q45 -58 64 -103 l352 0 l0 -67 l-179 0 q-64 -113 -168 -181 q158 -66 361 -83 l-17 -75 q-246 27 -418 115 ZM332 682 q73 -91 170 -142 q93 54 154 142 l-324 0 ZM356 244 q0 -91 -38 -178.5 q-38 -87.5 -131 -141.5 l-44 67 q133 73 133 256 l0 114 l80 0 l0 -117 ZM722 360 l0 -432 l-81 0 l0 432 l81 0 Z" /><glyph glyph-name="Identity.836" unicode="&#x9f7f;" d="M939 564 l0 -72 l-868 0 l0 72 l152 0 l0 236 l77 0 l0 -236 l169 0 l0 283 l76 0 l0 -101 l307 0 l0 -69 l-307 0 l0 -113 l394 0 ZM489 286 q-85 -147 -203 -212 l-40 59 q84 42 147 134 q63 92 88 205 l73 -13 q-18 -76 -34 -114 q17 -12 94 -73 l9 -7 l4 -4 l8 -7 q74 -60 133 -117 l-54 -53 q-135 135 -225 202 ZM875 462 l0 -495 l-741 0 l0 493 l80 0 l0 -419 l581 0 l0 421 l80 0 Z" /><glyph glyph-name="Identity.837" unicode="&#x7adc;" d="M940 589 l0 -68 l-879 0 l0 68 l262 0 q-16 44 -48 89 l62 18 l-211 0 l0 67 l358 0 q-17 30 -46 65 l71 23 q40 -48 59 -88 l310 0 l0 -67 l-536 0 q33 -41 52 -102 l-9 -5 l224 0 q18 35 46 105 l80 -7 q-20 -44 -56 -98 l261 0 ZM957 101 q-9 -91 -47 -127.5 q-38 -36.5 -141 -36.5 l-110 0 q-116 0 -157 25.5 q-41 25.5 -41 86.5 l0 41 l-288 0 l0 380 l651 0 l0 -369 l-289 0 l0 -52 q0 -27 23 -37 q23 -10 103 -10 l105 0 q70 0 92 23 q22 23 26 87 l73 -11 ZM535 317 l211 0 l0 88 l-211 0 l0 -88 ZM251 317 l210 0 l0 88 l-210 0 l0 -88 ZM535 164 l211 0 l0 95 l-211 0 l0 -95 ZM251 153 l210 0 l0 106 l-210 0 l0 -106 Z" /><glyph glyph-name="Identity.838" unicode="&#x9f99;" d="M418 545 q-58 -443 -317 -603 l-47 73 q123 69 195.5 208.5 q72.5 139.5 96.5 321.5 l-280 0 l0 75 l291 0 q3 33 3.5 110.5 q0.5 77.5 4.5 118.5 l78 -3 l0 -20 l-1 -11 q0 -3 -0.5 -8 q-0.5 -5 -0.5 -7 l-1 -10 q0 -2 -6 -76 l-1 -10 q-3 -26 -7 -84 l505 0 l0 -75 l-330 0 l0 -309 q98 91 198 263 l66 -31 q-129 -221 -264 -328 l0 -57 q0 -32 13.5 -40.5 q13.5 -8.5 78.5 -8.5 l87 0 q57 0 74.5 23.5 q17.5 23.5 20.5 87.5 l75 -12 q-7 -94 -42 -133.5 q-35 -39.5 -125 -39.5 l-94 0 q-99 0 -131 27 q-32 27 -32 93 q-111 -78 -167 -103 l-35 70 q55 21 143 84 l9 6 l8 6 l42 30 l0 372 l-108 0 ZM817 688 l-54 -51 q-44 38 -95 78 l-8 7 l-13 11 q-13 10 -35 27.5 q-22 17.5 -29 23.5 l50 44 q69 -51 78 -58 l9 -7 q79 -61 97 -75 Z" /><glyph glyph-name="Identity.841" unicode="&#x9f9f;" d="M950 149 q-9 -112 -48.5 -158 q-39.5 -46 -145.5 -46 l-107 0 q-112 0 -152.5 30 q-40.5 30 -40.5 102 l0 77 l-298 0 l0 374 q-26 -22 -59 -45 l-47 63 q87 60 165.5 145.5 q78.5 85.5 118.5 159.5 l87 -18 q-21 -36 -35 -52 l251 0 l5 8 l53 -36 q-47 -86 -104 -147 l240 0 l0 -437 l-301 0 l0 -92 q0 -33 22 -44.5 q22 -11.5 99 -11.5 l101 0 q71 0 92.5 29.5 q21.5 29.5 26.5 110.5 l77 -12 ZM243 606 l252 0 q52 52 95 110 l-247 0 q-36 -51 -100 -110 ZM532 424 l223 0 l0 115 l-223 0 l0 -115 ZM236 424 l220 0 l0 115 l-220 0 l0 -115 ZM532 238 l223 0 l0 122 l-223 0 l0 -122 ZM236 224 l220 0 l0 136 l-220 0 l0 -136 Z" /><glyph glyph-name="Identity.842" unicode="&#x4e00;" d="M948 454 l0 -88 l-892 0 l0 88 l892 0 Z" /><glyph glyph-name="Identity.848" unicode="&#x4e8c;" d="M848 712 l0 -86 l-695 0 l0 86 l695 0 ZM933 122 l0 -88 l-865 0 l0 88 l865 0 Z" /><glyph glyph-name="Identity.850" unicode="&#x4eba;" d="M500 499 q-17 -76 -46.5 -151.5 q-29.5 -75.5 -75.5 -155 q-46 -79.5 -115.5 -149.5 q-69.5 -70 -153.5 -115 l-45 72 q377 192 391 845 l88 0 q-3 -99 -7 -143 q4 -32 10 -66.5 q6 -34.5 21 -94 q15 -59.5 34.5 -114.5 q19.5 -55 52 -120 q32.5 -65 72 -118.5 q39.5 -53.5 96 -102 q56.5 -48.5 122.5 -77.5 l-41 -76 q-85 40 -156.5 110 q-71.5 70 -119 152.5 q-47.5 82.5 -78 156 q-30.5 73.5 -49.5 147.5 Z" /><glyph glyph-name="Identity.851" unicode="&#x513f;" d="M954 211 q-6 -145 -36.5 -208 q-30.5 -63 -108.5 -63 l-59 0 q-76 0 -105 31.5 q-29 31.5 -29 103.5 l0 735 l81 0 l0 -736 q0 -35 9.5 -46 q9.5 -11 49.5 -11 l52 0 q41 0 54 44.5 q13 44.5 15 160.5 l77 -11 ZM349 493 q0 -405 -253 -568 l-47 67 q220 141 220 501 l0 316 l80 0 l0 -316 Z" /><glyph glyph-name="Identity.852" unicode="&#x5165;" d="M515 508 q-56 -191 -157.5 -342.5 q-101.5 -151.5 -242.5 -234.5 l-51 75 q142 74 242.5 234 q100.5 160 147.5 366 q-69 98 -151 154 l49 67 q51 -37 93 -81.5 q42 -44.5 80 -105.5 q38 -61 58 -98 q20 -37 58 -114 l9 -17 q0 -2 2 -5 q2 -3 2 -4 l5 -9 l6 -13 q1 -2 2.5 -5 q1.5 -3 2.5 -4 l4 -9 q2 -5 6.5 -13 q4.5 -8 7.5 -13 l5 -9 q53 -101 113 -174.5 q60 -73.5 145 -124.5 q-9 -12 -22 -41.5 q-13 -29.5 -17 -46.5 q-84 47 -147 124 q-63 77 -119 182 l-4 9 l-5 9 q-10 19 -30 59 l-6 13 q-1 2 -2.5 5 q-1.5 3 -2.5 4 l-4 9 q-55 114 -77 154 Z" /><glyph glyph-name="Identity.853" unicode="&#x516b;" d="M956 -6 l-56 -64 q-57 100 -128 278 l-4 11 q-1 3 -3.5 9 q-2.5 6 -3.5 9 l-4 11 q-9 24 -27 70 l-4 12 q-2 5 -6 16.5 q-4 11.5 -6 17.5 l-5 12 q-24 69 -45 132 l-5 16 q-18 54 -35.5 109 q-17.5 55 -29.5 94.5 q-12 39.5 -14 45.5 l79 5 q66 -226 143 -434 l4 -12 q5 -13 14.5 -38.5 q9.5 -25.5 14.5 -37.5 l5 -11 q63 -158 116 -251 ZM400 749 q-7 -63 -10 -90 l-1 -10 q-6 -50 -10 -75 l-2 -10 q-2 -17 -11 -67 l-2 -10 q-76 -401 -263 -553 q-14 21 -56 60 q136 111 205 370 l3 10 q45 172 56 382 l91 -7 Z" /><glyph glyph-name="Identity.857" unicode="&#x51e0;" d="M345 494 q0 -68 -10.5 -139 q-10.5 -71 -34.5 -152.5 q-24 -81.5 -72.5 -155.5 q-48.5 -74 -115.5 -124 l-52 67 q61 44 103.5 108.5 q42.5 64.5 63 136 q20.5 71.5 29 134 q8.5 62.5 8.5 126.5 l0 299 l452 0 l0 -710 q0 -32 9 -42.5 q9 -10.5 45 -10.5 l47 0 q35 0 46.5 40.5 q11.5 40.5 13.5 144.5 l77 -12 q-6 -135 -34.5 -193 q-28.5 -58 -101.5 -58 l-55 0 q-72 0 -100 30.5 q-28 30.5 -28 100.5 l0 631 l-290 0 l0 -221 Z" /><glyph glyph-name="Identity.859" unicode="&#x5200;" d="M473 667 q-2 -44 -6 -92 l-1 -9 l-1 -9 q-48 -484 -359 -637 l-43 76 q66 30 119 77 q53 47 87 104.5 q34 57.5 58 117 q24 59.5 37.5 129 q13.5 69.5 19.5 124.5 q6 55 9 119 l-295 0 l0 79 l797 0 q0 -33 -1 -44 q-12 -353 -27.5 -515 q-15.5 -162 -45.5 -199 q-36 -42 -92 -48 q-47 -4 -173 3 l-3 83 q52 -4 143 -4 l6 0 q25 -3 41 16 q49 49 67 629 l-337 0 Z" /><glyph glyph-name="Identity.865" unicode="&#x5341;" d="M542 406 l0 -476 l-82 0 l0 476 l-392 0 l0 81 l392 0 l0 360 l82 0 l0 -360 l399 0 l0 -81 l-399 0 Z" /><glyph glyph-name="Identity.866" unicode="&#x535c;" d="M459 476 l0 -545 l-90 0 l0 916 l90 0 l0 -330 l21 35 q50 -22 131 -62 l9 -5 l40 -20 l10 -5 q2 -1 6.5 -4 q4.5 -3 7.5 -4 l10 -5 q136 -71 194 -109 l-51 -76 q-70 48 -185 112 l-9 6 q-3 0 -5 2 l-10 6 q-1 0 -2.5 1 q-1.5 1 -2.5 1 l-10 6 q-4 2 -12 6.5 q-8 4.5 -12 6.5 l-10 5 l-9 5 q-39 21 -111 57 Z" /><glyph glyph-name="Identity.868" unicode="&#x5382;" d="M239 699 l0 -213 q0 -143 -27 -301 q-27 -158 -89 -252 l-70 46 q103 158 103 511 l0 292 l767 0 l0 -83 l-684 0 Z" /><glyph glyph-name="Identity.870" unicode="&#x53c8;" d="M502 171 q-88 -74 -196.5 -136.5 q-108.5 -62.5 -215.5 -98.5 l-31 79 q95 28 198 85 q103 57 187 125 q-150 159 -250 464 l-3 10 q-1 1 -1 2 q0 1 -0.5 1.5 q-0.5 0.5 -0.5 1.5 l-79 0 l0 76 l672 0 l10 5 l53 -25 q-40 -160 -116 -301.5 q-76 -141.5 -172 -233.5 q83 -71 185 -128 q102 -57 202 -82 l-29 -78 q-224 61 -413 234 ZM268 704 q91 -279 232 -424 q80 77 144.5 188 q64.5 111 102.5 236 l-479 0 Z" /><glyph glyph-name="Identity.871" unicode="&#x53e3;" d="M864 751 l0 -729 l-724 0 l0 729 l724 0 ZM220 102 l560 0 l0 568 l-560 0 l0 -568 Z" /><glyph glyph-name="Identity.873" unicode="&#x571f;" d="M937 54 l0 -79 l-873 0 l0 79 l393 0 l0 406 l-329 0 l0 78 l329 0 l0 308 l80 0 l0 -308 l336 0 l0 -78 l-336 0 l0 -406 l400 0 Z" /><glyph glyph-name="Identity.874" unicode="&#x58eb;" d="M884 67 l0 -79 l-763 0 l0 79 l336 0 l0 397 l-393 0 l0 78 l393 0 l0 304 l80 0 l0 -304 l400 0 l0 -78 l-400 0 l0 -397 l347 0 Z" /><glyph glyph-name="Identity.877" unicode="&#x5915;" d="M880 675 q-72 -280 -267 -480 q-195 -200 -438 -273 l-30 81 q103 28 214 95.5 q111 67.5 198 152.5 q-42 43 -108.5 95 q-66.5 52 -125.5 86 l55 52 q108 -61 234 -177 q103 125 163 313 l-364 0 q-118 -169 -260 -265 l-52 71 q104 63 200 179.5 q96 116.5 148 243.5 l82 -25 q-32 -73 -70 -130 l351 0 l12 8 l58 -27 Z" /><glyph glyph-name="Identity.878" unicode="&#x5927;" d="M499 438 q-18 -72 -48.5 -141 q-30.5 -69 -76.5 -140 q-46 -71 -115.5 -131.5 q-69.5 -60.5 -153.5 -98.5 l-41 74 q79 34 145 91 q66 57 110.5 125 q44.5 68 73 136 q28.5 68 43.5 138 l-362 0 l0 81 l374 0 q5 44 7.5 90 q2.5 46 3.5 111.5 q1 65.5 1 74.5 l85 0 q-2 -174 -16 -276 l401 0 l0 -81 l-369 0 q52 -162 153 -296.5 q101 -134.5 224 -184.5 l-43 -83 q-132 62 -234.5 201 q-102.5 139 -161.5 310 Z" /><glyph glyph-name="Identity.879" unicode="&#x5973;" d="M910 1 l-63 -72 q-143 102 -234 155 l-10 6 q-38 22 -71 38 q-165 -144 -442 -191 l-21 82 q114 18 215 58 q101 40 170 93 q-15 7 -44 20.5 q-29 13.5 -43 20.5 l-9 5 q-10 4 -14 6 l-9 4 q-4 2 -5 2 l-9 5 q-2 1 -7 3 q-5 2 -7 3 l-9 4 q-40 19 -109 46 q31 54 76 149 l7 14 q15 32 39 85 l-239 0 l0 81 l274 0 q20 48 48 141 q28 93 29 97 l80 -14 q-32 -113 -80 -224 l510 0 l0 -81 l-194 0 q-53 -242 -143 -348 q137 -66 314 -188 ZM306 323 q13 -4 28 -11 l9 -3 q8 -4 23 -10.5 q15 -6.5 22 -9.5 l9 -4 l9 -4 q1 -1 2.5 -1 q1.5 0 2.5 -1 l9 -4 q3 -2 9 -4 l9 -4 l9 -5 q2 0 4 -2 l14 -6 l8 -4 l9 -4 l9 -4 l9 -4 q2 -2 4 -2 l9 -4 q4 -2 5 -2 q83 90 137 307 l-264 0 q-8 -20 -11 -30 l-6 -15 q-1 -1 -1 -2 q-1 -2 -1 -3 l-4 -10 q0 -1 -2 -5 l-3 -9 q-36 -98 -57 -140 Z" /><glyph glyph-name="Identity.880" unicode="&#x5b50;" d="M493 -55 q-44 -15 -201 -15 l-7 81 q93 -3 154 0 q24 1 24 24 l0 303 l-400 0 l0 79 l400 0 l0 142 q119 55 239 149 l-540 0 l0 76 l622 0 l17 5 l59 -46 q-59 -58 -148 -121.5 q-89 -63.5 -169 -104.5 l0 -100 l399 0 l0 -79 l-399 0 l0 -304 q0 -75 -50 -89 Z" /><glyph glyph-name="Identity.882" unicode="&#x5bf8;" d="M644 -56 q-50 -17 -229 -17 l-7 89 q26 0 40 -1 l12 0 q104 -2 138 0 q15 1 19 7.5 q4 6.5 4 24.5 l0 520 l-557 0 l0 78 l557 0 l0 203 l81 0 l0 -203 l235 1 l0 -79 l-235 0 l0 -519 q0 -87 -58 -104 ZM432 221 l-71 -44 q-23 50 -78 128 q-55 78 -105 131 l67 40 q52 -52 108.5 -128.5 q56.5 -76.5 78.5 -126.5 Z" /><glyph glyph-name="Identity.883" unicode="&#x5c0f;" d="M496 -56 q-44 -16 -196 -14 l-7 82 q88 -3 143 0 q26 0 26 28 l0 795 l85 0 l0 -795 q0 -77 -51 -96 ZM964 172 l-84 -34 q-20 103 -106 290 l-5 10 q-37 80 -79 151 l74 30 q44 -70 93 -169 l5 -10 q83 -174 102 -268 ZM300 595 q-25 -115 -75 -242 q-50 -127 -110 -202 l-66 50 q55 65 100 185 q45 120 64 226 l87 -17 Z" /><glyph glyph-name="Identity.884" unicode="&#x5c38;" d="M266 472 q-2 -146 -34.5 -291.5 q-32.5 -145.5 -107.5 -236.5 q-30 28 -68 50 q72 90 101.5 233 q29.5 143 29.5 283 l0 285 l675 0 l0 -323 l-596 0 ZM266 552 l514 0 l0 164 l-514 0 l0 -164 Z" /><glyph glyph-name="Identity.886" unicode="&#x5c71;" d="M881 652 l0 -660 l-761 0 l0 659 l81 0 l0 -579 l257 0 l0 765 l80 0 l0 -765 l261 0 l0 580 l82 0 Z" /><glyph glyph-name="Identity.888" unicode="&#x5de5;" d="M939 90 l0 -80 l-875 0 l0 80 l394 0 l0 569 l-342 0 l0 82 l772 0 l0 -82 l-351 0 l0 -569 l402 0 Z" /><glyph glyph-name="Identity.889" unicode="&#x5df1;" d="M945 199 q-6 -70 -20.5 -113 q-14.5 -43 -47.5 -75 q-33 -32 -89.5 -45.5 q-56.5 -13.5 -145.5 -13.5 l-178 0 q-173 0 -236 32.5 q-63 32.5 -63 113.5 l0 378 l571 -16 l0 254 l-584 0 l0 79 l665 0 l0 -410 l-572 0 l0 -285 q0 -27 14 -40 q14 -13 61 -20 q47 -7 142 -7 l180 0 q71 0 113 8.5 q42 8.5 65 33 q23 24.5 31 54 q8 29.5 13 85.5 l81 -13 Z" /><glyph glyph-name="Identity.891" unicode="&#x5e72;" d="M537 374 l0 -443 l-82 0 l0 443 l-389 0 l0 82 l389 0 l0 243 l-338 0 l0 81 l772 0 l0 -81 l-352 0 l0 -243 l398 0 l0 -82 l-398 0 Z" /><glyph glyph-name="Identity.892" unicode="&#x5e7f;" d="M237 420 q0 -130 -28.5 -274 q-28.5 -144 -93.5 -229 q-10 12 -32 32 q-22 20 -34 26 q59 78 82 201 q23 123 23 244 l0 282 l360 0 q-19 65 -47 129 l79 18 q37 -75 50 -135 l-33 -12 l365 0 l0 -76 l-691 0 l0 -206 Z" /><glyph glyph-name="Identity.896" unicode="&#x5f13;" d="M678 -62 q-54 -3 -193 5 l-3 82 q92 -9 176 -9 q37 0 53 12 q40 30 72 240 l-640 0 q14 59 30 152 l2 10 q21 137 22 141 l545 0 l0 140 l-590 0 l0 77 l670 0 l0 -294 l-557 0 q-2 -9 -4.5 -25 q-2.5 -16 -3.5 -24 l-3 -20 q-6 -47 -14 -84 l637 0 q-2 -28 -4 -39 q-38 -280 -96 -330 q-32 -31 -99 -34 Z" /><glyph glyph-name="Identity.900" unicode="&#x5fc3;" d="M664 599 l-57 -58 q-40 46 -157 141 l-8 7 q-66 51 -99 74 l52 53 q55 -37 126 -92 l8 -7 q96 -75 135 -118 ZM774 217 q-9 -149 -48 -208.5 q-39 -59.5 -147 -59.5 l-95 0 q-106 0 -142.5 30 q-36.5 30 -36.5 104 l0 499 l81 0 l0 -501 q0 -35 16 -46 q16 -11 85 -11 l90 0 q72 0 93.5 42 q21.5 42 26.5 163 l77 -12 ZM954 152 l-78 -30 q-12 63 -46 166 l-4 10 q-5 18 -14 41 l-4 10 q0 2 -1 5.5 q-1 3.5 -2 5.5 l-4 10 q-25 67 -56 135 l73 29 q20 -40 48 -110 l4 -10 q1 -2 2.5 -5 q1.5 -3 1.5 -5 l4 -10 l6 -15 l4 -11 q49 -130 66 -216 ZM226 494 q-8 -56 -27 -159 l-3 -10 q-30 -152 -61 -232 l-78 33 q28 66 54 180 q26 114 37 203 l78 -15 Z" /><glyph glyph-name="Identity.901" unicode="&#x6208;" d="M943 173 q-14 -129 -48.5 -185.5 q-34.5 -56.5 -97.5 -56.5 q-77 0 -148 57 q-71 57 -126 148 q-208 -139 -381 -198 l-33 81 q106 33 232 100 l9 5 q69 38 134 81 q-41 92 -72 227 l-2 10 q-3 10 -7 30 l-2 10 q-1 9 -4.5 26 q-3.5 17 -5.5 25 l-315 -29 l-8 79 l310 23 q-16 120 -18 238 l88 0 q0 -37 1 -55 l0 -10 l0 -5 l0 -11 l0 -5 l1 -10 q2 -75 10 -132 l466 39 l7 -77 l-463 -40 q30 -165 83 -281 q127 99 231 267 l76 -37 q-116 -185 -269 -300 q101 -171 207 -171 q54 0 66 173 l79 -16 ZM810 720 l-52 -60 q-12 8 -111 70 l-10 6 q-14 8 -80 47 l52 53 q131 -72 201 -116 Z" /><glyph glyph-name="Identity.902" unicode="&#x6237;" d="M257 345 q-9 -107 -45.5 -227 q-36.5 -120 -98.5 -195 q-8 9 -31.5 26 q-23.5 17 -36.5 23 q52 63 84.5 164 q32.5 101 42 184 q9.5 83 9.5 167 l0 213 l314 0 q-5 18 -28 72 l-5 9 q-4 8 -11.5 25 q-7.5 17 -11.5 26 l76 21 q36 -71 58 -136 l-45 -17 l306 0 l0 -355 l-577 0 ZM259 419 l495 0 l0 207 l-492 0 l0 -142 q0 -16 -3 -65 Z" /><glyph glyph-name="Identity.903" unicode="&#x624b;" d="M488 -53 q-49 -15 -211 -14 l-7 79 q27 -1 84 -1 l11 0 q57 0 68 1 q30 0 30 29 l0 225 l-402 0 l0 78 l402 0 l0 156 l-334 0 l0 76 l334 0 l0 142 q-63 -6 -132 -12 l-10 -1 l-5 0 l-10 -1 l-10 -1 q-4 0 -10.5 -0.5 q-6.5 -0.5 -9.5 -0.5 l-10 -1 q-40 -3 -124 -7 l-7 71 q51 3 108 6 l11 1 q4 0 13 1 q9 1 14 1 l11 1 q20 2 32 2 l11 1 q16 2 23 2 l11 1 q291 27 414 66 l60 -63 q-99 -30 -256 -52 l-10 -2 q-7 -1 -19 -2.5 q-12 -1.5 -18 -1.5 l0 -150 l344 0 l0 -76 l-344 0 l0 -156 l400 0 l0 -78 l-400 0 l0 -227 q0 -75 -52 -92 Z" /><glyph glyph-name="Identity.904" unicode="&#x652f;" d="M501 79 q-203 -113 -421 -152 l-21 80 q84 13 184 45 l10 3 q8 3 24.5 8.5 q16.5 5.5 24.5 8.5 l9 4 q72 27 121 52 q-124 92 -210 266 l15 11 l-102 0 l0 75 l323 0 l0 144 l-368 0 l0 78 l368 0 l0 146 l78 0 l0 -146 l372 0 l0 -78 l-372 0 l0 -144 l224 0 l12 5 l55 -35 q-41 -97 -107.5 -183 q-66.5 -86 -145.5 -139 q176 -92 364 -115 l-21 -81 q-234 36 -416 147 ZM302 405 q79 -154 202 -233 q125 78 210 233 l-412 0 Z" /><glyph glyph-name="Identity.906" unicode="&#x6587;" d="M63 603 l0 77 l430 0 q-4 9 -37 80 l-5 9 l-30 60 l82 24 q52 -97 77 -152 l-67 -21 l429 0 l0 -77 l-161 0 q-87 -243 -220 -385 q82 -69 183.5 -126 q101.5 -57 197.5 -80 l-29 -80 q-116 33 -223.5 95 q-107.5 62 -190.5 137 q-189 -165 -411 -236 l-30 80 q103 29 205.5 86 q102.5 57 183.5 124 q-103 106 -185 286 l-5 9 q-13 30 -37 90 l-157 0 ZM299 603 q96 -225 201 -329 q120 122 195 329 l-396 0 Z" /><glyph glyph-name="Identity.907" unicode="&#x6597;" d="M692 228 l0 -298 l-79 0 l0 287 l-530 -83 l-12 78 l542 81 l0 555 l79 0 l0 -542 l230 34 l11 -76 l-241 -36 ZM523 662 l-46 -67 q-31 19 -129 79 l-10 6 q-8 5 -40.5 24 q-32.5 19 -48.5 28 l45 60 q14 -7 90 -50 l10 -5 q98 -56 129 -75 ZM437 436 l-46 -67 q-46 28 -150 85 l-9 5 q-20 11 -55 29.5 q-35 18.5 -40 21.5 l45 59 q137 -67 255 -133 Z" /><glyph glyph-name="Identity.909" unicode="&#x65b9;" d="M400 380 q-12 -67 -33 -128.5 q-21 -61.5 -55 -124.5 q-34 -63 -86 -116.5 q-52 -53.5 -117 -87.5 l-43 71 q66 33 117 88 q51 55 81 115 q30 60 49.5 136 q19.5 76 27.5 138.5 q8 62.5 11 134.5 l-271 0 l0 74 l425 0 q-19 57 -67 143 l74 31 q47 -80 72 -147 l-72 -27 l410 0 l0 -74 l-498 0 q-1 -16 -1 -49 l0 -10 q2 -57 -3 -91 l405 0 q-1 -28 -3 -38 q-25 -387 -78 -440 q-32 -34 -86 -38 q-47 -3 -172 4 l-3 77 q5 0 11.5 -0.5 q6.5 -0.5 15 -1.5 q8.5 -1 12.5 -1 l12 0 q60 -3 97 -3 q28 0 43 11 q41 36 65 354 l-340 0 Z" /><glyph glyph-name="Identity.910" unicode="&#x65e0;" d="M490 421 q-12 -57 -31.5 -111.5 q-19.5 -54.5 -52.5 -112.5 q-33 -58 -75.5 -107 q-42.5 -49 -102.5 -92.5 q-60 -43.5 -132 -72.5 l-35 73 q144 55 232 171.5 q88 116.5 122 251.5 l-351 0 l0 77 l363 0 q12 71 18 209 l-318 0 l0 77 l754 0 l0 -77 l-361 0 q0 -9 -2 -55 q-2 -46 -4 -71 l-1 -10 q-1 -35 -8 -73 l433 0 l0 -77 l-349 0 l0 -345 q0 -27 14.5 -35.5 q14.5 -8.5 77.5 -8.5 l86 0 q63 0 81.5 31.5 q18.5 31.5 22.5 124.5 l77 -12 q-8 -124 -44.5 -173 q-36.5 -49 -134.5 -49 l-92 0 q-101 0 -135 28 q-34 28 -34 94 l0 345 l-18 0 Z" /><glyph glyph-name="Identity.911" unicode="&#x65e5;" d="M820 784 l0 -791 l-631 0 l0 791 l631 0 ZM269 445 l469 0 l0 259 l-469 0 l0 -259 ZM269 71 l469 0 l0 299 l-469 0 l0 -299 Z" /><glyph glyph-name="Identity.913" unicode="&#x6708;" d="M273 250 q-19 -88 -64 -178 q-45 -90 -108 -145 q-15 25 -58 59 q69 60 110.5 159 q41.5 99 53 181.5 q11.5 82.5 11.5 171.5 l0 301 l591 0 l0 -754 q0 -79 -53 -96 q-45 -15 -216 -15 l-7 82 q36 -1 109 -1 l10 0 l47 0 q28 1 28 31 l0 204 l-454 0 ZM295 565 l432 0 l0 154 l-432 0 l0 -154 ZM288 326 l439 0 l0 165 l-432 0 l0 -9 q0 -104 -7 -156 Z" /><glyph glyph-name="Identity.914" unicode="&#x6728;" d="M539 458 l0 -530 l-80 0 l0 529 q-67 -125 -167 -242 q-100 -117 -198 -176 l-47 72 q100 54 209 176.5 q109 122.5 171 245.5 l-348 0 l0 78 l380 0 l0 237 l80 0 l0 -237 l383 0 l0 -78 l-353 0 q63 -120 173.5 -241.5 q110.5 -121.5 208.5 -176.5 l-49 -74 q-93 59 -192.5 176.5 q-99.5 117.5 -170.5 240.5 Z" /><glyph glyph-name="Identity.915" unicode="&#x6b20;" d="M915 673 q-60 -182 -137 -296 l-58 32 q6 14 23.5 53.5 q17.5 39.5 27.5 62.5 l4 9 q22 51 33 82 l-523 0 q-57 -131 -143 -227 l-66 56 q64 65 122.5 179.5 q58.5 114.5 88.5 231.5 l83 -19 q-25 -88 -51 -148 l523 0 l13 7 l60 -23 ZM505 305 q-37 -107 -137 -211.5 q-100 -104.5 -271 -169.5 l-33 71 q99 37 173.5 91 q74.5 54 115 106.5 q40.5 52.5 64.5 115 q24 62.5 31 107.5 q7 45 7 93 l0 62 l82 0 l0 -64 q0 -38 -3 -74 q46 -163 147 -279.5 q101 -116.5 252 -150.5 l-27 -78 q-141 39 -243 141 q-102 102 -158 240 Z" /><glyph glyph-name="Identity.916" unicode="&#x6b62;" d="M936 60 l0 -78 l-875 0 l0 78 l139 0 l0 578 l80 0 l0 -578 l215 0 l0 786 l80 0 l0 -321 l316 0 l0 -79 l-316 0 l0 -386 l361 0 Z" /><glyph glyph-name="Identity.919" unicode="&#x6bcb;" d="M446 159 q-100 -161 -280 -237 l-37 72 q125 40 227 165 l-165 0 l0 1 l-53 0 q11 53 31 167 l2 10 l1 11 q1 2 1 5 l3 16 q0 1 0 3 l1 2 l2 11 l1 10 q1 6 3 16.5 q2 10.5 3.5 19 q1.5 8.5 2.5 15.5 l-123 0 l0 74 l136 0 q1 10 4 30.5 q3 20.5 5 30.5 l1 10 q0 3 0.5 8 q0.5 5 1.5 8 l2 10 q4 30 11 93.5 q7 63.5 11 92.5 l599 0 q0 -36 -1 -45 l0 -6 l-1 -11 q-2 -45 -7 -120.5 q-5 -75.5 -6 -100.5 l114 0 l0 -74 l-118 0 q-5 -76 -17 -214 l108 0 l0 -73 l-116 0 q-18 -143 -45 -178 q-30 -43 -83 -48 q-46 -6 -154 3 l-1 70 q78 -5 124 -5 q25 0 41 19 q22 25 40 139 l-269 0 ZM552 520 l195 0 q10 201 10 208 l-191 0 q-5 -128 -14 -208 ZM279 520 l200 0 q10 88 13 208 l-185 0 q-3 -23 -9 -73 l-1 -10 l-6 -45 l-2 -10 q-2 -13 -5.5 -36 q-3.5 -23 -4.5 -34 ZM226 232 l176 0 q42 82 65 214 l-200 0 q-4 -20 -5 -30 l-2 -11 q0 -3 -1 -5 l-2 -15 l-2 -16 l-2 -10 q-15 -87 -27 -127 ZM485 232 l241 0 q7 65 18 214 l-202 0 q-25 -146 -57 -214 Z" /><glyph glyph-name="Identity.920" unicode="&#x6bd4;" d="M930 249 q-7 -158 -42 -225.5 q-35 -67.5 -129 -67.5 l-75 0 q-91 0 -122.5 34 q-31.5 34 -31.5 115 l0 740 l82 0 l0 -366 q132 89 238 195 l65 -69 q-119 -104 -303 -207 l0 -296 q0 -43 11.5 -55.5 q11.5 -12.5 65.5 -12.5 l68 0 q56 0 73.5 48.5 q17.5 48.5 22.5 178.5 l77 -12 ZM463 66 q-279 -91 -318 -125 l-47 64 q16 10 30 32.5 q14 22.5 14 49.5 l0 752 l81 0 l0 -288 l239 0 l0 -78 l-239 0 l0 -406 l234 79 q-2 -47 6 -80 Z" /><glyph glyph-name="Identity.921" unicode="&#x6bdb;" d="M951 151 q-10 -110 -54 -156.5 q-44 -46.5 -160 -46.5 l-122 0 q-125 0 -170 33.5 q-45 33.5 -45 113.5 l0 135 l-317 -44 l-12 75 l329 43 l0 153 l-285 -42 l-12 75 l297 39 l0 145 q-48 -10 -156 -28 l-10 -1 l-2 -1 q-2 0 -3 0 l-10 -2 l-5 0 l-10 -2 q-27 -4 -96 -13 q-4 33 -23 69 q39 5 121 17 l10 2 l11 2 q8 1 22.5 3.5 q14.5 2.5 20.5 3.5 l11 2 q1 0 3 0.5 q2 0.5 3 0.5 l11 2 l10 2 l33 6 l11 2 q3 1 10 2.5 q7 1.5 11 1.5 l11 2 q2 1 7.5 2 q5.5 1 8.5 1 l11 3 l57 12 l10 2 q170 38 269 78 l66 -62 q-133 -53 -335 -94 l0 -144 l368 53 l11 -75 l-379 -54 l0 -151 l436 59 l11 -74 l-447 -61 l0 -147 q0 -39 25 -53 q25 -14 114 -14 l119 0 q81 0 105 29.5 q24 29.5 29 108.5 l81 -13 Z" /><glyph glyph-name="Identity.923" unicode="&#x6c14;" d="M275 672 q-68 -132 -168 -236 l-60 57 q64 59 126.5 158.5 q62.5 99.5 94.5 198.5 l78 -21 q-17 -46 -38 -90 l607 0 l0 -67 l-640 0 ZM841 609 l0 -68 l-576 0 l0 68 l576 0 ZM951 121 q-9 -191 -86 -191 q-156 0 -180 470 l-520 0 l0 70 l596 0 q0 -20 2 -58 l1 -13 q9 -166 34.5 -278.5 q25.5 -112.5 69.5 -112.5 q24 0 26 126 l57 -13 Z" /><glyph glyph-name="Identity.924" unicode="&#x6c34;" d="M502 -54 q-39 -18 -161 -18 l-6 87 q35 -1 99 -1 l7 0 q11 1 15 6 q4 5 4 18 l0 808 l83 0 l0 -235 q9 -21 18 -45 l3 -9 q29 -73 47 -103 q117 110 190 218 l71 -52 q-34 -40 -89 -96 l-7 -8 l-8 -7 q-5 -6 -15 -16 l-7 -7 q-67 -65 -95 -88 q62 -90 145.5 -170 q83.5 -80 158.5 -115 l-45 -78 q-106 56 -203.5 175 q-97.5 119 -163.5 256 l0 -428 q0 -74 -41 -92 ZM413 586 q-36 -181 -119 -333 q-83 -152 -185 -224 l-51 68 q85 55 160.5 174 q75.5 119 108.5 254 l-243 0 l0 80 l272 0 l9 1 l48 -20 Z" /><glyph glyph-name="Identity.925" unicode="&#x706b;" d="M491 342 q-41 -135 -135.5 -247.5 q-94.5 -112.5 -248.5 -170.5 l-34 73 q89 32 155.5 85 q66.5 53 106.5 113 q40 60 66 139.5 q26 79.5 36.5 152 q10.5 72.5 15.5 162.5 l0 10 q1 6 1 17.5 q0 11.5 1 17.5 l0 10 l0 10 l0 10 q0 2 0.5 5.5 q0.5 3.5 0.5 4.5 l0 10 l0 20 l0 15 l0 5 l1 10 l0 5 l0 10 l0 10 l0 19 l86 0 l0 -53 l0 -10 q-1 -12 -1 -35.5 q0 -23.5 -1 -35.5 l0 -11 q-1 -6 -1 -20 q0 -14 -1 -20 l0 -11 l-1 -10 q-6 -105 -15 -164 l2 0 q43 -171 150.5 -296 q107.5 -125 261.5 -161 l-28 -80 q-155 43 -258.5 151 q-103.5 108 -159.5 260 ZM302 633 q-20 -80 -55.5 -164 q-35.5 -84 -76.5 -131 l-74 38 q41 45 75.5 126.5 q34.5 81.5 52.5 156.5 l78 -26 ZM899 622 q-38 -81 -64 -128 l-5 -10 q-48 -92 -82 -142 l-58 29 q8 17 32 67 q24 50 37 78 l4 10 q33 71 54 130 l82 -34 Z" /><glyph glyph-name="Identity.926" unicode="&#x722a;" d="M967 -7 l-63 -63 q-116 126 -162 494 l-2 12 q-8 62 -12 126 l-1 11 q-1 4 -1 12 q0 8 -1 12 l-1 12 q0 2 -0.5 8 q-0.5 6 -0.5 9 l-1 12 l0 6 l-1 12 q0 8 -1 12 l0 12 q0 1 -0.5 5 q-0.5 4 -0.5 6 l0 12 q-1 4 -1 12 q0 8 -1 12 q-71 -15 -94 -19 l-10 -1 q-48 -9 -79 -14 l0 -742 l-75 0 l0 733 q-7 -1 -21.5 -3 q-14.5 -2 -21.5 -3 l-10 -1 l-10 -1 q-2 -1 -5 -1 l-10 -1 q-2 -1 -5 -1.5 q-3 -0.5 -5 -0.5 l-9 -1 l-10 -1 q-4 0 -12.5 -1 q-8.5 -1 -12.5 -2 l-9 -1 q-36 -4 -53 -6 l0 -143 q0 -91 -11.5 -188 q-11.5 -97 -47 -212 q-35.5 -115 -89.5 -186 l-61 45 q52 67 83.5 174.5 q31.5 107.5 40.5 194.5 q9 87 9 175 l0 202 q71 6 138 15 l10 1 l66 9 l16 2 l11 1 l60 9 l10 2 q196 29 291 59 l72 -58 q-7 -2 -35.5 -10.5 q-28.5 -8.5 -42.5 -11.5 q0 -16 1 -23 l0 -12 l1 -12 l1 -11 q2 -42 4 -64 l1 -12 l1 -12 q38 -465 173 -601 Z" /><glyph glyph-name="Identity.927" unicode="&#x7236;" d="M932 545 l-74 -50 q-42 51 -131 148 l-7 8 q-7 7 -20.5 22 q-13.5 15 -20.5 23 l-8 8 q-46 50 -88 94 l65 44 q68 -68 105 -106 l7 -8 l8 -8 q3 -4 9.5 -10.5 q6.5 -6.5 9.5 -9.5 l8 -8 q96 -99 137 -147 ZM414 809 q-44 -74 -124 -166 l-7 -8 q-75 -85 -153 -150 l-58 72 q71 52 146 130 q75 78 117 150 l79 -28 ZM504 160 q-81 -74 -189 -136.5 q-108 -62.5 -227 -99.5 l-31 83 q106 28 209 84.5 q103 56.5 180 125.5 q-76 86 -144 242 l-4 10 q-18 42 -32 79 l77 25 q74 -203 158 -295 q95 106 160 305 l83 -26 q-80 -226 -183 -338 q77 -68 178 -123.5 q101 -55.5 201 -78.5 l-30 -85 q-220 55 -406 228 Z" /><glyph glyph-name="Identity.930" unicode="&#x7247;" d="M259 286 q-13 -97 -50.5 -195 q-37.5 -98 -96.5 -164 q-8 12 -28.5 32.5 q-20.5 20.5 -33.5 30.5 q142 158 142 509 l0 324 l82 0 l0 -224 l263 0 l0 248 l83 0 l0 -248 l271 0 l0 -79 l-617 0 l0 -25 q0 -8 -0.5 -26.5 q-0.5 -18.5 -0.5 -28.5 l0 -10 q-2 -44 -3 -63 l468 0 l0 -437 l-84 0 l0 356 l-395 0 Z" /><glyph glyph-name="Identity.931" unicode="&#x7259;" d="M657 -55 q-40 -16 -176 -15 l-6 79 q129 -3 133 -3 q15 3 15 22 l0 352 q-93 -117 -239.5 -230 q-146.5 -113 -281.5 -166 l-36 76 q113 40 252 136.5 q139 96.5 229 192.5 l-401 0 q20 62 46 159 l2 10 q19 74 31 128 l78 -10 q-30 -129 -55 -213 l375 0 l0 257 l-491 0 l0 78 l747 0 l0 -78 l-178 0 l0 -257 l225 0 l0 -74 l-225 0 l0 -357 q0 -70 -44 -87 Z" /><glyph glyph-name="Identity.932" unicode="&#x725b;" d="M550 289 l0 -359 l-78 0 l0 359 l-407 0 l0 79 l407 0 l0 228 l-231 0 q-42 -86 -105 -166 l-65 52 q51 55 99.5 151 q48.5 96 73.5 190 l80 -17 q-17 -64 -49 -133 l197 0 l0 176 l78 0 l0 -176 l332 0 l0 -77 l-332 0 l0 -228 l389 0 l0 -79 l-389 0 Z" /><glyph glyph-name="Identity.933" unicode="&#x72ac;" d="M946 9 l-41 -83 q-140 60 -243.5 195 q-103.5 135 -160.5 305 q-18 -72 -48 -140.5 q-30 -68.5 -76.5 -137 q-46.5 -68.5 -116.5 -127 q-70 -58.5 -156 -95.5 l-40 78 q82 33 148.5 88 q66.5 55 110.5 121 q44 66 72 134 q28 68 42 138 l-371 0 l0 80 l383 0 q5 41 6 82 l1 10 q2 37 2.5 102.5 q0.5 65.5 1.5 88.5 l84 0 q0 -70 -3 -150 l-1 -10 q0 -7 -1 -21 q-1 -14 -1 -21 l-1 -10 q-4 -48 -7 -71 l405 0 l0 -80 l-376 0 q50 -163 153 -295.5 q103 -132.5 234 -180.5 ZM868 660 l-58 -51 q-36 33 -112 97 l-12 11 q-15 12 -41 33.5 q-26 21.5 -32 26.5 l53 46 q13 -10 42.5 -33.5 q29.5 -23.5 44.5 -34.5 l8 -7 q77 -61 107 -88 Z" /><glyph glyph-name="Identity.934" unicode="&#x7384;" d="M933 -10 l-73 -44 q-21 46 -57 104 q-252 -18 -390.5 -30 q-138.5 -12 -182 -18.5 q-43.5 -6.5 -62.5 -13.5 l-25 80 q26 6 130 81 q32 20 220 190 q-250 -18 -299 -35 l-23 80 q17 4 65 48 q21 18 70.5 79 q49.5 61 91.5 121 l-325 0 l0 74 l409 0 q-26 44 -79 116 l70 29 q63 -78 91 -129 l-25 -16 l389 0 l0 -74 l-470 0 l29 -22 q-104 -144 -192 -222 l271 20 q19 19 39.5 42 q20.5 23 47 55 q26.5 32 37.5 44 l72 -51 q-34 -36 -52 -55 l-7 -7 l-7 -7 l-8 -7 q-4 -5 -14 -15 l-7 -7 l-11 -11 l-7 -7 l-8 -7 q-1 -2 -3.5 -4 q-2.5 -2 -3.5 -4 l-11 -10 l-11 -11 l-11 -11 q-2 -1 -6 -4.5 q-4 -3.5 -6 -5.5 l-7 -7 q-10 -10 -15 -14 l-8 -7 q-10 -10 -15 -14 l-7 -7 q-2 -2 -6 -5.5 q-4 -3.5 -6 -4.5 l-7 -7 l-8 -7 q-34 -31 -68 -59 l-7 -6 q-4 -4 -12 -10 l-7 -6 q-10 -8 -15 -13 l-8 -6 q-10 -8 -14 -12 l-8 -6 l-66 -51 l455 32 q-64 94 -103 139 l68 36 q24 -31 76 -101 l6 -9 q1 -1 2 -2.5 q1 -1.5 1 -2.5 l7 -9 q83 -114 116 -176 Z" /><glyph glyph-name="Identity.935" unicode="&#x7389;" d="M937 50 l0 -79 l-873 0 l0 79 l390 0 l0 321 l-298 0 l0 78 l298 0 l0 258 l-340 0 l0 79 l774 0 l0 -79 l-356 0 l0 -258 l317 0 l0 -78 l-317 0 l0 -321 l405 0 ZM854 142 l-60 -53 q-46 54 -96 106 l-8 8 q-39 42 -80 81 l57 45 q23 -21 81 -77 l8 -8 q3 -2 8.5 -7 q5.5 -5 7.5 -8 l7 -8 q52 -51 75 -79 Z" /><glyph glyph-name="Identity.936" unicode="&#x74dc;" d="M266 691 l0 -134 q0 -97 -11.5 -200.5 q-11.5 -103.5 -48 -227.5 q-36.5 -124 -93.5 -200 q-30 32 -63 50 q53 73 86 186.5 q33 113.5 42.5 206 q9.5 92.5 9.5 185.5 l0 198 l1 0 q37 3 131 11 l10 1 q10 1 28 3 l16 2 l11 1 q7 1 19.5 2.5 q12.5 1.5 18.5 2.5 l11 1 l11 1 l11 2 l5 0 l11 2 l11 1 q3 0 5 1 l11 1 q197 26 286 48 l63 -62 q-53 -13 -85 -18 q4 -67 7 -104 l1 -12 l1 -11 q46 -493 187 -637 l-63 -62 q-122 136 -174 526 l-2 11 q-1 8 -2.5 23 q-1.5 15 -2.5 23 l-1 11 q-4 34 -6 52 l-1 11 q0 8 -1 12 l-1 11 q0 3 -0.5 9 q-0.5 6 -0.5 9 l-1 11 q-1 4 -1 12 l-1 12 q0 2 -0.5 5.5 q-0.5 3.5 -0.5 5.5 l-1 12 q0 12 -1 17 l-1 12 l0 12 l-1 11 l0 6 q-13 -2 -47.5 -7.5 q-34.5 -5.5 -54.5 -8.5 l-10 -1 l-10 -1 q-2 -1 -5 -1 q-3 0 -5 -1 l-10 -1 l-10 -1 q-1 -1 -5 -1 l-10 -1 q-2 -1 -5 -1.5 q-3 -0.5 -5 -0.5 l0 -149 q0 -326 -92 -493 l186 43 q-7 18 -27 74.5 q-20 56.5 -31 80.5 l64 21 q39 -81 95 -248 l3 -9 q13 -39 21 -66 l-69 -27 q-17 72 -31 112 q-233 -52 -274 -77 q-9 20 -50 69 q44 50 71.5 114 q27.5 64 38 140.5 q10.5 76.5 13.5 128 q3 51.5 3 127.5 l0 151 q-124 -14 -174 -18 Z" /><glyph glyph-name="Identity.937" unicode="&#x74e6;" d="M604 11 q-400 -61 -438 -80 l-33 93 q53 13 65 59 q11 29 62 329 l3 19 q2 8 2 13 l2 12 q8 50 22.5 137 q14.5 87 19.5 116 l-228 0 l0 77 l832 0 l0 -77 l-529 0 q-2 -15 -7.5 -62 q-5.5 -47 -10.5 -77 l362 0 l0 -504 q0 -27 8 -35.5 q8 -8.5 39 -8.5 l41 0 q18 0 28.5 9 q10.5 9 16 32.5 q5.5 23.5 7.5 53 q2 29.5 3 82.5 l74 -10 q-5 -132 -32 -187.5 q-27 -55.5 -95 -55.5 l-49 0 q-67 0 -93.5 28 q-26.5 28 -26.5 91 l0 428 l-295 0 q-2 -14 -8.5 -55.5 q-6.5 -41.5 -10.5 -64.5 l-2 -11 l0 -6 l-2 -11 l-5 -27 q-1 -8 -3 -22 l-2 -11 q-29 -176 -44 -250 l329 51 q-2 -17 -2 -67 l0 -8 ZM610 224 l-66 -48 q-27 39 -80.5 101.5 q-53.5 62.5 -97.5 103.5 l63 41 q43 -39 98 -99 q55 -60 83 -99 Z" /><glyph glyph-name="Identity.938" unicode="&#x7518;" d="M756 587 l0 -603 l-510 0 l0 603 l-185 0 l0 78 l185 0 l0 178 l80 0 l0 -178 l348 0 l0 178 l82 0 l0 -178 l183 0 l0 -78 l-183 0 ZM326 379 l348 0 l0 208 l-348 0 l0 -208 ZM326 62 l348 0 l0 240 l-348 0 l0 -240 Z" /><glyph glyph-name="Identity.939" unicode="&#x751f;" d="M936 40 l0 -77 l-869 0 l0 77 l395 0 l0 258 l-286 0 l0 77 l286 0 l0 210 l-222 0 q-50 -96 -104 -164 l-66 55 q53 57 103.5 156.5 q50.5 99.5 77.5 199.5 l80 -18 q-25 -84 -55 -152 l186 0 l0 186 l78 0 l0 -186 l349 0 l0 -77 l-349 0 l0 -210 l312 0 l0 -77 l-312 0 l0 -258 l396 0 Z" /><glyph glyph-name="Identity.940" unicode="&#x7528;" d="M230 245 q-12 -89 -44 -178 q-32 -89 -81 -144 q-7 11 -28.5 29 q-21.5 18 -33.5 24 q122 136 122 450 l0 356 l710 0 l0 -746 q0 -69 -47 -88 q-39 -15 -198 -12 l-5 76 q27 -1 147 -1 q25 1 25 27 l0 207 l-255 0 l0 -307 l-75 0 l0 307 l-237 0 ZM542 556 l255 0 l0 148 l-255 0 l0 -148 ZM242 556 l225 0 l0 148 l-225 0 l0 -148 ZM240 320 l227 0 l0 162 l-225 0 l0 -56 q0 -84 -2 -106 ZM542 320 l255 0 l0 162 l-255 0 l0 -162 Z" /><glyph glyph-name="Identity.941" unicode="&#x7530;" d="M895 783 l0 -796 l-786 0 l0 796 l786 0 ZM531 444 l283 0 l0 260 l-283 0 l0 -260 ZM186 444 l269 0 l0 260 l-269 0 l0 -260 ZM186 65 l269 0 l0 301 l-269 0 l0 -301 ZM531 65 l283 0 l0 301 l-283 0 l0 -301 Z" /><glyph glyph-name="Identity.945" unicode="&#x767d;" d="M846 695 l0 -708 l-690 0 l0 708 l237 0 q27 63 51 157 l96 -20 q-24 -64 -64 -137 l370 0 ZM234 396 l530 0 l0 222 l-530 0 l0 -222 ZM234 65 l530 0 l0 256 l-530 0 l0 -256 Z" /><glyph glyph-name="Identity.946" unicode="&#x76ae;" d="M934 3 l-23 -79 q-189 39 -346 147 q-156 -100 -334 -144 l-24 78 q179 35 295 117 q-103 86 -185 274 l-82 0 q-4 -118 -36 -246 q-32 -128 -93 -215 l-66 51 q66 86 93 222.5 q27 136.5 27 267.5 l0 243 l329 0 l0 130 l76 0 l0 -130 l277 0 l12 3 l60 -17 q-30 -81 -88 -210 l-79 23 q25 48 59 124 l-241 0 l0 -172 l216 0 l12 4 l52 -31 q-34 -97 -90 -183 q-56 -86 -123 -139 q153 -94 302 -118 ZM237 470 l252 0 l0 172 l-252 0 l0 -172 ZM395 396 q85 -166 172 -227 q105 75 173 227 l-345 0 Z" /><glyph glyph-name="Identity.948" unicode="&#x76ee;" d="M825 789 l0 -800 l-655 0 l0 800 l655 0 ZM247 562 l497 0 l0 149 l-497 0 l0 -149 ZM247 326 l497 0 l0 160 l-497 0 l0 -160 ZM247 67 l497 0 l0 184 l-497 0 l0 -184 Z" /><glyph glyph-name="Identity.950" unicode="&#x77e2;" d="M503 295 q-16 -51 -46 -100 q-30 -49 -78 -100 q-48 -51 -122.5 -95.5 q-74.5 -44.5 -166.5 -74.5 l-30 72 q117 37 201.5 101 q84.5 64 125 127.5 q40.5 63.5 55.5 130.5 l-373 0 l0 78 l384 0 q0 22 -1 33 l0 10 q0 3 -0.5 9 q-0.5 6 -0.5 10 l0 154 l-184 0 q-53 -106 -122 -183 l-65 55 q53 53 105 145.5 q52 92.5 79 184.5 l82 -19 q-23 -69 -42 -107 l556 0 l0 -76 l-328 0 l0 -156 q0 -11 -2.5 -31 q-2.5 -20 -2.5 -29 l405 0 l0 -78 l-376 0 q45 -130 147 -225 q102 -95 236 -124 l-28 -80 q-147 41 -251 138 q-104 97 -157 230 Z" /><glyph glyph-name="Identity.951" unicode="&#x77f3;" d="M863 449 l0 -465 l-606 0 l0 353 q-74 -101 -167 -174 l-51 65 q102 75 186.5 205.5 q84.5 130.5 128.5 264.5 l-275 0 l0 77 l845 0 l0 -77 l-485 0 l-3 -9 l-3 -9 q-46 -132 -101 -231 l531 0 ZM332 61 l449 0 l0 313 l-449 0 l0 -313 Z" /><glyph glyph-name="Identity.952" unicode="&#x793a;" d="M841 777 l0 -79 l-680 0 l0 79 l680 0 ZM496 -55 q-38 -14 -183 -14 l-7 82 q14 0 42 -0.5 q28 -0.5 40 -0.5 l10 0 q33 0 40 1 q12 0 17 4.5 q5 4.5 5 16.5 l0 431 l-388 0 l0 79 l857 0 l0 -79 l-386 0 l0 -433 q0 -71 -47 -87 ZM324 352 q-33 -87 -92.5 -182 q-59.5 -95 -117.5 -150 l-60 59 q51 43 106 128.5 q55 85.5 87 166.5 l77 -22 ZM920 59 l-76 -34 q-20 59 -73 155.5 q-53 96.5 -103 162.5 l72 30 q50 -64 104.5 -159.5 q54.5 -95.5 75.5 -154.5 Z" /><glyph glyph-name="Identity.954" unicode="&#x79be;" d="M539 380 l0 -449 l-80 0 l0 446 q-66 -104 -165.5 -206 q-99.5 -102 -191.5 -154 l-45 76 q90 44 195 143 q105 99 167 196 l-347 0 l0 78 l387 0 l0 180 q-27 -4 -83 -10 l-10 -2 l-10 -1 q-11 -1 -31.5 -3 q-20.5 -2 -30.5 -3 l-10 -1 q-2 0 -5 -0.5 q-3 -0.5 -5 -0.5 l-10 -1 q-7 0 -20.5 -2 q-13.5 -2 -20.5 -2 l-10 -1 q-52 -4 -76 -5 q-4 33 -23 74 q95 7 126 10 l11 1 q7 1 21.5 2.5 q14.5 1.5 21.5 2.5 l11 1 q22 2 33 4 l11 1 q5 0 17 2 l11 1 l11 1 q14 2 22 3 l10 1 q249 33 365 68 l65 -70 q-92 -24 -233 -49 l-10 -2 q-10 -2 -16 -3 l-10 -2 q-6 0 -16 -2 l-10 -2 q-3 0 -8 -0.5 q-5 -0.5 -8 -1.5 l0 -188 l392 0 l0 -78 l-351 0 q65 -97 171 -196 q106 -99 195 -142 l-47 -77 q-90 52 -190.5 155 q-100.5 103 -169.5 208 Z" /><glyph glyph-name="Identity.955" unicode="&#x7a74;" d="M177 593 l0 -160 l-78 0 l0 234 l398 0 q-36 68 -95 154 l75 26 q69 -95 97 -156 l-74 -24 l406 0 l0 -234 l-80 0 l0 160 l-649 0 ZM409 431 q-37 -150 -114 -288 q-77 -138 -171 -213 l-54 66 q85 62 155.5 188.5 q70.5 126.5 102.5 264.5 l81 -18 ZM947 -1 l-57 -68 q-72 103 -179 293 l-5 9 q-4 7 -12 21.5 q-8 14.5 -12 21.5 l-5 9 q-61 114 -74 141 l75 22 q39 -75 79 -145 l5 -10 l6 -9 l5 -10 q1 0 2 -2 l1 -2 l5 -10 q6 -9 11 -19 l6 -9 q2 -2 4 -7 q2 -5 4 -8 l6 -9 q78 -131 135 -209 Z" /><glyph glyph-name="Identity.956" unicode="&#x7acb;" d="M557 694 l-81 -22 q-16 55 -48 159 l76 21 q33 -94 53 -158 ZM894 668 l0 -79 l-785 0 l0 79 l785 0 ZM935 54 l0 -80 l-869 0 l0 80 l474 0 q34 78 71 223 l3 11 l3 10 q2 7 5 19 q3 12 4 19 l3 10 q22 91 46 199 l89 -19 q-7 -23 -21 -74 q-14 -51 -20 -74 l-3 -10 q-3 -13 -8 -31 l-3 -11 l-5 -15 l-4 -16 l-3 -11 q-45 -155 -75 -230 l313 0 ZM416 117 l-75 -20 q-20 102 -42 196 l-2 11 q-4 14 -5 22 l-3 10 l-3 16 q-8 34 -21.5 93 q-13.5 59 -18.5 80 l80 20 q5 -21 15.5 -69 q10.5 -48 15.5 -73 l2 -11 q2 -7 4.5 -19 q2.5 -12 3.5 -18 l2 -10 q1 -3 2.5 -8.5 q1.5 -5.5 1.5 -7.5 l2 -11 l2 -11 q15 -70 32 -155 l1 -8 q3 -15 6 -27 Z" /><glyph glyph-name="Identity.957" unicode="&#x7af9;" d="M245 652 l258 0 l0 -65 q55 124 85 262 l71 -18 q-4 -17 -12 -53 l-3 -10 q0 -1 -0.5 -2.5 q-0.5 -1.5 -0.5 -2.5 l-2 -10 q-10 -40 -28 -101 l336 0 l0 -76 l-153 0 l0 -542 q0 -73 -43 -87 q-36 -16 -169 -16 l-6 83 q90 -2 120 0 q12 1 15.5 5 q3.5 4 3.5 15 l0 542 l-134 0 q-56 -129 -102 -189 l-66 50 q44 54 82 137 l1 2 l-163 0 l0 -646 l-76 0 l0 646 l-46 0 q-48 -112 -106 -189 l-67 50 q55 68 104.5 183 q49.5 115 75.5 229 l81 -19 q-9 -37 -23 -82 l-3 -9 q-15 -47 -30 -87 Z" /><glyph glyph-name="Identity.958" unicode="&#x7c73;" d="M539 365 l0 -437 l-80 0 l0 435 q-64 -110 -165 -221 q-101 -111 -193 -167 l-46 72 q84 46 184 149.5 q100 103.5 162 203.5 l-330 0 l0 75 l388 0 l0 372 l80 0 l0 -372 l389 0 l0 -75 l-331 0 q65 -98 166 -198 q101 -100 184 -143 l-46 -75 q-92 56 -194.5 165.5 q-102.5 109.5 -167.5 215.5 ZM882 766 q-50 -82 -53 -86 l-6 -9 l-12 -18 l-6 -9 q-51 -78 -87 -122 l-69 31 q36 47 80 121.5 q44 74.5 68 127.5 l85 -36 ZM342 564 l-76 -35 q-11 21 -26 46 l-4 8 q-40 68 -45 77 l-6 9 l-5 10 q-36 58 -52 83 l72 31 q26 -40 65 -101 l6 -10 q56 -91 71 -118 Z" /><glyph glyph-name="Identity.959" unicode="&#x7cf8;" d="M514 -52 q-37 -15 -166 -15 l-5 81 q86 -2 114 0 q11 0 14 3.5 q3 3.5 3 12.5 l0 283 q-292 -21 -328 -35 l-22 80 q26 4 132 63 q55 31 173 113 q-195 -13 -253 -31 l-22 79 q24 4 69 46 q29 22 91 88.5 q62 66.5 106 128.5 l77 -41 q-108 -134 -215 -220 l239 19 q31 23 95 79 l7 6 l4 4 l7 7 q2 1 4 3 q2 2 4 3 l7 7 q20 18 28 26 l71 -53 q-1 -1 -2.5 -2 q-1.5 -1 -2.5 -2.5 q-1 -1.5 -2 -2.5 l-8 -6 q-16 -14 -23 -20 l-8 -7 q-8 -6 -12 -10 l-8 -6 q-5 -5 -8 -7 l-8 -6 q-1 -1 -16 -13 l-8 -7 l-2 -1 q-2 -1 -2 -2 l-8 -7 q-6 -4 -8 -6 l-8 -6 q-1 0 -5.5 -4 q-4.5 -4 -7.5 -6 l-8 -6 q-2 -2 -15.5 -12.5 q-13.5 -10.5 -21.5 -15.5 l-8 -6 q-21 -16 -49 -35 l-9 -6 q-46 -32 -70 -47 l-8 -5 q-2 -1 -6 -4 q-4 -3 -6 -4 l-8 -5 q-49 -30 -81 -47 l441 30 q-42 48 -92 98 l64 35 q55 -52 117 -123 q62 -71 90 -116 l-71 -38 q-13 22 -56 80 l-248 -18 l0 -289 q0 -68 -42 -82 ZM933 13 l-70 -46 q-34 46 -104.5 121 q-70.5 75 -126.5 121 l64 39 q55 -45 127.5 -117.5 q72.5 -72.5 109.5 -117.5 ZM358 218 q-65 -95 -160 -190 l-7 -7 q-41 -41 -66 -60 l-54 61 q48 34 110 100.5 q62 66.5 99 124.5 l78 -29 Z" /><glyph glyph-name="Identity.961" unicode="&#x7f51;" d="M180 717 l0 -786 l-79 0 l0 860 l801 0 l0 -757 q0 -69 -47 -88 q-42 -16 -189 -14 l-5 79 q56 -2 91 -2 l11 0 l36 0 q24 1 24 25 l0 683 l-643 0 ZM382 305 q-75 -179 -140 -247 l-55 51 q89 86 154 263 q-74 107 -137 183 l50 44 q55 -64 116 -149 q8 28 13.5 62.5 q5.5 34.5 10.5 78 q5 43.5 9 66.5 l74 -7 q-8 -46 -12 -70 l-2 -10 l-2 -15 q-2 -8 -4 -20 l-2 -10 q-18 -92 -35 -145 q21 -29 90 -155 l-52 -50 q-40 74 -76 130 ZM651 300 q-12 -29 -26 -61 l-4 -9 q-56 -122 -112 -180 l-55 51 q80 71 152 270 q-15 23 -39 58 l-5 8 l-6 9 q-7 8 -11 17 l-6 8 q-23 34 -60 84 l52 40 q24 -29 49 -66 l6 -9 q2 -2 6 -8 l9 -13 q11 -17 33 -49 q15 58 39 205 l70 -8 q-3 -27 -9 -56 l-2 -10 q0 -4 -1 -5 l-1 -11 q-24 -120 -46 -187 q70 -106 105 -191 l-56 -43 q-18 42 -63 123 l-5 9 q-1 1 -2 2.5 q-1 1.5 -1 2.5 l-5 9 q-4 6 -6 10 Z" /><glyph glyph-name="Identity.962" unicode="&#x7f8a;" d="M537 171 l0 -242 l-76 0 l0 242 l-394 0 l0 77 l394 0 l0 148 l-292 0 l0 77 l292 0 l0 133 l-341 0 l0 77 l205 0 q-19 50 -83 137 l70 28 q65 -84 91 -148 l-59 -17 l279 0 q29 51 71 167 l83 -23 q-37 -73 -84 -144 l194 0 l0 -77 l-350 0 l0 -133 l290 0 l0 -77 l-290 0 l0 -148 l397 0 l0 -77 l-397 0 Z" /><glyph glyph-name="Identity.963" unicode="&#x7fbd;" d="M847 -49 q-37 -15 -200 -15 l-5 82 q80 -5 150 -1 q25 1 25 28 l0 269 q-9 -5 -26.5 -16 q-17.5 -11 -25.5 -16 l-9 -6 l-9 -5 q-1 -1 -2.5 -2 q-1.5 -1 -2.5 -1 l-9 -6 q-1 0 -2 -1 q-1 -1 -2 -2 l-27 -17 q-128 -80 -178 -108 l-40 71 q36 19 210 115 l9 6 l10 5 l19 11 q6 4 10 5 l9 6 q4 2 5 2 l9 6 q18 10 52 28 l0 335 l-309 0 l0 76 l388 0 l0 -756 q0 -78 -49 -93 ZM412 -48 q-36 -14 -179 -14 l-6 80 q34 -1 80.5 -1.5 q46.5 -0.5 56.5 0.5 q12 1 14 5.5 q2 4.5 2 20.5 l0 250 q-16 -9 -49 -29.5 q-33 -20.5 -49 -29.5 l-9 -6 q-6 -4 -9 -5 l-9 -6 l-13 -8 q-118 -72 -162 -94 l-33 70 q23 11 194 105 l10 5 l5 3 l9 5 q36 20 115 63 l0 358 l-305 0 l0 76 l383 0 l0 -757 q0 -75 -46 -91 ZM728 468 l-65 -46 q-102 140 -144 183 l61 40 q79 -81 148 -177 ZM307 457 l-65 -44 q-26 39 -73 97 l-7 8 q-50 60 -70 82 l62 37 q20 -20 66 -72 l7 -8 q55 -64 80 -100 Z" /><glyph glyph-name="Identity.965" unicode="&#x800c;" d="M197 512 l0 -583 l-80 0 l0 657 l294 0 q4 14 31 134 l-376 0 l0 78 l873 0 l0 -78 l-407 0 q-2 -10 -4 -15 l-2 -10 q0 -1 -1 -2.5 q-1 -1.5 -1 -2.5 l-3 -10 q-15 -52 -31 -94 l397 0 l0 -557 q0 -64 -40 -80 q-34 -14 -164 -14 l-6 74 l113 0 q18 1 18 21 l0 482 l-161 0 l0 -548 l-71 0 l0 548 l-158 0 l0 -548 l-77 0 l0 548 l-144 0 Z" /><glyph glyph-name="Identity.967" unicode="&#x8033;" d="M768 91 l0 -161 l-79 0 l0 155 l-11 0 l-11 -1 q-5 0 -15.5 -1 q-10.5 -1 -16.5 -2 l-17 -1 l-16 -1 q-17 -2 -55 -4 l-16 -2 q-3 0 -8.5 -0.5 q-5.5 -0.5 -8.5 -0.5 l-16 -1 q-4 -1 -11 -1 l-11 -1 q-60 -5 -117 -9 l-10 -1 q-3 -1 -10 -1 q-7 0 -11 -1 l-10 -1 q-54 -4 -139.5 -10 q-85.5 -6 -107.5 -8 l-10 83 q37 2 111 6 l10 0 q36 2 52 2 l0 585 l-157 0 l0 79 l848 0 l0 -79 l-157 0 l0 -545 l168 13 l-2 -78 l-166 -13 ZM312 581 l377 0 l0 133 l-377 0 l0 -133 ZM312 362 l377 0 l0 143 l-377 0 l0 -143 ZM312 286 l0 -150 l42 3 l9 0 q18 2 28 2 l10 1 q4 0 12 1 q8 1 12 1 l10 0 q11 1 34.5 2.5 q23.5 1.5 34.5 2.5 l10 1 q12 1 35.5 2.5 q23.5 1.5 35.5 1.5 l11 1 q3 0 5 1 l15 1 l11 0 l15 1 q8 0 23.5 1 q15.5 1 23.5 2 l0 125 l-377 0 Z" /><glyph glyph-name="Identity.968" unicode="&#x807f;" d="M534 89 l0 -158 l-76 0 l0 158 l-385 0 l0 71 l385 0 l0 87 l-322 0 l0 70 l322 0 l0 82 l-298 0 l0 69 l298 0 l0 76 l-394 0 l0 69 l394 0 l0 76 l-293 0 l0 69 l293 0 l0 91 l76 0 l0 -91 l300 0 l0 -145 l103 0 l0 -69 l-103 0 l0 -145 l-300 0 l0 -82 l333 0 l0 -70 l-333 0 l0 -87 l397 0 l0 -71 l-397 0 ZM534 613 l227 0 l0 76 l-227 0 l0 -76 ZM534 468 l227 0 l0 76 l-227 0 l0 -76 Z" /><glyph glyph-name="Identity.969" unicode="&#x8089;" d="M848 -57 q-38 -16 -188 -16 l-4 81 q50 -2 136 -2 q21 1 21 25 l0 601 l-289 0 q-2 -6 -4.5 -17.5 q-2.5 -11.5 -4.5 -18.5 q149 -86 256 -170 l-54 -64 q-58 51 -141 110 l-9 7 q-40 28 -83 55 q-64 -120 -220 -186 l-33 66 q160 62 213 218 l-258 0 l0 -702 l-78 0 l0 778 l356 0 q6 34 10 111 l1 10 l0 5 l1 10 l84 0 q-7 -81 -17 -136 l349 0 l0 -677 q0 -72 -44 -88 ZM488 250 q-82 -138 -230 -194 l-30 66 q191 64 242 304 l82 0 q-18 -77 -31 -112 q56 -38 128 -97 q72 -59 114 -99 l-58 -59 q-132 129 -217 191 Z" /><glyph glyph-name="Identity.970" unicode="&#x81e3;" d="M915 55 l0 -79 l-780 0 l0 826 l755 0 l0 -79 l-327 0 l0 -162 l267 0 l0 -314 l-267 0 l0 -192 l352 0 ZM215 561 l270 0 l0 162 l-270 0 l0 -162 ZM215 323 l533 0 l0 162 l-533 0 l0 -162 ZM215 55 l270 0 l0 192 l-270 0 l0 -192 Z" /><glyph glyph-name="Identity.971" unicode="&#x81ea;" d="M841 718 l0 -746 l-666 0 l0 746 l244 0 q20 61 34 131 l90 -13 q-23 -67 -49 -118 l347 0 ZM252 504 l509 0 l0 138 l-509 0 l0 -138 ZM252 288 l509 0 l0 140 l-509 0 l0 -140 ZM252 48 l509 0 l0 164 l-509 0 l0 -164 Z" /><glyph glyph-name="Identity.972" unicode="&#x81f3;" d="M899 455 l-68 -48 q-30 38 -65 73 q-365 -17 -472.5 -25 q-107.5 -8 -133.5 -17 l-21 80 q22 3 64 45 q24 20 68.5 66 q44.5 46 79.5 92 l-262 0 l0 74 l815 0 l0 -74 l-462 0 q-5 -8 -15.5 -21.5 q-10.5 -13.5 -12.5 -15.5 l-6 -8 q-71 -90 -139 -152 l435 18 q-67 60 -123 104 l61 41 q69 -52 145.5 -120 q76.5 -68 111.5 -112 ZM936 46 l0 -76 l-869 0 l0 76 l394 0 l0 187 l-306 0 l0 74 l306 0 l0 132 l75 0 l0 -132 l316 0 l0 -74 l-316 0 l0 -187 l400 0 Z" /><glyph glyph-name="Identity.973" unicode="&#x81fc;" d="M895 744 l0 -1 l0 -751 l-779 0 l0 722 q207 69 311 135 l60 -71 q-58 -30 -158 -70 l-10 -3 q-4 -1 -10.5 -3.5 q-6.5 -2.5 -9.5 -4.5 l-9 -3 q-73 -25 -92 -31 l0 -228 l254 0 l0 -79 l-254 0 l0 -284 l614 0 l0 284 l-273 0 l0 79 l273 0 l0 229 l-280 0 l0 80 l363 0 Z" /><glyph glyph-name="Identity.976" unicode="&#x821f;" d="M292 347 q-9 -116 -53.5 -234 q-44.5 -118 -127.5 -188 q-8 12 -28 30.5 q-20 18.5 -31 24.5 q77 64 117 165.5 q40 101.5 48 201.5 l-152 0 l0 75 l155 0 l0 313 l199 0 q9 20 21.5 61.5 q12.5 41.5 16.5 53.5 l93 -13 q-27 -61 -55 -102 l290 0 l0 -313 l153 0 l0 -75 l-153 0 l0 -310 q0 -69 -41 -86 q-36 -14 -169 -14 l-5 78 q39 -1 108 -1 l7 0 q22 1 22 23 l0 310 l-415 0 ZM297 422 l410 0 l0 240 l-410 0 l0 -240 ZM609 492 l-56 -47 q-22 30 -70.5 75 q-48.5 45 -92.5 77 l51 39 q122 -84 168 -144 ZM613 153 l-56 -49 q-26 34 -78 82 q-52 48 -97 76 l52 45 q42 -26 94 -71.5 q52 -45.5 85 -82.5 Z" /><glyph glyph-name="Identity.978" unicode="&#x8272;" d="M952 166 q-7 -62 -20.5 -99.5 q-13.5 -37.5 -45.5 -66.5 q-32 -29 -87 -41 q-55 -12 -141 -12 l-185 0 q-118 0 -181.5 16 q-63.5 16 -86 47 q-22.5 31 -22.5 88 l0 428 q-25 -24 -87 -67 l-45 71 q90 54 178 143 q88 89 134 179 l72 -27 q-11 -20 -39 -62 l240 0 l15 7 l52 -38 q-69 -102 -120 -151 l266 0 l0 -328 l-592 0 l0 -156 q0 -30 14 -45 q14 -15 61.5 -23.5 q47.5 -8.5 142.5 -8.5 l183 0 q69 0 110 8 q41 8 63.5 29.5 q22.5 21.5 30.5 47.5 q8 26 12 74 l78 -13 ZM243 581 l250 0 q55 52 101 115 l-245 0 q-37 -52 -106 -115 ZM257 328 l216 0 l0 180 l-216 0 l0 -180 ZM546 328 l225 0 l0 180 l-225 0 l0 -180 Z" /><glyph glyph-name="Identity.981" unicode="&#x866b;" d="M941 -43 l-78 -37 q-22 46 -39 75 l-5 10 q-1 3 -4.5 9 q-3.5 6 -5.5 9 q-2 0 -5.5 -0.5 q-3.5 -0.5 -4.5 -0.5 l-11 0 q-29 -2 -89 -6 l-11 -1 q-2 0 -7.5 -0.5 q-5.5 -0.5 -8.5 -0.5 l-10 -1 q-4 0 -11.5 -0.5 q-7.5 -0.5 -10.5 -0.5 l-16 -1 l-11 -1 l-16 -1 l-5 0 l-27 -2 l-11 -1 l-11 0 q-50 -4 -74 -5 l-11 -1 l-11 -1 q-15 -1 -44 -2.5 q-29 -1.5 -44 -2.5 l-10 -1 q-61 -4 -161.5 -10.5 q-100.5 -6.5 -113.5 -7.5 l-11 85 q27 1 116.5 5.5 q89.5 4.5 144.5 6.5 l11 1 l6 0 l16 1 l10 0 q5 0 14 1 q9 1 13 1 l11 0 l48 3 l0 229 l-313 0 l0 388 l313 0 l0 154 l79 0 l0 -154 l316 0 l0 -388 l-316 0 l0 -225 q11 1 33.5 2 q22.5 1 33.5 1 l10 1 l10 0 l10 1 l10 0 l10 1 l10 0 l5 1 l10 0 q6 0 10 1 l9 0 q2 0 7 0.5 q5 0.5 8 0.5 l10 0 q4 1 12.5 1.5 q8.5 0.5 12.5 0.5 l9 0 q7 0 10 1 q-57 80 -95 124 l73 32 q52 -59 113.5 -149 q61.5 -90 87.5 -145 ZM532 387 l233 0 l0 230 l-233 0 l0 -230 ZM218 387 l235 0 l0 230 l-235 0 l0 -230 Z" /><glyph glyph-name="Identity.982" unicode="&#x8840;" d="M949 64 l0 -77 l-897 0 l0 77 l101 0 l0 597 l228 0 q38 83 61 188 l91 -24 q-44 -102 -78 -164 l400 0 l0 -597 l94 0 ZM639 64 l137 0 l0 523 l-137 0 l0 -523 ZM430 64 l139 0 l0 523 l-139 0 l0 -523 ZM229 64 l131 0 l0 523 l-131 0 l0 -523 Z" /><glyph glyph-name="Identity.984" unicode="&#x8863;" d="M626 70 q-302 -95 -363 -135 l-2 -2 q-1 -1 -2 -1 l-41 65 q16 9 34.5 34.5 q18.5 25.5 18.5 54.5 l0 275 q-88 -64 -183 -109 l-37 78 q101 40 207 122 q106 82 171 167 l-357 0 l0 74 l419 0 q-17 61 -62 134 l78 25 q48 -76 67 -142 l-69 -17 l423 0 l0 -74 l-358 0 q1 -5 3 -15.5 q2 -10.5 3 -15.5 l3 -15 q2 -14 4 -20 l2 -11 q26 -132 58 -196 q49 41 105 97.5 q56 56.5 89 98.5 l67 -49 q-50 -55 -102 -103 l-7 -7 l-4 -4 l-8 -7 q-44 -40 -96 -83 l-7 -5 q46 -71 117 -140 q71 -69 153 -117 l-48 -73 q-165 104 -258.5 251 q-93.5 147 -135.5 341 l-2 10 q-4 14 -7 35 q-7 -8 -21 -26 l-6 -8 q-72 -93 -124 -133 l0 -369 l259 88 q3 -30 19 -73 Z" /><glyph glyph-name="Identity.988" unicode="&#x8a00;" d="M938 703 l0 -68 l-871 0 l0 68 l434 0 q-32 56 -88 121 l73 25 q71 -73 96 -131 l-32 -15 l388 0 ZM791 563 l0 -67 l-580 0 l0 67 l580 0 ZM791 415 l0 -67 l-580 0 l0 67 l580 0 ZM802 258 l0 -295 l-600 0 l0 295 l600 0 ZM279 31 l444 0 l0 157 l-444 0 l0 -157 Z" /><glyph glyph-name="Identity.989" unicode="&#x8c37;" d="M911 606 l-67 -51 q-31 29 -144 130 l-8 7 q-58 52 -110 96 l54 44 q120 -97 124 -100 l9 -7 q5 -5 13 -10 l8 -7 q97 -81 121 -102 ZM415 793 q-50 -64 -123.5 -132 q-73.5 -68 -141.5 -112 l-48 66 q61 35 132 94.5 q71 59.5 112 114.5 l69 -31 ZM774 312 l0 -352 l-544 0 l0 361 q-84 -54 -136 -75 l-34 82 q124 39 248 141 q124 102 187 209 l65 -42 q-1 -2 -3.5 -5.5 q-2.5 -3.5 -3.5 -5.5 l-5 -9 q-6 -8 -8 -11 q66 -82 184.5 -163.5 q118.5 -81.5 218.5 -112.5 l-38 -83 q-73 29 -131 66 ZM269 342 l458 0 q-130 85 -231 210 q-106 -130 -227 -210 ZM311 32 l384 0 l0 239 l-384 0 l0 -239 Z" /><glyph glyph-name="Identity.990" unicode="&#x8c46;" d="M904 799 l0 -75 l-813 0 l0 75 l813 0 ZM803 632 l0 -329 l-621 0 l0 329 l621 0 ZM260 379 l460 0 l0 177 l-460 0 l0 -177 ZM405 80 l-76 -24 q-36 106 -77 210 l75 19 q10 -24 34 -86 l4 -11 q20 -53 40 -108 ZM929 41 l0 -75 l-860 0 l0 75 l496 0 q11 18 21.5 41.5 q10.5 23.5 22.5 54.5 q12 31 19 50 q7 19 19.5 55 q12.5 36 14.5 42 l85 -22 q-17 -35 -43 -96 l-7 -14 q-34 -78 -54 -111 l286 0 Z" /><glyph glyph-name="Identity.994" unicode="&#x8d64;" d="M626 -54 q-35 -15 -164 -15 l-6 79 q74 -2 113 1 q17 0 17 17 l0 421 l-149 0 l0 -66 q-2 -317 -212 -452 q-9 13 -27.5 32 q-18.5 19 -31.5 27 q193 126 195 395 l0 64 l-276 0 l0 77 l376 0 l0 130 l-283 0 l0 77 l283 0 l0 113 l79 0 l0 -113 l288 0 l0 -77 l-288 0 l0 -130 l383 0 l0 -77 l-259 0 l0 -422 q0 -68 -38 -81 ZM946 120 l-74 -34 q-20 49 -67 131.5 q-47 82.5 -88 137.5 l69 28 q43 -55 92 -135 q49 -80 68 -128 ZM285 360 q-28 -68 -77 -145.5 q-49 -77.5 -98 -122.5 l-53 52 q40 37 83 108 q43 71 65 131 l80 -23 Z" /><glyph glyph-name="Identity.995" unicode="&#x8d70;" d="M255 164 q-64 -169 -153 -241 l-51 59 q74 58 121.5 182.5 q47.5 124.5 58.5 243.5 l83 -11 q-4 -26 -11 -61 l-2 -11 q-6 -34 -14 -68 q63 -151 173 -197 l0 400 l-385 0 l0 76 l385 0 l0 126 l-299 0 l0 74 l299 0 l0 110 l75 0 l0 -110 l315 0 l0 -74 l-315 0 l0 -126 l389 0 l0 -76 l-389 0 l0 -151 l323 0 l0 -73 l-323 0 l0 -199 q82 -17 175 -17 q25 -1 117 -0.5 q92 0.5 124 1.5 q-20 -34 -29 -79 l-216 0 q-324 0 -451 222 Z" /><glyph glyph-name="Identity.996" unicode="&#x8db3;" d="M264 164 q-63 -167 -152 -236 q-33 39 -57 54 q76 59 123.5 180 q47.5 121 58.5 237 l84 -11 q-14 -90 -24 -128 q60 -159 172 -202 l0 408 l-290 0 l0 337 l663 0 l0 -337 l-300 0 l0 -149 l327 0 l0 -74 l-327 0 l0 -207 q82 -16 164 -16 l33 0 l4 0 l10 0 q170 0 199 1 q-20 -34 -29 -77 l-221 0 q-318 0 -438 220 ZM256 543 l506 0 l0 181 l-506 0 l0 -181 Z" /><glyph glyph-name="Identity.997" unicode="&#x8eab;" d="M689 229 q-78 -61 -171 -117 l-8 -5 q-12 -7 -13 -8 l-9 -5 l-8 -5 q-49 -28 -107 -57 l-10 -4 q-22 -12 -41 -20 l-9 -5 q-90 -41 -176 -71 l-10 -3 q-22 -8 -34 -12 l-28 73 q127 32 282 105 l9 5 q10 4 28 14 l9 4 q117 61 202 119 l-504 0 l0 69 l132 0 l0 448 l197 0 q23 50 37 96 l88 -16 q-39 -70 -46 -80 l264 0 l0 -366 q60 70 96 123 l68 -33 q-73 -104 -164 -186 l0 -250 q0 -76 -48 -93 q-48 -15 -205 -15 l-5 80 q20 0 30 -1 l12 0 l63 0 l10 0 l42 0 q27 3 27 29 l0 187 ZM297 607 l392 0 l0 77 l-392 0 l0 -77 ZM297 461 l392 0 l0 84 l-392 0 l0 -84 ZM297 306 l376 0 l16 13 l0 80 l-392 0 l0 -93 Z" /><glyph glyph-name="Identity.999" unicode="&#x8f9b;" d="M535 174 l0 -245 l-76 0 l0 245 l-344 0 l0 76 l344 0 l0 152 l-392 0 l0 75 l258 0 q-15 63 -66 154 l64 21 l-185 0 l0 73 l338 0 q-28 58 -51 104 l72 24 q39 -70 61 -128 l313 0 l0 -73 l-538 0 q53 -98 66 -160 l-51 -15 l261 0 q33 69 62 172 l79 -13 q-46 -109 -72 -159 l256 0 l0 -75 l-399 0 l0 -152 l357 0 l0 -76 l-357 0 Z" /><glyph glyph-name="Identity.1000" unicode="&#x8fb0;" d="M228 376 q-6 -120 -34 -247.5 q-28 -127.5 -76 -206.5 l-71 44 q106 170 106 546 l0 287 l756 0 l0 -79 l-676 0 l0 -213 q0 -37 -3 -57 l706 0 l0 -74 l-352 0 q3 -6 7.5 -18 q4.5 -12 6.5 -18 l3 -10 q35 -87 61 -121 q103 74 172 151 l68 -50 q-95 -82 -196 -148 q48 -46 112 -85.5 q64 -39.5 123 -55.5 l-30 -75 q-143 45 -245.5 161.5 q-102.5 116.5 -152.5 268.5 l-117 0 l0 -330 l208 63 q-2 -42 2 -72 q-236 -76 -273 -106 l-43 65 q13 8 25 30 q12 22 12 50 l0 300 l-99 0 ZM850 629 l0 -75 l-550 0 l0 75 l550 0 Z" /><glyph glyph-name="Identity.1006" unicode="&#x91d1;" d="M921 35 l0 -74 l-841 0 l0 74 l380 0 l0 248 l-335 0 l0 74 l335 0 l0 129 l-206 0 l0 55 q-77 -44 -168 -76 l-34 78 q129 43 255 129 q126 86 190 185 l72 -35 q-24 -35 -27 -38 q66 -71 184.5 -139 q118.5 -68 222.5 -101 l-33 -76 q-70 25 -169 84 l0 -66 l-212 0 l0 -129 l341 0 l0 -74 l-341 0 l0 -248 l386 0 ZM280 558 l453 0 q-47 28 -84 55 l-9 6 q-85 60 -141 118 q-104 -115 -219 -179 ZM372 79 l-70 -30 q-10 33 -39 92.5 q-29 59.5 -55 97.5 l67 27 q26 -39 56 -96.5 q30 -57.5 41 -90.5 ZM793 237 q-93 -150 -120 -189 l-60 26 q37 66 50 90 l6 10 q36 68 48 92 l76 -29 Z" /><glyph glyph-name="Identity.1007" unicode="&#x9580;" d="M854 -54 q-44 -15 -197 -15 l-5 82 q26 -2 85 -2 l11 0 q42 0 51 1 q24 1 24 26 l0 403 l-285 0 l0 363 l364 0 l0 -766 q0 -75 -48 -92 ZM181 442 l0 -512 l-77 0 l0 874 l351 0 l0 -362 l-274 0 ZM612 659 l211 0 l0 76 l-211 0 l0 -76 ZM181 659 l201 0 l0 76 l-201 0 l0 -76 ZM612 509 l211 0 l0 89 l-211 0 l0 -89 ZM181 509 l201 0 l0 89 l-201 0 l0 -89 Z" /><glyph glyph-name="Identity.1008" unicode="&#x961c;" d="M537 105 l0 -176 l-76 0 l0 176 l-396 0 l0 73 l396 0 l0 79 l-272 0 l0 499 l214 0 q22 39 41 93 l93 -12 q-25 -47 -54 -81 l304 0 l0 -208 l-520 0 l0 -67 l551 0 l0 -224 l-281 0 l0 -79 l399 0 l0 -73 l-399 0 ZM267 613 l444 0 l0 79 l-444 0 l0 -79 ZM267 322 l474 0 l0 95 l-474 0 l0 -95 Z" /><glyph glyph-name="Identity.1011" unicode="&#x96e8;" d="M189 516 l0 -585 l-76 0 l0 659 l344 0 l0 121 l-393 0 l0 78 l871 0 l0 -78 l-402 0 l0 -121 l358 0 l0 -559 q0 -66 -44 -82 q-39 -13 -180 -13 l-6 73 q20 -1 64 -1 l11 0 l56 0 q21 1 21 23 l0 485 l-280 0 l0 -575 l-76 0 l0 575 l-268 0 ZM785 355 l-46 -52 q-112 82 -173 116 l44 45 q55 -29 175 -109 ZM435 353 l-46 -52 q-109 85 -165 118 l45 44 q26 -14 166 -110 ZM777 147 l-43 -52 q-8 6 -53 40 l-8 6 q-81 60 -120 84 l44 45 q26 -15 58 -37 q32 -22 73.5 -51.5 q41.5 -29.5 48.5 -34.5 ZM433 143 l-47 -51 q-110 92 -172 132 l46 45 q74 -46 173 -126 Z" /><glyph glyph-name="Identity.1013" unicode="&#x975e;" d="M435 844 l0 -914 l-75 0 l0 249 l-291 0 l0 76 l291 0 l0 153 l-253 0 l0 77 l253 0 l0 140 l-268 0 l0 77 l268 0 l0 142 l75 0 ZM650 178 l0 -249 l-76 0 l0 914 l76 0 l0 -141 l278 0 l0 -77 l-278 0 l0 -140 l258 0 l0 -77 l-258 0 l0 -153 l295 0 l0 -77 l-295 0 Z" /><glyph glyph-name="Identity.1014" unicode="&#x9762;" d="M884 595 l0 -624 l-768 0 l0 624 l302 0 q6 20 14.5 62 q8.5 42 10.5 52 l-372 0 l0 76 l861 0 l0 -76 l-402 0 q-18 -67 -35 -114 l389 0 ZM393 418 l200 0 l0 104 l-200 0 l0 -104 ZM192 45 l136 0 l0 477 l-136 0 l0 -477 ZM657 45 l148 0 l0 477 l-148 0 l0 -477 ZM393 242 l200 0 l0 110 l-200 0 l0 -110 ZM393 45 l200 0 l0 132 l-200 0 l0 -132 Z" /><glyph glyph-name="Identity.1015" unicode="&#x9769;" d="M537 94 l0 -165 l-75 0 l0 165 l-397 0 l0 74 l397 0 l0 83 l-287 0 l0 246 l287 0 l0 61 l-174 0 l0 137 l-206 0 l0 70 l206 0 l0 84 l74 0 l0 -84 l275 0 l0 84 l76 0 l0 -84 l207 0 l0 -70 l-207 0 l0 -137 l-176 0 l0 -61 l296 0 l0 -246 l-296 0 l0 -83 l400 0 l0 -74 l-400 0 ZM362 621 l275 0 l0 74 l-275 0 l0 -74 ZM537 317 l215 0 l0 114 l-215 0 l0 -114 ZM252 317 l210 0 l0 114 l-210 0 l0 -114 Z" /><glyph glyph-name="Identity.1017" unicode="&#x97ed;" d="M937 46 l0 -77 l-872 0 l0 77 l286 0 l0 149 l-255 0 l0 75 l255 0 l0 138 l-235 0 l0 73 l235 0 l0 128 l-248 0 l0 74 l248 0 l0 157 l73 0 l0 -794 l152 0 l0 794 l70 0 l0 -155 l260 0 l0 -74 l-260 0 l0 -127 l247 0 l0 -74 l-247 0 l0 -137 l266 0 l0 -76 l-266 0 l0 -151 l291 0 Z" /><glyph glyph-name="Identity.1018" unicode="&#x97f3;" d="M933 534 l0 -72 l-866 0 l0 72 l248 0 q-14 67 -56 139 l68 16 l-203 0 l0 71 l348 0 q-25 55 -39 78 l77 16 q33 -43 46 -94 l328 0 l0 -71 l-196 0 l66 -15 q-31 -69 -71 -140 l250 0 ZM364 534 l246 0 q26 50 59 155 l-335 0 q37 -55 53 -145 l-23 -10 ZM805 382 l0 -425 l-601 0 l0 425 l601 0 ZM280 211 l446 0 l0 102 l-446 0 l0 -102 ZM280 26 l446 0 l0 121 l-446 0 l0 -121 Z" /><glyph glyph-name="Identity.1019" unicode="&#x9801;" d="M828 646 l0 -512 l-639 0 l0 512 l247 0 q0 1 1 2.5 q1 1.5 1 2.5 l2 9 q12 36 17 65 l-364 0 l0 74 l811 0 l0 -74 l-364 0 q-5 -16 -15.5 -45 q-10.5 -29 -12.5 -34 l316 0 ZM268 498 l478 0 l0 84 l-478 0 l0 -84 ZM268 350 l478 0 l0 88 l-478 0 l0 -88 ZM268 199 l478 0 l0 90 l-478 0 l0 -90 ZM433 73 q-68 -40 -162.5 -82.5 q-94.5 -42.5 -172.5 -64.5 l-27 70 q64 17 158 57.5 q94 40.5 142 72.5 l62 -53 ZM939 -16 l-72 -56 q-174 98 -299 140 l48 52 q150 -50 323 -136 Z" /><glyph glyph-name="Identity.1020" unicode="&#x98a8;" d="M242 482 q0 -144 -30.5 -302 q-30.5 -158 -101.5 -253 l-62 46 q66 88 92 227 q26 139 26 278 l0 319 l664 0 l0 -80 l0 -20 l0 -20 l0 -14 l0 -13 l0 -14 l0 -14 l0 -13 q0 -15 0.5 -44.5 q0.5 -29.5 0.5 -44.5 l0 -13 q6 -494 55 -494 q15 0 20 143 l51 -16 q-6 -115 -23.5 -162.5 q-17.5 -47.5 -53.5 -47.5 q-25 0 -44.5 24.5 q-19.5 24.5 -32.5 73.5 q-13 49 -21.5 107 q-8.5 58 -13.5 141.5 q-5 83.5 -7.5 160 q-2.5 76.5 -3.5 177.5 l0 15 q0 8 -0.5 24.5 q-0.5 16.5 -0.5 25.5 l0 15 l0 14 l0 15 l-514 0 l0 -241 ZM767 -13 l-66 -28 q-8 36 -29 82 l-6 0 l-10 -1 l-11 -1 q-76 -6 -113 -9 l-11 -1 q-7 0 -11 -1 l-10 -1 q-12 0 -32 -2 l-11 -1 q-187 -16 -217 -18 l-5 73 q25 1 60 3 q35 2 83.5 5 q48.5 3 79.5 5 l0 143 l-165 0 l0 277 l165 0 l0 81 q-9 -1 -29 -3 l-10 -1 q-6 0 -10 -1 l-10 -1 l-10 -1 q-27 -2 -101 -7 q-7 34 -22 60 q27 1 85 7 l10 1 q186 18 299 48 l55 -58 q-90 -24 -191 -36 l0 -89 l169 0 l0 -277 l-169 0 l0 -138 l117 7 q-34 59 -55 89 l61 21 q34 -44 70.5 -114.5 q36.5 -70.5 49.5 -112.5 ZM524 298 l103 0 l0 149 l-103 0 l0 -149 ZM355 298 l103 0 l0 149 l-103 0 l0 -149 Z" /><glyph glyph-name="Identity.1022" unicode="&#x9996;" d="M821 560 l0 -586 l-641 0 l0 586 l254 0 l21 84 l-389 0 l0 71 l258 0 q-20 36 -85 105 l68 31 q67 -65 94 -117 l-44 -19 l251 0 q23 30 80 134 l85 -23 q-32 -50 -89 -111 l252 0 l0 -71 l-392 0 q-23 -72 -29 -84 l306 0 ZM256 396 l486 0 l0 93 l-486 0 l0 -93 ZM256 232 l486 0 l0 99 l-486 0 l0 -99 ZM256 45 l486 0 l0 123 l-486 0 l0 -123 Z" /><glyph glyph-name="Identity.1023" unicode="&#x9999;" d="M460 553 q-63 -83 -166 -161 q-103 -78 -201 -118 l-34 70 q77 27 169.5 88.5 q92.5 61.5 153.5 125.5 l-312 0 l0 69 l390 0 l0 94 q-71 -7 -128 -11 l-15 -1 q-75 -6 -147 -9 q-2 28 -19 68 q81 4 116 7 l11 1 q2 0 8 0.5 q6 0.5 8 0.5 l11 1 q8 0 25 2 q17 2 25 2 l11 1 q8 1 24.5 2.5 q16.5 1.5 24.5 2.5 l11 1 q8 1 22 2 q14 1 22 2 l11 2 q185 20 284 46 l58 -61 q-114 -31 -248 -47 l-10 -1 q-18 -2 -26 -3 l0 -102 l392 0 l0 -69 l-314 0 q63 -60 156.5 -118.5 q93.5 -58.5 168.5 -83.5 l-33 -71 q-97 40 -201 115.5 q-104 75.5 -169 152.5 l0 -193 l-79 0 l0 193 ZM798 337 l0 -380 l-581 0 l0 380 l581 0 ZM292 185 l427 0 l0 89 l-427 0 l0 -89 ZM292 21 l427 0 l0 106 l-427 0 l0 -106 Z" /><glyph glyph-name="Identity.1026" unicode="&#x9ad8;" d="M925 747 l0 -68 l-853 0 l0 68 l398 0 q-18 48 -33 87 l78 18 q15 -37 37 -105 l373 0 ZM786 633 l0 -204 l-563 0 l0 204 l563 0 ZM298 489 l409 0 l-1 83 l-408 0 l0 -83 ZM185 313 l0 -383 l-77 0 l0 451 l785 0 l0 -368 q0 -52 -37 -65 q-33 -12 -145 -9 l-5 58 l93 0 q15 1 15 16 l0 300 l-629 0 ZM696 258 l0 -228 l-405 0 l0 228 l405 0 ZM363 91 l264 0 l0 106 l-264 0 l0 -106 Z" /><glyph glyph-name="Identity.1034" unicode="&#x9e7f;" d="M207 355 q-6 -111 -30.5 -229 q-24.5 -118 -65.5 -188 l-69 45 q94 152 94 496 l0 288 l360 0 q-2 4 -6 14 q-4 10 -7 16 l-4 10 q-8 18 -12 26 l75 20 q21 -38 36 -86 l353 0 l0 -72 l-271 0 l0 -92 l245 0 l0 -248 l-698 0 ZM429 603 l169 0 l0 92 l-169 0 l0 -92 ZM211 603 l158 0 l0 92 l-158 0 l0 -92 ZM209 421 l160 0 l0 116 l-158 0 l0 -63 q0 -35 -2 -53 ZM429 421 l169 0 l0 116 l-169 0 l0 -116 ZM660 421 l171 0 l0 116 l-171 0 l0 -116 ZM944 107 q-6 -92 -35 -126 q-29 -34 -104 -34 l-75 0 q-87 0 -117.5 22.5 q-30.5 22.5 -30.5 79.5 l0 284 l76 0 l0 -126 q116 39 193 87 l59 -55 q-48 -26 -121 -53.5 q-73 -27.5 -131 -42.5 l0 -94 q0 -21 13 -27.5 q13 -6.5 63 -6.5 l67 0 q45 0 58.5 20.5 q13.5 20.5 15.5 80.5 l69 -9 ZM558 -15 q-253 -36 -291 -55 l-28 68 q15 5 29.5 21.5 q14.5 16.5 14.5 39.5 l0 273 l73 0 l0 -94 l194 0 l0 -67 l-194 0 l0 -148 l199 26 q0 -25 3 -64 Z" /><glyph glyph-name="Identity.1035" unicode="&#x9ea5;" d="M948 304 l-30 -67 q-105 40 -209.5 111.5 q-104.5 71.5 -174.5 151.5 l0 -106 l-73 0 l0 105 q-69 -81 -171.5 -151.5 q-102.5 -70.5 -206.5 -105.5 l-28 68 q111 32 227.5 112 q116.5 80 178.5 170 l0 95 l-380 0 l0 71 l380 0 l0 90 l73 0 l0 -90 l387 0 l0 -71 l-387 0 l0 -95 q40 -49 71 -78 q79 60 110 162 l66 -9 q-11 -32 -33 -74 q131 -81 178 -124 l-45 -52 q-20 22 -95 78 l-9 7 q-12 8 -32.5 22.5 q-20.5 14.5 -29.5 20.5 q-33 -48 -68 -76 q65 -53 148 -99 q83 -46 153 -66 ZM257 541 q-59 -76 -137 -125 l-40 59 q55 29 105 86 q50 57 78 124 l69 -16 q-4 -8 -12.5 -25.5 q-8.5 -17.5 -15 -30 q-6.5 -12.5 -14.5 -20.5 q11 -7 26 -19 l9 -6 q57 -41 64 -47 l-46 -51 q-41 41 -86 71 ZM529 68 q-81 -51 -189.5 -89.5 q-108.5 -38.5 -215.5 -54.5 l-16 71 q178 20 346 108 q-28 11 -79.5 34.5 q-51.5 23.5 -56.5 25.5 l58 48 q45 -17 110 -48 l10 -4 l9 -5 q2 0 19 -8 q39 29 103 115 l-242 0 q-112 -90 -221 -138 l-33 61 q88 35 169 95.5 q81 60.5 127 116.5 l81 -19 q-37 -41 -55 -56 l212 0 l13 5 l48 -27 q-57 -122 -131 -182 q42 -19 69 -32 l10 -5 q69 -34 184 -96 l-67 -57 q-162 96 -262 141 Z" /><glyph glyph-name="Identity.1036" unicode="&#x9ebb;" d="M195 472 q0 -134 -22 -288.5 q-22 -154.5 -72 -248.5 q-8 10 -30.5 26 q-22.5 16 -34.5 22 q81 166 81 489 l0 266 l391 0 q-13 39 -41 92 l77 22 q24 -43 49 -114 l343 0 l0 -76 l-741 0 l0 -190 ZM770 356 l0 -425 l-71 0 l0 410 q-30 -82 -70.5 -158 q-40.5 -76 -80.5 -115 l-51 56 q50 41 102 130.5 q52 89.5 85 180.5 l-119 0 l0 69 l134 0 l0 145 l71 0 l0 -145 l162 0 l0 -69 l-140 0 q27 -78 77 -168.5 q50 -90.5 94 -144.5 l-55 -45 q-34 44 -73.5 123 q-39.5 79 -64.5 156 ZM429 345 l0 -414 l-68 0 l0 393 q-21 -70 -58.5 -142 q-37.5 -72 -74.5 -109 l-52 55 q48 42 99.5 132 q51.5 90 77.5 175 l-134 0 l0 69 l142 0 l0 145 l68 0 l0 -145 l115 0 l0 -69 l-115 0 l0 -12 q123 -131 131 -141 l-42 -62 q-24 41 -89 125 Z" /><glyph glyph-name="Identity.1039" unicode="&#x9ed1;" d="M933 245 l0 -71 l-865 0 l0 71 l394 0 l0 87 l-311 0 l0 66 l311 0 l0 76 l-295 0 l0 338 l663 0 l0 -338 l-296 0 l0 -76 l315 0 l0 -66 l-315 0 l0 -87 l399 0 ZM534 542 l219 0 l0 202 l-219 0 l0 -202 ZM241 542 l221 0 l0 202 l-221 0 l0 -202 ZM708 706 q-8 -15 -26 -49 l-4 -10 q-47 -89 -52 -98 l-51 22 q4 8 16 34.5 q12 26.5 19 42.5 l4 10 q16 36 31 72 l63 -24 ZM412 581 l-57 -21 q-12 62 -62 150 l53 18 q20 -32 40 -76 q20 -44 26 -71 ZM938 -42 l-76 -31 q-19 36 -58.5 93 q-39.5 57 -70.5 91 l71 25 q32 -32 72.5 -86.5 q40.5 -54.5 61.5 -91.5 ZM258 118 q-68 -125 -116 -194 l-73 36 q47 62 113 176 l76 -18 ZM674 -46 l-78 -19 q-22 95 -54 172 l74 15 q39 -85 58 -168 ZM438 -54 l-79 -11 l0 7 q0 115 -11 168 l67 5 q23 -90 23 -169 Z" /><glyph glyph-name="Identity.1042" unicode="&#x9f0e;" d="M704 818 l0 -393 l-417 0 l0 393 l417 0 ZM238 170 q-15 -192 -135 -254 l-36 64 q45 22 71 74 q26 52 31 116 l-111 0 l0 68 l303 0 l0 77 l-240 0 l0 453 l78 0 l0 -386 l233 0 l0 -453 l-71 0 l0 241 l-123 0 ZM896 238 l0 -312 l-77 0 l0 241 l-192 0 l0 -238 l-70 0 l0 453 l30 0 l0 1 l207 0 l0 382 l78 0 l0 -449 l-245 0 l0 -78 l269 0 ZM361 707 l267 0 l0 58 l-267 0 l0 -58 ZM361 595 l267 0 l0 58 l-267 0 l0 -58 ZM361 482 l267 0 l0 59 l-267 0 l0 -59 Z" /><glyph glyph-name="Identity.1043" unicode="&#x9f13;" d="M706 73 q-122 -110 -222 -150 l-35 71 q94 36 205 136 q-70 90 -130 277 l32 8 l-58 0 l0 70 l172 0 l0 139 l-180 0 l0 71 l-166 0 l0 -77 l154 0 l0 -68 l-393 0 l0 68 l165 0 l0 77 l-188 0 l0 68 l188 0 l0 85 l74 0 l0 -85 l172 0 l0 -66 l174 0 l0 152 l76 0 l0 -152 l194 0 l0 -73 l-194 0 l0 -139 l117 0 l11 4 l51 -24 q-24 -95 -70 -186.5 q-46 -91.5 -99 -151.5 q41 -40 94 -75.5 q53 -35.5 99 -51.5 l-35 -74 q-113 45 -208 147 ZM461 489 l0 -236 l-357 0 l0 236 l357 0 ZM176 317 l210 0 l0 108 l-210 0 l0 -108 ZM598 415 q53 -165 105 -230 q83 89 127 230 l-232 0 ZM501 31 q-6 -1 -23.5 -3.5 q-17.5 -2.5 -27.5 -3.5 l-10 -2 q-10 -2 -16 -3 l-10 -1 q-2 -1 -6 -1 l-10 -2 q-2 -1 -7.5 -1 q-5.5 0 -8.5 -1 l-11 -2 q-9 -2 -27 -4 l-16 -3 l-10 -2 q-34 -5 -89.5 -14 q-55.5 -9 -96 -15.5 q-40.5 -6.5 -69.5 -10.5 l-12 73 q144 20 169 24 l11 1 q5 0 14 2 q9 2 13 2 l11 1 q14 3 47 7 q8 20 15 51.5 q7 31.5 13.5 68.5 q6.5 37 9.5 51 l73 -18 q-6 -19 -18 -65 l-3 -10 q-10 -41 -21 -70 l113 21 l3 -70 ZM250 88 l-72 -21 q-21 83 -45 154 l66 17 q29 -74 51 -150 Z" /><glyph glyph-name="Identity.1044" unicode="&#x9f20;" d="M850 801 l0 -350 l-694 0 l0 340 q39 5 76 12 l11 2 q14 2 21 4 l11 2 q81 15 145 32 l38 -61 q-60 -16 -121 -27 l-10 -2 q-43 -8 -95 -15 l0 -72 l219 0 l0 -64 l-219 0 l0 -84 l542 0 l0 81 l-221 0 l0 64 l221 0 l0 71 l-235 0 l0 67 l311 0 ZM952 81 q-11 -146 -86 -146 q-135 0 -142 495 l79 0 q-1 -197 17 -308 q18 -111 50 -111 q19 0 24 81 l58 -11 ZM708 19 q-230 -53 -254 -73 l-37 62 q34 18 34 63 l0 354 l71 0 l0 -386 l186 45 l0 -9 l0 -28 l0 -5 l0 -23 ZM406 8 q-214 -49 -244 -66 l-35 65 q14 8 26.5 26 q12.5 18 12.5 42 l0 349 l76 0 l0 -386 l164 36 q-3 -8 -3 -21 q0 -13 1.5 -27 q1.5 -14 1.5 -18 ZM428 315 l-42 -48 q-76 60 -108 83 l38 43 q67 -43 112 -78 ZM706 313 l-40 -49 q-90 72 -112 85 l40 44 q29 -16 112 -80 ZM420 159 l-42 -49 q-86 71 -108 85 l40 44 q55 -30 110 -80 ZM708 150 l-42 -50 q-91 73 -117 93 l40 44 q49 -33 119 -87 Z" /><glyph glyph-name="Identity.1048" unicode="&#x9f8d;" d="M489 764 l0 -68 l-417 0 l0 68 l189 0 q-13 38 -29 71 l68 17 q15 -29 32 -88 l157 0 ZM956 69 q-8 -77 -39 -105 q-31 -28 -117 -28 l-91 0 q-95 0 -128 24 q-33 24 -33 84 l0 444 l274 0 l0 83 l-274 0 l0 276 l75 0 l0 -75 l313 0 l0 -67 l-313 0 l0 -71 l274 0 l0 -210 l-274 0 l0 -56 l272 0 l0 -53 l-272 0 l0 -58 l266 0 l0 -53 l-266 0 l0 -64 l276 0 l0 -53 l-276 0 l0 -43 q0 -25 14.5 -33 q14.5 -8 75.5 -8 l85 0 q54 0 70.5 16 q16.5 16 18.5 59 l69 -9 ZM506 568 l0 -67 l-451 0 l0 67 l117 0 q-9 51 -34 114 l64 14 q34 -75 40 -125 l-27 -3 l109 0 q8 16 15.5 39.5 q7.5 23.5 15 50.5 q7.5 27 10.5 38 l71 -17 q-8 -22 -13 -33 l-3 -10 q-23 -56 -29 -68 l115 0 ZM183 136 l0 -207 l-74 0 l0 519 l353 0 l0 -424 q0 -46 -34 -74 q-24 -12 -112 -12 l-13 0 l-6 71 q58 -2 82 0 q4 0 5.5 1 q1.5 1 1.5 2.5 q0 1.5 -0.5 5.5 q-0.5 4 -0.5 7 l0 111 l-202 0 ZM183 321 l202 0 l0 66 l-202 0 l0 -66 ZM183 192 l202 0 l0 73 l-202 0 l0 -73 Z" /><glyph glyph-name="Identity.1051" unicode="&#x3001;" d="M273 -56 q-102 126 -221 223 l65 57 q112 -90 224 -222 l-68 -58 Z" /><glyph glyph-name="Identity.1052" unicode="&#x3002;" d="M194 244 q64 0 108.5 -44.5 q44.5 -44.5 44.5 -107.5 q0 -64 -44.5 -108.5 q-44.5 -44.5 -108.5 -44.5 q-62 0 -107 44.5 q-45 44.5 -45 108.5 q0 63 45 107.5 q45 44.5 107 44.5 ZM194 -10 q43 0 72.5 29.5 q29.5 29.5 29.5 72.5 q0 42 -30 71.5 q-30 29.5 -72 29.5 q-41 0 -71 -30 q-30 -30 -30 -71 q0 -42 29.5 -72 q29.5 -30 71.5 -30 Z" /><glyph glyph-name="Identity.1055" unicode="&#x3005;" d="M763 50 l-57 -72 q-70 77 -216 172 l-9 6 q-18 12 -28 17 l-9 6 q-52 32 -116 64 l50 63 q28 -14 55 -29 l9 -5 q1 -1 5.5 -3.5 q4.5 -2.5 7.5 -3.5 l8 -5 q4 -2 26 -14 l9 -5 q8 -5 26 -15 l9 -5 q2 -2 4 -2 l9 -5 l9 -5 q84 110 167 302 l-330 0 q-1 -3 -3.5 -7.5 q-2.5 -4.5 -3.5 -6.5 l-5 -9 q-11 -23 -26 -50 l-5 -9 q-81 -146 -169 -232 q-38 31 -73 48 q104 96 183 244 q79 148 126 304 l87 -22 l-12 -36 l-4 -9 q-14 -40 -22 -60 l-4 -10 q-12 -30 -29 -68 l332 0 l11 6 l60 -33 q-36 -100 -93 -207.5 q-57 -107.5 -120 -191.5 q100 -68 141 -112 Z" /><glyph glyph-name="Identity.1058" unicode="&#x300a;" d="M591 380 l215 -448 l-54 -18 l-222 466 l222 466 l54 -18 l-215 -448 ZM749 380 l215 -448 l-54 -18 l-222 466 l222 466 l54 -18 l-215 -448 Z" /><glyph glyph-name="Identity.1059" unicode="&#x300b;" d="M248 -86 l-54 18 l215 448 l-215 448 l54 18 l222 -466 l-222 -466 ZM90 -86 l-54 18 l215 448 l-215 448 l54 18 l222 -466 l-222 -466 Z" /><glyph glyph-name="Identity.1060" unicode="&#x300c;" d="M966 846 l0 -69 l-242 0 l0 -578 l-74 0 l0 647 l316 0 Z" /><glyph glyph-name="Identity.1061" unicode="&#x300d;" d="M34 -86 l0 69 l242 0 l0 578 l74 0 l0 -647 l-316 0 Z" /><glyph glyph-name="Identity.1062" unicode="&#x300e;" d="M770 183 l-171 0 l0 663 l367 0 l0 -156 l-196 0 l0 -507 ZM632 216 l105 0 l0 507 l196 0 l0 90 l-301 0 l0 -597 Z" /><glyph glyph-name="Identity.1063" unicode="&#x300f;" d="M230 577 l171 0 l0 -663 l-367 0 l0 156 l196 0 l0 507 ZM368 544 l-105 0 l0 -507 l-196 0 l0 -90 l301 0 l0 597 Z" /><glyph glyph-name="Identity.1064" unicode="&#x3010;" d="M966 841 q-87 -73 -142.5 -194.5 q-55.5 -121.5 -55.5 -266.5 q0 -145 55.5 -266.5 q55.5 -121.5 142.5 -194.5 l0 -5 l-300 0 l0 932 l300 0 l0 -5 Z" /><glyph glyph-name="Identity.1065" unicode="&#x3011;" d="M34 -86 l0 5 q87 73 142.5 194.5 q55.5 121.5 55.5 266.5 q0 145 -55.5 266.5 q-55.5 121.5 -142.5 194.5 l0 5 l300 0 l0 -932 l-300 0 Z" /><glyph glyph-name="Identity.1076" unicode="&#xff5e;" d="M952 421 q-99 -179 -259 -179 q-65 0 -116 26.5 q-51 26.5 -107 81.5 q-47 44 -80 62.5 q-33 18.5 -83 18.5 q-58 0 -105.5 -35 q-47.5 -35 -79.5 -96 l-74 39 q99 179 259 179 q65 0 116 -26 q51 -26 107 -82 q46 -44 80 -62.5 q34 -18.5 84 -18.5 q58 0 105.5 35 q47.5 35 79.5 96 l73 -39 Z" /><glyph glyph-name="Identity.1113" unicode="&#x3042;" d="M901 255 q0 -115 -80.5 -198.5 q-80.5 -83.5 -246.5 -109.5 l-43 71 q135 14 211 78.5 q76 64.5 76 162.5 q0 59 -35 104 q-35 45 -103 65 q-82 -204 -215 -321 q1 -2 2 -7 q1 -5 2 -8 l4 -15 q8 -26 15 -55 l-76 -24 q-3 9 -6.5 29.5 q-3.5 20.5 -5.5 28.5 q-93 -56 -167 -56 q-52 0 -86 34 q-34 34 -34 95 q0 95 69.5 185 q69.5 90 175.5 139 q2 41 6 80 l0 10 l6 57 q-21 -3 -57 -3 q-80 0 -162 6 l-2 81 q82 -14 165 -14 l10 0 q33 0 53 -1 q1 10 3 26.5 q2 16.5 3 28.5 q1 12 2 22 q3 45 2 51 l89 -3 q-6 -15 -13 -49 q-3 -15 -11 -74 q185 9 343 46 l2 -80 q-87 -14 -161 -22 l-10 -1 q-3 0 -8.5 -1 q-5.5 -1 -7.5 -1 l-10 -1 l-10 -1 q-5 0 -13.5 -1 q-8.5 -1 -12.5 -1 l-10 -1 q-3 0 -10 -0.5 q-7 -0.5 -10 -1.5 l-11 -1 q-4 0 -10.5 -0.5 q-6.5 -0.5 -9.5 -0.5 l-11 -1 q-3 0 -9.5 -0.5 q-6.5 -0.5 -10.5 -0.5 l-10 -1 q-14 0 -21 -1 q-6 -45 -11 -118 q94 26 165 26 q24 0 36 -3 q1 3 0.5 5.5 q-0.5 2.5 -0.5 4.5 q9 27 11 60 l84 -22 q-6 -13 -20 -59 l0 -1 q-1 -1 -1 -2 q92 -24 144 -87.5 q52 -63.5 52 -147.5 ZM432 408 q-1 -12 -1 -35 l0 -10 q0 -101 12 -176 q107 100 165 253 l-14 0 q-75 0 -162 -32 ZM195 142 q0 -31 12 -45 q12 -14 40 -14 q67 0 132 48 q-22 112 -22 229 l0 16 q-71 -41 -116.5 -106.5 q-45.5 -65.5 -45.5 -127.5 Z" /><glyph glyph-name="Identity.1115" unicode="&#x3044;" d="M549 220 q-82 -233 -189 -233 q-78 0 -136 87 q-58 87 -77 270 q-4 43 -6 95 l-1 11 q-4 84 -4 161 q0 65 -7 93 l103 -4 q-7 -42 -7 -99 q-2 -130 7 -237 q26 -275 128 -275 q35 0 67.5 60 q32.5 60 54.5 145 l67 -74 ZM917 172 l-86 -35 q-15 146 -59.5 285 q-44.5 139 -112.5 222 l82 30 q65 -85 115 -228.5 q50 -143.5 61 -273.5 Z" /><glyph glyph-name="Identity.1117" unicode="&#x3046;" d="M723 739 l-12 -83 q-82 6 -168 15 l-11 1 q-3 0 -5 1 l-11 1 q-2 0 -5.5 0.5 q-3.5 0.5 -5.5 0.5 l-11 1 q-136 16 -207 29 l14 82 q79 -18 212 -32.5 q133 -14.5 210 -15.5 ZM803 330 q0 -156 -123.5 -253.5 q-123.5 -97.5 -327.5 -128.5 l-46 81 q191 24 298.5 99.5 q107.5 75.5 107.5 204.5 l0 2 l-1 13 q-5 57 -48 91.5 q-43 34.5 -114 34.5 q-33 0 -64.5 -3 q-31.5 -3 -65 -10.5 q-33.5 -7.5 -49 -11 q-15.5 -3.5 -51.5 -14.5 q-36 -11 -37 -11 q-43 -12 -85 -30 l-28 97 q35 3 93 16 q10 2 45 10.5 q35 8.5 57.5 13.5 q22.5 5 57 11.5 q34.5 6.5 68 9.5 q33.5 3 66.5 3 q109 0 178 -60 q69 -60 69 -165 ZM711 343 l1 -8 l0 3 q0 3 -1 5 Z" /><glyph glyph-name="Identity.1119" unicode="&#x3048;" d="M707 738 l-12 -80 q-74 8 -182 22 l-11 2 q-5 0 -15 2 l-11 1 q-2 1 -5.5 1 q-3.5 0 -5.5 1 l-10 1 q-2 1 -6 1 l-10 2 q-73 10 -140 23 l14 79 q59 -14 174 -30 l11 -2 q111 -15 209 -23 ZM400 179 q-1 -1 -5 -4.5 q-4 -3.5 -6 -5.5 l-5 -5 q-113 -116 -185 -208 l-79 55 q4 4 21 20 q17 16 28 26 q46 46 193 198 l9 9 l9 9 l13 13 q3 3 8.5 9 q5.5 6 8.5 9 l9 9 q32 32 83 83.5 q51 51.5 66 66.5 l5 6 q-18 -1 -64 -5.5 q-46 -4.5 -61 -5.5 l-12 -1 q-81 -9 -162 -16 q-47 -4 -84 -11 l-7 95 q40 -3 88 -2 q44 1 172.5 10 q128.5 9 183.5 16 q30 4 49 12 l51 -58 q-18 -12 -58 -49 q-79 -72 -182 -173 q4 0 10.5 0 q6.5 0 14 0 q7.5 0 11.5 0 q49 -5 78 -74 q5 -15 16 -55.5 q11 -40.5 16 -56.5 q9 -29 26.5 -40.5 q17.5 -11.5 55.5 -11.5 q114 0 187 19 l-4 -89 q-90 -15 -187 -15 q-62 0 -98 19.5 q-36 19.5 -54 67.5 q-5 16 -17 61 q-12 45 -16 57 q-18 52 -57 52 q-31 0 -69 -36 Z" /><glyph glyph-name="Identity.1121" unicode="&#x304a;" d="M406 91 q0 -127 -89 -127 q-64 0 -136 53.5 q-72 53.5 -72 116.5 q0 60 62 120 q62 60 154 99 l0 71 q0 75 1 114 q-38 -3 -70 -3 q-86 0 -129 5 l-2 82 q56 -8 116 -8 l18 0 l4 0 l9 0 l55 0 q0 30 0.5 69.5 q0.5 39.5 0.5 44.5 q0 50 -7 74 l95 0 q-4 -23 -6 -67 l0 -8 q-1 -29 -8 -102 q122 15 204 40 l3 -84 q-95 -22 -209 -35 q0 -8 0.5 -23.5 q0.5 -15.5 0.5 -22.5 l0 -10 q0 -13 -0.5 -37 q-0.5 -24 -0.5 -35 l0 -37 q122 38 214 38 q110 0 180 -56 q70 -56 70 -146 q0 -90 -54.5 -149.5 q-54.5 -59.5 -157.5 -84.5 q-48 -11 -125 -15 l-28 88 q76 -2 118 7 q161 31 161 153 q0 62 -45.5 95.5 q-45.5 33.5 -119.5 33.5 q-102 0 -212 -37 q0 -7 1 -11 l0 -12 q4 -104 4 -194 ZM946 543 l-45 -68 q-34 33 -102.5 78 q-68.5 45 -122.5 74 l39 65 q54 -29 124.5 -74 q70.5 -45 106.5 -75 ZM193 138 l0 -1 l1 -8 q6 -30 39.5 -51.5 q33.5 -21.5 63.5 -21.5 q32 0 32 46 q0 29 -2 175 q-60 -29 -97 -67 q-37 -38 -37 -72 Z" /><glyph glyph-name="Identity.1122" unicode="&#x304b;" d="M386 505 q-49 -198 -105 -339 l-4 -10 q-44 -109 -94 -191 l-86 35 q121 161 207 501 q-31 -3 -72.5 -10 q-41.5 -7 -48.5 -8 q-56 -7 -93 -13 l-8 94 q30 -2 92 0 q27 1 149 11 q21 95 21 219 l98 -12 q-2 -10 -6.5 -33 q-4.5 -23 -6.5 -31 q-3 -15 -12.5 -63 q-9.5 -48 -14.5 -74 q82 7 111 7 q163 0 163 -172 q0 -101 -14.5 -203 q-14.5 -102 -43.5 -159 q-23 -48 -58.5 -67 q-35.5 -19 -87.5 -19 q-59 0 -119 15 l-12 89 q65 -20 123 -20 q31 0 49.5 9.5 q18.5 9.5 32.5 39.5 q46 98 46 305 q0 65 -24 86 q-24 21 -76 21 q-18 0 -106 -8 ZM961 315 l-83 -39 q-25 87 -76 197.5 q-51 110.5 -100 168.5 l76 36 q43 -56 98 -169 q55 -113 85 -194 Z" /><glyph glyph-name="Identity.1123" unicode="&#x304c;" d="M969 709 l-58 -26 q-47 92 -85 142 l57 25 q50 -72 86 -141 ZM859 668 l-59 -26 q-44 88 -83 143 l59 24 q34 -47 83 -141 ZM373 501 q-38 -149 -76 -259 l-3 -10 q-58 -165 -125 -271 l-85 36 q121 160 207 499 q-31 -3 -73.5 -9 q-42.5 -6 -47.5 -7 q-6 -1 -20.5 -3 q-14.5 -2 -21.5 -3 l-11 -1 q-23 -3 -38 -6 l-10 93 q46 -1 92 0 q23 1 149 11 q21 101 21 217 l97 -9 q-4 -21 -11 -65 l-25 -125 l-3 -11 q82 7 110 7 q164 0 164 -172 q0 -101 -14.5 -203.5 q-14.5 -102.5 -42.5 -160.5 q-23 -47 -59 -65.5 q-36 -18.5 -88 -18.5 q-55 0 -119 14 l-12 89 q65 -20 123 -20 q31 0 49.5 10 q18.5 10 32.5 40 q46 96 46 305 q0 64 -23.5 85 q-23.5 21 -76.5 21 q-20 0 -106 -8 ZM948 305 l-83 -38 q-25 87 -76.5 196 q-51.5 109 -100.5 166 l77 36 q43 -57 99.5 -170 q56.5 -113 83.5 -190 Z" /><glyph glyph-name="Identity.1124" unicode="&#x304d;" d="M787 248 l-44 -65 q-54 15 -222 34 l8 66 q31 -3 84.5 -11 q53.5 -8 62.5 -9 q-28 42 -55 101 l-4 9 q-3 6 -7.5 17 q-4.5 11 -6.5 15 q-112 -10 -226 -10 l-10 0 l-52 0 l-11 1 q-8 0 -25.5 0.5 q-17.5 0.5 -26.5 0.5 l-11 1 l-10 0 l-11 1 q-10 0 -15 1 l-11 0 q-4 0 -13 0.5 q-9 0.5 -13 1.5 l-4 81 q231 -25 407 -9 q-4 10 -10.5 27 q-6.5 17 -9.5 25 q-6 16 -13.5 42 q-7.5 26 -10.5 35 q-165 -10 -340 8 l-5 77 q31 -4 49 -5 l10 -1 q144 -15 265 -9 q-3 8 -7 24 q-7 37 -27 92 l90 12 q9 -88 18 -120 q101 13 205 47 l12 -78 q-56 -16 -153 -32 l-10 -2 l-21 -3 l-10 -2 q3 -12 22 -67 q3 -9 8.5 -28 q5.5 -19 9.5 -30 q97 9 199 42 l13 -80 q-59 -16 -178 -33 q35 -72 70 -123 q13 -17 33 -37 l7 -7 ZM728 -34 q-108 -17 -233 -17 q-148 0 -226 47 q-78 47 -79 142 q-1 64 40 146 l83 -18 q-42 -61 -42 -114 q0 -63 53 -92 q53 -29 169 -29 q137 0 238 21 l-3 -86 Z" /><glyph glyph-name="Identity.1125" unicode="&#x304e;" d="M945 703 l-56 -27 q-45 90 -85 143 l54 25 q44 -58 87 -141 ZM838 661 l-56 -26 q-46 100 -77 145 l49 24 q40 -55 84 -143 ZM748 246 l-44 -66 q-44 11 -135 24 l-11 1 q-52 6 -75 9 l7 65 q24 -2 52.5 -6 q28.5 -4 56.5 -8 q28 -4 38 -5 q-33 51 -74 140 q-127 -11 -280 -8 l-10 0 l-11 0 q-2 0 -7.5 0.5 q-5.5 0.5 -8.5 0.5 l-10 0 q-2 0 -8 0.5 q-6 0.5 -8 0.5 l-11 0 q-1 0 -5 0.5 q-4 0.5 -6 0.5 l-10 0 q-4 0 -6 1 l-10 0 q-7 0 -11 1 l-11 0 q-3 1 -10 1 q-7 0 -11 1 l-4 81 q12 -2 38 -4 l11 -1 q90 -7 173 -9 l10 -1 l25 0 l10 0 q76 0 140 6 q-4 10 -11 27.5 q-7 17.5 -10 25.5 q-5 15 -12 40 q-7 25 -10 35 q-146 -9 -324 7 l-11 1 q-1 0 -3 1 l-2 0 l-5 77 q197 -23 323 -15 q-1 3 -3.5 11 q-2.5 8 -3.5 13 q-9 45 -27 91 l90 13 q8 -79 19 -119 q102 13 184 41 l8 -79 q-57 -16 -170 -33 q0 -1 0.5 -2.5 q0.5 -1.5 0.5 -2.5 l4 -9 q9 -28 18 -54 q3 -7 8 -26.5 q5 -19.5 10 -30.5 q95 9 198 42 l13 -80 q-53 -14 -178 -33 q25 -53 67 -123 q14 -16 43 -43 ZM689 -37 q-115 -18 -233 -18 q-304 0 -305 190 q-1 64 40 146 l82 -18 q-40 -58 -40 -115 q0 -62 53 -91.5 q53 -29.5 168 -29.5 q135 0 237 21 l-2 -85 Z" /><glyph glyph-name="Identity.1126" unicode="&#x304f;" d="M726 1 l-74 -71 q-37 43 -71 75 q-51 53 -149 142 l-8 7 q-67 61 -151 131 q-47 39 -60 71 q-13 32 3.5 61.5 q16.5 29.5 63.5 69.5 q11 9 55.5 46.5 q44.5 37.5 72.5 61.5 l12 11 q3 2 7.5 6 q4.5 4 5.5 4 l9 8 q84 72 127 115 q41 41 58 68 l77 -69 q-11 -9 -36.5 -31 q-25.5 -22 -32.5 -28 q-43 -39 -134 -114 l-8 -7 q-80 -66 -113 -94 l-10 -8 q-6 -5 -16 -13 q-45 -38 -44.5 -57 q0.5 -19 48.5 -59 q145 -121 197 -167 l8 -8 l24 -21 l8 -8 l9 -7 q77 -70 122 -115 Z" /><glyph glyph-name="Identity.1127" unicode="&#x3050;" d="M712 1 l-73 -71 q-35 40 -71 76 l-5 5 l-5 5 q-53 53 -135 127 l-8 7 l-8 8 l-9 7 q-71 63 -138 119 q-47 40 -60 72 q-13 32 3 61.5 q16 29.5 63 69.5 q3 3 60 50.5 q57 47.5 90 75.5 l8 7 q87 75 132 120 q43 43 57 67 l77 -69 q-18 -13 -67 -59 q-4 -3 -127 -106 l-8 -7 l-4 -4 l-13 -10 q-96 -80 -129 -109 q-33 -27 -41.5 -41.5 q-8.5 -14.5 0.5 -30.5 q9 -16 43 -44 q97 -80 177 -149 l8 -7 l8 -8 l8 -7 q3 -2 8 -7 l9 -7 q1 -3 4 -4 l8 -7 q8 -8 12 -11 l8 -7 q65 -58 118 -112 ZM841 469 l-58 -26 q-58 106 -89 148 l58 26 q39 -52 89 -148 ZM726 421 l-59 -26 q-3 6 -16 29.5 q-13 23.5 -21 37.5 l-5 9 q-32 56 -45 76 l58 25 q31 -47 88 -151 Z" /><glyph glyph-name="Identity.1128" unicode="&#x3051;" d="M757 491 l0 -43 q0 -53 -0.5 -82 q-0.5 -29 -3 -74 q-2.5 -45 -8.5 -72.5 q-6 -27.5 -15.5 -64 q-9.5 -36.5 -25.5 -62.5 q-16 -26 -37.5 -55 q-21.5 -29 -52 -53.5 q-30.5 -24.5 -69.5 -47.5 l-74 61 q58 24 97 64 q73 64 92 146.5 q19 82.5 19 243.5 l0 35 q-5 0 -14.5 -0.5 q-9.5 -0.5 -14.5 -0.5 l-10 -1 q-9 0 -27 -0.5 q-18 -0.5 -27 -0.5 l-10 0 l-9 0 l-10 0 q-42 0 -64 1 l-11 1 q-64 2 -87 4 l0 86 q68 -11 161 -11 l40 0 l15 -1 q42 0 65 1 q-2 128 -5 153 q-2 29 -9 64 l98 0 q-5 -20 -5 -61 q1 -9 1 -44 l0 -15 l0 -5 l0 -12 l0 -60 l0 -12 q107 10 160 22 l0 -87 q-70 -11 -159 -17 ZM249 -3 l-72 -9 q-54 157 -54 320 q0 143 37 399 q5 29 5 70 l98 -10 q-3 -9 -8 -33.5 q-5 -24.5 -8 -34.5 q-75 -340 -32 -525 q5 14 16 47.5 q11 33.5 14 43.5 l4 10 q11 34 19 53 l46 -28 q-35 -103 -62 -222 q-8 -24 -6 -45 q0 -5 1 -18 q1 -13 2 -18 Z" /><glyph glyph-name="Identity.1129" unicode="&#x3052;" d="M973 684 l-54 -20 q-37 105 -59 143 l52 18 q21 -41 61 -141 ZM873 652 l-54 -20 q-35 104 -56 145 l51 16 q29 -54 59 -141 ZM737 475 l0 -54 q0 -66 -1.5 -105.5 q-1.5 -39.5 -7.5 -92.5 q-6 -53 -20 -89 q-14 -36 -37 -76 q-23 -40 -59.5 -73 q-36.5 -33 -86.5 -63 l-74 61 q60 25 96 65 q38 34 61.5 71 q23.5 37 34 89.5 q10.5 52.5 13.5 99 q3 46.5 3 129.5 l0 34 l-5 0 l-10 0 q-3 0 -7.5 -0.5 q-4.5 -0.5 -6.5 -0.5 l-10 0 l-5 0 l-10 0 q-16 -1 -49 -1 l-10 0 q-76 0 -162 6 l0 86 q68 -11 156 -11 l10 0 q12 0 48 -1 q36 -1 57 0 l0 12 q-2 121 -5 144 q-3 36 -8 62 l98 0 q-5 -20 -5 -61 l0 -49 l0 -10 l0 -78 l1 -12 q28 2 41 4 l10 1 q65 6 119 18 l0 -86 q-60 -10 -169 -19 ZM239 -18 l-73 -9 q-20 58 -37 147 q-17 89 -17 173 q0 142 32 359 l1 7 q1 9 4 34 q3 18 6 69 l98 -10 q-3 -10 -9 -36.5 q-6 -26.5 -7 -31.5 q-24 -102 -38 -211 l-1 -10 q-23 -180 6 -305 q42 126 53 155 l46 -28 q-34 -99 -62 -222 q-6 -21 -6 -45 q1 -7 4 -36 Z" /><glyph glyph-name="Identity.1130" unicode="&#x3053;" d="M768 618 q-163 -12 -269 -12 q-96 0 -208 7 l-9 0 q-7 1 -22 2 q-15 1 -23 2 l0 88 q104 -13 262 -13 q9 0 27 0.5 q18 0.5 27 0.5 l10 0 q118 5 205 14 l0 -89 ZM832 7 q-126 -35 -338 -35 q-153 0 -236 51 q-83 51 -83 145 q0 42 22 142 l85 -9 q-19 -58 -19 -116 q0 -59 56.5 -92.5 q56.5 -33.5 172.5 -33.5 q218 0 338 40 l2 -92 Z" /><glyph glyph-name="Identity.1132" unicode="&#x3055;" d="M813 298 l-44 -60 q-52 11 -130 19 l-11 1 q-48 5 -103 9 l6 72 q33 -3 97 -11 q64 -8 67 -8 q-58 85 -116 226 q-176 -16 -415 2 l-2 86 q222 -27 387 -15 q-4 11 -14.5 43.5 q-10.5 32.5 -14.5 45.5 q-3 9 -11 38 q-8 29 -13 43 l90 12 q18 -103 41 -171 q134 19 221 48 l10 -83 q-55 -16 -139 -28 l-10 -2 q-16 -3 -54 -7 q46 -115 111 -206 q3 -4 47 -54 ZM752 -23 q-124 -22 -256 -22 q-145 1 -226.5 54.5 q-81.5 53.5 -81.5 154.5 q0 66 49 169 l82 -20 q-46 -77 -46 -140 q0 -70 56.5 -102 q56.5 -32 170.5 -33 q140 -1 255 25 l-3 -86 Z" /><glyph glyph-name="Identity.1134" unicode="&#x3057;" d="M896 170 q-163 -224 -416 -224 q-242 0 -242 226 q0 86 3 190 l0 12 l1 11 q0 22 1 34 l0 11 q5 247 5 248 q0 62 -9 105 l107 -2 q-5 -32 -7 -103 q-5 -95 -8 -247 l-1 -11 l0 -11 l-1 -27 l0 -12 l0 -11 q-2 -128 -2 -179 q0 -79 40 -112.5 q40 -33.5 116 -33.5 q66 0 121 17 q55 17 97.5 48.5 q42.5 31.5 72 64 q29.5 32.5 60.5 77.5 l62 -71 Z" /><glyph glyph-name="Identity.1136" unicode="&#x3059;" d="M656 301 q0 -54 -14.5 -104 q-14.5 -50 -46.5 -99 q-32 -49 -92.5 -90 q-60.5 -41 -144.5 -66 l-69 71 q208 47 264 174 q-37 -28 -85 -28 q-67 0 -116 46 q-49 46 -49 124 q0 74 52 125.5 q52 51.5 124 51.5 q32 0 66 -12 l0 14 q0 53 -1 82 l-5 0 l-10 0 l-11 0 l-15 0 l-10 0 l-6 0 l-10 -1 q-29 0 -89 -2 l-10 0 l-11 0 q-5 -1 -15 -1 l-11 0 q-8 -1 -26 -1 l-10 -1 q-4 0 -12.5 -0.5 q-8.5 -0.5 -12.5 -0.5 l-10 0 q-8 0 -168 -10 l-2 83 q109 2 231 6 l11 0 l10 0 l17 0 l10 1 l11 0 q15 0 22 1 l11 0 l5 0 l11 0 l10 0 q3 0 8.5 0.5 q5.5 0.5 7.5 0.5 l11 0 l10 0 q10 0 29 0.5 q19 0.5 28 0.5 q0 17 -3 39.5 q-3 22.5 -3 23.5 q-1 27 -6 67 l98 0 q-1 -8 -6 -67 q0 -6 -2 -26.5 q-2 -20.5 -2 -35.5 l27 0 q64 0 160 -0.5 q96 -0.5 113 -0.5 l6 0 l-2 -80 q-92 5 -283 5 l-21 0 q0 -33 2.5 -90 q2.5 -57 2.5 -71 q32 -53 32 -129 ZM384 330 l0 -2 l1 -10 q3 -40 29 -62.5 q26 -22.5 66 -22.5 q45 0 67.5 35 q22.5 35 15.5 105 q-22 61 -84 61 q-40 0 -67.5 -28.5 q-27.5 -28.5 -27.5 -75.5 Z" /><glyph glyph-name="Identity.1137" unicode="&#x305a;" d="M929 706 l-62 -27 q-45 88 -75 125 l60 26 q24 -34 36 -56 l6 -9 q15 -24 35 -59 ZM590 656 l21 0 q93 0 135 -1 q-42 80 -73 124 l59 25 q31 -43 77 -123 l-54 -26 q33 0 79.5 -0.5 q46.5 -0.5 56.5 -0.5 l5 0 l-1 -80 q-110 6 -284 6 l-21 0 q0 -32 3 -88 q3 -56 3 -73 q32 -56 32 -129 q0 -117 -68.5 -214 q-68.5 -97 -228.5 -145 l-69 71 q207 47 265 175 q-40 -29 -87 -29 q-68 0 -116.5 46 q-48.5 46 -48.5 124 q0 74 52 125.5 q52 51.5 125 51.5 q32 0 66 -12 q0 14 -0.5 46 q-0.5 32 -0.5 50 l-31 0 l-16 -1 l-31 0 l-11 0 q-2 -1 -5 -1 l-11 0 l-15 0 l-11 -1 q-22 0 -62 -2 l-11 0 q-7 0 -23 -1 q-16 -1 -23 -1 l-10 -1 q-125 -6 -183 -10 l-3 84 q58 1 257 5 l11 0 l21 0 l11 1 l10 0 l11 0 l5 0 l11 0 q60 2 104 3 q0 11 -0.5 33.5 q-0.5 22.5 -1.5 30.5 q-5 61 -8 66 l98 0 q-2 -5 -3 -18.5 q-1 -13.5 -1.5 -29 q-0.5 -15.5 -0.5 -18.5 q0 -6 -2.5 -27 q-2.5 -21 -2.5 -35 ZM356 319 l0 -2 l0 -10 q4 -40 30 -62 q26 -22 66 -22 q43 0 66.5 35 q23.5 35 17.5 103 q-23 62 -85 62 q-40 0 -67.5 -28.5 q-27.5 -28.5 -27.5 -75.5 Z" /><glyph glyph-name="Identity.1138" unicode="&#x305b;" d="M806 -4 q-69 -8 -172 -13 l-11 0 l-11 -1 l-5 0 l-11 -1 q-13 0 -38 -0.5 q-25 -0.5 -37 -0.5 q-70 0 -115.5 8 q-45.5 8 -73.5 21.5 q-28 13.5 -42 42 q-14 28.5 -19 59.5 q-5 31 -7 84 q1 30 1 157 l0 12 l0 6 l0 12 l0 5 l0 54 q-63 -7 -102 -12 q-21 -3 -104 -15 l-9 89 q52 0 106 6 q9 1 45 3 q36 2 64 4 q-1 53 -1 123 l0 9 l0 3 l0 4 q0 41 -6 88 l90 0 q1 -12 -0.5 -41 q-1.5 -29 -1.5 -43 l0 -11 q0 -74 -2 -121 q7 0 22.5 1.5 q15.5 1.5 23.5 2.5 l10 1 l5 0 l9 1 l5 0 l10 1 q22 2 68 6 l10 1 l5 0 l10 1 q6 0 19.5 1 q13.5 1 20.5 2 l10 1 l10 1 l20 2 q7 0 11 1 l10 1 q10 0 30 2 l0 143 q0 50 -5 78 l92 0 q-3 -19 -6 -75 q0 -8 -1 -24.5 q-1 -16.5 -1 -24.5 l0 -10 q-2 -52 -4 -78 q18 1 37.5 2.5 q19.5 1.5 40.5 2.5 q21 1 31 2 q5 1 14.5 1.5 q9.5 0.5 14.5 0.5 l9 1 q30 2 42 2 l0 -84 l-81 0 q-41 -1 -109 -6 q-1 -21 -1 -65 l-1 -10 l0 -11 q-2 -92 -8 -121 q-7 -32 -26 -45.5 q-19 -13.5 -54 -13.5 q-51 0 -132 15 l2 74 q55 -13 101 -13 q19 0 25.5 4 q6.5 4 8.5 21 q11 74 14 160 q-7 0 -25 -2 l-10 0 q-3 -1 -10 -1 l-10 -1 q-3 0 -5 -1 l-10 0 l-10 -1 q-1 -1 -5 -1 l-10 -1 q-6 0 -20 -2 l-10 -1 q-28 -2 -40 -4 l-10 -1 q-19 -1 -50 -5 l-10 -1 l-5 0 l-10 -1 q-3 -1 -9 -1 l-10 -1 q-7 -1 -21.5 -2.5 q-14.5 -1.5 -21.5 -2.5 l0 -12 l0 -109 l0 -47 l0 -75 q1 -23 1.5 -30.5 q0.5 -7.5 2 -25.5 q1.5 -18 4 -23 q2.5 -5 7 -17.5 q4.5 -12.5 10.5 -16 q6 -3.5 15.5 -11 q9.5 -7.5 21.5 -9.5 q12 -2 28.5 -5.5 q16.5 -3.5 36.5 -4 q20 -0.5 46 -0.5 q160 0 295 25 l-6 -92 Z" /><glyph glyph-name="Identity.1140" unicode="&#x305d;" d="M728 -47 q-182 -8 -279 50 q-97 58 -97 173 q0 59 36.5 111.5 q36.5 52.5 80.5 77.5 q-58 -4 -153 -16 l-10 -1 l-10 -2 l-15 -2 q-3 0 -5 -1 l-10 -1 l-16 -2 q-1 -1 -5 -1 l-10 -2 q-6 -1 -18 -2.5 q-12 -1.5 -18 -2.5 l-15 -3 q-24 -4 -35 -5 l-11 -2 l-10 -2 q-2 0 -7 -1 q-5 -1 -8 -1 l-7 81 q54 6 173 20 q26 17 58 42 q32 25 58.5 47 q26.5 22 62 52.5 q35.5 30.5 55.5 48 q20 17.5 51 45 q31 27.5 37 33.5 q-26 -3 -116 -8 l-12 -1 q-26 -2 -71.5 -5 q-45.5 -3 -56.5 -4 q-28 -2 -78 -7 l-5 88 q32 -4 82 -4 q56 0 154 6 l12 1 q106 6 134 9 q23 2 55 10 l53 -61 q-22 -13 -57 -40 q-37 -31 -143 -121 l-17 -14 q-72 -61 -130 -108 q5 0 17 1 q12 1 17 2 l10 1 q3 0 8 1 q5 1 7 1 l10 1 l10 1 q3 0 8 0.5 q5 0.5 7 0.5 l16 2 q15 2 43.5 4.5 q28.5 2.5 42.5 3.5 l16 1 q4 0 12.5 1 q8.5 1 12.5 1 l10 1 q11 0 16 1 l10 0 q3 0 10 1 q7 1 10 1 l15 1 l10 0 l10 1 l10 0 q30 2 45 2 l10 1 q13 0 38 0.5 q25 0.5 37 0.5 l0 -80 q-161 8 -252 -4 q-74 -8 -129.5 -63.5 q-55.5 -55.5 -55.5 -124.5 q0 -70 43.5 -102 q43.5 -32 121.5 -42 q73 -10 144 -4 l-17 -87 Z" /><glyph glyph-name="Identity.1142" unicode="&#x305f;" d="M369 421 q-21 -84 -54 -185 l-3 -10 l-12 -36 l-3 -10 q-46 -137 -84 -218 l-90 31 q50 86 108 262 l3 10 q28 84 53 177 q16 59 26 106 q-10 -1 -40.5 -3.5 q-30.5 -2.5 -46.5 -2.5 q-46 0 -118 4 l-3 84 q56 -7 122 -7 q40 0 105 5 q3 15 5.5 31 q2.5 16 4 31.5 q1.5 15.5 2.5 21.5 q6 43 2 87 l101 -10 q-3 -10 -6 -25.5 q-3 -15.5 -6 -33 q-3 -17.5 -4 -23.5 q-2 -11 -9 -34.5 q-7 -23.5 -10 -36.5 q109 14 191 35 l0 -84 q-39 -8 -98 -19 l-10 -1 l-54 -9 l-10 -1 q-6 -1 -17.5 -2 q-11.5 -1 -17.5 -2 q-3 -13 -7 -39 l-2 -9 q-7 -42 -18 -84 ZM889 485 l-3 -82 q-87 12 -168 12 q-98 0 -184 -10 l0 80 q92 9 182 9 q92 0 173 -9 ZM900 -8 q-95 -14 -192 -14 q-119 0 -181 38 q-62 38 -62 112 q0 17 2.5 37 q2.5 20 6.5 44.5 q4 24.5 6 39.5 l81 -7 q-14 -51 -14 -93 q0 -43 32.5 -66.5 q32.5 -23.5 129.5 -23.5 q104 0 193 19 l-2 -86 Z" /><glyph glyph-name="Identity.1143" unicode="&#x3060;" d="M945 644 l-58 -26 q-47 94 -83 144 l55 24 q51 -71 86 -142 ZM339 407 q-25 -99 -53 -185 l-3 -11 q-57 -176 -99 -263 l-91 31 q46 77 100 236 l3 10 q33 96 61 203 q16 59 26 106 q-10 -1 -40.5 -3.5 q-30.5 -2.5 -46.5 -2.5 q-45 0 -117 4 l-3 84 q56 -7 121 -7 q40 0 105 5 q3 15 5.5 31 q2.5 16 4 31.5 q1.5 15.5 2.5 21.5 q6 42 2 86 l101 -11 q-3 -9 -6 -24.5 q-3 -15.5 -6 -33 q-3 -17.5 -4 -23.5 q-2 -10 -9 -33 q-7 -23 -10 -37 q6 1 18 2.5 q12 1.5 17 1.5 l10 2 q66 9 146 28 l0 -83 q-26 -6 -97 -19 l-10 -1 l-54 -9 l-10 -1 q-6 -1 -18 -2.5 q-12 -1.5 -17 -1.5 q-6 -26 -8 -39 l-2 -9 l-2 -10 q-6 -39 -16 -74 ZM835 603 l-59 -26 q-43 88 -82 143 l57 25 q30 -42 84 -142 ZM859 471 l-2 -82 q-87 12 -168 12 q-90 0 -184 -11 l0 81 q92 9 181 9 q92 0 173 -9 ZM871 -22 q-101 -15 -193 -15 q-119 0 -181 38.5 q-62 38.5 -62 112.5 q0 51 15 121 l80 -8 q-13 -48 -13 -93 q0 -42 32.5 -65.5 q32.5 -23.5 130.5 -23.5 q105 0 193 19 l-2 -86 Z" /><glyph glyph-name="Identity.1144" unicode="&#x3061;" d="M847 221 q0 -102 -65.5 -165.5 q-65.5 -63.5 -180 -85.5 q-114.5 -22 -268.5 -5 l-20 84 q87 -14 167.5 -10 q80.5 4 142.5 21 q62 17 99 58 q37 41 37 100 q0 59 -43.5 95 q-43.5 36 -128.5 36 q-186 0 -285 -120 q-19 -22 -32 -48 l-79 30 q47 92 85 238 l3 10 q3 13 26 109 l-7 0 q-115 0 -180 7 l-1 84 q43 -7 87 -11 l10 -1 q53 -5 92 -5 l17 0 q2 12 3.5 23 q1.5 11 2 22.5 q0.5 11.5 1.5 17.5 q4 32 4 86 l93 -6 q-4 -16 -9.5 -49 q-5.5 -33 -6.5 -37 q-5 -28 -12 -59 q57 3 116 9 l9 1 q34 4 50 6 l10 1 q10 2 15 2 l10 2 q50 8 55 9 l10 1 q4 1 11 2.5 q7 1.5 9 1.5 l10 2 l10 1 l10 2 l9 2 q9 2 25.5 5.5 q16.5 3.5 23.5 4.5 l1 -83 q-44 -8 -132 -19 l-10 -1 q-10 -2 -16 -2 l-10 -1 q-3 0 -8 -1 q-5 -1 -7 -1 l-10 -1 q-1 0 -3 -0.5 q-2 -0.5 -3 -0.5 l-10 -1 q-7 0 -10 -1 l-10 -1 q-3 0 -8.5 -0.5 q-5.5 -0.5 -7.5 -0.5 l-10 -1 q-65 -6 -146 -10 q-33 -152 -63 -231 q123 86 277 86 q117 0 184 -55.5 q67 -55.5 67 -145.5 Z" /><glyph glyph-name="Identity.1146" unicode="&#x3063;" d="M848 284 q0 -140 -121 -219 q-121 -79 -331 -92 l-33 83 q115 4 200.5 26 q85.5 22 141.5 74 q56 52 56 130 q0 64 -43.5 104.5 q-43.5 40.5 -118.5 40.5 q-25 0 -56.5 -5 q-31.5 -5 -66.5 -14 q-35 -9 -65.5 -18.5 q-30.5 -9.5 -67 -23 q-36.5 -13.5 -58 -21.5 q-21.5 -8 -51.5 -20 q-30 -12 -35 -14 l-35 85 q33 8 65 18 l10 3 q3 1 9.5 3 q6.5 2 9.5 3 q1 0 63.5 20.5 q62.5 20.5 96 30 q33.5 9.5 90 20.5 q56.5 11 97.5 11 q108 0 175.5 -61.5 q67.5 -61.5 67.5 -163.5 Z" /><glyph glyph-name="Identity.1147" unicode="&#x3064;" d="M904 386 q0 -87 -41 -156.5 q-41 -69.5 -115 -115 q-74 -45.5 -171.5 -72 q-97.5 -26.5 -215.5 -32.5 l-36 89 q103 3 187.5 20 q84.5 17 153 50 q68.5 33 107 89 q38.5 56 38.5 130 q0 82 -53.5 133 q-53.5 51 -151.5 51 q-30 0 -66 -5 q-36 -5 -68 -12 q-32 -7 -73 -19 q-41 -12 -69 -21.5 q-28 -9.5 -68 -24.5 q-40 -15 -58 -22.5 q-18 -7.5 -51 -21 q-33 -13.5 -36 -14.5 l-39 91 q31 6 110 31 q9 3 60 20 q51 17 85 27 q34 10 86 24 q52 14 100 21 q48 7 89 7 q128 0 212 -72 q84 -72 84 -195 Z" /><glyph glyph-name="Identity.1148" unicode="&#x3065;" d="M946 687 l-58 -26 q-47 92 -84 142 l56 25 q37 -46 86 -141 ZM837 645 l-60 -26 q-38 82 -81 144 l56 25 q43 -62 85 -143 ZM890 369 q0 -116 -72.5 -199.5 q-72.5 -83.5 -191.5 -126 q-119 -42.5 -278 -51.5 l-36 89 q81 2 151 13 q70 11 132 33.5 q62 22.5 106 54.5 q44 32 69.5 80 q25.5 48 25.5 108 q0 82 -53.5 133.5 q-53.5 51.5 -151.5 51.5 q-137 0 -400 -105 l-9 -3 q-36 -15 -79 -32 l-38 90 q9 2 110 31 q20 7 77 26 l9 3 q211 71 333 71 q128 0 212 -72 q84 -72 84 -195 Z" /><glyph glyph-name="Identity.1149" unicode="&#x3066;" d="M799 54 l-29 -89 q-57 2 -112 15.5 q-55 13.5 -106.5 40.5 q-51.5 27 -90.5 65 q-39 38 -62.5 92.5 q-23.5 54.5 -23.5 119.5 q0 110 55 201.5 q55 91.5 131 136.5 q-14 -2 -91 -11 q-77 -9 -126 -15 l-12 -1 q-183 -25 -234 -36 l-9 94 q57 1 90 5 q362 36 391 38 l19 2 l7 0 l12 2 q105 10 270 17 l0 -86 q-141 0 -195 -16 q-101 -33 -162 -125.5 q-61 -92.5 -61 -187.5 q0 -57 20 -102 q20 -45 52 -73.5 q32 -28.5 77.5 -48 q45.5 -19.5 91.5 -28 q46 -8.5 98 -10.5 Z" /><glyph glyph-name="Identity.1150" unicode="&#x3067;" d="M793 48 l-29 -89 q-57 2 -112 15.5 q-55 13.5 -106.5 40.5 q-51.5 27 -90.5 65 q-39 38 -62.5 92.5 q-23.5 54.5 -23.5 119.5 q0 110 55 201.5 q55 91.5 131 136.5 q-14 -2 -96 -11 q-82 -9 -135.5 -15.5 q-53.5 -6.5 -122.5 -16.5 q-69 -10 -107 -18 l-11 93 q69 2 90 4 q358 35 392 38 l18 2 l7 0 l12 2 q129 11 269 17 l0 -86 q-140 0 -194 -16 q-101 -33 -162 -125.5 q-61 -92.5 -61 -188.5 q0 -56 20 -101 q20 -45 52 -73.5 q32 -28.5 77.5 -48 q45.5 -19.5 91.5 -28 q46 -8.5 98 -10.5 ZM924 422 l-53 -27 q-12 22 -38 66 l-5 9 q-30 48 -46 69 l53 25 q53 -72 89 -142 ZM812 379 l-55 -26 q-42 88 -84 145 l55 24 q50 -72 84 -143 Z" /><glyph glyph-name="Identity.1151" unicode="&#x3068;" d="M837 -6 q-144 -25 -312 -25 q-149 0 -235.5 50.5 q-86.5 50.5 -86.5 158.5 q0 140 171 260 q-29 51 -69 139 l-5 10 q-2 3 -4.5 10 q-2.5 7 -3.5 9 l-4 9 q-2 5 -7 16.5 q-5 11.5 -8 17.5 l-5 10 l-4 9 q-7 17 -21 49 l-4 10 q0 1 -2 5 l-4 9 q0 1 -0.5 2.5 q-0.5 1.5 -1.5 2.5 l82 34 q1 -1 1 -2 q0 -1 0.5 -1.5 q0.5 -0.5 0.5 -1.5 l4 -10 q3 -8 4 -10 l3 -10 q64 -168 117 -262 l24 15 l10 6 l10 6 q35 20 75 42 q40 22 78.5 43 q38.5 21 53.5 29 q47 28 71 47 l46 -75 q-46 -28 -77 -44 q-211 -109 -296 -165 q-146 -94 -146 -200 q0 -132 229 -132 q183 0 316 34 l0 -95 Z" /><glyph glyph-name="Identity.1152" unicode="&#x3069;" d="M966 678 l-57 -23 q-52 94 -86 139 l57 24 q45 -60 86 -140 ZM856 636 l-58 -23 q-48 91 -84 140 l59 25 q39 -56 83 -142 ZM812 -19 q-134 -25 -314 -25 q-149 0 -235 50.5 q-86 50.5 -86 158.5 q0 143 171 260 q-45 81 -112 237 l-4 9 q-5 12 -15 34 l-4 9 q-7 18 -8 19 l82 35 q62 -174 129 -298 q13 8 228 129 q36 18 72 47 l44 -77 q-36 -21 -78 -43 q-9 -5 -55 -29 q-46 -24 -71.5 -37.5 q-25.5 -13.5 -67.5 -38 q-42 -24.5 -76 -47.5 q-145 -94 -145 -200 q0 -132 228 -132 q25 0 79 2 l11 1 q137 8 226 30 l1 -94 Z" /><glyph glyph-name="Identity.1153" unicode="&#x306a;" d="M391 561 q-23 -66 -53 -135 l-4 -10 l-5 -9 l-4 -10 q-2 -5 -6.5 -14.5 q-4.5 -9.5 -6.5 -13.5 l-5 -10 q-65 -133 -129 -219 l-79 42 q51 59 106 156 l5 10 q60 107 99 207 q-75 -5 -84 -5 q-21 0 -69 2 l-10 1 q-13 0 -39 2 l-5 79 q52 -7 123 -7 q45 0 110 5 q24 89 27 173 l93 -9 q-18 -73 -42 -154 q84 13 157 37 l3 -80 q-93 -26 -182 -38 ZM927 524 l-47 -69 q-39 33 -107.5 75 q-68.5 42 -120.5 65 l42 66 q52 -23 124 -66 q72 -43 109 -71 ZM696 93 q0 -65 -43 -106 q-43 -41 -131 -41 q-87 0 -143.5 38 q-56.5 38 -56.5 109 q0 68 57 110.5 q57 42.5 143 42.5 q47 0 96 -11 q-1 13 -2.5 38.5 q-1.5 25.5 -2.5 37.5 l0 11 q-1 1 -1 5 l-1 10 q-8 138 -8 152 l84 0 q-2 -62 -1 -88 l0 -9 l0 -14 q0 -16 2.5 -65 q2.5 -49 3.5 -77 l1 -12 l0 -11 q98 -35 203 -124 l-45 -67 q-103 84 -160 112 q5 -15 5 -41 ZM401 100 l1 -2 l0 -7 q7 -69 110 -69 q105 0 105 97 q0 29 -1 46 q-42 13 -97 13 q-54 0 -86 -21.5 q-32 -21.5 -32 -56.5 Z" /><glyph glyph-name="Identity.1154" unicode="&#x306b;" d="M242 -31 l-77 -6 q-37 131 -37 325 q0 51 6 116.5 q6 65.5 11 105.5 q5 40 15.5 106.5 q10.5 66.5 11.5 73.5 q7 40 7 73 l94 -9 q0 -1 -8 -30 q-8 -29 -12 -40 q-21 -118 -32 -205 l-1 -11 l-2 -11 l0 -5 l-2 -11 q-9 -90 -9 -139 q0 -106 4 -139 q7 18 28 71.5 q21 53.5 29 76.5 l45 -35 q-53 -145 -68 -223 q-7 -35 -6 -48 q3 -27 3 -36 ZM863 592 q-79 -9 -203 -9 l-11 0 l-6 0 l-11 0 l-22 0 l-11 1 q-80 1 -145 8 l0 86 q85 -13 207.5 -12.5 q122.5 0.5 201.5 12.5 l0 -86 ZM895 25 q-105 -20 -249 -20 q-242 0 -242 152 q0 45 17 121 l77 -8 q-14 -52 -14 -94 q0 -40 34.5 -63.5 q34.5 -23.5 127.5 -23.5 q132 0 245 25 l4 -89 Z" /><glyph glyph-name="Identity.1155" unicode="&#x306c;" d="M828 101 q-63 -118 -187 -118 q-71 0 -113 35.5 q-42 35.5 -42 96.5 q0 54 44.5 95.5 q44.5 41.5 111.5 41.5 q72 0 147 -36 q9 40 9 112 l0 21 q0 102 -57 165.5 q-57 63.5 -162 62.5 l-17 0 q-1 -5 -2.5 -14.5 q-1.5 -9.5 -2.5 -14.5 l-2 -15 q-16 -105 -39 -173 q-53 -149 -134.5 -250.5 q-81.5 -101.5 -173.5 -101.5 q-55 0 -91.5 43.5 q-36.5 43.5 -36.5 113.5 q0 145 82 258 q9 13 40 48 l0 2 q-1 2 -1 3 l-4 10 q-20 57 -24 72 q-33 98 -36 106 l76 31 q20 -94 46 -167 q116 92 234 111 q4 46 5 61 q3 49 -1 86 l94 -4 q-2 -10 -5.5 -40 q-3.5 -30 -6.5 -41 q0 -8 -1 -16.5 q-1 -8.5 -3.5 -19 q-2.5 -10.5 -3.5 -16.5 l12 0 q124 0 211 -81 q87 -81 87 -216 q0 -104 -22 -179 q57 -44 103 -98 l-53 -64 q-50 62 -81 90 ZM328 365 q23 -62 56 -111 q29 51 58 132 q32 92 46 182 q-108 -23 -198 -110 q8 -29 35 -86 l2 -6 l1 -1 ZM157 177 l0 -2 l0 -11 q3 -33 17.5 -52 q14.5 -19 35.5 -19 q66 0 133 92 q-37 47 -73 117 q-7 15 -19 48 q-12 33 -17 45 q-2 -2 -4.5 -7 q-2.5 -5 -3.5 -7 q-69 -103 -69 -204 ZM559 122 l0 -1 l1 -9 q6 -54 79 -54 q87 0 125 94 q-60 34 -120 34 q-42 0 -63.5 -19 q-21.5 -19 -21.5 -45 Z" /><glyph glyph-name="Identity.1157" unicode="&#x306e;" d="M904 350 q0 -158 -98.5 -260 q-98.5 -102 -275.5 -125 l-48 80 q41 4 88 14 q106 24 176 98.5 q70 74.5 70 195.5 q0 118 -67.5 197.5 q-67.5 79.5 -190.5 89.5 q-3 -21 -9 -62 q-6 -41 -8 -54 l-2 -10 q-16 -94 -36 -160 q-93 -314 -232 -314 q-70 0 -124.5 76 q-54.5 76 -54.5 195 q0 165 126 287.5 q126 122.5 306 122.5 q171 0 275.5 -107 q104.5 -107 104.5 -264 ZM176 318 l1 -3 l0 -21 q4 -76 33 -115.5 q29 -39.5 64 -39.5 q73 0 144 234 q45 150 59 267 q-136 -17 -218.5 -114.5 q-82.5 -97.5 -82.5 -207.5 ZM177 314 l0 -4 l0 -8 l0 12 Z" /><glyph glyph-name="Identity.1158" unicode="&#x306f;" d="M232 -35 l-75 -5 q-38 137 -38 319 q0 134 45 421 q6 46 6 74 l91 -8 q-1 -2 -7 -30.5 q-6 -28.5 -9 -39.5 q-21 -109 -34 -222 l-1 -11 q-12 -106 -12 -170 q0 -95 6 -137 q10 28 57 148 l42 -34 q-8 -24 -26 -80 l-4 -10 l-3 -11 q-28 -87 -35 -121 q-6 -32 -5 -45 q0 -5 1 -18.5 q1 -13.5 1 -19.5 ZM752 129 q0 -71 -39 -117 q-39 -46 -132 -46 q-99 0 -153.5 39 q-54.5 39 -54.5 107 q0 66 55 110 q55 44 150 44 q49 0 92 -10 q-1 24 -3.5 73 q-2.5 49 -2.5 59 l-1 10 l-1 10 q-4 68 -5 100 q-58 -2 -91 -2 q-66 0 -169 7 l0 81 q9 0 26.5 -2 q17.5 -2 26.5 -2 l10 -1 q53 -3 108 -3 q26 0 39 -1 l10 0 l40 0 l0 124 q0 21 -5 64 l96 0 q-6 -37 -7 -65 q0 -7 -2.5 -48 q-2.5 -41 -3.5 -68 q97 8 173 22 l0 -82 q-77 -13 -173 -19 q0 -21 2 -63 l0 -10 q2 -37 7 -107 q5 -70 7 -102 q93 -35 195 -128 l-48 -71 q-86 81 -146 117 l0 -20 ZM450 119 l0 -1 l1 -8 q7 -66 116 -66 q59 0 81 26 q22 26 22 80 q0 19 1 32 q-53 17 -98 17 q-56 0 -89.5 -21.5 q-33.5 -21.5 -33.5 -58.5 Z" /><glyph glyph-name="Identity.1159" unicode="&#x3070;" d="M966 683 l-55 -19 q-39 107 -60 145 l53 17 q31 -60 62 -143 ZM866 651 l-55 -19 q-34 98 -58 147 l53 16 q32 -64 60 -144 ZM209 -46 l-75 -5 q-38 137 -38 320 q0 42 3 89.5 q3 47.5 9.5 101 q6.5 53.5 11 86 q4.5 32.5 12.5 85.5 q8 53 9 58 q5 38 5 75 l91 -9 q-1 -5 -4 -20 q-3 -15 -6 -28 q-3 -13 -6 -21 q-18 -95 -33 -223 l-1 -11 q-12 -106 -12 -169 q0 -104 5 -139 q17 50 57 149 l43 -35 q-56 -159 -70 -221 q-4 -19 -4 -45 q1 -5 2 -20 q1 -15 1 -18 ZM729 120 q0 -71 -39.5 -118.5 q-39.5 -47.5 -132.5 -47.5 q-99 0 -153 39.5 q-54 39.5 -54 108.5 q0 64 55.5 108.5 q55.5 44.5 149.5 44.5 q43 0 91 -10 q-1 33 -5 112 l-1 15 q0 6 -2.5 54 q-2.5 48 -3.5 72 q-7 0 -20 -0.5 q-13 -0.5 -19 -0.5 l-9 0 q-14 -1 -44 -1 q-80 0 -168 6 l0 81 q6 0 10 -1 l9 0 q47 -5 92 -6 l9 0 q17 -1 50 -1 q24 0 35 -1 l10 0 l45 0 l0 124 q0 11 -6 65 l95 0 q-2 -13 -5 -64 q-6 -54 -6 -118 q95 8 172 22 l0 -82 q-77 -12 -126 -15 l-11 -1 q-11 -1 -35 -3 l0 -21 l1 -11 l0 -10 l1 -11 l0 -10 q2 -28 3 -41 l0 -11 q9 -135 11 -167 q91 -36 193 -128 l-46 -71 q-85 80 -146 118 l0 -19 ZM427 108 q0 -74 117 -74 q59 0 81 25.5 q22 25.5 22 79.5 q0 19 2 32 q-45 17 -101 17 q-56 0 -88.5 -21.5 q-32.5 -21.5 -32.5 -58.5 Z" /><glyph glyph-name="Identity.1161" unicode="&#x3072;" d="M752 441 q8 -100 -3.5 -184.5 q-11.5 -84.5 -46.5 -156 q-35 -71.5 -105 -112.5 q-70 -41 -170 -41 q-121 0 -195.5 67.5 q-74.5 67.5 -74.5 188.5 q0 225 185 431 q-21 -3 -82.5 -13.5 q-61.5 -10.5 -81.5 -13.5 q-11 -1 -33.5 -5 q-22.5 -4 -25.5 -4 l-6 91 q24 -2 56 0 q71 3 170.5 18 q99.5 15 141.5 31 l26 -75 q-47 -14 -56 -19 q-27 -19 -60 -58 q-33 -39 -68 -93.5 q-35 -54.5 -58 -127.5 q-23 -73 -23 -145 q0 -99 51 -142.5 q51 -43.5 135 -43.5 q169 0 231 162 q62 162 12 446 q-8 24 -22 76 l84 25 q10 -56 22 -101.5 q12 -45.5 35 -105.5 q23 -60 62 -116.5 q39 -56.5 91 -103.5 l-57 -74 q-71 75 -134 199 Z" /><glyph glyph-name="Identity.1162" unicode="&#x3073;" d="M969 678 l-56 -21 q-37 93 -69 144 l53 21 q29 -48 72 -144 ZM867 639 l-56 -22 q-38 96 -68 147 l54 19 q44 -82 70 -144 ZM734 427 q4 -77 1 -149 q-3 -72 -26.5 -135 q-23.5 -63 -59.5 -110 q-36 -47 -97.5 -74.5 q-61.5 -27.5 -142.5 -27.5 q-121 0 -195.5 67.5 q-74.5 67.5 -74.5 189.5 q0 223 184 430 q-30 -5 -66 -11 l-11 -2 q-12 -2 -31.5 -5 q-19.5 -3 -33 -5 q-13.5 -2 -22.5 -3 q-2 0 -24 -3.5 q-22 -3.5 -34 -5.5 l-7 90 q25 -2 56 0 q71 3 170.5 18 q99.5 15 140.5 31 l27 -74 q-47 -14 -56 -19 q-27 -20 -59.5 -58.5 q-32.5 -38.5 -67.5 -93 q-35 -54.5 -58 -127.5 q-23 -73 -23 -145 q0 -186 186 -186 q170 0 231.5 162 q61.5 162 11.5 447 q-12 34 -23 74 l82 24 q9 -55 21.5 -101 q12.5 -46 36 -105.5 q23.5 -59.5 62.5 -116 q39 -56.5 92 -103.5 l-57 -74 q-74 79 -133 201 Z" /><glyph glyph-name="Identity.1164" unicode="&#x3075;" d="M670 589 q-69 -60 -117 -92 l-52 50 q45 30 67 51 q-31 26 -91 59.5 q-60 33.5 -117 56.5 l47 63 q150 -63 244 -132 l19 -56 ZM659 121 q0 -82 -52.5 -117.5 q-52.5 -35.5 -120.5 -35.5 q-83 0 -163 16 l-11 88 q79 -22 160 -22 q96 0 96 79 q0 82 -125 218 q-59 62 -78 78 l61 55 q5 -5 15 -15.5 q10 -10.5 16 -16.5 l7 -8 q7 -8 21.5 -23.5 q14.5 -15.5 15.5 -16.5 q77 -83 117.5 -149.5 q40.5 -66.5 40.5 -129.5 ZM956 72 l-77 -42 q-24 78 -70.5 170.5 q-46.5 92.5 -94.5 147.5 l68 41 q48 -56 97.5 -149.5 q49.5 -93.5 76.5 -167.5 ZM352 227 q-122 -126 -255 -205 l-49 70 q61 32 136 91 q75 59 118 107 l50 -63 Z" /><glyph glyph-name="Identity.1165" unicode="&#x3076;" d="M653 582 q-57 -50 -122 -93 l-53 50 q38 25 69 52 q-69 59 -210 116 l48 62 q157 -65 248 -133 l20 -54 ZM955 567 l-58 -26 q-49 97 -85 142 l56 25 q45 -60 87 -141 ZM844 525 l-58 -26 q-36 77 -82 144 l57 25 q43 -62 83 -143 ZM637 114 q0 -44 -16.5 -75.5 q-16.5 -31.5 -43.5 -48 q-27 -16.5 -55 -23.5 q-28 -7 -58 -7 q-83 0 -163 16 l-11 89 q78 -23 160 -23 q97 0 97 79 q0 82 -125 218 q-50 52 -80 78 l62 55 q17 -16 74 -79 q78 -84 118.5 -150 q40.5 -66 40.5 -129 ZM935 64 l-78 -43 q-23 78 -69.5 171.5 q-46.5 93.5 -95.5 147.5 l69 41 q48 -56 97.5 -149.5 q49.5 -93.5 76.5 -167.5 ZM331 219 q-73 -75 -164 -142 l-8 -7 q-47 -33 -84 -56 l-48 70 q61 33 135.5 92 q74.5 59 117.5 106 l51 -63 Z" /><glyph glyph-name="Identity.1167" unicode="&#x3078;" d="M946 110 l-67 -79 q-38 37 -94 98 l-7 8 l-7 7 l-7 8 q-2 2 -5.5 6 q-3.5 4 -5.5 6 l-6 7 l-7 8 q-15 16 -31 34.5 q-16 18.5 -34.5 40 q-18.5 21.5 -28.5 32.5 q-20 22 -82 98 l-7 9 q-61 77 -94 115 q-22 23 -35.5 28.5 q-13.5 5.5 -24 -1.5 q-10.5 -7 -29.5 -30 q-13 -16 -41.5 -54 q-28.5 -38 -36.5 -49 l-7 -9 q-1 -1 -2 -2.5 q-1 -1.5 -1 -2.5 l-6 -8 l-7 -9 q-37 -51 -74 -97 q-46 -57 -61 -78 l-77 78 q12 9 71 68 q27 28 101 122 l16 22 l7 8 q34 45 69 87 q45 52 86 56 q41 4 92 -45 q31 -31 86 -97 l6 -8 l10 -12 q14 -16 20 -24 l7 -8 q46 -56 68 -80 q36 -39 103 -112 l8 -7 q5 -6 11 -12.5 q6 -6.5 13.5 -14.5 q7.5 -8 11.5 -12 l8 -7 l7 -8 q47 -47 84 -80 Z" /><glyph glyph-name="Identity.1173" unicode="&#x307e;" d="M583 93 q0 -59 -43.5 -100.5 q-43.5 -41.5 -133.5 -41.5 q-108 0 -164.5 38.5 q-56.5 38.5 -56.5 111.5 q0 69 62 112.5 q62 43.5 168 43.5 q41 0 82 -6 q0 5 -0.5 14.5 q-0.5 9.5 -0.5 14.5 l0 10 q0 10 -1 15 l0 9 l0 10 l0 9 q-1 8 -1 24 q0 16 -1 24 l-55 0 q-48 0 -107 3 l-11 1 q-7 0 -11 1 l-10 0 q-70 5 -110 9 l-1 81 q114 -19 250 -19 l52 0 l0 134 l-42 0 q-43 0 -110 5 l-11 1 q-35 2 -133 11 l0 80 q119 -22 253 -22 l43 0 l0 68 q0 21 -6 63 l91 0 q-2 -12 -6 -70 q0 -5 -1.5 -24 q-1.5 -19 -1.5 -34 l10 0 l10 1 l9 0 l10 1 q10 0 15 1 l10 0 q1 1 5 1 l10 1 l9 0 l10 1 q2 0 5.5 0.5 q3.5 0.5 4.5 0.5 l10 1 l5 0 l10 1 q2 0 7 1 q5 1 8 1 l9 1 q32 3 110 14 l0 -78 q-132 -15 -241 -21 l-10 -1 q-11 0 -16 -1 l0 -134 q29 1 85 5 l10 1 q31 2 83 8 l10 1 q11 2 32 4.5 q21 2.5 31 3.5 l10 2 l10 1 q1 1 4 1 l0 -81 q-12 -1 -25.5 -2.5 q-13.5 -1.5 -30 -3.5 q-16.5 -2 -25.5 -3 l-10 -1 q-10 -1 -29 -3 q-19 -2 -29 -3 l-10 0 q-2 0 -7 -1 q-5 -1 -8 -1 l-9 0 q-2 0 -5.5 -0.5 q-3.5 -0.5 -4.5 -0.5 l-10 0 q-4 -1 -12.5 -1.5 q-8.5 -0.5 -12.5 -0.5 l-9 0 q-6 0 -17.5 -0.5 q-11.5 -0.5 -17.5 -1.5 q0 -30 3.5 -83.5 q3.5 -53.5 4.5 -67.5 q143 -39 285 -156 l-48 -72 q-116 106 -238 150 q1 -13 4 -33 q3 -20 3 -28 ZM264 105 l0 -2 l1 -6 q5 -70 132 -70 q48 0 74 18.5 q26 18.5 26 66.5 q0 7 1 28 q1 21 1 35 q-49 11 -94 11 q-69 0 -105 -22.5 q-36 -22.5 -36 -58.5 Z" /><glyph glyph-name="Identity.1174" unicode="&#x307f;" d="M800 235 q-32 -102 -92 -174.5 q-60 -72.5 -165 -124.5 l-68 59 q198 85 257 283 q-137 77 -278 89 q-16 -37 -33 -78 l-4 -10 q-1 -2 -2.5 -5.5 q-1.5 -3.5 -1.5 -4.5 l-4 -10 q-50 -118 -75 -154 q-49 -70 -126 -70 q-56 0 -93.5 39 q-37.5 39 -37.5 101 q0 112 92 188 q92 76 238 80 q1 2 4 10 l5 9 q3 8 4 10 l4 9 q1 2 2.5 5.5 q1.5 3.5 1.5 4.5 l4 10 l4 9 l4 10 q46 108 66 148 q-18 -1 -56.5 -3.5 q-38.5 -2.5 -84.5 -5.5 q-46 -3 -61 -4 q-7 0 -75 -6 l-4 87 q39 -3 77 -3 q43 0 100 3 l12 1 q26 1 64 3.5 q38 2.5 46 2.5 q23 2 48 12 l53 -45 q-25 -31 -28 -35 q-18 -30 -91 -196 l-5 -10 q-1 -2 -2.5 -5.5 q-1.5 -3.5 -1.5 -5.5 l-5 -11 q-1 -1 -2.5 -5 q-1.5 -4 -2.5 -5 q129 -14 267 -77 q2 14 2.5 38.5 q0.5 24.5 1.5 32.5 q2 65 0 96 l88 -10 q-4 -103 -22 -196 q72 -41 120 -75 l-40 -91 q-53 46 -104 80 ZM156 185 l0 -1 l0 -11 q6 -53 55 -53 q29 0 56 34 q26 33 75 143 l4 10 q4 10 14 31.5 q10 21.5 14 32.5 q-102 -8 -160 -62.5 q-58 -54.5 -58 -123.5 Z" /><glyph glyph-name="Identity.1175" unicode="&#x3080;" d="M695 -25 q-72 -20 -204 -20 q-73 0 -120 8.5 q-47 8.5 -69.5 26.5 q-22.5 18 -30 38.5 q-7.5 20.5 -7.5 51.5 q0 29 3 45 q-15 -3 -32 -3 q-49 0 -89.5 40.5 q-40.5 40.5 -40.5 120.5 q0 80 47 140 q47 60 118 60 q8 0 24 -2 l0 93 q-11 -1 -34 -1 q-76 0 -159 10 l-3 80 q89 -15 157 -15 q24 0 39 -1 l0 51 q0 56 -8 98 l92 0 q-7 -49 -7 -98 l0 -42 q91 10 189 35 l0 -82 q-4 0 -5 -1 l-10 -2 q-84 -17 -174 -27 l0 -147 q26 -35 26 -90 q0 -111 -53 -171 q-1 -21 -1 -62 q0 -31 8 -44.5 q8 -13.5 41 -21.5 q33 -8 105 -8 q100 0 165 18 q41 12 59.5 36 q18.5 24 18.5 72 q0 84 -4 116 l90 -27 q2 -73 0 -110 q-3 -71 -33 -109 q-30 -38 -98 -56 ZM919 508 l-60 -60 q-36 47 -94.5 104.5 q-58.5 57.5 -100.5 87.5 l54 56 q43 -29 105 -87 q62 -58 96 -101 ZM179 287 q0 -40 18.5 -62.5 q18.5 -22.5 46.5 -22.5 q76 0 76 135 q0 76 -56 76 q-36 0 -60.5 -35 q-24.5 -35 -24.5 -91 Z" /><glyph glyph-name="Identity.1176" unicode="&#x3081;" d="M902 306 q0 -146 -95.5 -238.5 q-95.5 -92.5 -259.5 -115.5 l-50 77 q154 13 237 87.5 q83 74.5 83 191.5 q0 99 -53 166 q-53 67 -149 83 q-1 -3 -3.5 -10 q-2.5 -7 -3.5 -11 l-3 -10 q-68 -220 -129 -307 q37 -48 60 -70 l-66 -56 q-10 12 -44 61 q-51 -63 -97 -95 q-46 -32 -99 -32 q-60 0 -99.5 49 q-39.5 49 -39.5 134 q0 85 41.5 169 q41.5 84 109.5 140 q-17 48 -30 94 q-22 70 -31 90 l87 30 q8 -42 20 -92 q2 -8 8 -34.5 q6 -26.5 11 -42.5 q122 70 253 72 q1 5 12 70 q5 33 5 79 l92 -9 q-4 -15 -10 -47 q-6 -32 -6 -33 q-2 -11 -17 -69 q121 -20 193.5 -106.5 q72.5 -86.5 72.5 -214.5 ZM410 321 q3 -5 7 -16 q4 -11 8 -17 q42 70 83 185 l4 10 q10 30 15 46 l3 10 q5 14 8 25 q-104 -5 -208 -67 l4 -11 q52 -126 76 -165 ZM168 216 l0 -2 l1 -11 q5 -91 68 -91 q61 0 140 106 q-4 6 -10.5 18.5 q-6.5 12.5 -10.5 18.5 q-40 70 -85 191 q-48 -46 -75.5 -108 q-27.5 -62 -27.5 -122 Z" /><glyph glyph-name="Identity.1177" unicode="&#x3082;" d="M867 193 q0 -111 -89.5 -176.5 q-89.5 -65.5 -238.5 -65.5 q-109 0 -176.5 55 q-67.5 55 -67.5 171 q0 30 9 115 q-126 8 -205 33 l5 83 q84 -29 212 -42 l1 10 q1 6 2 17.5 q1 11.5 1 17.5 l1 15 q1 8 2 23 q1 15 2 22 l1 9 q4 41 7 64 q-113 9 -210 34 l5 77 q86 -27 216 -36 q2 18 3.5 36 q1.5 18 2 37.5 q0.5 19.5 1.5 28.5 q4 45 1 74 l95 -7 q-4 -17 -12 -73 q-2 -21 -14 -102 q96 0 199 16 l-2 -79 q-16 -2 -23 -2 l-9 -1 l-9 -1 l-10 -1 q-90 -6 -151 -6 l-7 0 l-9 -84 l-1 -10 q0 -6 -1 -9 l0 -10 q-1 -2 -1 -5 l-1 -10 q-1 -8 -2.5 -24 q-1.5 -16 -2.5 -24 l19 0 l24 0 l10 0 q86 2 168 13 l-1 -79 q-88 -12 -195 -12 l-36 0 q-2 -20 -2 -96 q0 -154 161 -154 q114 0 177.5 44 q63.5 44 63.5 122 q0 114 -108 206 l93 20 q102 -112 102 -234 Z" /><glyph glyph-name="Identity.1179" unicode="&#x3084;" d="M615 680 l-61 -49 q-113 110 -148 135 l58 44 q28 -20 76 -61 q48 -41 75 -69 ZM553 -30 l-89 -26 q-52 187 -82 274 l-3 10 q-32 88 -50 129 q-6 13 -16 40.5 q-10 27.5 -17 41.5 q-38 -18 -103 -51 q-65 -33 -88 -44 l-39 86 q20 5 82 29 q74 28 118 47 q-8 15 -28.5 54.5 q-20.5 39.5 -30.5 55.5 q-45 69 -48 73 l85 34 q21 -47 36 -67 q10 -19 28 -59.5 q18 -40.5 25 -55.5 q23 11 48 21 l9 5 q6 2 10 4 l10 4 q178 74 276 74 q102 0 162.5 -54 q60.5 -54 60.5 -137 q0 -91 -59 -148 q-59 -57 -171 -57 q-71 0 -150 29 l4 83 q73 -32 142 -32 q77 0 112.5 35 q35.5 35 35.5 94 q0 48 -35 79 q-35 31 -104 31 q-109 0 -317 -97 q1 -1 2 -4 q1 -3 2 -5 l4 -9 q1 -1 2 -4 q1 -3 2 -5 l4 -8 q4 -8 10 -22 l4 -9 q1 -1 1 -2 q0 -1 1 -2 l4 -9 l2 -4 q24 -56 59 -150 l3 -10 l6 -15 l3 -11 q1 -1 1 -2 q1 -2 1 -3 l4 -10 q2 -7 6.5 -20.5 q4.5 -13.5 6.5 -20.5 l4 -10 l3 -10 q2 -6 51 -160 Z" /><glyph glyph-name="Identity.1181" unicode="&#x3086;" d="M566 100 q-56 -112 -141 -168 l-77 49 q89 47 138 141 q-108 42 -164 154 l52 59 q55 -114 144 -144 q27 82 27 236 l0 42 l0 10 q0 70 -3 102 q-120 -21 -199.5 -110 q-79.5 -89 -105.5 -197 q-8 -37 -7 -62 q2 -44 14 -96 l-76 -12 q-32 112 -32 262 q0 77 25 306 q3 25 1 49 l91 -8 q-3 -8 -13 -51 q-38 -192 -32 -293 q43 111 129 186 q86 75 196 95 q-2 10 -7 38.5 q-5 28.5 -7 39.5 q-10 53 -15 65 l88 3 q3 -18 16 -136 q136 0 215.5 -76.5 q79.5 -76.5 79.5 -192.5 q0 -129 -78.5 -211 q-78.5 -82 -226.5 -82 q-10 0 -32 2 ZM625 427 l0 -2 l0 -1 l0 -2 l0 -2 l0 1 l0 -10 q-2 -140 -30 -233 l3 0 q105 0 164 55.5 q59 55.5 59 154.5 q0 86 -51.5 141 q-51.5 55 -154.5 58 q1 -18 5 -59 l1 -10 l0 -10 l1 -10 q3 -34 3 -71 Z" /><glyph glyph-name="Identity.1182" unicode="&#x3087;" d="M546 59 q0 -54 -37.5 -90 q-37.5 -36 -114.5 -36 q-91 0 -146 36 q-55 36 -55 101 q0 64 56 102 q56 38 157 38 q26 0 58 -5 q0 5 -1 16 q-1 11 -1 16 l-1 10 q-7 112 -7 132 l0 159 q0 62 -7 86 l94 0 q-8 -40 -8 -85 l0 -68 q142 2 244 15 l2 -75 q-121 -12 -246 -14 l0 -23 q0 -10 8 -186 q136 -36 250 -141 l-45 -74 q-97 99 -207 141 q1 -11 4 -29.5 q3 -18.5 3 -25.5 ZM270 72 l0 -1 l0 -6 q4 -26 33.5 -41.5 q29.5 -15.5 82.5 -15.5 q78 0 78 75 q0 7 1.5 24 q1.5 17 1.5 28 q-37 8 -68 8 q-61 0 -95 -18.5 q-34 -18.5 -34 -52.5 Z" /><glyph glyph-name="Identity.1183" unicode="&#x3088;" d="M552 105 q0 -67 -44.5 -110.5 q-44.5 -43.5 -138.5 -43.5 q-110 0 -175 39.5 q-65 39.5 -65 121.5 q0 72 64 119.5 q64 47.5 187 47.5 q42 0 84 -6 q0 9 -1 26.5 q-1 17.5 -2 25.5 l-1 11 l-1 10 q-7 135 -7 157 l0 30 l0 5 l0 11 l0 21 l0 11 q0 79 -1 105 q0 71 -9 103 l103 0 q-1 -10 -4.5 -48.5 q-3.5 -38.5 -5.5 -54.5 l0 -99 q32 1 138 5 l11 1 l10 0 l11 1 q2 0 5.5 0.5 q3.5 0.5 5.5 0.5 l10 0 q70 6 100 10 l4 -81 q-55 -5 -103 -8 l-11 -1 q-81 -5 -181 -7 l0 -9 q2 -81 7 -152 l0 -10 q1 -6 1 -16 l1 -11 l0 -5 l1 -10 l3 -42 q169 -46 305 -169 l-52 -80 q-116 117 -255 167 q0 -13 3 -35 q3 -22 3 -31 ZM215 114 l1 -1 l0 -11 q12 -70 145 -70 q54 0 78.5 24 q24.5 24 24.5 76 q0 8 1 28 q1 20 1 33 q-46 10 -95 10 q-76 0 -116 -24 q-40 -24 -40 -65 ZM216 110 l0 -4 l0 7 l0 -3 Z" /><glyph glyph-name="Identity.1184" unicode="&#x3089;" d="M721 709 l-20 -83 q-68 9 -197.5 36 q-129.5 27 -189.5 44 l21 82 q59 -18 172 -43 l12 -2 q1 0 3 -1 l2 0 l12 -3 q123 -24 185 -30 ZM850 234 q0 -143 -131 -219 q-131 -76 -395 -54 l-25 88 q227 -28 343.5 25 q116.5 53 116.5 161 q0 61 -46.5 98.5 q-46.5 37.5 -123.5 37.5 q-184 0 -300 -133 q-19 -28 -29 -53 l-78 21 q14 68 30 208 l2 12 l1 11 q12 120 15 179 l89 -12 q-7 -33 -22 -140.5 q-15 -107.5 -22 -140.5 q141 123 320 123 q113 0 184 -61 q71 -61 71 -151 Z" /><glyph glyph-name="Identity.1185" unicode="&#x308a;" d="M791 395 q0 -373 -420 -449 l-48 77 q87 13 152 37 q65 24 118 66 q53 42 81 109.5 q28 67.5 28 158.5 q0 124 -37.5 197 q-37.5 73 -113.5 73 q-59 0 -115.5 -51 q-56.5 -51 -90.5 -122 q-34 -71 -42 -138 q-3 -59 5 -126 l-83 -7 q-11 84 -11 163 q0 56 9 153 l1 11 q9 76 21 159 q1 7 7 89 l93 -4 q-27 -94 -51 -280 q36 89 109 159.5 q73 70.5 160 70.5 q101 0 164.5 -95 q63.5 -95 63.5 -251 Z" /><glyph glyph-name="Identity.1186" unicode="&#x308b;" d="M853 222 q0 -122 -91.5 -195 q-91.5 -73 -249.5 -73 q-100 0 -159.5 40.5 q-59.5 40.5 -59.5 104.5 q0 54 43.5 93.5 q43.5 39.5 111.5 39.5 q87 0 138.5 -51 q51.5 -51 61.5 -127 q119 46 119 169 q0 74 -60 122 q-60 48 -156 48 q-61 0 -109.5 -12 q-48.5 -12 -94.5 -42 q-46 -30 -80.5 -60.5 q-34.5 -30.5 -90.5 -87.5 l-59 63 q12 11 38.5 33 q26.5 22 39.5 33 l8 7 q2 2 6.5 5.5 q4.5 3.5 6.5 5.5 l8 7 l8 7 q3 3 5 4 l8 7 l4 4 l8 7 q85 74 122 105 q130 107 230 195 q-66 -2 -155 -8 l-13 -1 q-27 -1 -72.5 -4 q-45.5 -3 -57.5 -4 q-40 -2 -69 -6 l-3 89 q31 -4 74 -4 q41 0 169 5 q128 5 166 9 q35 2 54 8 l48 -62 q-39 -28 -58 -45 q-20 -15 -136 -112 l-8 -8 l-9 -7 q-74 -64 -104 -89 q72 25 134 25 q124 0 204 -68 q80 -68 80 -170 ZM499 30 q63 0 76 2 q-4 61 -38 98 q-34 37 -90 37 q-33 0 -54 -18 q-21 -18 -21 -45 l0 -1 l0 -7 q4 -32 38 -49 q34 -17 89 -17 Z" /><glyph glyph-name="Identity.1187" unicode="&#x308c;" d="M350 22 q3 -51 3 -63 l-91 0 q3 27 3 61 q1 39 1 102 l0 17 q1 22 1.5 67.5 q0.5 45.5 0.5 70.5 q0 4 3 16.5 q3 12.5 3 21.5 q-6 -10 -19.5 -30 q-13.5 -20 -25 -37 q-11.5 -17 -21.5 -32 l-6 -9 q-8 -12 -12 -17 l-6 -9 q-56 -83 -71 -104 l-55 72 q121 152 219 304 q1 17 5.5 49 q4.5 32 5.5 48 q-45 -7 -107 -16 l-11 -1 q-54 -8 -78 -11 l-8 87 q43 0 67 2 q86 5 137 14 q5 78 5 95 l0 4 l0 4 l0 10 q0 35 -4 59 l99 -4 q-7 -37 -19 -153 q1 0 3.5 1 q2.5 1 3.5 1 l31 -33 q-42 -64 -47 -73 q0 -4 -4 -23.5 q-4 -19.5 -3 -31.5 q71 68 151.5 119 q80.5 51 148.5 51 q68 0 104 -37 q36 -37 36 -100 q0 -58 -16 -170 l-1 -11 l-2 -16 l-2 -11 q-15 -114 -15 -166 q0 -58 47 -58 q70 0 149 84 l15 -92 q-87 -85 -184 -85 q-51 0 -81.5 34.5 q-30.5 34.5 -30.5 95.5 q0 58 12 149 l2 10 l1 11 q1 2 1 5 l2 16 l2 11 q17 119 17 171 q0 43 -18 61.5 q-18 18.5 -57 18.5 q-106 0 -285 -191 q-3 -63 -3 -117 l0 -11 l0 -5 l0 -11 l0 -15 l0 -20 l0 -48 l0 -9 q2 -76 4 -123 Z" /><glyph glyph-name="Identity.1190" unicode="&#x308f;" d="M347 122 q0 -45 3 -99 q3 -54 3 -64 l-91 0 q3 21 3 61 q1 39 1 102 l0 17 q1 22 1.5 67.5 q0.5 45.5 0.5 70.5 q0 4 3 16.5 q3 12.5 3 21.5 q-6 -10 -19.5 -30 q-13.5 -20 -25 -37 q-11.5 -17 -21.5 -32 l-6 -9 q-8 -12 -12 -17 l-6 -9 q-56 -83 -71 -104 l-54 72 q43 56 100 133 l6 9 q1 1 3.5 4 q2.5 3 3.5 5 l6 10 q68 94 99 144 q2 30 4 43 l1 9 q4 28 5 43 q-12 -2 -47.5 -7 q-35.5 -5 -54.5 -8 l-11 -1 l-5 -1 l-11 -2 q-14 -2 -39 -6 q-25 -4 -27 -4 l-9 89 q44 0 68 2 q76 5 137 14 q5 78 5 95 l0 4 l0 4 l0 10 q0 35 -4 59 l99 -4 q-7 -37 -19 -153 q1 0 3 1 q2 1 3 1 l32 -33 q-42 -64 -47 -73 q0 -4 -4 -26.5 q-4 -22.5 -3 -35.5 q149 127 311 127 q107 0 183.5 -71.5 q76.5 -71.5 77.5 -184.5 q1 -145 -95 -232 q-96 -87 -268 -120 l-38 80 q66 9 120.5 29 q54.5 20 99 52 q44.5 32 69 81.5 q24.5 49.5 24.5 111.5 q0 67 -47 121 q-47 54 -138 54 q-152 0 -303 -141 q-3 -63 -3 -117 l0 -11 l0 -5 l0 -11 l0 -15 l0 -20 l0 -52 l0 -10 l0 -9 l1 -9 Z" /><glyph glyph-name="Identity.1193" unicode="&#x3092;" d="M810 -30 q-72 -9 -160 -14 l-11 -1 q-53 -3 -101 -3 q-257 0 -257 156 q0 42 19 79.5 q19 37.5 55.5 69 q36.5 31.5 72.5 54 q36 22.5 88 49.5 q-17 61 -89 61 q-87 0 -165 -73 q-13 -12 -27 -28 q-14 -16 -33.5 -40.5 q-19.5 -24.5 -30.5 -37.5 l-71 54 q150 146 227 305 l-41 0 q-108 0 -163 4 l0 81 q83 -11 168 -11 l9 0 q38 0 57 1 q16 49 20 125 l86 -8 q-17 -84 -28 -119 l11 1 q64 4 96 7 l10 1 q24 2 35 4 l10 1 l5 0 l10 2 q62 7 121 18 l1 -79 q-40 -6 -119 -14 l-9 -1 q-20 -2 -31 -3 l-10 -1 q-3 0 -9.5 -0.5 q-6.5 -0.5 -10.5 -0.5 l-10 -1 q-68 -4 -101 -6 l-10 0 q-3 0 -9.5 -0.5 q-6.5 -0.5 -9.5 -0.5 q-40 -92 -86 -153 q65 41 134 41 q48 0 83 -24 q35 -24 47 -67 q13 6 177 82 q63 27 83 38 l34 -78 q-21 -6 -88 -33 q-114 -44 -197 -85 q0 -25 1 -96.5 q1 -71.5 2 -97.5 l-83 0 q7 133 7 157 q-152 -81 -152 -167 q0 -28 12 -46 q12 -18 37.5 -26.5 q25.5 -8.5 53 -11 q27.5 -2.5 71.5 -2.5 q130 0 271 24 l-2 -86 Z" /><glyph glyph-name="Identity.1194" unicode="&#x3093;" d="M943 237 q-91 -277 -281 -277 q-73 0 -107.5 38.5 q-34.5 38.5 -38.5 91.5 q-2 27 -2 90 l0 11 q0 62 -2 89 q-5 68 -67 68 q-56 0 -105.5 -46 q-49.5 -46 -82.5 -113 q-22 -43 -49.5 -116.5 q-27.5 -73.5 -37.5 -112.5 l-89 31 q37 101 112 260 l5 11 q2 4 6.5 13.5 q4.5 9.5 6.5 13.5 l5 11 l5 11 q1 1 3 5 l8 16 q1 6 5 11 l5 11 q121 246 178 349 q33 62 39 78 l91 -38 q-13 -17 -23 -35 l-5 -9 l-6 -9 q-35 -55 -102 -178 l-5 -10 q-2 -4 -5.5 -10.5 q-3.5 -6.5 -5.5 -9.5 l-5 -10 q-30 -55 -60 -111 q71 65 144 65 q51 0 83.5 -33 q32.5 -33 34.5 -91 q1 -21 1 -70 l1 -10 q0 -77 2 -105 q4 -68 75 -68 q40 0 74 22.5 q34 22.5 57.5 61 q23.5 38.5 39.5 78 q16 39.5 27 83.5 l71 -57 Z" /><glyph glyph-name="Identity.1206" unicode="&#x30a1;" d="M840 476 q-105 -170 -201 -236 l-67 49 q48 29 95.5 82.5 q47.5 53.5 73.5 97.5 l-4 0 q-130 0 -228 -1 l-14 0 q-58 0 -136 -0.5 q-78 -0.5 -81 -0.5 l-3 0 q-33 0 -95 -4 l0 89 q49 -7 95 -7 l485 0 q27 0 53 6 l49 -46 q-14 -17 -22 -29 ZM533 406 q-1 -60 -3.5 -102.5 q-2.5 -42.5 -10.5 -92 q-8 -49.5 -24 -86.5 q-16 -37 -41 -75.5 q-25 -38.5 -63.5 -71 q-38.5 -32.5 -90.5 -61.5 l-74 61 q44 16 70 36 q49 33 80 70 q31 37 45.5 81 q14.5 44 19 83 q4.5 39 4.5 95 q0 23 -6 63 l94 0 Z" /><glyph glyph-name="Identity.1207" unicode="&#x30a2;" d="M902 639 q-39 -66 -106.5 -146 q-67.5 -80 -143.5 -133 l-68 57 q63 37 124.5 103.5 q61.5 66.5 90.5 118.5 l-556 0 q-41 0 -96 -5 l-10 -1 q-3 -1 -9 -1 l0 98 q70 -10 115 -10 l563 0 q38 0 73 7 l52 -50 q-3 -4 -14 -18 q-11 -14 -15 -20 ZM439 548 l97 0 l0 -35 l0 -4 l0 27 l0 -34 q-1 -82 -7 -141 q-6 -59 -23 -121.5 q-17 -62.5 -47 -109.5 q-30 -47 -80 -91.5 q-50 -44.5 -121 -79.5 l-77 65 q44 14 90 47 q56 34 92 77.5 q36 43.5 52.5 98 q16.5 54.5 22 104 q5.5 49.5 5.5 121.5 q0 41 -4 76 Z" /><glyph glyph-name="Identity.1208" unicode="&#x30a3;" d="M559 10 q0 -72 5 -92 l-99 0 q6 48 6 92 l0 304 q-161 -89 -305 -134 l-40 79 q171 40 352 152 q140 86 237 207 l66 -65 q-96 -105 -222 -188 l0 -355 Z" /><glyph glyph-name="Identity.1209" unicode="&#x30a4;" d="M595 76 q0 -76 7 -111 l-106 0 q8 51 8 111 l0 368 q-172 -101 -372 -163 l-42 81 q230 62 429 188 q152 95 271 238 l69 -67 q-25 -27 -54 -54 l-7 -6 l-7 -7 q-97 -92 -196 -158 l0 -420 Z" /><glyph glyph-name="Identity.1210" unicode="&#x30a5;" d="M739 164 q-46 -82 -133.5 -146 q-87.5 -64 -209.5 -96 l-65 75 q39 5 96 26 q153 56 224 168 q65 102 77 224 l-453 0 l0 -140 q0 -22 5 -52 l-89 0 q0 4 1.5 16 q1.5 12 2 22.5 q0.5 10.5 0.5 17.5 l0 145 q0 29 -5 74 q46 -4 87 -4 l176 0 l0 68 q0 27 -6 63 l96 0 q-6 -28 -6 -59 l0 -72 l181 0 q37 0 57 6 l53 -32 q-8 -25 -12 -55 q-23 -155 -77 -249 Z" /><glyph glyph-name="Identity.1211" unicode="&#x30a6;" d="M765 245 q-55 -100 -155.5 -174.5 q-100.5 -74.5 -235.5 -111.5 l-67 80 q41 6 105 30 q77 25 148 78 q71 53 116 122 q39 62 65 141 q26 79 31 146 l-545 0 l0 -176 q0 -31 6 -63 l-94 0 q3 27 3 67 l0 184 q0 53 -3 73 q48 -5 96 -5 l213 0 l0 90 q0 32 -6 79 l103 0 q-8 -50 -8 -79 l0 -90 l217 0 q47 0 70 9 l57 -36 q-7 -22 -16 -63 q-31 -188 -100 -301 Z" /><glyph glyph-name="Identity.1213" unicode="&#x30a8;" d="M912 135 l0 -99 q-31 5 -82 5 l-651 0 q-39 0 -91 -5 l0 99 q52 -7 91 -7 l274 0 l0 454 l-218 0 q-54 0 -85 -4 l0 95 q42 -7 85 -7 l539 0 q31 0 87 7 l0 -95 q-33 4 -87 4 l-236 0 l0 -454 l288 0 q25 0 86 7 Z" /><glyph glyph-name="Identity.1214" unicode="&#x30a9;" d="M657 7 q1 -32 -21.5 -52 q-22.5 -20 -58.5 -20 q-17 0 -67 2 l-11 0 q-13 1 -35.5 2.5 q-22.5 1.5 -29.5 1.5 l-3 79 q60 -9 122 -9 q24 0 24 26 q0 19 0.5 81 q0.5 62 0.5 102 l0 17 l0 17 l0 11 l0 51 q-54 -76 -149.5 -160.5 q-95.5 -84.5 -193.5 -136.5 l-58 67 q110 53 211.5 138 q101.5 85 154.5 164 l-262 0 q-30 0 -78 -4 l0 86 q38 -5 76 -5 l292 0 q-1 50 -3 79 q0 31 -7 71 l91 0 q-4 -18 -4 -71 q0 -11 -2 -79 l141 0 q35 0 70 5 l0 -85 q-51 3 -68 3 l-142 0 q0 -30 2 -98 l1 -11 q0 -22 2 -70 l0 -10 q5 -182 5 -192 Z" /><glyph glyph-name="Identity.1215" unicode="&#x30aa;" d="M665 53 q0 -84 -95 -84 q-84 0 -158 6 l-7 88 q58 -12 141 -12 q20 0 26.5 8 q6.5 8 6.5 29 q0 26 1 120 q1 94 1 152 l0 17 l0 33 l0 12 l0 27 q-68 -97 -186 -203.5 q-118 -106.5 -244 -173.5 l-60 70 q144 70 267 177 q123 107 187 204 l-322 0 q-43 0 -82 -3 l-9 0 l-5 0 l0 91 q68 -7 94 -7 l353 0 q-2 74 -1 95 q-3 43 -12 88 l98 0 q-2 -26 -2 -39 l-1 -10 q-1 -13 -1 -39 q0 -19 2 -95 l150 0 q13 0 87 7 l0 -90 q-5 0 -18.5 0.5 q-13.5 0.5 -20.5 0.5 l-11 1 l-34 0 l-156 0 q1 -27 2.5 -82.5 q1.5 -55.5 2.5 -80.5 l0 -16 q4 -147 6 -291 Z" /><glyph glyph-name="Identity.1216" unicode="&#x30ab;" d="M489 525 q-26 -209 -98.5 -337.5 q-72.5 -128.5 -203.5 -218.5 l-74 63 q59 31 102 76 q157 142 193 417 l-171 0 q-85 -2 -106 -5 l0 92 q61 -7 115 -7 l173 0 l0 99 q0 38 -8 86 l100 0 q-2 -16 -5 -86 q-1 -20 -4.5 -53 q-3.5 -33 -4.5 -46 l233 0 q30 0 64 6 l59 -30 q-6 -34 -6 -51 q-2 -88 -12 -210 l-1 -12 q-17 -198 -47 -263 q-34 -62 -109 -62 q-41 0 -62 1 l-10 1 q-5 0 -13 0.5 q-8 0.5 -12 0.5 l-10 1 l-5 0 l-10 1 q-13 0 -39 2 l-9 88 q77 -10 149 -10 q22 0 33.5 6.5 q11.5 6.5 19.5 25.5 q26 51 40 186.5 q14 135.5 14 238.5 l-275 0 Z" /><glyph glyph-name="Identity.1217" unicode="&#x30ac;" d="M941 687 l-57 -26 q-47 93 -84 141 l57 25 q52 -73 84 -140 ZM833 646 l-59 -23 q-53 99 -82 139 l57 25 q41 -59 84 -141 ZM470 514 q-26 -210 -98.5 -338 q-72.5 -128 -204.5 -218 l-73 63 q53 28 102 77 q78 71 126 170 q48 99 67 246 l-171 0 l-20 0 l-10 -1 q-46 0 -78 -4 l0 91 q70 -6 116 -6 l173 0 q1 13 1 29 q0 16 -0.5 36.5 q-0.5 20.5 -0.5 32.5 q0 46 -7 86 l100 0 q-2 -15 -5 -85 q0 -15 -6 -99 l230 0 q30 0 64 6 l58 -30 q-5 -28 -5 -51 q-16 -389 -61 -485 q-18 -33 -42.5 -47.5 q-24.5 -14.5 -65.5 -14.5 q-70 0 -161 7 l-10 89 q85 -11 149 -11 q22 0 33.5 6.5 q11.5 6.5 19.5 24.5 q26 52 40 187.5 q14 135.5 14 238.5 l-274 0 Z" /><glyph glyph-name="Identity.1218" unicode="&#x30ad;" d="M628 -29 l-95 -18 q-11 74 -16 96 q-1 6 -6 37 q-5 31 -12.5 75 q-7.5 44 -15.5 88 q-96 -16 -264 -47 q-77 -14 -88 -17 l-19 91 q47 2 88 10 q159 22 265 39 q-2 8 -5 24.5 q-3 16.5 -4 25.5 l-2 10 q-2 14 -4 19 l-1 10 q-1 2 -1 5 l-2 10 q-1 4 -2.5 12 q-1.5 8 -1.5 12 l-2 10 q-4 27 -11 60 q-130 -21 -214 -36 q-61 -11 -83 -16 l-17 94 q28 1 83 8 q88 9 213 29 q-4 21 -9 46.5 q-5 25.5 -8 39 q-3 13.5 -4 18.5 q-10 50 -17 71 l93 16 q0 -3 5 -36 l2 -11 q1 -4 2.5 -12 q1.5 -8 1.5 -11 q0 -3 2 -18.5 q2 -15.5 5.5 -39 q3.5 -23.5 8.5 -48.5 q159 26 226 39 q48 9 72 17 l19 -90 q-67 -9 -74 -10 q-14 -2 -54 -8 q-40 -6 -84.5 -12.5 q-44.5 -6.5 -86.5 -13.5 q2 -10 6.5 -33.5 q4.5 -23.5 6.5 -36.5 l1 -10 q1 -4 2.5 -12 q1.5 -8 2.5 -12 l1 -10 l2 -10 l2 -9 l1 -10 q0 -2 1 -5.5 q1 -3.5 1 -4.5 l2 -10 q0 -2 2 -10 l1 -9 l3 -15 q56 9 240 42 q59 11 90 19 l19 -90 q-31 -3 -93 -13 q-16 -3 -98.5 -14.5 q-82.5 -11.5 -139.5 -21.5 q37 -179 42 -200 q14 -69 22 -93 Z" /><glyph glyph-name="Identity.1220" unicode="&#x30af;" d="M670 226 q-152 -186 -393 -274 l-75 70 q237 70 393 252 q56 66 100 151 q44 85 62 156 l-332 0 q-112 -155 -250 -247 l-72 56 q80 47 146.5 114 q66.5 67 101 119 q34.5 52 60.5 106 q20 34 31 82 l98 -33 q-17 -26 -43 -81 q-11 -21 -24 -39 l262 0 q39 0 66 12 l67 -44 q-14 -24 -24 -57 q-51 -190 -174 -343 Z" /><glyph glyph-name="Identity.1221" unicode="&#x30b0;" d="M954 703 l-58 -26 q-45 89 -85 141 l58 25 q49 -69 85 -140 ZM844 662 l-58 -26 q-47 94 -82 142 l57 25 q41 -59 83 -141 ZM632 201 q-149 -182 -395 -274 l-75 71 q239 70 394 252 q57 67 100.5 152 q43.5 85 58.5 155 l-329 0 q-112 -156 -251 -247 l-71 55 q199 119 308 339 q20 36 31 83 l96 -34 q-9 -15 -24 -45 q-15 -30 -18 -35 q-9 -18 -23 -39 l262 0 q38 0 65 11 l67 -43 q-16 -28 -25 -57 q-53 -200 -171 -344 Z" /><glyph glyph-name="Identity.1223" unicode="&#x30b2;" d="M949 693 l-55 -26 q-65 111 -88 141 l58 25 q44 -61 85 -140 ZM840 653 l-59 -27 q-45 90 -82 142 l57 25 q47 -67 84 -140 ZM634 501 q-12 -207 -86 -342.5 q-74 -135.5 -208 -221.5 l-87 62 q39 15 81 49 q201 152 219 453 l-253 0 q-79 -148 -160 -215 l-83 51 q86 62 175 217 q31 55 54 139 q14 47 17 81 l100 -20 q-5 -13 -13.5 -39.5 q-8.5 -26.5 -10.5 -32.5 q-23 -68 -38 -98 l460 0 q52 0 93 6 l0 -92 q-43 3 -93 3 l-167 0 Z" /><glyph glyph-name="Identity.1224" unicode="&#x30b3;" d="M842 87 q0 -20 5 -100 l-97 0 q2 7 4 57 l-477 0 q-47 0 -115 -5 l0 99 q69 -8 113 -8 l479 0 l0 467 l-468 0 q-43 0 -112 -3 l0 96 q58 -7 111 -7 l484 0 q17 0 77 3 q0 -3 -2 -35.5 q-2 -32.5 -2 -46.5 l0 -517 Z" /><glyph glyph-name="Identity.1225" unicode="&#x30b4;" d="M939 721 l-61 -26 q-52 97 -83 137 l60 25 q41 -58 84 -136 ZM813 691 l-60 -27 q-45 90 -80 139 l58 25 q39 -55 82 -137 ZM824 58 q0 -37 4 -101 l-96 0 q0 4 2 23.5 q2 19.5 2 33.5 l-478 0 q-48 0 -115 -5 l0 99 q67 -8 113 -8 l480 0 l0 467 l-468 0 q-20 0 -112 -4 l0 97 q58 -7 111 -7 l482 0 q18 0 78 3 q-3 -69 -3 -82 l0 -516 Z" /><glyph glyph-name="Identity.1226" unicode="&#x30b5;" d="M718 459 l0 -43 l0 37 l0 -43 q-5 -183 -66 -286.5 q-61 -103.5 -217 -173.5 l-70 68 q73 28 119.5 58.5 q46.5 30.5 82.5 79.5 q36 49 51.5 121 q15.5 72 15.5 176 l0 39 l-273 0 l0 -159 q0 -45 5 -95 l-95 0 q6 60 6 95 l0 159 l-103 0 q-72 0 -102 -5 l0 94 q32 -7 102 -7 l103 0 l0 125 q0 31 -6 77 l96 0 q-6 -60 -6 -77 l0 -125 l273 0 l0 122 q0 56 -6 86 l97 0 q-7 -70 -7 -86 l0 -122 l105 0 q60 0 95 5 l0 -90 q-33 3 -95 3 l-105 0 l0 -33 Z" /><glyph glyph-name="Identity.1227" unicode="&#x30b6;" d="M950 654 l-53 -17 q-37 100 -59 142 l51 17 q35 -67 61 -142 ZM851 623 l-53 -19 q-36 103 -57 145 l52 17 q35 -69 58 -143 ZM701 442 q0 -29 -1 -43 l1 36 l-1 -42 q-5 -183 -66 -287 q-61 -104 -217 -174 l-69 69 q73 28 119.5 58 q46.5 30 82 79 q35.5 49 51 121 q15.5 72 15.5 176 l0 39 l-273 0 l0 -159 q0 -39 6 -93 l-96 0 q6 54 6 93 l0 159 l-103 0 q-74 0 -101 -5 l0 94 q31 -7 101 -7 l103 0 l0 125 q0 30 -6 76 l96 0 q-6 -54 -6 -75 l0 -126 l273 0 l0 122 q0 32 -6 86 l98 0 q-7 -70 -7 -86 l0 -122 l104 0 q66 0 94 6 l0 -91 q-33 3 -93 3 l-105 0 l0 -32 Z" /><glyph glyph-name="Identity.1228" unicode="&#x30b7;" d="M521 627 l-49 -70 q-119 89 -214 144 l46 69 q100 -56 217 -143 ZM376 408 l-48 -72 q-119 87 -217 138 l46 74 q104 -57 219 -140 ZM531 93 q-156 -89 -330 -125 l-47 86 q176 30 330 119 q244 140 374 366 l52 -85 q-66 -103 -164 -197.5 q-98 -94.5 -215 -163.5 Z" /><glyph glyph-name="Identity.1229" unicode="&#x30b8;" d="M939 640 l-62 -28 q-48 94 -97 159 l61 26 q43 -56 98 -157 ZM509 620 l-49 -71 q-106 82 -214 145 l47 70 q73 -41 216 -144 ZM807 590 l-61 -28 q-47 98 -93 162 l60 25 q55 -79 94 -159 ZM363 402 l-47 -73 q-133 96 -218 139 l47 71 q42 -23 113 -67.5 q71 -44.5 105 -69.5 ZM518 86 q-71 -42 -161.5 -74.5 q-90.5 -32.5 -166.5 -48.5 l-47 84 q174 30 329 118 q243 139 374 367 l52 -86 q-144 -221 -380 -360 Z" /><glyph glyph-name="Identity.1230" unicode="&#x30b9;" d="M898 32 l-76 -64 q-145 190 -268 300 q-32 -34 -47 -49 l-7 -7 q-53 -51 -103 -93 l-8 -6 q-106 -85 -219 -139 l-66 69 q213 87 406 303 q50 57 96.5 133.5 q46.5 76.5 68.5 138.5 l-383 0 q-25 0 -102 -7 l0 99 q49 -7 102 -7 l379 0 q43 0 72 9 l54 -42 q-15 -20 -27 -48 q-62 -156 -162 -291 q149 -128 290 -299 Z" /><glyph glyph-name="Identity.1231" unicode="&#x30ba;" d="M949 712 l-58 -26 q-44 87 -84 141 l57 25 q44 -61 85 -140 ZM651 685 q44 0 73 9 l52 -41 q-50 95 -80 139 l57 25 q51 -76 83 -141 l-59 -26 q-17 -25 -26 -45 q-38 -93 -96 -192 l-6 -9 q-28 -46 -61 -91 q49 -42 85 -78 l8 -8 q9 -8 27 -26 l7 -8 q91 -94 160 -177 l-72 -64 q-73 97 -161 192 l-8 8 l-1 2 q-1 2 -2 2 l-7 7 q-36 39 -89 88 q-189 -205 -385 -295 l-66 72 q213 83 407 300 q50 56 96 133.5 q46 77.5 68 139.5 l-382 0 q-26 0 -103 -7 l0 98 q49 -7 103 -7 l378 0 Z" /><glyph glyph-name="Identity.1232" unicode="&#x30bb;" d="M837 -1 q-137 -20 -312 -20 q-69 0 -112.5 9 q-43.5 9 -66.5 29.5 q-23 20.5 -31 46 q-8 25.5 -8 65.5 l0 300 q-159 -34 -227 -49 l-16 90 q101 13 243 40 l0 171 q0 43 -9 95 l101 0 q-7 -41 -7 -95 l0 -153 l19 4 q5 0 7 1 l19 4 q220 44 331 70 q33 7 51 18 l63 -49 q-12 -18 -26 -43 q-110 -199 -201 -293 l-73 46 q51 46 99.5 115 q48.5 69 75.5 124 q-6 -1 -59.5 -13 q-53.5 -12 -141.5 -31.5 q-88 -19.5 -164 -35.5 l0 -294 q0 -53 26 -71 q26 -18 113 -18 q124 0 249 19 l9 2 q27 3 52 9 l-4 -93 Z" /><glyph glyph-name="Identity.1233" unicode="&#x30bc;" d="M951 699 l-58 -26 q-54 105 -85 141 l58 25 q44 -61 85 -140 ZM842 658 l-59 -26 q-45 90 -82 142 l57 25 q48 -69 84 -141 ZM824 -18 q-144 -21 -311 -21 q-69 0 -113 9 q-44 9 -67 29.5 q-23 20.5 -31.5 46 q-8.5 25.5 -8.5 65.5 l0 299 q-205 -42 -224 -46 l-15 88 q62 7 239 40 l0 171 q0 54 -7 95 l100 0 q-7 -51 -7 -95 l0 -153 q4 0 7 1 l13 3 q236 46 356 76 q38 9 51 18 l63 -50 q-18 -29 -29 -43 q-109 -201 -199 -292 l-72 45 q51 47 99 116 q48 69 76 123 q-6 -1 -59.5 -13 q-53.5 -12 -141.5 -31.5 q-88 -19.5 -164 -35.5 l0 -295 q0 -53 26 -70.5 q26 -17.5 114 -17.5 q163 0 307 29 l-2 -91 Z" /><glyph glyph-name="Identity.1236" unicode="&#x30bf;" d="M634 208 q-159 -176 -372 -256 l-74 67 q219 67 381 242 l-45 33 l-8 6 l-9 6 l-8 6 l-9 6 q-47 33 -130 85 l57 59 q58 -34 118 -74 l8 -5 q1 -1 2 -2 q1 -1 2 -1 l9 -6 q2 -2 8 -6 l8 -5 l9 -6 l8 -6 q6 -4 8 -5 l9 -6 q14 -10 20 -15 q96 128 131 272 l-330 0 q-120 -169 -261 -266 l-70 56 q198 123 315 350 q27 49 34 79 l94 -30 q-35 -53 -44 -81 q-10 -19 -21 -32 l262 0 q32 0 68 12 l65 -43 q-8 -12 -25 -58 q-48 -169 -152 -309 q54 -40 112 -87 l-61 -74 q-66 59 -109 94 Z" /><glyph glyph-name="Identity.1237" unicode="&#x30c0;" d="M954 709 l-58 -26 q-36 76 -85 142 l57 24 q49 -68 86 -140 ZM603 184 q-157 -175 -372 -256 l-74 68 q220 66 380 241 q-3 2 -8.5 6 q-5.5 4 -7.5 6 l-9 6 l-8 6 l-21 15 l-8 6 l-9 6 l-8 6 q-7 4 -13 8 l-8 6 q-50 35 -108 71 l56 60 q49 -27 123 -77 l8 -6 l8 -6 l4 -2 l9 -6 l8 -6 q2 -1 4 -3 l9 -6 q21 -14 37 -26 q95 129 130 272 l-329 0 q-122 -169 -261 -265 l-70 55 q201 125 315 350 q23 37 33 80 l95 -30 q-4 -7 -44 -82 q-7 -13 -21 -31 l262 0 q39 0 66 9 l16 -10 q-34 68 -83 135 l57 25 q45 -65 84 -141 l-55 -22 l48 -28 q-16 -28 -25 -57 q-49 -165 -152 -310 q64 -46 110 -86 l-59 -74 q-72 65 -109 93 Z" /><glyph glyph-name="Identity.1238" unicode="&#x30c1;" d="M556 375 q-8 -144 -66.5 -245.5 q-58.5 -101.5 -184.5 -174.5 l-82 59 q120 56 182 142.5 q62 86.5 71 218.5 l-292 0 q-44 0 -92 -4 l0 89 q46 -4 90 -4 l294 0 l0 177 q-32 -4 -94 -8 l-10 -1 q-101 -6 -182 -6 l-21 79 q78 -3 206 5 l11 0 q50 4 116 11 q16 2 64 11 l11 2 q122 22 179 46 l55 -74 q-7 -2 -29 -8 q-22 -6 -30 -8 q-97 -25 -195 -40 l0 -186 l270 0 q40 0 82 4 l0 -89 q-44 4 -80 4 l-273 0 Z" /><glyph glyph-name="Identity.1240" unicode="&#x30c3;" d="M564 358 l-77 -26 q-8 34 -35 110 q-27 76 -43 110 l77 28 q27 -64 60 -168 l4 -10 q11 -33 14 -44 ZM687 161 q-129 -166 -323 -240 l-68 72 q89 26 174.5 82 q85.5 56 145.5 132 q53 65 89 156 q36 91 47 187 l89 -29 q-9 -28 -16 -53 q-48 -194 -138 -307 ZM351 299 l-82 -29 q-10 38 -41.5 119.5 q-31.5 81.5 -46.5 108.5 l75 30 q52 -112 95 -229 Z" /><glyph glyph-name="Identity.1241" unicode="&#x30c4;" d="M560 488 l-84 -28 q-13 46 -46 138 q-33 92 -51 129 l79 27 q17 -38 53.5 -132 q36.5 -94 48.5 -134 ZM715 254 q-76 -101 -179 -177 q-103 -76 -210 -114 l-70 75 q108 32 209.5 101.5 q101.5 69.5 176.5 165.5 q58 75 100.5 186 q42.5 111 57.5 225 l95 -27 q-10 -23 -19 -61 q-58 -238 -161 -374 ZM296 417 l-82 -30 q-14 46 -44 123 l-5 11 q-46 114 -62 143 l82 31 q53 -114 111 -278 Z" /><glyph glyph-name="Identity.1243" unicode="&#x30c6;" d="M801 743 l0 -89 q-43 3 -95 3 l-396 0 q-56 0 -93 -3 l0 89 q56 -6 92 -6 l397 0 q52 0 95 6 ZM510 133 q-28 -51 -81 -102 q-53 -51 -116 -83 l-77 59 q58 24 107 65 q49 41 79 89 q55 88 60 244 l-304 0 l-10 0 q-47 0 -69 -2 l0 89 q47 -5 89 -5 l642 0 q51 0 81 5 l0 -89 q-44 2 -81 2 l-266 0 q-5 -181 -54 -272 Z" /><glyph glyph-name="Identity.1244" unicode="&#x30c7;" d="M974 715 l-59 -26 q-46 93 -84 142 l57 24 q49 -68 86 -140 ZM864 674 l-58 -26 q-41 84 -83 143 l57 24 q34 -47 84 -141 ZM732 734 l0 -89 q-44 3 -95 3 l-338 0 q-55 0 -94 -3 l0 89 q58 -6 93 -6 l339 0 q51 0 95 6 ZM499 124 q-28 -51 -81.5 -102 q-53.5 -51 -115.5 -83 l-76 59 q119 49 185 155 q56 88 61 243 l-304 0 q-55 0 -79 -2 l0 89 q45 -5 89 -5 l641 0 q51 0 81 5 l0 -89 q-44 2 -81 2 l-266 0 q-5 -180 -54 -272 Z" /><glyph glyph-name="Identity.1245" unicode="&#x30c8;" d="M426 88 q0 -44 7 -121 l-104 0 q7 45 7 121 l0 582 q0 66 -8 107 l105 0 q-8 -83 -8 -107 l0 -163 q77 -23 154 -52 l10 -4 l10 -4 q3 -1 8.5 -2.5 q5.5 -1.5 7.5 -2.5 l10 -4 q4 -2 10 -4 l10 -4 q124 -49 198 -87 l-35 -88 q-62 33 -138 66 l-10 4 q-4 2 -5 2 l-10 5 q-6 2 -9 4 l-10 4 l-15 6 l-10 4 q-94 39 -176 65 l0 -13 l0 -14 q1 -86 1 -227 l0 -9 l0 -4 l0 -8 l0 -4 l0 -18 l0 -3 l0 -27 Z" /><glyph glyph-name="Identity.1246" unicode="&#x30c9;" d="M868 621 l-60 -31 q-48 94 -95 155 l59 28 q56 -76 96 -152 ZM395 75 q0 -66 7 -122 l-104 0 q7 56 7 122 l0 582 q0 61 -9 107 l105 0 q-6 -62 -6 -107 l0 -163 q79 -25 154 -53 l10 -3 l15 -6 l10 -4 l10 -4 q1 0 5 -2 l10 -4 l10 -3 q117 -46 194 -85 l-36 -89 q-87 48 -214 98 l-10 4 l-10 4 q-63 26 -148 54 l0 -326 ZM747 568 l-62 -28 q-46 97 -90 156 l59 27 q62 -92 93 -155 Z" /><glyph glyph-name="Identity.1247" unicode="&#x30ca;" d="M570 459 q-2 -173 -65 -294.5 q-63 -121.5 -209 -206.5 l-81 62 q139 66 204 174 q65 108 65 265 l-286 0 q-66 0 -97 -3 l0 93 q63 -6 95 -6 l288 0 l0 132 q0 51 -13 103 l107 0 q-8 -53 -8 -104 l0 -131 l258 0 q58 0 90 4 l0 -91 q-24 3 -91 3 l-257 0 Z" /><glyph glyph-name="Identity.1248" unicode="&#x30cb;" d="M803 655 l0 -98 q-56 4 -102 4 l-419 0 q-41 0 -103 -4 l0 98 q80 -5 103 -5 l419 0 q55 0 102 5 ZM884 160 l0 -104 q-60 6 -94 6 l-587 0 q-6 0 -108 -6 l0 104 q102 -6 108 -6 l587 0 q36 0 94 6 Z" /><glyph glyph-name="Identity.1250" unicode="&#x30cd;" d="M547 68 q0 -67 6 -113 l-99 0 q7 68 7 113 q0 35 2 125 l0 11 q2 54 2 80 q-142 -83 -332 -141 l-49 79 q211 50 397 171 q61 39 115.5 89.5 q54.5 50.5 84.5 89.5 l-404 0 q-47 0 -125 -5 l0 91 q48 -6 123 -6 l188 0 l0 61 q0 75 -6 91 l100 0 q-8 -44 -8 -91 l0 -61 l159 0 q40 0 64 7 l56 -54 q-5 -6 -18.5 -19 q-13.5 -13 -23.5 -23.5 q-10 -10.5 -15 -18.5 q-105 -127 -224 -209 l0 -14 l0 -82 l0 -11 l0 -27 l0 -11 l0 -110 l0 -12 ZM921 202 l-54 -73 q-134 102 -241 159 l55 63 q46 -24 118 -68 l8 -5 l8 -5 q52 -34 106 -71 Z" /><glyph glyph-name="Identity.1251" unicode="&#x30ce;" d="M589 266 q-71 -89 -170.5 -167 q-99.5 -78 -203.5 -121 l-72 79 q108 38 204 108 q96 70 167 158 q67 83 115.5 197 q48.5 114 71.5 228 l99 -27 q-7 -16 -31 -90 q-89 -247 -180 -365 Z" /><glyph glyph-name="Identity.1252" unicode="&#x30cf;" d="M919 39 l-92 -31 q-19 78 -47 159 l-3 10 q-1 1 -2 5 q-1 4 -1 5 l-3 10 l-6 15 l-3 10 q-29 84 -48 131 q-22 57 -49 121 l-4 10 q-54 129 -89 189 l86 30 q32 -61 87 -185 l6 -14 q36 -84 51 -121 q25 -63 54 -147 l3 -11 q1 -2 3.5 -9 q2.5 -7 3.5 -11 l3 -10 q17 -49 50 -156 ZM316 284 q-39 -97 -83 -175 l-5 -9 q-33 -59 -59 -95 l-89 39 q83 110 151 275 q39 91 68 218 l3 10 q17 79 26 145 l94 -20 q-4 -13 -10.5 -42.5 q-6.5 -29.5 -7.5 -32.5 q-42 -201 -88 -313 Z" /><glyph glyph-name="Identity.1253" unicode="&#x30d0;" d="M954 682 l-58 -26 q-44 89 -85 142 l58 24 q42 -55 85 -140 ZM844 641 l-58 -26 q-43 88 -82 143 l57 24 q45 -63 83 -141 ZM907 23 l-92 -30 q-16 65 -43 148 l-3 10 q0 1 -0.5 2.5 q-0.5 1.5 -0.5 2.5 l-4 10 l-3 10 q-1 5 -4.5 14.5 q-3.5 9.5 -5.5 14.5 l-4 10 l-3 10 q-25 68 -42 112 q-42 108 -65 160 l-4 10 q-44 101 -72 149 l85 30 q39 -73 86 -179 l4 -10 q1 -1 1 -2 q0 -1 0.5 -1.5 q0.5 -0.5 0.5 -1.5 l7 -14 l4 -10 q20 -46 41 -101 q18 -40 48 -127 l3 -10 l6 -15 l3 -11 l4 -10 l3 -10 q31 -93 50 -161 ZM304 266 q-65 -161 -146 -277 l-89 39 q81 106 151 275 q26 61 53 156 l3 10 q31 113 41 206 l93 -20 q-6 -23 -16 -74 q-47 -209 -90 -315 Z" /><glyph glyph-name="Identity.1254" unicode="&#x30d1;" d="M921 778 q33 -34 33 -81 q0 -47 -33 -80.5 q-33 -33.5 -79 -33.5 q-46 0 -79 33.5 q-33 33.5 -33 80.5 l0 2 l0 8 q5 44 36.5 74.5 q31.5 30.5 75.5 30.5 q46 0 79 -34 ZM779 697 l0 -1 l1 -9 q3 -24 20 -39 q17 -15 42 -15 q27 0 45 18.5 q18 18.5 18 45.5 q0 28 -18 46.5 q-18 18.5 -45 18.5 q-28 0 -45.5 -18.5 q-17.5 -18.5 -17.5 -46.5 ZM730 698 l0 9 l0 -5 l0 -3 l0 -1 ZM907 23 l-92 -30 q-15 63 -47 163 l-4 10 q-2 6 -6 20 l-4 9 q-1 3 -3.5 11.5 q-2.5 8.5 -4.5 13.5 l-4 10 l0 2 q-1 2 -1 3 l-4 9 q-14 43 -35 93 q-21 55 -44 111 l-4 10 q0 1 -1.5 4.5 q-1.5 3.5 -2.5 5.5 l-4 10 q-52 123 -85 178 l85 30 q39 -73 86 -179 l4 -10 q1 -1 1 -2 q0 -1 0.5 -1.5 q0.5 -0.5 0.5 -1.5 l7 -14 l4 -10 q20 -46 41 -101 q18 -40 48 -127 l3 -10 l6 -15 l3 -11 l4 -10 l3 -10 q31 -93 50 -161 ZM304 266 q-65 -161 -146 -277 l-88 39 q79 103 150 275 q26 61 53 156 l3 10 q31 113 41 206 l93 -20 q-6 -23 -16 -74 q-47 -209 -90 -315 Z" /><glyph glyph-name="Identity.1257" unicode="&#x30d4;" d="M931 697 q0 -46 -33 -79.5 q-33 -33.5 -79 -33.5 q-46 0 -78.5 33.5 q-32.5 33.5 -32.5 79.5 l0 2 l0 8 q4 44 35.5 74.5 q31.5 30.5 75.5 30.5 q46 0 79 -34 q33 -34 33 -81 ZM756 697 l0 -1 l1 -10 q3 -23 20 -37.5 q17 -14.5 42 -14.5 q26 0 44 18 q18 18 18 45 q0 28 -18 46.5 q-18 18.5 -44 18.5 q-28 0 -45.5 -18.5 q-17.5 -18.5 -17.5 -46.5 ZM815 -3 q-57 -9 -171 -16 l-11 -1 l-5 0 l-11 0 q-67 -4 -144 -4 q-99 0 -158 10 q-60 11 -90.5 42 q-30.5 31 -30.5 90 l0 551 q0 51 -6 85 l100 0 q-6 -46 -6 -85 l0 -223 q23 5 108 30 l10 3 q4 1 10 3 q6 2 10 3 l10 3 q20 6 60 20 l10 3 l9 3 l10 4 q74 25 131 50 q48 21 88 45 l37 -84 q-9 -4 -44 -19.5 q-35 -15.5 -50 -21.5 q-60 -24 -160 -57 l-10 -3 l-10 -4 l-30 -9 l-10 -3 q-3 -1 -10 -3 q-7 -2 -10 -3 l-10 -3 l-10 -3 q-3 -1 -9.5 -3 q-6.5 -2 -10.5 -3 l-10 -3 q-46 -13 -109 -30 l0 -220 q0 -37 13 -50 q13 -13 52 -21 q50 -8 129 -8 q221 0 339 31 l0 -96 ZM708 699 l0 -1 l0 4 l0 -3 Z" /><glyph glyph-name="Identity.1258" unicode="&#x30d5;" d="M696 244 q-73 -94 -166.5 -161.5 q-93.5 -67.5 -224.5 -108.5 l-69 80 q136 34 225 94 q89 60 158 148 q50 65 85.5 154 q35.5 89 46.5 167 l-501 0 q-24 0 -102 -3 l0 95 q65 -7 102 -7 l492 0 q35 0 54 6 l61 -42 q-8 -16 -16 -54 q-48 -242 -145 -368 Z" /><glyph glyph-name="Identity.1259" unicode="&#x30d6;" d="M961 724 l-59 -26 q-50 92 -84 137 l59 25 q36 -48 84 -136 ZM682 230 q-153 -195 -391 -269 l-70 80 q136 34 225.5 93.5 q89.5 59.5 158.5 147.5 q49 63 82 152.5 q33 89.5 45 169.5 l-497 0 q-23 0 -60.5 -2.5 q-37.5 -2.5 -40.5 -2.5 l0 97 q35 -9 101 -9 l496 0 q23 0 36 2 q-53 90 -74 120 l59 25 q46 -68 80 -136 l-40 -19 l51 -27 q-5 -10 -16 -54 q-52 -246 -145 -368 Z" /><glyph glyph-name="Identity.1260" unicode="&#x30d7;" d="M682 230 q-152 -195 -391 -269 l-70 80 q137 34 226.5 93.5 q89.5 59.5 157.5 147.5 q49 63 82.5 152.5 q33.5 89.5 46.5 169.5 l-499 0 q-24 0 -60.5 -2.5 q-36.5 -2.5 -40.5 -2.5 l0 97 q56 -8 101 -8 l496 0 q16 0 26 -1 q0 5 -2.5 15 q-2.5 10 -2.5 16 q0 47 33 81 q33 34 79 34 q46 0 79.5 -34 q33.5 -34 33.5 -81 q0 -47 -33.5 -80.5 q-33.5 -33.5 -79.5 -33.5 q-19 0 -37 6 q0 -3 -2 -11 q-48 -238 -143 -369 ZM801 718 q0 -27 18 -45.5 q18 -18.5 45 -18.5 q27 0 45 18.5 q18 18.5 18 45.5 q0 28 -18 46.5 q-18 18.5 -45 18.5 q-28 0 -45.5 -18.5 q-17.5 -18.5 -17.5 -46.5 Z" /><glyph glyph-name="Identity.1261" unicode="&#x30d8;" d="M946 119 l-74 -76 q-31 36 -62 74 l-7 8 l-10 12 q-2 2 -6.5 8 q-4.5 6 -6.5 8 l-7 8 l-10 12 l-10 12 q-60 71 -104 121 q-30 36 -74 83 l-7 8 q-70 78 -107 114 q-30 28 -44 26.5 q-14 -1.5 -40 -33.5 q-25 -30 -89 -113.5 q-64 -83.5 -85 -109.5 q-12 -15 -33 -44 q-21 -29 -25 -34 l-81 80 q28 24 73 67 q34 35 99 118 l7 8 q1 2 4 5 l6 8 l11 13 l7 9 q11 15 59 73 q41 49 80 52.5 q39 3.5 92 -43.5 q45 -44 88 -89 l11 -11 q7 -8 22 -23 l7 -8 q31 -32 73 -78 q79 -85 86 -93 l7 -8 q16 -18 25 -27 l7 -8 l7 -8 q5 -5 7 -8 l7 -8 l7 -7 l8 -8 l7 -8 q53 -59 75 -82 Z" /><glyph glyph-name="Identity.1262" unicode="&#x30d9;" d="M913 574 l-62 -32 q-45 92 -98 162 l61 28 q20 -26 54 -80 l5 -9 q21 -32 40 -69 ZM785 519 l-64 -29 q-47 99 -94 165 l61 26 q54 -78 97 -162 ZM937 101 l-74 -76 q-8 10 -24 29 q-16 19 -24 29 l-7 8 q-2 3 -7 8 l-6 8 q-10 12 -14 16 l-10 12 q-2 3 -7 8 l-6 8 q-91 107 -117 136 q-133 151 -189 206 q-30 28 -44 26.5 q-14 -1.5 -40 -33.5 q-32 -40 -79 -103 l-10 -13 q-52 -69 -85 -109 q-28 -35 -58 -77 l-81 79 q24 20 66 62 l7 7 q26 27 110 131 l10 12 q63 78 74 90 q42 49 80 53 q38 4 91 -44 q35 -32 116 -117 l7 -8 q15 -16 78 -84 q28 -29 107 -116 l7 -8 l15 -15 l7 -8 q1 -2 3 -4 l11 -12 l4 -4 l7 -8 q56 -62 82 -89 Z" /><glyph glyph-name="Identity.1264" unicode="&#x30db;" d="M558 49 q0 -81 -87 -81 q-86 0 -143 7 l-7 84 q63 -10 116 -10 q20 0 28 8 q8 8 8 27 l0 448 l-269 0 q-52 0 -88 -4 l0 91 q42 -6 87 -6 l270 0 l0 100 q0 43 -9 74 l100 0 q-6 -45 -6 -74 l0 -100 l255 0 q43 0 85 5 l0 -89 q-41 3 -83 3 l-257 0 l0 -483 ZM927 152 l-76 -43 q-31 64 -79.5 144 q-48.5 80 -86.5 125 l71 39 q68 -79 171 -265 ZM348 381 q-31 -63 -89 -148 q-58 -85 -101 -131 l-72 51 q49 44 104.5 122 q55.5 78 85.5 142 l72 -36 Z" /><glyph glyph-name="Identity.1265" unicode="&#x30dc;" d="M947 685 l-58 -26 q-45 87 -83 138 l58 25 q47 -67 83 -137 ZM830 655 l-59 -26 q-43 87 -80 140 l57 24 q40 -56 82 -138 ZM538 36 q0 -82 -87 -82 q-72 0 -142 7 l-7 84 q72 -10 116 -10 q20 0 27.5 8 q7.5 8 7.5 27 l0 448 l-270 0 q-47 0 -87 -3 l0 90 q47 -5 87 -5 l270 0 l0 100 q0 40 -9 74 l100 0 q-6 -30 -6 -75 l0 -99 l255 0 q43 0 85 5 l0 -89 q-23 2 -74 2 l-266 0 l0 -482 ZM908 139 l-77 -44 q-23 48 -69 127 l-5 9 q-51 84 -92 134 l72 39 q68 -82 171 -265 ZM329 368 q-31 -63 -89 -147.5 q-58 -84.5 -101 -131.5 l-73 50 q48 45 104 123.5 q56 78.5 86 140.5 l73 -35 Z" /><glyph glyph-name="Identity.1266" unicode="&#x30dd;" d="M922 739 q0 -46 -32 -78.5 q-32 -32.5 -78 -32.5 q-45 0 -77 32.5 q-32 32.5 -32 78.5 l0 2 l0 8 q4 42 35.5 72 q31.5 30 73.5 30 q45 0 77.5 -33.5 q32.5 -33.5 32.5 -78.5 ZM768.5 783.5 q-16.5 -17.5 -16.5 -44.5 q0 -27 16.5 -44.5 q16.5 -17.5 43.5 -17.5 q26 0 43.5 17.5 q17.5 17.5 17.5 44.5 q0 26 -17.5 44 q-17.5 18 -43.5 18 q-27 0 -43.5 -17.5 ZM538 36 q0 -82 -87 -82 q-72 0 -142 7 l-7 84 q72 -10 116 -10 q20 0 27.5 8 q7.5 8 7.5 27 l0 448 l-270 0 q-47 0 -87 -3 l0 90 q47 -5 87 -5 l270 0 l0 100 q0 40 -9 74 l100 0 q-6 -30 -6 -75 l0 -99 l255 0 q43 0 85 5 l0 -89 q-23 2 -74 2 l-266 0 l0 -482 ZM908 139 l-77 -44 q-32 65 -80.5 145.5 q-48.5 80.5 -85.5 124.5 l72 39 q68 -82 171 -265 ZM329 368 q-31 -63 -89 -147.5 q-58 -84.5 -101 -131.5 l-73 50 q48 45 104 123.5 q56 78.5 86 140.5 l73 -35 ZM703 740 l0 2 l0 -1 l0 -1 Z" /><glyph glyph-name="Identity.1267" unicode="&#x30de;" d="M710 13 l-75 -61 q-56 77 -181 206 q-26 26 -98 92 l-8 8 q-74 67 -117 98 l67 57 q36 -25 142 -118 l8 -8 q12 -10 34 -30 q99 74 177.5 167.5 q78.5 93.5 124.5 174.5 l-573 0 q-24 0 -104 -8 l0 98 q63 -9 104 -9 l584 0 q31 0 63 9 l66 -55 q-19 -21 -27 -33 q-154 -250 -354 -403 q87 -87 167 -185 Z" /><glyph glyph-name="Identity.1268" unicode="&#x30df;" d="M809 642 l-33 -80 q-86 31 -239 66 l-11 3 q-160 36 -267 50 l30 80 q100 -13 248 -46 l11 -2 q3 -1 11 -3 l11 -2 l11 -3 q2 -1 8 -2 q6 -1 8 -2 l11 -2 q132 -32 201 -57 ZM744 374 l-33 -80 q-63 25 -188 58 l-11 3 q-5 1 -13.5 3 q-8.5 2 -12.5 3 l-11 3 l-11 3 q-7 1 -21 5 l-11 2 q-2 1 -5 1 l-11 3 l-11 2 q-104 24 -191 37 l31 80 q91 -16 209 -42 l10 -3 q27 -5 43 -10 l11 -2 q4 -2 16 -4 l11 -3 q119 -30 199 -59 ZM780 53 l-36 -80 q-99 42 -303 93 l-10 3 q-2 0 -5.5 0.5 q-3.5 0.5 -5.5 1.5 l-11 3 q-135 32 -249 51 l31 81 q75 -11 215 -43 l10 -3 q36 -8 54 -13 l11 -2 q6 -2 16.5 -5 q10.5 -3 15.5 -4 l11 -3 q161 -42 256 -80 Z" /><glyph glyph-name="Identity.1269" unicode="&#x30e0;" d="M929 3 l-87 -39 q-30 83 -52 130 q-115 -15 -248 -30 l-17 -2 q-46 -6 -73 -8 l-12 -2 q-224 -24 -261 -27 q-27 -2 -84 -10 l-15 98 q22 -1 94 1 q30 2 48 3 q35 88 86 249 l4 12 q4 9 5 16 l4 12 q42 132 80 265 q14 52 19 99 l105 -23 q-11 -29 -32 -95 q-50 -160 -84 -262 l-4 -11 l-3 -12 q-64 -192 -85 -245 q44 4 67 6 l10 1 q1 0 3 0.5 q2 0.5 3 0.5 l10 1 q2 0 5.5 0.5 q3.5 0.5 5.5 0.5 l11 1 q7 1 21 2.5 q14 1.5 21 2.5 l11 1 l5 0 l11 2 q5 1 15.5 2 q10.5 1 15.5 1 l11 1 q35 4 72.5 8.5 q37.5 4.5 78 10 q40.5 5.5 57.5 7.5 q-2 3 -4.5 8 q-2.5 5 -3.5 7 l-5 10 q-64 125 -107 182 l79 37 q51 -74 118 -202 q67 -128 101 -210 Z" /><glyph glyph-name="Identity.1270" unicode="&#x30e1;" d="M571 290 q-1 -1 -14 -17 l-5 -7 l-6 -6 l-6 -7 q-2 -2 -5.5 -6.5 q-3.5 -4.5 -5.5 -6.5 l-6 -7 l-6 -7 l-54 -57 l-7 -7 q-124 -122 -267 -197 l-71 67 q122 57 214 135 q92 78 176 181 q-65 54 -162 123 l-8 6 q-57 39 -107 71 l54 67 q9 -5 27 -17 l8 -5 q63 -43 126 -89 l8 -6 q57 -43 109 -83 q30 43 56.5 97 q26.5 54 37.5 83.5 q11 29.5 33 91.5 q17 49 22 76 l95 -34 q-6 -11 -31 -75 q-67 -179 -148 -296 q41 -33 90 -77 l8 -7 q40 -36 80 -74 l7 -7 l7 -7 l7 -7 q16 -16 46 -48 l-68 -72 q-36 41 -81 88 l-7 7 l-45 45 l-8 7 q-3 4 -10 10.5 q-7 6.5 -11 9.5 l-7 7 q-1 1 -23 20 l-7 7 l-8 6 q-12 12 -27 24 Z" /><glyph glyph-name="Identity.1271" unicode="&#x30e2;" d="M868 -8 q-73 -6 -168 -9 l-10 0 q-10 0 -29 -0.5 q-19 -0.5 -28 -0.5 l-11 0 l-16 0 l-5 0 q-107 0 -152 36 q-45 36 -45 102 l0 223 l-189 0 q-41 0 -97 -4 l0 91 q81 -6 97 -6 l189 0 l0 206 l-129 0 q-51 0 -92 -3 l0 86 q54 -4 92 -4 l467 0 q40 0 84 4 l0 -86 q-72 3 -84 3 l-253 0 l0 -206 l329 0 q41 0 85 4 l0 -88 q-20 3 -75 3 l-339 0 l0 -198 q0 -39 28 -58 q28 -19 95 -19 q101 0 184 7 l10 0 l33 3 l10 1 l24 3 l-5 -90 Z" /><glyph glyph-name="Identity.1272" unicode="&#x30e3;" d="M575 -70 l-87 -22 q-4 26 -17 74 q-5 16 -16.5 60.5 q-11.5 44.5 -29 113.5 q-17.5 69 -30.5 120 l-3 12 q-2 10 -7 29.5 q-5 19.5 -8 28.5 q-94 -19 -202 -43 l-20 82 q21 1 84 12 q56 8 117 19 q-29 101 -33 115 q-12 43 -23 61 l89 22 q1 -8 3.5 -18 q2.5 -10 6.5 -24.5 q4 -14.5 6 -23.5 q2 -6 10.5 -45 q8.5 -39 17.5 -70 q20 3 74 14 l12 2 q205 41 253 53 q22 6 35 12 l54 -38 q-32 -65 -96.5 -156 q-64.5 -91 -114.5 -140 l-74 38 q46 39 94.5 99 q48.5 60 75.5 107 q-10 -2 -51.5 -10.5 q-41.5 -8.5 -112 -23 q-70.5 -14.5 -128.5 -26.5 q98 -354 101 -363 q3 -10 10 -35.5 q7 -25.5 10 -35.5 Z" /><glyph glyph-name="Identity.1274" unicode="&#x30e5;" d="M237 8 q-41 0 -85 -3 l0 89 l4 0 l13 -1 q32 -3 68 -3 l355 0 q13 70 28.5 180 q15.5 110 17.5 150 l-312 0 q-6 0 -81 -3 l0 90 q72 -6 81 -6 l297 0 q33 0 51 8 l64 -31 q-7 -23 -8 -32 q-15 -126 -51 -356 l93 0 q49 0 81 3 l0 -87 q-36 2 -79 2 l-537 0 Z" /><glyph glyph-name="Identity.1276" unicode="&#x30e7;" d="M771 -1 q0 -30 2 -58 l-86 0 q3 9 3 40 l-392 0 q-18 0 -49 -0.5 q-31 -0.5 -37 -0.5 l0 85 q40 -5 85 -5 l393 0 l0 173 l-352 0 q-52 0 -92 -2 l0 83 q76 -4 91 -4 l353 0 l0 161 l-362 0 q-50 0 -104 -3 l0 84 q38 -4 104 -4 l380 0 q12 0 35.5 1 q23.5 1 28.5 1 q-1 -8 -1 -43 l0 -508 Z" /><glyph glyph-name="Identity.1278" unicode="&#x30e9;" d="M803 748 l0 -89 q-36 3 -94 3 l-384 0 q-53 0 -93 -3 l0 89 q33 -5 93 -5 l385 0 q63 0 93 5 ZM718 166 q-139 -152 -355 -211 l-64 76 q213 44 346 184 q82 86 116 217 l-517 0 q-32 0 -72 -3 l-11 0 q-6 -1 -17 -1 l0 90 q74 -6 100 -6 l517 0 q35 0 51 9 l62 -39 q-11 -19 -14 -31 q-50 -185 -142 -285 Z" /><glyph glyph-name="Identity.1279" unicode="&#x30ea;" d="M668 103 q-78 -93 -238 -148 l-67 74 q151 38 236 134 q51 59 65.5 129.5 q14.5 70.5 14.5 221.5 l0 158 q0 49 -5 91 l101 0 q-3 -38 -3 -91 l0 -162 q0 -172 -23 -255 q-23 -83 -81 -152 ZM316 345 q0 -43 4 -79 l-99 0 q5 38 5 80 l0 333 q0 37 -4 75 l98 0 q-4 -38 -4 -75 l0 -334 Z" /><glyph glyph-name="Identity.1280" unicode="&#x30eb;" d="M610 -5 q-20 -11 -35 -24 l-56 47 q7 28 7 59 l0 599 q0 36 -6 78 l99 0 q-6 -42 -6 -78 l0 -574 q72 34 150.5 100 q78.5 66 133.5 146 l51 -72 q-62 -84 -154 -158.5 q-92 -74.5 -184 -122.5 ZM327 249 q-47 -169 -178 -278 l-78 55 q120 86 170 247 q30 93 30 388 l0 13 q0 35 -8 77 l100 0 q-6 -72 -6 -76 q0 -315 -30 -426 Z" /><glyph glyph-name="Identity.1281" unicode="&#x30ec;" d="M327 -4 q-23 -6 -44 -19 l-61 53 q11 25 11 51 l0 572 q0 44 -10 94 l104 0 q-6 -52 -6 -94 l0 -564 q146 37 295 130.5 q149 93.5 239 210.5 l49 -73 q-99 -122 -246 -215 q-147 -93 -331 -146 Z" /><glyph glyph-name="Identity.1282" unicode="&#x30ed;" d="M235 48 q1 -10 2 -24 q1 -14 2 -22.5 q1 -8.5 2 -12.5 l-93 0 q3 39 3 126 l0 496 q0 55 -2 78 q16 0 47 -1.5 q31 -1.5 44 -1.5 l534 0 q44 0 83 3 q-2 -24 -2 -78 l0 -497 q0 -103 2 -125 l-93 0 q0 1 3 22 q3 21 3 37 l-535 0 ZM235 132 l535 0 l0 469 l-535 0 l0 -469 Z" /><glyph glyph-name="Identity.1284" unicode="&#x30ef;" d="M749 245 q-60 -97 -157 -171 q-97 -74 -217 -113 l-70 74 q113 30 209 95.5 q96 65.5 156 159.5 q80 124 97 330 l-538 0 l0 -197 q0 -20 4 -68 l-98 0 q4 32 4 68 l0 213 q0 42 -4 71 q54 -4 109 -4 l505 0 q32 0 62 7 l62 -41 q-8 -19 -14 -51 q-26 -171 -50 -243 q-24 -75 -60 -130 Z" /><glyph glyph-name="Identity.1288" unicode="&#x30f3;" d="M487 526 l-66 -68 q-62 62 -128 119 l-8 7 q-75 64 -112 88 l60 66 q47 -32 122 -94 l8 -7 q68 -57 124 -111 ZM588 133 q-184 -116 -389 -154 l-55 85 q205 30 394 148 q110 69 196.5 169.5 q86.5 100.5 133.5 199.5 l51 -89 q-125 -229 -331 -359 Z" /><glyph glyph-name="Identity.1296" unicode="&#x30fc;" d="M894 437 l0 -106 q-5 0 -25.5 2 q-20.5 2 -42.5 3 q-22 1 -42 1 l-538 0 q-79 0 -141 -6 l0 106 q75 -5 141 -5 l537 0 q56 0 111 5 Z" /><glyph glyph-name="Identity.3592" unicode="&#x80f6;" d="M921 705 l0 -71 l-508 0 l0 71 l243 0 q-26 57 -72 119 l67 28 q57 -67 77 -123 l-69 -24 l262 0 ZM601 585 q-47 -84 -116 -162 l59 17 q58 -164 106 -225 q71 91 110 225 l74 -18 q-47 -160 -132 -264 q48 -49 112.5 -91.5 q64.5 -42.5 121.5 -61.5 l-35 -77 q-129 50 -252 173 q-107 -114 -235 -175 q-6 10 -43 52 q-9 -19 -23 -26 q-29 -15 -120 -15 l-4 73 q23 -1 70 -1 q12 1 12 17 l0 241 l-128 0 q-17 -226 -70 -342 l-66 33 q73 155 73 496 l0 349 l265 0 l0 -387 q40 35 83.5 93 q43.5 58 69.5 108 l68 -32 ZM186 574 l120 0 l0 158 l-120 0 l0 -158 ZM946 411 l-60 -47 q-21 40 -72 104 q-51 64 -100 113 l56 41 q49 -48 101.5 -110 q52.5 -62 74.5 -101 ZM185 337 l121 0 l0 170 l-120 0 l0 -69 q0 -69 -1 -101 ZM380 26 q0 -17 -5 -35 q134 69 229 166 q-66 83 -127 257 q-33 -36 -55 -56 l-42 46 l0 -378 Z" /><glyph glyph-name="Identity.8327" unicode="&#x4e01;" d="M514 -46 q-49 -16 -239 -16 l-8 90 q50 -1 111 -1.5 q61 -0.5 76 0.5 q31 1 31 32 l0 620 l-413 0 l0 82 l855 0 l0 -82 l-355 0 l0 -622 q0 -85 -58 -103 Z" /><glyph glyph-name="Identity.8329" unicode="&#x4e03;" d="M913 210 q-10 -132 -55.5 -187.5 q-45.5 -55.5 -170.5 -55.5 l-125 0 q-128 0 -174 35.5 q-46 35.5 -46 121.5 l0 305 l-267 -44 l-12 78 l279 44 l0 325 l80 0 l0 -311 l506 82 l13 -79 l-519 -83 l0 -318 q0 -31 9 -46 q9 -15 39.5 -23 q30.5 -8 93.5 -8 l122 0 q86 0 112 37.5 q26 37.5 33 140.5 l82 -14 Z" /><glyph glyph-name="Identity.8333" unicode="&#x4e07;" d="M393 432 q-15 -102 -46 -191.5 q-31 -89.5 -96 -178.5 q-65 -89 -155 -139 l-43 70 q72 38 125.5 102.5 q53.5 64.5 83.5 133.5 q30 69 49 158 q19 89 25 159 q6 70 8 153 l-271 0 l0 77 l853 0 l0 -77 l-512 0 l0 -74 l1 -10 l0 -10 q2 -61 -3 -98 l423 0 q0 -28 -1 -37 q-12 -229 -29 -347.5 q-17 -118.5 -44 -147.5 q-28 -34 -87 -39 q-45 -4 -180 5 l-1 76 q51 -6 145 -6 l9 0 q29 0 43 13 q40 36 60 408 l-357 0 Z" /><glyph glyph-name="Identity.8334" unicode="&#x4e08;" d="M928 6 l-19 -79 q-136 19 -251.5 64.5 q-115.5 45.5 -194.5 105.5 q-137 -118 -350 -163 l-22 74 q195 40 313 142 q-60 61 -109 162 q-49 101 -81 217 l76 18 q54 -228 172 -340 q51 62 73.5 156 q22.5 94 28.5 222 l-489 0 l0 78 l492 0 q-2 43 -2 142 l0 30 l85 0 q0 -30 -6.5 -89 q-6.5 -59 -6.5 -83 l289 0 l0 -78 l-292 0 q0 -11 -2 -33 l0 -10 q-18 -276 -112 -388 q76 -55 184 -95 q108 -40 224 -53 Z" /><glyph glyph-name="Identity.8335" unicode="&#x4e09;" d="M867 757 l0 -80 l-732 0 l0 80 l732 0 ZM789 439 l0 -81 l-590 0 l0 81 l590 0 ZM921 87 l0 -81 l-843 0 l0 81 l843 0 Z" /><glyph glyph-name="Identity.8336" unicode="&#x4e0a;" d="M937 59 l0 -79 l-874 0 l0 79 l363 0 l0 775 l81 0 l0 -296 l362 0 l0 -80 l-362 0 l0 -399 l430 0 Z" /><glyph glyph-name="Identity.8337" unicode="&#x4e0b;" d="M521 469 l0 -538 l-81 0 l0 767 l-372 0 l0 80 l865 0 l0 -80 l-412 0 l0 -165 l12 17 q78 -37 181.5 -101 q103.5 -64 164.5 -109 l-55 -72 q-49 41 -138.5 100.5 q-89.5 59.5 -164.5 100.5 Z" /><glyph glyph-name="Identity.8340" unicode="&#x4e0e;" d="M680 -58 q-76 -2 -184 6 l-2 76 q66 -6 158 -6 l5 0 q35 0 48 13 q53 39 85 367 l-547 0 l-66 1 q16 57 56 231 l3 17 l0 2 q1 2 1 3 l2 11 q2 6 4 16 l2 10 q15 70 29 138 l77 -9 q-3 -16 -10 -52 q-7 -36 -11 -52 l533 0 l0 -74 l-550 0 q-35 -156 -39 -169 l605 0 q-2 -28 -4 -37 q-39 -394 -102 -454 q-33 -35 -93 -38 ZM672 261 l0 -78 l-603 0 l0 78 l603 0 Z" /><glyph glyph-name="Identity.8343" unicode="&#x4e11;" d="M943 38 l0 -78 l-883 0 l0 78 l246 0 q3 22 31 325 l-191 0 l0 76 l191 0 q3 40 9 80 l2 15 q0 5 2 15 l1 10 q0 4 1 6 l1 10 q12 95 14 133 l-243 0 l0 79 l679 0 q-3 -93 -9 -195 l0 -10 q0 -2 -0.5 -6 q-0.5 -4 -0.5 -5 l0 -11 q-2 -26 -4 -76 l-1 -16 q-2 -40 -4 -60 l0 -11 l-3 -54 l-1 -11 l-1 -11 q-6 -115 -20 -283 l184 0 ZM416 439 l290 0 q2 36 3 55 l1 10 q1 14 2.5 41 q1.5 27 2.5 41 l1 10 q4 79 5 112 l-287 0 q-3 -46 -9 -152 l-1 -10 q0 -10 -1 -16 l0 -10 q-4 -57 -7 -81 ZM385 38 l297 0 q8 75 14 179 l1 11 l0 5 l1 16 l0 6 l1 15 q4 64 6 93 l-298 0 q-2 -27 -6 -83 l-1 -11 l0 -11 q-1 -3 -1 -11 l0 -10 q-8 -159 -14 -199 Z" /><glyph glyph-name="Identity.8345" unicode="&#x4e13;" d="M742 -4 l-47 -69 q-78 48 -204 108 q-126 60 -224 89 l44 58 q29 -8 104 -35 l9 -4 l10 -4 l14 -5 q2 0 5 -2 q3 -2 4 -2 l15 -5 q2 -2 4 -2 l10 -4 q3 -1 12.5 -4.5 q9.5 -3.5 15.5 -5.5 q33 31 99 103 l7 8 q12 13 38.5 42 q26.5 29 38.5 42 l-441 0 q6 14 38 104 l4 10 q13 35 23 64 l-253 0 l0 75 l278 0 q7 20 15 58.5 q8 38.5 12 51.5 l-224 0 l0 74 l247 0 q14 46 26 103 l84 0 q-9 -31 -32 -103 l370 0 l0 -74 l-393 0 l-18 -57 l-2 -10 q-4 -10 -13 -43 l498 0 l0 -75 l-524 0 q-6 -18 -13 -54.5 q-7 -36.5 -13 -51.5 l406 0 l13 5 l59 -36 q-4 -4 -117 -125 l-7 -8 l-8 -8 q-2 -2 -3 -4 l-8 -8 l-11 -11 l-7 -8 q-1 -2 -3.5 -4.5 q-2.5 -2.5 -3.5 -3.5 l-8 -7 q-36 -39 -79 -80 q63 -27 153 -82 Z" /><glyph glyph-name="Identity.8346" unicode="&#x4e14;" d="M935 53 l0 -79 l-870 0 l0 79 l158 0 l0 740 l565 0 l0 -740 l147 0 ZM299 555 l410 0 l0 160 l-410 0 l0 -160 ZM299 308 l410 0 l0 173 l-410 0 l0 -173 ZM299 53 l410 0 l0 179 l-410 0 l0 -179 Z" /><glyph glyph-name="Identity.8348" unicode="&#x4e16;" d="M910 76 l0 -79 l-701 0 l0 535 l-147 0 l0 76 l147 0 l0 215 l79 0 l0 -215 l167 0 l0 236 l76 0 l0 -236 l177 0 l0 225 l80 0 l0 -225 l150 0 l0 -76 l-150 0 l0 -316 l-333 0 l0 316 l-167 0 l0 -456 l622 0 ZM531 290 l177 0 l0 242 l-177 0 l0 -242 Z" /><glyph glyph-name="Identity.8350" unicode="&#x4e18;" d="M939 63 l0 -78 l-877 0 l0 78 l158 0 l0 680 q26 1 82 5 l11 0 l10 1 q4 0 6 1 l10 0 l11 1 q3 0 8 0.5 q5 0.5 8 1.5 l11 1 q3 0 8.5 0.5 q5.5 0.5 8.5 0.5 l11 1 l54 6 l11 1 q200 24 300 59 l47 -69 q-90 -31 -251 -54 l-10 -2 q-27 -4 -43 -5 l-10 -2 l-27 -3 l-11 -1 q-32 -4 -48 -5 l-10 -1 q-21 -2 -60 -5 q-39 -3 -48 -4 l0 -174 l590 0 l0 -77 l-171 0 l0 -357 l221 0 ZM299 63 l344 0 l0 357 l-344 0 l0 -357 Z" /><glyph glyph-name="Identity.8351" unicode="&#x4e19;" d="M196 494 l0 -564 l-79 0 l0 640 l339 0 l0 135 l-376 0 l0 79 l840 0 l0 -79 l-386 0 l0 -135 l351 0 l0 -536 q0 -71 -47 -87 q-39 -14 -194 -14 l-6 79 q86 -3 146 0 q23 1 23 22 l0 460 l-276 0 q-4 -51 -11 -77 q64 -46 140 -114.5 q76 -68.5 119 -115.5 l-58 -60 q-41 48 -106 112 q-65 64 -121 109 q-70 -159 -233 -246 l-41 70 q203 97 231 322 l-255 0 Z" /><glyph glyph-name="Identity.8352" unicode="&#x4e1a;" d="M929 63 l0 -78 l-856 0 l0 78 l269 0 l0 773 l78 0 l0 -773 l160 0 l0 773 l74 0 l0 -773 l275 0 ZM311 284 l-79 -29 q-27 73 -67 176 l-4 10 q-11 28 -33.5 84.5 q-22.5 56.5 -32.5 81.5 l73 23 q7 -16 23 -54 q16 -38 25 -58 l4 -10 q2 -5 5.5 -13.5 q3.5 -8.5 4.5 -11.5 l5 -11 q46 -111 76 -188 ZM910 592 q-37 -87 -82 -176 l-5 -10 q-45 -92 -88 -161 l-66 36 q41 66 95 175 l5 10 q49 103 69 160 l72 -34 Z" /><glyph glyph-name="Identity.8353" unicode="&#x4e1b;" d="M324 483 q-24 -119 -70.5 -224.5 q-46.5 -105.5 -111.5 -171.5 l-65 64 q172 161 204 625 l0 11 q1 6 1 18 l1 11 q0 4 0.5 12 q0.5 8 0.5 12 l84 -6 q-6 -126 -23 -253 q45 -54 92 -129.5 q47 -75.5 75 -130.5 l-62 -57 q-65 136 -126 219 ZM664 471 q-65 -272 -202 -393 l-59 68 q58 45 100.5 117 q42.5 72 68 165 q25.5 93 39.5 191 q14 98 20 218 l86 -5 q-8 -115 -20 -204 q17 -82 47 -165.5 q30 -83.5 80.5 -168 q50.5 -84.5 109.5 -128.5 l-56 -70 q-69 57 -126 163 q-57 106 -88 212 ZM935 44 l0 -82 l-868 0 l0 82 l868 0 Z" /><glyph glyph-name="Identity.8354" unicode="&#x4e1c;" d="M543 -46 q-39 -16 -165 -16 l-6 82 q29 -1 68 -1.5 q39 -0.5 48 0.5 q11 1 14 5 q3 4 3 15 l0 320 l-206 0 q-15 0 -31 -1 q-16 -1 -27 -2 q-11 -1 -21.5 -1.5 q-10.5 -0.5 -13.5 -1 q-3 -0.5 -4 0.5 l-36 71 q21 5 71 78 q37 48 93 144 l-240 0 l0 74 l280 0 q12 24 28 71 q16 47 23 63 l81 -37 q-29 -64 -49 -97 l450 0 l0 -74 l-491 0 q-1 -1 -2.5 -4 q-1.5 -3 -2.5 -5 l-5 -9 q-4 -7 -12 -23 l-5 -9 l-5 -9 q-58 -104 -94 -153 l219 0 l0 146 l78 0 l0 -146 l279 0 l-3 -76 l-276 0 l0 -321 q0 -68 -40 -84 ZM928 25 l-69 -39 q-33 53 -95.5 134 q-62.5 81 -113.5 132 l64 33 q54 -52 119 -131.5 q65 -79.5 95 -128.5 ZM347 262 q-34 -75 -91.5 -160 q-57.5 -85 -108.5 -133 l-58 60 q47 39 99.5 113.5 q52.5 74.5 81.5 140.5 l77 -21 Z" /></font>
</defs>
</svg>
