<?xml version="1.0" standalone="no"?><!DOCTYPE svg PUBLIC "-//W3C//DTD SVG 1.1//EN" "http://www.w3.org/Graphics/SVG/1.1/DTD/svg11.dtd" ><svg xmlns="http://www.w3.org/2000/svg"><metadata></metadata><defs><font id="FontForge 2.0 : GlowSansSCBook : 24-10-2023" horiz-adv-x="1102"><font-face font-family="" font-weight="400" font-stretch="normal" units-per-em="1000" panose-1="2 0 5 3 0 0 0 0 0 0" ascent="1323" descent="-549" x-height="0" bbox="-5 -350 1023 1050" underline-thickness="50" underline-position="-125" unicode-range="U+0009-ff5e" /><missing-glyph horiz-adv-x="666" d="M543 1050 l0 -1400 l-420 0 l0 1400 l420 0 ZM489 998 l-311 0 l0 -1296 l311 0 l0 1296 ZM324 451 q111 0 111 -115 q0 -104 -95 -118 l0 -45 q0 -11 -7.5 -17.5 q-7.5 -6.5 -17.5 -6.5 q-10 0 -17.5 6.5 q-7.5 6.5 -7.5 17.5 l0 84 q53 3 72 19.5 q19 16.5 19 57.5 q0 33 -13 51 q-13 18 -48 18 q-29 0 -52 -11 q-8 -3 -13 -3 q-24 0 -24 23 q0 19 29.5 29 q29.5 10 63.5 10 ZM290 110 q10 10 25 10 q15 0 25 -10 q10 -10 10 -25 q0 -16 -10 -26.5 q-10 -10.5 -25 -10.5 q-15 0 -25 10.5 q-10 10.5 -10 26.5 q0 15 10 25 Z" /><glyph glyph-name="nonmarkingreturn" unicode="" d="" /><glyph glyph-name="nonbreakingspace" unicode=" " d="" /><glyph glyph-name="exclam" unicode="!" d="M178 743 l-8 -498 l-81 0 l-10 498 l99 0 ZM130 126 q30 0 50 -20 q20 -20 20 -49 q0 -29 -20 -49.5 q-20 -20.5 -50 -20.5 q-29 0 -49.5 20.5 q-20.5 20.5 -20.5 49.5 q0 29 20.5 49 q20.5 20 49.5 20 Z" /><glyph glyph-name="quotedbl" unicode="&quot;" d="M82 463 l-14 280 l97 0 l-15 -280 l-68 0 ZM271 463 l-15 280 l98 0 l-15 -280 l-68 0 Z" /><glyph glyph-name="numbersign" unicode="#" d="M540 484 l-83 0 l-31 -235 l74 0 l0 -69 l-83 0 l-24 -180 l-78 0 l24 180 l-174 0 l-24 -180 l-77 0 l23 180 l-71 0 l0 69 l80 0 l31 235 l-71 0 l0 70 l81 0 l22 167 l78 0 l-22 -167 l174 0 l21 167 l78 0 l-21 -167 l73 0 l0 -70 ZM348 249 l31 235 l-174 0 l-31 -235 l174 0 Z" /><glyph glyph-name="dollar" unicode="$" d="M525 200 q0 -83 -51.5 -139 q-51.5 -56 -144.5 -70 l0 -157 l-78 0 l0 153 q-132 7 -221 93 l54 58 q80 -75 187 -75 q70 0 115 35 q45 35 45 99 q0 55 -33.5 85 q-33.5 30 -126.5 59 q-111 34 -161.5 80 q-50.5 46 -50.5 125 q0 75 53 126 q53 51 139 59 l0 158 l78 0 l0 -158 q99 -11 174 -81 l-53 -57 q-69 65 -163 65 q-59 0 -96.5 -28 q-37.5 -28 -37.5 -79 q0 -49 32.5 -76.5 q32.5 -27.5 127.5 -56.5 q51 -16 84.5 -31.5 q33.5 -15.5 65 -40 q31.5 -24.5 47 -61 q15.5 -36.5 15.5 -85.5 Z" /><glyph glyph-name="percent" unicode="%" d="M661 766 l64 -41 l-500 -756 l-64 41 l500 756 ZM222 732 q77 0 125 -49 q48 -49 48 -131 q0 -82 -48 -132 q-48 -50 -125 -50 q-75 0 -123 50 q-48 50 -48 132 q0 82 48 131 q48 49 123 49 ZM313 552 q0 119 -91 119 q-91 0 -91 -119 q0 -119 91 -119 q91 0 91 119 ZM536.5 300 q48.5 49 124.5 49 q76 0 124 -49 q48 -49 48 -132 q0 -82 -48 -131.5 q-48 -49.5 -124 -49.5 q-76 0 -124.5 49.5 q-48.5 49.5 -48.5 131.5 q0 83 48.5 132 ZM661 286 q-91 0 -91 -118 q0 -51 21.5 -84.5 q21.5 -33.5 69.5 -33.5 q92 0 92 118 q0 118 -92 118 Z" /><glyph glyph-name="ampersand" unicode="&amp;" d="M326 756 q86 0 139.5 -46 q53.5 -46 53.5 -117 q0 -63 -40 -109 q-40 -46 -115 -90 l198 -186 q43 90 65 188 l86 -23 q-37 -122 -95 -217 l124 -116 l-66 -53 l-109 105 q-92 -105 -239 -105 q-105 0 -171.5 55 q-66.5 55 -66.5 146 q0 67 38.5 117.5 q38.5 50.5 113.5 97.5 q-56 52 -81.5 93 q-25.5 41 -25.5 93 q0 73 51 120 q51 47 140 47 ZM327 688 q-48 0 -75 -27.5 q-27 -27.5 -27 -70.5 q0 -39 20 -70.5 q20 -31.5 67 -75.5 q59 34 88.5 68 q29.5 34 29.5 76 q0 47 -28 73.5 q-28 26.5 -75 26.5 ZM294 353 q-57 -36 -84 -74.5 q-27 -38.5 -27 -87.5 q0 -61 43 -96.5 q43 -35.5 112 -35.5 q98 0 176 84 l-220 210 Z" /><glyph glyph-name="quotesingle" unicode="&#39;" d="M82 463 l-14 280 l97 0 l-15 -280 l-68 0 Z" /><glyph glyph-name="parenleft" unicode="(" d="M246 910 l57 -38 q-85 -126 -123.5 -230 q-38.5 -104 -38.5 -264 q0 -160 38.5 -264 q38.5 -104 123.5 -230 l-57 -38 q-44 61 -63 89.5 q-19 28.5 -51.5 86.5 q-32.5 58 -47 103 q-14.5 45 -26.5 112 q-12 67 -12 141 q0 74 12 141 q12 67 26.5 112 q14.5 45 47 103 q32.5 58 51.5 86.5 q19 28.5 63 89.5 Z" /><glyph glyph-name="parenright" unicode=")" d="M104 910 q43 -60 63 -89.5 q20 -29.5 51.5 -87 q31.5 -57.5 46 -103 q14.5 -45.5 26.5 -112 q12 -66.5 12 -140.5 q0 -74 -12 -140.5 q-12 -66.5 -26.5 -112 q-14.5 -45.5 -46 -103 q-31.5 -57.5 -51.5 -87 q-20 -29.5 -63 -89.5 l-58 38 q85 124 123.5 229 q38.5 105 38.5 265 q0 161 -38.5 265 q-38.5 104 -123.5 229 l58 38 Z" /><glyph glyph-name="asterisk" unicode="*" d="M448 611 l-164 -38 l110 -126 l-71 -53 l-86 145 l-87 -145 l-71 52 l110 127 l-164 38 l27 81 l154 -66 l-14 171 l89 0 l-14 -170 l153 66 l28 -82 Z" /><glyph glyph-name="plus" unicode="+" d="M310 557 l0 -162 l159 0 l0 -75 l-159 0 l0 -162 l-83 0 l0 162 l-158 0 l0 75 l158 0 l0 162 l83 0 Z" /><glyph glyph-name="comma" unicode="," d="M124 126 q30 0 50 -20 q20 -20 20 -49 q0 -32 -18 -72 l-70 -161 l-65 0 l43 175 q-29 22 -29 58 q0 29 20 49 q20 20 49 20 Z" /><glyph glyph-name="period" unicode="." d="M124 126 q30 0 50 -20 q20 -20 20 -49 q0 -30 -20 -50 q-20 -20 -50 -20 q-29 0 -49 20.5 q-20 20.5 -20 49.5 q0 29 20 49 q20 20 49 20 Z" /><glyph glyph-name="slash" unicode="/" d="M367 870 l78 -18 l-250 -963 l-78 19 l250 962 Z" /><glyph glyph-name="zero" unicode="0" d="M300 732 q118 0 178 -95 q60 -95 60 -277 q0 -182 -60 -277.5 q-60 -95.5 -178 -95.5 q-118 0 -177.5 95.5 q-59.5 95.5 -59.5 278.5 q0 371 237 371 ZM408 588.5 q-36 71.5 -108 71.5 q-72 0 -107.5 -71 q-35.5 -71 -35.5 -228 q0 -158 35.5 -230 q35.5 -72 107.5 -72 q72 0 108 72 q36 72 36 229 q0 157 -36 228.5 Z" /><glyph glyph-name="one" unicode="1" d="M341 721 l0 -721 l-90 0 l0 624 l-171 -105 l-40 65 l221 137 l80 0 Z" /><glyph glyph-name="two" unicode="2" d="M245 732 q97 0 155 -55 q58 -55 58 -140 q0 -97 -62.5 -184.5 q-62.5 -87.5 -248.5 -275.5 l328 0 l-11 -77 l-421 0 l0 72 q205 215 262.5 295 q57.5 80 57.5 165 q0 58 -33.5 92 q-33.5 34 -88.5 34 q-46 0 -80.5 -19 q-34.5 -19 -71.5 -61 l-60 47 q86 107 216 107 Z" /><glyph glyph-name="three" unicode="3" d="M242 732 q98 0 154.5 -52.5 q56.5 -52.5 56.5 -129.5 q0 -67 -39 -109.5 q-39 -42.5 -103 -57.5 q72 -6 117.5 -51 q45.5 -45 45.5 -125 q0 -96 -66.5 -158 q-66.5 -62 -175.5 -62 q-134 0 -215 96 l55 51 q69 -72 157 -72 q70 0 110 39.5 q40 39.5 40 105.5 q0 74 -37.5 104.5 q-37.5 30.5 -109.5 30.5 l-53 0 l11 71 l37 0 q57 0 95.5 34.5 q38.5 34.5 38.5 96.5 q0 54 -33.5 84.5 q-33.5 30.5 -90.5 30.5 q-80 0 -152 -65 l-47 54 q90 84 204 84 Z" /><glyph glyph-name="four" unicode="4" d="M537 254 l0 -74 l-94 0 l0 -180 l-89 0 l0 180 l-310 0 l0 66 l218 486 l76 -31 l-198 -447 l215 0 l9 197 l79 0 l0 -197 l94 0 Z" /><glyph glyph-name="five" unicode="5" d="M463 721 l-13 -71 l-285 0 l0 -220 q58 29 118 29 q93 0 148.5 -61 q55.5 -61 55.5 -167 q0 -109 -67.5 -176.5 q-67.5 -67.5 -178.5 -67.5 q-122 0 -211 91 l54 53 q68 -69 157 -69 q70 0 111 45 q41 45 41 126 q0 81 -37 118 q-37 37 -100 37 q-52 0 -106 -27 l-71 0 l0 360 l384 0 Z" /><glyph glyph-name="six" unicode="6" d="M329 473 q85 0 141.5 -59 q56.5 -59 56.5 -170 q0 -116 -64.5 -186.5 q-64.5 -70.5 -161.5 -70.5 q-124 0 -181 93 q-57 93 -57 256 q0 181 72 288.5 q72 107.5 197 107.5 q80 0 145 -43 l-35 -60 q-53 31 -112 31 q-80 0 -126.5 -77 q-46.5 -77 -50.5 -207 q69 97 176 97 ZM301 59 q65 0 99.5 49.5 q34.5 49.5 34.5 133.5 q0 159 -121 159 q-97 0 -160 -103 q4 -122 38.5 -180.5 q34.5 -58.5 108.5 -58.5 Z" /><glyph glyph-name="seven" unicode="7" d="M444 721 l0 -68 l-273 -663 l-84 27 l265 630 l-324 0 l0 74 l416 0 Z" /><glyph glyph-name="eight" unicode="8" d="M388 387 q153 -64 153 -195 q0 -91 -69 -148 q-69 -57 -178 -57 q-109 0 -176 56.5 q-67 56.5 -67 146.5 q0 128 146 190 q-116 57 -116 169 q0 85 64 134 q64 49 151 49 q88 0 152 -47.5 q64 -47.5 64 -133.5 q0 -54 -30 -93 q-30 -39 -94 -71 ZM296 664 q-58 0 -91.5 -30.5 q-33.5 -30.5 -33.5 -85.5 q0 -52 31 -80 q31 -28 101 -52 l22 -8 q52 29 74.5 61 q22.5 32 22.5 79 q0 54 -33.5 85 q-33.5 31 -92.5 31 ZM295 60 q70 0 110.5 35.5 q40.5 35.5 40.5 95.5 q0 59 -34.5 91.5 q-34.5 32.5 -123.5 64.5 l-29 9 q-113 -49 -113 -166 q0 -61 40 -95.5 q40 -34.5 109 -34.5 Z" /><glyph glyph-name="nine" unicode="9" d="M279 732 q113 0 171.5 -75.5 q58.5 -75.5 58.5 -207.5 q0 -110 -22 -187 q-22 -77 -71.5 -131.5 q-49.5 -54.5 -116 -89 q-66.5 -34.5 -169.5 -64.5 l-22 68 q146 42 223.5 114.5 q77.5 72.5 83.5 193.5 q-59 -89 -166 -89 q-86 0 -142 63 q-56 63 -56 168 q0 109 65 173 q65 64 163 64 ZM268 336 q88 0 148 94 q2 121 -30.5 175.5 q-32.5 54.5 -104.5 54.5 q-66 0 -102 -44 q-36 -44 -36 -124 q0 -77 34 -116.5 q34 -39.5 91 -39.5 Z" /><glyph glyph-name="colon" unicode=":" d="M124 529 q30 0 50 -19.5 q20 -19.5 20 -49.5 q0 -30 -20 -49.5 q-20 -19.5 -50 -19.5 q-29 0 -49 20 q-20 20 -20 49 q0 29 20 49 q20 20 49 20 ZM124 126 q30 0 50 -20 q20 -20 20 -49 q0 -30 -20 -50 q-20 -20 -50 -20 q-29 0 -49 20.5 q-20 20.5 -20 49.5 q0 29 20 49 q20 20 49 20 Z" /><glyph glyph-name="semicolon" unicode=";" d="M124 529 q30 0 50 -19.5 q20 -19.5 20 -49.5 q0 -30 -20 -49.5 q-20 -19.5 -50 -19.5 q-29 0 -49 20 q-20 20 -20 49 q0 29 20 49 q20 20 49 20 ZM124 126 q30 0 50 -20 q20 -20 20 -49 q0 -32 -18 -72 l-70 -161 l-65 0 l43 175 q-29 22 -29 58 q0 29 20 49 q20 20 49 20 Z" /><glyph glyph-name="less" unicode="&lt;" d="M449 590 l33 -76 l-351 -154 l351 -157 l-33 -73 l-392 184 l0 91 l392 185 Z" /><glyph glyph-name="equal" unicode="=" d="M69 421 l0 77 l401 0 l0 -77 l-401 0 ZM69 217 l0 77 l401 0 l0 -77 l-401 0 Z" /><glyph glyph-name="greater" unicode="&gt;" d="M91 590 l391 -185 l0 -91 l-391 -184 l-34 73 l351 157 l-351 154 l34 76 Z" /><glyph glyph-name="question" unicode="?" d="M256 756 q94 0 148 -48.5 q54 -48.5 54 -117.5 q0 -40 -14.5 -71 q-14.5 -31 -36.5 -49 q-22 -18 -47.5 -36.5 q-25.5 -18.5 -47.5 -34.5 q-22 -16 -36.5 -42.5 q-14.5 -26.5 -14.5 -60.5 l0 -51 l-89 0 l0 56 q0 50 19.5 87 q19.5 37 48 57.5 q28.5 20.5 56.5 38.5 q28 18 47.5 42.5 q19.5 24.5 19.5 57.5 q0 45 -30 70.5 q-30 25.5 -82 25.5 q-88 0 -154 -77 l-61 47 q90 106 220 106 ZM219 126 q30 0 50 -20 q20 -20 20 -49 q0 -30 -20 -50 q-20 -20 -50 -20 q-29 0 -49 20.5 q-20 20.5 -20 49.5 q0 29 20 49 q20 20 49 20 Z" /><glyph glyph-name="at" unicode="@" d="M568 756 q144 0 249 -60 q105 -60 155.5 -154.5 q50.5 -94.5 50.5 -209.5 q0 -144 -54.5 -232.5 q-54.5 -88.5 -155.5 -88.5 q-59 0 -92.5 33 q-33.5 33 -43.5 79 q-51 -110 -156 -110 q-85 0 -135.5 64 q-50.5 64 -50.5 172 q0 136 64 208 q64 72 169 72 q85 0 166 -42 l0 -280 q0 -126 78 -126 q119 0 119 248 q0 160 -94.5 255.5 q-94.5 95.5 -268.5 95.5 q-181 0 -289 -118.5 q-108 -118.5 -108 -302.5 q0 -186 105.5 -298.5 q105.5 -112.5 291.5 -112.5 q104 0 206 35 l25 -70 q-120 -41 -232 -41 q-218 0 -353 132.5 q-135 132.5 -135 354.5 q0 214 136.5 355.5 q136.5 141.5 352.5 141.5 ZM531 80 q83 0 121 97 l0 269 q-36 17 -82 17 q-147 0 -147 -214 q0 -83 28 -126 q28 -43 80 -43 Z" /><glyph glyph-name="A" unicode="A" d="M509 0 l-58 190 l-289 0 l-58 -190 l-95 0 l240 743 l119 0 l240 -743 l-99 0 ZM186 267 l242 0 l-121 398 l-121 -398 Z" /><glyph glyph-name="B" unicode="B" d="M432 393 q172 -28 172 -182 q0 -211 -289 -211 l-204 0 l0 743 l173 0 q286 0 286 -187 q0 -66 -39.5 -108.5 q-39.5 -42.5 -98.5 -54.5 ZM294 669 l-90 0 l0 -243 l121 0 q66 0 107.5 32.5 q41.5 32.5 41.5 91.5 q0 66 -45 92.5 q-45 26.5 -135 26.5 ZM315 76 q93 0 141 29 q48 29 48 106 q0 74 -46.5 108 q-46.5 34 -122.5 34 l-131 0 l0 -277 l111 0 Z" /><glyph glyph-name="C" unicode="C" d="M369 756 q65 0 110 -17.5 q45 -17.5 92 -54.5 l-50 -61 q-69 55 -146 55 q-96 0 -154.5 -73 q-58.5 -73 -58.5 -233 q0 -155 58 -230 q58 -75 154 -75 q48 0 84 16 q36 16 76 46 l46 -60 q-82 -82 -210 -82 q-137 0 -222 101 q-85 101 -85 284 q0 182 87 283 q87 101 219 101 Z" /><glyph glyph-name="D" unicode="D" d="M265 743 q61 0 110 -8.5 q49 -8.5 98.5 -32.5 q49.5 -24 82.5 -63.5 q33 -39.5 54 -106.5 q21 -67 21 -156 q0 -88 -21 -156 q-21 -68 -55 -108.5 q-34 -40.5 -81 -66.5 q-47 -26 -92.5 -35.5 q-45.5 -9.5 -97.5 -9.5 l-173 0 l0 743 l154 0 ZM284 667 l-80 0 l0 -592 l88 0 q49 0 88 12.5 q39 12.5 74.5 43.5 q35.5 31 55.5 93 q20 62 20 152 q0 92 -20.5 153 q-20.5 61 -58.5 89.5 q-38 28.5 -76.5 38.5 q-38.5 10 -90.5 10 Z" /><glyph glyph-name="E" unicode="E" d="M508 743 l-11 -76 l-293 0 l0 -250 l254 0 l0 -76 l-254 0 l0 -265 l311 0 l0 -76 l-404 0 l0 743 l397 0 Z" /><glyph glyph-name="F" unicode="F" d="M111 0 l0 743 l389 0 l-11 -76 l-285 0 l0 -261 l246 0 l0 -74 l-246 0 l0 -332 l-93 0 Z" /><glyph glyph-name="G" unicode="G" d="M381 756 q69 0 119.5 -19.5 q50.5 -19.5 99.5 -60.5 l-55 -58 q-73 60 -164 60 q-92 0 -155.5 -75 q-63.5 -75 -63.5 -230 q0 -308 211 -308 q80 0 144 34 l0 234 l-135 0 l-10 76 l238 0 l0 -357 q-112 -65 -237 -65 q-146 0 -228 98.5 q-82 98.5 -82 287.5 q0 180 92 281.5 q92 101.5 226 101.5 Z" /><glyph glyph-name="H" unicode="H" d="M527 0 l0 352 l-323 0 l0 -352 l-93 0 l0 743 l93 0 l0 -313 l323 0 l0 313 l94 0 l0 -743 l-94 0 Z" /><glyph glyph-name="I" unicode="I" d="M204 743 l0 -743 l-93 0 l0 743 l93 0 Z" /><glyph glyph-name="J" unicode="J" d="M220 743 l0 -640 q0 -107 -45.5 -161 q-45.5 -54 -142.5 -86 l-24 68 q71 29 94.5 67.5 q23.5 38.5 23.5 115.5 l0 636 l94 0 Z" /><glyph glyph-name="K" unicode="K" d="M204 743 l0 -743 l-93 0 l0 743 l93 0 ZM606 743 l-288 -340 l307 -403 l-115 0 l-300 397 l289 346 l107 0 Z" /><glyph glyph-name="L" unicode="L" d="M204 743 l0 -661 l307 0 l-11 -82 l-389 0 l0 743 l93 0 Z" /><glyph glyph-name="M" unicode="M" d="M705 743 l65 -743 l-91 0 l-28 340 q-18 195 -20 308 l-168 -563 l-87 0 l-175 564 q-1 -124 -17 -314 l-26 -335 l-89 0 l63 743 l127 0 l163 -550 l156 550 l127 0 Z" /><glyph glyph-name="N" unicode="N" d="M624 743 l0 -743 l-125 0 l-313 640 q13 -153 13 -281 l0 -359 l-88 0 l0 743 l122 0 l316 -641 q-12 80 -12 225 l0 416 l87 0 Z" /><glyph glyph-name="O" unicode="O" d="M148 653 q85 103 226 103 q141 0 226 -101 q85 -101 85 -285 q0 -181 -85 -282 q-85 -101 -226 -101 q-142 0 -226.5 100 q-84.5 100 -84.5 282 q0 181 85 284 ZM374 678 q-100 0 -156 -75.5 q-56 -75.5 -56 -233.5 q0 -156 56.5 -230 q56.5 -74 155.5 -74 q211 0 211 305 q0 308 -211 308 Z" /><glyph glyph-name="P" unicode="P" d="M301 743 q136 0 210.5 -57 q74.5 -57 74.5 -171 q0 -121 -77.5 -180 q-77.5 -59 -207.5 -59 l-97 0 l0 -276 l-93 0 l0 743 l190 0 ZM298 351 q92 0 140.5 36 q48.5 36 48.5 127 q0 156 -187 156 l-96 0 l0 -319 l94 0 Z" /><glyph glyph-name="Q" unicode="Q" d="M511 38 q112 0 204 -68 l-62 -79 q-63 56 -122.5 77 q-59.5 21 -158.5 21 q-141 0 -225 99 q-84 99 -84 281 q0 181 85 284 q85 103 226 103 q141 0 226 -101 q85 -101 85 -285 q0 -133 -44.5 -212 q-44.5 -79 -129.5 -120 ZM162 369 q0 -156 56.5 -230 q56.5 -74 155.5 -74 q211 0 211 305 q0 308 -211 308 q-100 0 -156 -75.5 q-56 -75.5 -56 -233.5 Z" /><glyph glyph-name="R" unicode="R" d="M509 0 l-182 320 l-123 0 l0 -320 l-93 0 l0 743 l191 0 q279 0 279 -208 q0 -152 -162 -199 l201 -336 l-111 0 ZM204 392 l109 0 q169 0 169 143 q0 71 -43 103 q-43 32 -138 32 l-97 0 l0 -278 Z" /><glyph glyph-name="S" unicode="S" d="M291 756 q73 0 125.5 -21 q52.5 -21 99.5 -64 l-51 -58 q-79 65 -170 65 q-61 0 -99.5 -29 q-38.5 -29 -38.5 -81 q0 -51 33 -79.5 q33 -28.5 132 -58.5 q52 -16 86.5 -31.5 q34.5 -15.5 67 -41 q32.5 -25.5 48.5 -63 q16 -37.5 16 -88.5 q0 -98 -69.5 -158.5 q-69.5 -60.5 -190.5 -60.5 q-150 0 -250 95 l52 58 q91 -75 197 -75 q71 0 117.5 36 q46.5 36 46.5 102 q0 58 -34.5 89 q-34.5 31 -129.5 60 q-114 34 -166.5 82 q-52.5 48 -52.5 131 q0 83 65 137 q65 54 166 54 Z" /><glyph glyph-name="T" unicode="T" d="M542 743 l-11 -80 l-208 0 l0 -663 l-93 0 l0 663 l-214 0 l0 80 l526 0 Z" /><glyph glyph-name="U" unicode="U" d="M612 743 l0 -506 q0 -113 -67.5 -181.5 q-67.5 -68.5 -189.5 -68.5 q-123 0 -189 68.5 q-66 68.5 -66 181.5 l0 506 l93 0 l0 -499 q0 -177 162 -177 q162 0 162 177 l0 499 l95 0 Z" /><glyph glyph-name="V" unicode="V" d="M589 743 l-238 -743 l-102 0 l-240 743 l101 0 l191 -643 l193 643 l95 0 Z" /><glyph glyph-name="W" unicode="W" d="M860 743 l-155 -743 l-120 0 l-142 634 l-144 -634 l-116 0 l-155 743 l93 0 l124 -660 l148 660 l101 0 l151 -660 l128 660 l87 0 Z" /><glyph glyph-name="X" unicode="X" d="M342 402 l228 -402 l-107 0 l-177 336 l-178 -336 l-102 0 l225 396 l-204 347 l106 0 l155 -284 l155 284 l100 0 l-201 -341 Z" /><glyph glyph-name="Y" unicode="Y" d="M580 743 l-239 -456 l0 -287 l-95 0 l0 286 l-238 457 l103 0 l186 -374 l185 374 l98 0 Z" /><glyph glyph-name="Z" unicode="Z" d="M513 743 l0 -76 l-375 -587 l373 0 l-11 -80 l-467 0 l0 76 l378 588 l-338 0 l0 79 l440 0 Z" /><glyph glyph-name="bracketleft" unicode="[" d="M288 879 l0 -75 l-127 0 l0 -854 l127 0 l0 -74 l-212 0 l0 1003 l212 0 Z" /><glyph glyph-name="backslash" unicode="\" d="M194 870 l251 -962 l-79 -19 l-249 963 l77 18 Z" /><glyph glyph-name="bracketright" unicode="]" d="M271 879 l0 -1003 l-213 0 l0 74 l128 0 l0 854 l-128 0 l0 75 l213 0 Z" /><glyph glyph-name="asciicircum" unicode="^" d="M330 905 l204 -336 l-98 0 l-147 256 l-145 -256 l-96 0 l203 336 l79 0 Z" /><glyph glyph-name="underscore" unicode="_" d="M22 -148 l0 78 l518 0 l0 -78 l-518 0 Z" /><glyph glyph-name="grave" unicode="`" d="M73 861 l212 -121 l-28 -49 l-225 92 l41 78 Z" /><glyph glyph-name="a" unicode="a" d="M476 131 q0 -37 11.5 -54 q11.5 -17 36.5 -26 l-22 -64 q-43 6 -69 26.5 q-26 20.5 -37 61.5 q-56 -88 -170 -88 q-84 0 -132 47 q-48 47 -48 125 q0 90 64.5 138 q64.5 48 182.5 48 l93 0 l0 45 q0 62 -29.5 89.5 q-29.5 27.5 -92.5 27.5 q-66 0 -154 -32 l-23 67 q104 39 193 39 q196 0 196 -187 l0 -263 ZM246 56 q89 0 140 92 l0 136 l-81 0 q-162 0 -162 -121 q0 -107 103 -107 Z" /><glyph glyph-name="b" unicode="b" d="M356 581 q98 0 154.5 -78 q56.5 -78 56.5 -218 q0 -135 -59.5 -216.5 q-59.5 -81.5 -161.5 -81.5 q-93 0 -155 78 l-8 -65 l-80 0 l0 797 l90 11 l0 -312 q63 85 163 85 ZM324 59 q68 0 106.5 55.5 q38.5 55.5 38.5 170.5 q0 224 -137 224 q-77 0 -139 -91 l0 -280 q55 -79 131 -79 Z" /><glyph glyph-name="c" unicode="c" d="M310 581 q98 0 171 -60 l-45 -58 q-56 42 -123 42 q-72 0 -112 -56.5 q-40 -56.5 -40 -167.5 q0 -216 152 -216 q61 0 125 44 l43 -59 q-75 -63 -171 -63 q-114 0 -180 78 q-66 78 -66 215 q0 137 66.5 219 q66.5 82 179.5 82 Z" /><glyph glyph-name="d" unicode="d" d="M441 808 l90 -11 l0 -797 l-78 0 l-10 80 q-60 -93 -165 -93 q-102 0 -158 79.5 q-56 79.5 -56 215.5 q0 133 59.5 216 q59.5 83 162.5 83 q88 0 155 -71 l0 298 ZM296 59 q47 0 81 22.5 q34 22.5 64 67.5 l0 283 q-59 77 -135 77 q-68 0 -106.5 -57.5 q-38.5 -57.5 -38.5 -168.5 q0 -111 35 -167.5 q35 -56.5 100 -56.5 Z" /><glyph glyph-name="e" unicode="e" d="M528 302 q0 -25 -2 -49 l-366 0 q6 -98 48.5 -144.5 q42.5 -46.5 110.5 -46.5 q75 0 149 50 l40 -54 q-89 -71 -196 -71 q-117 0 -182.5 78 q-65.5 78 -65.5 214 q0 135 63 218.5 q63 83.5 170 83.5 q112 0 171.5 -74 q59.5 -74 59.5 -205 ZM438 320 l0 8 q0 181 -139 181 q-129 0 -139 -189 l278 0 Z" /><glyph glyph-name="f" unicode="f" d="M293 734 q-47 0 -67.5 -20 q-20.5 -20 -20.5 -64 l0 -82 l141 0 l-10 -70 l-131 0 l0 -498 l-91 0 l0 498 l-100 0 l0 70 l100 0 l0 81 q0 72 45.5 115.5 q45.5 43.5 127.5 43.5 q68 0 135 -29 l-29 -66 q-49 21 -100 21 Z" /><glyph glyph-name="g" unicode="g" d="M528 629 l27 -84 q-49 -15 -164 -17 q99 -43 99 -146 q0 -85 -57.5 -138 q-57.5 -53 -156.5 -53 q-40 0 -72 11 q-31 -21 -31 -56 q0 -49 78 -49 l90 0 q86 0 138.5 -43.5 q52.5 -43.5 52.5 -110.5 q0 -83 -66 -127 q-66 -44 -195 -44 q-133 0 -187.5 40.5 q-54.5 40.5 -54.5 129.5 l82 0 q0 -53 34 -76 q34 -23 126 -23 q91 0 130.5 23.5 q39.5 23.5 39.5 69.5 q0 41 -31 63 q-31 22 -87 22 l-90 0 q-70 0 -107 30 q-37 30 -37 75 q0 60 61 100 q-95 50 -95 158 q0 87 61 142 q61 55 155 55 q68 -1 117.5 5.5 q49.5 6.5 75 15.5 q25.5 9 64.5 27 ZM271 515 q-59 0 -91 -36 q-32 -36 -32 -95 q0 -60 33 -96 q33 -36 92 -36 q60 0 92 34.5 q32 34.5 32 97.5 q0 131 -126 131 Z" /><glyph glyph-name="h" unicode="h" d="M366 581 q77 0 120 -46.5 q43 -46.5 43 -127.5 l0 -407 l-91 0 l0 394 q0 63 -24 89.5 q-24 26.5 -69 26.5 q-85 0 -152 -104 l0 -406 l-90 0 l0 796 l90 11 l0 -321 q70 95 173 95 Z" /><glyph glyph-name="i" unicode="i" d="M147 836 q29 0 47 -18 q18 -18 18 -45 q0 -27 -18 -44.5 q-18 -17.5 -47 -17.5 q-28 0 -46 17.5 q-18 17.5 -18 44.5 q0 27 18 45 q18 18 46 18 ZM193 568 l0 -568 l-90 0 l0 568 l90 0 Z" /><glyph glyph-name="j" unicode="j" d="M149 836 q29 0 47 -18 q18 -18 18 -45 q0 -27 -18 -44.5 q-18 -17.5 -47 -17.5 q-28 0 -46 17.5 q-18 17.5 -18 44.5 q0 27 18 45 q18 18 46 18 ZM194 568 l0 -537 q0 -77 -20.5 -126 q-20.5 -49 -54.5 -76 q-34 -27 -98 -56 l-26 66 q62 30 85.5 65.5 q23.5 35.5 23.5 121.5 l0 542 l90 0 Z" /><glyph glyph-name="k" unicode="k" d="M193 808 l0 -808 l-90 0 l0 797 l90 11 ZM518 568 l-216 -252 l240 -316 l-109 0 l-233 310 l216 258 l102 0 Z" /><glyph glyph-name="l" unicode="l" d="M211 -13 q-53 0 -84 31.5 q-31 31.5 -31 89.5 l0 689 l91 11 l0 -698 q0 -47 38 -47 q22 0 37 6 l24 -64 q-36 -18 -75 -18 Z" /><glyph glyph-name="m" unicode="m" d="M669 581 q69 0 111 -47 q42 -47 42 -127 l0 -407 l-91 0 l0 394 q0 116 -84 116 q-44 0 -74.5 -25.5 q-30.5 -25.5 -64.5 -79.5 l0 -405 l-91 0 l0 394 q0 116 -84 116 q-44 0 -75.5 -26 q-31.5 -26 -64.5 -79 l0 -405 l-90 0 l0 568 l77 0 l8 -86 q67 99 167 99 q53 0 90 -27.5 q37 -27.5 53 -77.5 q68 105 171 105 Z" /><glyph glyph-name="n" unicode="n" d="M366 581 q78 0 120.5 -46 q42.5 -46 42.5 -128 l0 -407 l-91 0 l0 394 q0 63 -23 89.5 q-23 26.5 -69 26.5 q-86 0 -153 -105 l0 -405 l-90 0 l0 568 l77 0 l8 -86 q69 99 178 99 Z" /><glyph glyph-name="o" unicode="o" d="M314 581 q119 0 184.5 -79 q65.5 -79 65.5 -217 q0 -135 -66.5 -216.5 q-66.5 -81.5 -184.5 -81.5 q-118 0 -183.5 79.5 q-65.5 79.5 -65.5 216.5 q0 135 66.5 216.5 q66.5 81.5 183.5 81.5 ZM314 508 q-74 0 -113.5 -56.5 q-39.5 -56.5 -39.5 -168.5 q0 -223 152 -223 q154 0 154 225 q0 223 -153 223 Z" /><glyph glyph-name="p" unicode="p" d="M357 581 q107 0 158.5 -77.5 q51.5 -77.5 51.5 -218.5 q0 -134 -58 -216 q-58 -82 -163 -82 q-97 0 -153 68 l0 -272 l-90 -11 l0 796 l77 0 l8 -79 q64 92 169 92 ZM324 62 q145 0 145 223 q0 224 -133 224 q-80 0 -143 -92 l0 -282 q51 -73 131 -73 Z" /><glyph glyph-name="q" unicode="q" d="M454 568 l77 0 l0 -796 l-90 11 l0 293 q-61 -89 -163 -89 q-102 0 -158 79.5 q-56 79.5 -56 215.5 q0 133 59.5 216 q59.5 83 162.5 83 q90 0 161 -78 l7 65 ZM297 59 q47 0 80.5 22.5 q33.5 22.5 63.5 67.5 l0 283 q-59 77 -135 77 q-68 0 -106.5 -57.5 q-38.5 -57.5 -38.5 -168.5 q0 -112 35 -168 q35 -56 101 -56 Z" /><glyph glyph-name="r" unicode="r" d="M343 581 q30 0 57 -6 l-18 -89 q-24 6 -49 6 q-54 0 -87.5 -39 q-33.5 -39 -52.5 -124 l0 -329 l-90 0 l0 568 l77 0 l9 -119 q45 132 154 132 Z" /><glyph glyph-name="s" unicode="s" d="M255 581 q105 0 191 -65 l-40 -57 q-76 50 -148 50 q-50 0 -79.5 -22 q-29.5 -22 -29.5 -58 q0 -36 26.5 -56 q26.5 -20 98.5 -39 q96 -25 141.5 -65 q45.5 -40 45.5 -111 q0 -82 -63.5 -126.5 q-63.5 -44.5 -155.5 -44.5 q-128 0 -212 75 l49 55 q73 -57 161 -57 q57 0 91.5 25 q34.5 25 34.5 67 q0 45 -28 66.5 q-28 21.5 -112 45.5 q-91 24 -131.5 63 q-40.5 39 -40.5 100 q0 67 57.5 110.5 q57.5 43.5 143.5 43.5 Z" /><glyph glyph-name="t" unicode="t" d="M351 86 l35 -61 q-56 -38 -126 -38 q-71 0 -110.5 41 q-39.5 41 -39.5 118 l0 352 l-98 0 l0 70 l98 0 l0 131 l91 9 l0 -140 l137 0 l-10 -70 l-127 0 l0 -348 q0 -45 16.5 -66 q16.5 -21 54.5 -21 q39 0 79 23 Z" /><glyph glyph-name="u" unicode="u" d="M518 568 l0 -568 l-77 0 l-7 92 q-64 -105 -179 -105 q-75 0 -117 45.5 q-42 45.5 -42 128.5 l0 407 l91 0 l0 -397 q0 -60 22 -86 q22 -26 71 -26 q86 0 148 102 l0 407 l90 0 Z" /><glyph glyph-name="v" unicode="v" d="M514 568 l-194 -568 l-110 0 l-198 568 l99 0 l155 -487 l152 487 l96 0 Z" /><glyph glyph-name="w" unicode="w" d="M746 568 l-130 -568 l-125 0 l-104 486 l-108 -486 l-121 0 l-135 568 l91 0 l107 -504 l117 504 l102 0 l112 -504 l108 504 l86 0 Z" /><glyph glyph-name="x" unicode="x" d="M312 305 l199 -305 l-110 0 l-145 246 l-147 -246 l-103 0 l199 300 l-175 268 l106 0 l124 -213 l124 213 l103 0 l-175 -263 Z" /><glyph glyph-name="y" unicode="y" d="M513 568 l-191 -571 q-33 -99 -91 -155 q-58 -56 -165 -70 l-11 71 q82 16 117.5 49.5 q35.5 33.5 62.5 107.5 l-31 0 l-192 568 l97 0 l157 -502 l153 502 l94 0 Z" /><glyph glyph-name="z" unicode="z" d="M432 568 l0 -69 l-301 -422 l303 0 l-11 -77 l-395 0 l0 68 l300 423 l-275 0 l0 77 l379 0 Z" /><glyph glyph-name="braceleft" unicode="{" d="M295 901 l0 -70 q-54 0 -77.5 -17.5 q-23.5 -17.5 -23.5 -58.5 l0 -263 q0 -54 -19 -78 q-19 -24 -62 -37 q43 -13 62 -36.5 q19 -23.5 19 -78.5 l0 -261 q0 -41 23.5 -58.5 q23.5 -17.5 77.5 -17.5 l0 -70 q-101 0 -143.5 36 q-42.5 36 -42.5 119 l0 248 q0 44 -17.5 62.5 q-17.5 18.5 -59.5 18.5 l0 76 q42 0 59.5 19 q17.5 19 17.5 64 l0 248 q0 83 42.5 119 q42.5 36 143.5 36 Z" /><glyph glyph-name="bar" unicode="|" d="M259 870 l0 -980 l-82 0 l0 980 l82 0 Z" /><glyph glyph-name="braceright" unicode="}" d="M54 901 q101 0 143.5 -36 q42.5 -36 42.5 -119 l0 -248 q0 -45 17 -64 q17 -19 59 -19 l0 -76 q-42 0 -59 -18.5 q-17 -18.5 -17 -62.5 l0 -248 q0 -83 -42.5 -119 q-42.5 -36 -143.5 -36 l0 70 q53 0 76.5 17.5 q23.5 17.5 23.5 58.5 l0 261 q0 55 19 78.5 q19 23.5 62 36.5 q-42 13 -61.5 37 q-19.5 24 -19.5 78 l0 263 q0 41 -23.5 58.5 q-23.5 17.5 -76.5 17.5 l0 70 Z" /><glyph glyph-name="asciitilde" unicode="~" d="M342 273 q-34 0 -66.5 16.5 q-32.5 16.5 -57.5 33 q-25 16.5 -43 16.5 q-40 0 -78 -56 l-55 29 q53 99 142 99 q42 0 94 -32 q52 -32 73 -32 q42 0 76 50 l54 -30 q-50 -94 -139 -94 Z" /><glyph glyph-name="endash" unicode="&#x2013;" d="M37 299 l0 78 l488 0 l0 -78 l-488 0 Z" /><glyph glyph-name="emdash" unicode="&#x2014;" d="M46 249 l0 64 l802 0 l0 -64 l-802 0 Z" /><glyph glyph-name="quoteleft" unicode="&#x2018;" d="M952 809 q-40 -20 -64.5 -54.5 q-24.5 -34.5 -24.5 -68.5 q10 8 27 8 q28 0 45.5 -18.5 q17.5 -18.5 17.5 -45.5 q0 -25 -18 -45 q-18 -20 -50 -20 q-33 0 -56 27 q-23 27 -23 68 q0 63 36.5 113 q36.5 50 88.5 74 l21 -38 Z" /><glyph glyph-name="quoteright" unicode="&#x2019;" d="M48 599 q40 20 64.5 54.5 q24.5 34.5 24.5 68.5 q-12 -8 -27 -8 q-28 0 -45.5 18.5 q-17.5 18.5 -17.5 45.5 q0 26 18 45.5 q18 19.5 50 19.5 q33 0 56 -27 q23 -27 23 -68 q0 -63 -36.5 -112.5 q-36.5 -49.5 -88.5 -74.5 l-21 38 Z" /><glyph glyph-name="quotedblleft" unicode="&#x201c;" d="M770 809 q-40 -20 -64.5 -54.5 q-24.5 -34.5 -24.5 -68.5 q10 8 28 8 q27 0 44.5 -18.5 q17.5 -18.5 17.5 -45.5 q0 -25 -18 -45 q-18 -20 -50 -20 q-33 0 -55.5 27 q-22.5 27 -22.5 68 q0 63 36 113.5 q36 50.5 88 73.5 l21 -38 ZM962 809 q-40 -20 -64.5 -54.5 q-24.5 -34.5 -24.5 -68.5 q10 8 27 8 q28 0 45.5 -18.5 q17.5 -18.5 17.5 -45.5 q0 -25 -18 -45 q-18 -20 -50 -20 q-33 0 -56 27 q-23 27 -23 68 q0 63 36.5 113 q36.5 50 88.5 74 l21 -38 Z" /><glyph glyph-name="quotedblright" unicode="&#x201d;" d="M230 599 q40 20 64.5 54.5 q24.5 34.5 24.5 68.5 q-12 -8 -28 -8 q-27 0 -44.5 18.5 q-17.5 18.5 -17.5 45.5 q0 26 18 45.5 q18 19.5 50 19.5 q33 0 56 -27 q23 -27 23 -68 q0 -63 -36.5 -112.5 q-36.5 -49.5 -88.5 -74.5 l-21 38 ZM38 599 q40 20 64.5 54.5 q24.5 34.5 24.5 68.5 q-12 -8 -27 -8 q-28 0 -45.5 18.5 q-17.5 18.5 -17.5 45.5 q0 26 18 45.5 q18 19.5 50 19.5 q33 0 56 -27 q23 -27 23 -68 q0 -63 -36.5 -112.5 q-36.5 -49.5 -88.5 -74.5 l-21 38 Z" /><glyph glyph-name="Identity.759" unicode="&#x6c11;" d="M478 47 q-321 -95 -353 -121 l-42 71 q15 7 30 28.5 q15 21.5 15 47.5 l0 727 l689 0 l0 -288 l-285 0 q4 -66 22 -145 l337 0 l0 -74 l-316 0 q38 -115 98.5 -194.5 q60.5 -79.5 119.5 -78.5 q38 1 46 141 l72 -13 q-9 -109 -38.5 -158 q-29.5 -49 -81.5 -49 q-90 -1 -171 101.5 q-81 102.5 -124 250.5 l-289 0 l0 -252 l261 80 q2 -45 10 -74 ZM207 588 l533 0 l0 135 l-533 0 l0 -135 ZM207 367 l268 0 q-11 59 -16 145 l-252 0 l0 -145 Z" /><glyph glyph-name="Identity.795" unicode="&#x89c1;" d="M271 715 l0 -485 l-81 0 l0 566 l617 0 l0 -566 l-82 0 l0 485 l-454 0 ZM533 635 q-2 -83 -7 -145 q-5 -62 -17.5 -131.5 q-12.5 -69.5 -32 -120.5 q-19.5 -51 -52.5 -103 q-33 -52 -77.5 -89 q-44.5 -37 -108.5 -68.5 q-64 -31.5 -144 -51.5 l-24 74 q56 13 102.5 32 q46.5 19 82.5 41.5 q36 22.5 64 53.5 q28 31 47.5 62 q19.5 31 34 73 q14.5 42 23.5 80 q9 38 14.5 90.5 q5.5 52.5 8 97 q2.5 44.5 3.5 105.5 l83 0 ZM935 169 q-7 -120 -42 -167 q-35 -47 -128 -47 l-88 0 q-96 0 -130 25 q-34 25 -34 85 l0 257 l79 0 l0 -256 q0 -23 13.5 -29.5 q13.5 -6.5 74.5 -6.5 l81 0 q62 0 79.5 29.5 q17.5 29.5 20.5 119.5 l74 -10 Z" /><glyph glyph-name="Identity.796" unicode="&#x89d2;" d="M261 168 q-41 -171 -123 -248 q-8 11 -29 31 q-21 20 -31 26 q47 48 77 125.5 q30 77.5 39 143 q9 65.5 9 131.5 l0 175 q-22 -22 -78 -66 l-50 63 q86 60 160 143 q74 83 111 157 l80 -16 q-3 -7 -10.5 -25 q-7.5 -18 -13.5 -26 l262 0 l9 8 l51 -36 q-45 -83 -93 -128 l232 0 l0 -595 q0 -66 -44 -84 q-38 -14 -181 -14 l-6 78 q10 0 32 -0.5 q22 -0.5 33 -0.5 l11 0 q15 0 33.5 0.5 q18.5 0.5 19.5 0.5 q23 1 23 21 l0 136 l-223 0 l0 -216 l-74 0 l0 216 l-226 0 ZM279 626 l267 0 q33 36 69 93 l-255 0 q-31 -43 -81 -93 ZM561 436 l223 0 l0 118 l-223 0 l0 -118 ZM280 436 l207 0 l0 118 l-207 0 l0 -118 ZM272 240 l215 0 l0 126 l-207 0 q0 -59 -8 -126 ZM561 240 l223 0 l0 126 l-223 0 l0 -126 Z" /><glyph glyph-name="Identity.799" unicode="&#x8d1d;" d="M268 724 l0 -511 l-78 0 l0 586 l625 0 l0 -584 l-81 0 l0 509 l-466 0 ZM543 450 q0 -53 -9 -102.5 q-9 -49.5 -37 -111.5 q-28 -62 -73.5 -115 q-45.5 -53 -125.5 -105.5 q-80 -52.5 -187 -89.5 l-32 73 q382 123 382 452 l0 212 l82 0 l0 -213 ZM903 -3 l-47 -64 q-80 57 -171 109 l-10 6 q-75 44 -149 77 l42 55 q76 -31 176 -86.5 q100 -55.5 159 -96.5 Z" /><glyph glyph-name="Identity.801" unicode="&#x8f66;" d="M584 126 l0 -198 l-78 0 l0 198 l-432 0 l0 79 l432 0 l0 149 l-216 0 q-25 0 -49.5 -2 q-24.5 -2 -36.5 -4 l-13 -2 l-35 75 q24 6 66 78 q28 40 78 135 l-211 0 l0 75 l248 0 q11 27 26.5 79.5 q15.5 52.5 20.5 65.5 l88 -27 q-39 -89 -55 -118 l494 0 l0 -75 l-532 0 l-12 -24 l-5 -9 q-56 -114 -96 -172 l240 0 l0 152 l78 0 l0 -152 l262 0 l0 -75 l-262 0 l0 -149 l345 0 l0 -79 l-345 0 Z" /><glyph glyph-name="Identity.809" unicode="&#x957f;" d="M575 41 q-275 -73 -320 -103 l-38 68 q42 21 42 64 l0 323 l-191 0 l0 76 l191 0 l0 374 l80 0 l0 -374 l592 0 l0 -76 l-370 0 q53 -121 157 -221.5 q104 -100.5 226 -139.5 l-34 -75 q-147 52 -258 169 q-111 117 -169 267 l-144 0 l0 -339 l228 62 q0 -43 8 -75 ZM832 793 q-66 -78 -172.5 -155.5 q-106.5 -77.5 -212.5 -128.5 l-42 73 q91 38 190.5 106.5 q99.5 68.5 158.5 138.5 l78 -34 Z" /><glyph glyph-name="Identity.810" unicode="&#x95e8;" d="M346 672 l-66 -46 q-35 63 -142 186 l62 38 q28 -30 64 -72 l7 -9 q50 -58 75 -97 ZM850 -56 q-41 -15 -204 -12 l-5 76 q39 -1 90.5 -1.5 q51.5 -0.5 63.5 0.5 q25 1 25 27 l0 702 l-462 0 l0 78 l541 0 l0 -780 q0 -72 -49 -90 ZM185 657 l0 -728 l-80 0 l0 728 l80 0 Z" /><glyph glyph-name="Identity.816" unicode="&#x9875;" d="M263 540 l0 -396 l-79 0 l0 469 l222 0 q20 42 42 109 l-362 0 l0 74 l837 0 l0 -74 l-389 0 q-18 -45 -52 -109 l345 0 l0 -467 l-83 0 l0 394 l-481 0 ZM543 301 q0 -42 -10 -80.5 q-10 -38.5 -40 -83 q-30 -44.5 -77.5 -81.5 q-47.5 -37 -129 -72 q-81.5 -35 -188.5 -58 l-23 70 q387 78 387 306 l0 182 l81 0 l0 -183 ZM919 -11 l-49 -64 q-60 46 -158 107.5 q-98 61.5 -171 94.5 l44 55 q74 -33 174.5 -92 q100.5 -59 159.5 -101 Z" /><glyph glyph-name="Identity.817" unicode="&#x98ce;" d="M251 725 l0 -216 q0 -90 -10.5 -187.5 q-10.5 -97.5 -42 -211.5 q-31.5 -114 -80.5 -182 l-69 51 q68 94 95 240.5 q27 146.5 27 289.5 l0 294 l652 0 q0 -35 -0.5 -100.5 q-0.5 -65.5 -0.5 -96.5 l0 -22 q1 -280 13.5 -421 q12.5 -141 47.5 -141 q17 0 22 138 l54 -16 q-6 -107 -25 -155.5 q-19 -48.5 -56 -48.5 q-22 0 -40 13 q-18 13 -31 42.5 q-13 29.5 -23 65 q-10 35.5 -16.5 92.5 q-6.5 57 -10.5 111.5 q-4 54.5 -6 135.5 q-2 81 -3 152.5 q-1 71.5 -1 172.5 l-496 0 ZM513 300 q-18 -28 -28 -42 l-5 -9 q-100 -149 -175 -205 l-52 67 q92 62 211 252 q-13 19 -41 57 l-6 8 q-6 8 -9 13 l-15 20 l-6 9 l-6 8 q-55 75 -89 115 l65 34 q42 -49 106 -135 l6 -8 q6 -9 19 -26.5 q13 -17.5 20 -25.5 q35 65 90 235 l70 -19 q-3 -11 -10.5 -33 q-7.5 -22 -10.5 -31 l-4 -9 q-8 -26 -13 -38 l-4 -10 l-3 -9 q-33 -89 -67 -149 q75 -95 171 -265 l-73 -42 q-7 12 -27.5 49 q-20.5 37 -35 62.5 q-14.5 25.5 -36.5 61.5 q-22 36 -42 65 Z" /><glyph glyph-name="Identity.819" unicode="&#x98df;" d="M867 -14 l-55 -55 q-89 70 -217 151 l-9 5 q-78 50 -150 84 l51 48 q31 -13 78 -42 l8 -5 q1 0 2.5 -1 q1.5 -1 2.5 -2 l9 -5 q13 -8 39 -22 q49 27 134 90 l-458 0 l0 -199 l234 47 q-5 -46 0 -70 q-273 -56 -309 -78 l-33 67 q12 6 23 24 q11 18 11 43 l0 478 q-53 -31 -137 -60 l-30 72 q125 40 247.5 122 q122.5 82 184.5 175 l72 -34 q-3 -4 -10.5 -13.5 q-7.5 -9.5 -10.5 -13.5 q65 -69 182 -130.5 q117 -61.5 224 -88.5 l-29 -75 q-88 27 -153 59 l0 -314 q3 2 16 13 q13 11 18 15 l58 -45 q-24 -19 -82 -61 l-9 -6 q-33 -24 -82 -53 q12 -7 36 -23 l10 -6 q78 -50 134 -91 ZM300 585 l176 0 q-28 54 -42 72 l60 28 q38 -47 59 -100 l165 0 q-126 67 -217 161 q-95 -102 -201 -161 ZM302 445 l394 0 l0 76 l-394 0 l0 -76 ZM302 298 l394 0 l0 85 l-394 0 l0 -85 Z" /><glyph glyph-name="Identity.825" unicode="&#x9aa8;" d="M163 488 l0 -125 l-72 0 l0 194 l141 0 l0 251 l535 0 l0 -251 l142 0 l0 -194 l-75 0 l0 125 l-671 0 ZM562 557 l129 0 l0 186 l-388 0 l0 -53 l259 0 l0 -133 ZM303 557 l191 0 l0 77 l-191 0 l0 -77 ZM294 97 l0 -168 l-73 0 l0 505 l559 0 l0 -421 q0 -57 -39 -73 q-35 -11 -160 -11 l-5 66 q43 -1 109 -1 q20 1 20 21 l0 82 l-411 0 ZM294 295 l411 0 l0 73 l-411 0 l0 -73 ZM294 157 l411 0 l0 78 l-411 0 l0 -78 Z" /><glyph glyph-name="Identity.827" unicode="&#x9c7c;" d="M837 596 l0 -449 l-657 0 l0 393 q-35 -29 -64 -49 l-47 66 q89 58 166.5 140.5 q77.5 82.5 114.5 153.5 l79 -18 q-7 -10 -13 -25 l-4 -8 q-11 -22 -20 -32 l249 0 l2 7 l53 -35 q-44 -87 -96 -144 l237 0 ZM243 596 l266 0 q45 48 84 105 l-250 0 q-45 -56 -100 -105 ZM253 409 l213 0 l0 121 l-213 0 l0 -121 ZM536 409 l224 0 l0 121 l-224 0 l0 -121 ZM253 216 l213 0 l0 128 l-213 0 l0 -128 ZM536 216 l224 0 l0 128 l-224 0 l0 -128 ZM928 53 l0 -77 l-855 0 l0 77 l855 0 Z" /><glyph glyph-name="Identity.828" unicode="&#x9e1f;" d="M764 -65 q-48 -4 -137 2 l-1 71 q41 -5 104 -5 l6 0 q26 0 35 13 q33 26 54 308 l-629 0 l0 433 l213 0 q17 36 34 94 l90 -14 q-20 -46 -47 -80 l314 0 q-4 -23 -4 -32 q-16 -221 -50 -257 q-20 -23 -59 -26 q-29 -4 -96 1 l0 69 q39 -3 66 -3 q18 0 27 9 q21 22 36 168 l-448 0 l0 -290 l635 0 q-1 -27 -2 -35 q-23 -341 -68 -393 q-29 -30 -73 -33 ZM576 541 l-43 -55 q-130 77 -196 113 l37 48 q132 -67 202 -106 ZM715 208 l0 -71 l-653 0 l0 71 l653 0 Z" /><glyph glyph-name="Identity.834" unicode="&#x9f50;" d="M502 458 q-132 -68 -332 -110 l-10 -2 q-5 -1 -15.5 -3 q-10.5 -2 -15.5 -3 l-11 -2 q-5 -1 -15.5 -3 q-10.5 -2 -15.5 -3 l-20 75 q76 11 105 17 l11 2 q149 31 246 74 q-106 68 -175 182 l-179 0 l0 67 l411 0 q-16 29 -54 82 l75 21 q45 -58 64 -103 l352 0 l0 -67 l-179 0 q-64 -113 -168 -181 q158 -66 361 -83 l-17 -75 q-246 27 -418 115 ZM332 682 q73 -91 170 -142 q93 54 154 142 l-324 0 ZM356 244 q0 -91 -38 -178.5 q-38 -87.5 -131 -141.5 l-44 67 q133 73 133 256 l0 114 l80 0 l0 -117 ZM722 360 l0 -432 l-81 0 l0 432 l81 0 Z" /><glyph glyph-name="Identity.836" unicode="&#x9f7f;" d="M939 564 l0 -72 l-868 0 l0 72 l152 0 l0 236 l77 0 l0 -236 l169 0 l0 283 l76 0 l0 -101 l307 0 l0 -69 l-307 0 l0 -113 l394 0 ZM489 286 q-85 -147 -203 -212 l-40 59 q84 42 147 134 q63 92 88 205 l73 -13 q-18 -76 -34 -114 q17 -12 94 -73 l9 -7 l4 -4 l8 -7 q74 -60 133 -117 l-54 -53 q-135 135 -225 202 ZM875 462 l0 -495 l-741 0 l0 493 l80 0 l0 -419 l581 0 l0 421 l80 0 Z" /><glyph glyph-name="Identity.842" unicode="&#x4e00;" d="M948 454 l0 -88 l-892 0 l0 88 l892 0 Z" /><glyph glyph-name="Identity.848" unicode="&#x4e8c;" d="M848 712 l0 -86 l-695 0 l0 86 l695 0 ZM933 122 l0 -88 l-865 0 l0 88 l865 0 Z" /><glyph glyph-name="Identity.850" unicode="&#x4eba;" d="M500 499 q-17 -76 -46.5 -151.5 q-29.5 -75.5 -75.5 -155 q-46 -79.5 -115.5 -149.5 q-69.5 -70 -153.5 -115 l-45 72 q377 192 391 845 l88 0 q-3 -99 -7 -143 q4 -32 10 -66.5 q6 -34.5 21 -94 q15 -59.5 34.5 -114.5 q19.5 -55 52 -120 q32.5 -65 72 -118.5 q39.5 -53.5 96 -102 q56.5 -48.5 122.5 -77.5 l-41 -76 q-85 40 -156.5 110 q-71.5 70 -119 152.5 q-47.5 82.5 -78 156 q-30.5 73.5 -49.5 147.5 Z" /><glyph glyph-name="Identity.851" unicode="&#x513f;" d="M954 211 q-6 -145 -36.5 -208 q-30.5 -63 -108.5 -63 l-59 0 q-76 0 -105 31.5 q-29 31.5 -29 103.5 l0 735 l81 0 l0 -736 q0 -35 9.5 -46 q9.5 -11 49.5 -11 l52 0 q41 0 54 44.5 q13 44.5 15 160.5 l77 -11 ZM349 493 q0 -405 -253 -568 l-47 67 q220 141 220 501 l0 316 l80 0 l0 -316 Z" /><glyph glyph-name="Identity.852" unicode="&#x5165;" d="M515 508 q-56 -191 -157.5 -342.5 q-101.5 -151.5 -242.5 -234.5 l-51 75 q142 74 242.5 234 q100.5 160 147.5 366 q-69 98 -151 154 l49 67 q51 -37 93 -81.5 q42 -44.5 80 -105.5 q38 -61 58 -98 q20 -37 58 -114 l9 -17 q0 -2 2 -5 q2 -3 2 -4 l5 -9 l6 -13 q1 -2 2.5 -5 q1.5 -3 2.5 -4 l4 -9 q2 -5 6.5 -13 q4.5 -8 7.5 -13 l5 -9 q53 -101 113 -174.5 q60 -73.5 145 -124.5 q-9 -12 -22 -41.5 q-13 -29.5 -17 -46.5 q-84 47 -147 124 q-63 77 -119 182 l-4 9 l-5 9 q-10 19 -30 59 l-6 13 q-1 2 -2.5 5 q-1.5 3 -2.5 4 l-4 9 q-55 114 -77 154 Z" /><glyph glyph-name="Identity.853" unicode="&#x516b;" d="M956 -6 l-56 -64 q-57 100 -128 278 l-4 11 q-1 3 -3.5 9 q-2.5 6 -3.5 9 l-4 11 q-9 24 -27 70 l-4 12 q-2 5 -6 16.5 q-4 11.5 -6 17.5 l-5 12 q-24 69 -45 132 l-5 16 q-18 54 -35.5 109 q-17.5 55 -29.5 94.5 q-12 39.5 -14 45.5 l79 5 q66 -226 143 -434 l4 -12 q5 -13 14.5 -38.5 q9.5 -25.5 14.5 -37.5 l5 -11 q63 -158 116 -251 ZM400 749 q-7 -63 -10 -90 l-1 -10 q-6 -50 -10 -75 l-2 -10 q-2 -17 -11 -67 l-2 -10 q-76 -401 -263 -553 q-14 21 -56 60 q136 111 205 370 l3 10 q45 172 56 382 l91 -7 Z" /><glyph glyph-name="Identity.857" unicode="&#x51e0;" d="M345 494 q0 -68 -10.5 -139 q-10.5 -71 -34.5 -152.5 q-24 -81.5 -72.5 -155.5 q-48.5 -74 -115.5 -124 l-52 67 q61 44 103.5 108.5 q42.5 64.5 63 136 q20.5 71.5 29 134 q8.5 62.5 8.5 126.5 l0 299 l452 0 l0 -710 q0 -32 9 -42.5 q9 -10.5 45 -10.5 l47 0 q35 0 46.5 40.5 q11.5 40.5 13.5 144.5 l77 -12 q-6 -135 -34.5 -193 q-28.5 -58 -101.5 -58 l-55 0 q-72 0 -100 30.5 q-28 30.5 -28 100.5 l0 631 l-290 0 l0 -221 Z" /><glyph glyph-name="Identity.865" unicode="&#x5341;" d="M542 406 l0 -476 l-82 0 l0 476 l-392 0 l0 81 l392 0 l0 360 l82 0 l0 -360 l399 0 l0 -81 l-399 0 Z" /><glyph glyph-name="Identity.868" unicode="&#x5382;" d="M239 699 l0 -213 q0 -143 -27 -301 q-27 -158 -89 -252 l-70 46 q103 158 103 511 l0 292 l767 0 l0 -83 l-684 0 Z" /><glyph glyph-name="Identity.870" unicode="&#x53c8;" d="M502 171 q-88 -74 -196.5 -136.5 q-108.5 -62.5 -215.5 -98.5 l-31 79 q95 28 198 85 q103 57 187 125 q-150 159 -250 464 l-3 10 q-1 1 -1 2 q0 1 -0.5 1.5 q-0.5 0.5 -0.5 1.5 l-79 0 l0 76 l672 0 l10 5 l53 -25 q-40 -160 -116 -301.5 q-76 -141.5 -172 -233.5 q83 -71 185 -128 q102 -57 202 -82 l-29 -78 q-224 61 -413 234 ZM268 704 q91 -279 232 -424 q80 77 144.5 188 q64.5 111 102.5 236 l-479 0 Z" /><glyph glyph-name="Identity.871" unicode="&#x53e3;" d="M864 751 l0 -729 l-724 0 l0 729 l724 0 ZM220 102 l560 0 l0 568 l-560 0 l0 -568 Z" /><glyph glyph-name="Identity.874" unicode="&#x58eb;" d="M884 67 l0 -79 l-763 0 l0 79 l336 0 l0 397 l-393 0 l0 78 l393 0 l0 304 l80 0 l0 -304 l400 0 l0 -78 l-400 0 l0 -397 l347 0 Z" /><glyph glyph-name="Identity.878" unicode="&#x5927;" d="M499 438 q-18 -72 -48.5 -141 q-30.5 -69 -76.5 -140 q-46 -71 -115.5 -131.5 q-69.5 -60.5 -153.5 -98.5 l-41 74 q79 34 145 91 q66 57 110.5 125 q44.5 68 73 136 q28.5 68 43.5 138 l-362 0 l0 81 l374 0 q5 44 7.5 90 q2.5 46 3.5 111.5 q1 65.5 1 74.5 l85 0 q-2 -174 -16 -276 l401 0 l0 -81 l-369 0 q52 -162 153 -296.5 q101 -134.5 224 -184.5 l-43 -83 q-132 62 -234.5 201 q-102.5 139 -161.5 310 Z" /><glyph glyph-name="Identity.879" unicode="&#x5973;" d="M910 1 l-63 -72 q-143 102 -234 155 l-10 6 q-38 22 -71 38 q-165 -144 -442 -191 l-21 82 q114 18 215 58 q101 40 170 93 q-15 7 -44 20.5 q-29 13.5 -43 20.5 l-9 5 q-10 4 -14 6 l-9 4 q-4 2 -5 2 l-9 5 q-2 1 -7 3 q-5 2 -7 3 l-9 4 q-40 19 -109 46 q31 54 76 149 l7 14 q15 32 39 85 l-239 0 l0 81 l274 0 q20 48 48 141 q28 93 29 97 l80 -14 q-32 -113 -80 -224 l510 0 l0 -81 l-194 0 q-53 -242 -143 -348 q137 -66 314 -188 ZM306 323 q13 -4 28 -11 l9 -3 q8 -4 23 -10.5 q15 -6.5 22 -9.5 l9 -4 l9 -4 q1 -1 2.5 -1 q1.5 0 2.5 -1 l9 -4 q3 -2 9 -4 l9 -4 l9 -5 q2 0 4 -2 l14 -6 l8 -4 l9 -4 l9 -4 l9 -4 q2 -2 4 -2 l9 -4 q4 -2 5 -2 q83 90 137 307 l-264 0 q-8 -20 -11 -30 l-6 -15 q-1 -1 -1 -2 q-1 -2 -1 -3 l-4 -10 q0 -1 -2 -5 l-3 -9 q-36 -98 -57 -140 Z" /><glyph glyph-name="Identity.880" unicode="&#x5b50;" d="M493 -55 q-44 -15 -201 -15 l-7 81 q93 -3 154 0 q24 1 24 24 l0 303 l-400 0 l0 79 l400 0 l0 142 q119 55 239 149 l-540 0 l0 76 l622 0 l17 5 l59 -46 q-59 -58 -148 -121.5 q-89 -63.5 -169 -104.5 l0 -100 l399 0 l0 -79 l-399 0 l0 -304 q0 -75 -50 -89 Z" /><glyph glyph-name="Identity.883" unicode="&#x5c0f;" d="M496 -56 q-44 -16 -196 -14 l-7 82 q88 -3 143 0 q26 0 26 28 l0 795 l85 0 l0 -795 q0 -77 -51 -96 ZM964 172 l-84 -34 q-20 103 -106 290 l-5 10 q-37 80 -79 151 l74 30 q44 -70 93 -169 l5 -10 q83 -174 102 -268 ZM300 595 q-25 -115 -75 -242 q-50 -127 -110 -202 l-66 50 q55 65 100 185 q45 120 64 226 l87 -17 Z" /><glyph glyph-name="Identity.886" unicode="&#x5c71;" d="M881 652 l0 -660 l-761 0 l0 659 l81 0 l0 -579 l257 0 l0 765 l80 0 l0 -765 l261 0 l0 580 l82 0 Z" /><glyph glyph-name="Identity.888" unicode="&#x5de5;" d="M939 90 l0 -80 l-875 0 l0 80 l394 0 l0 569 l-342 0 l0 82 l772 0 l0 -82 l-351 0 l0 -569 l402 0 Z" /><glyph glyph-name="Identity.889" unicode="&#x5df1;" d="M945 199 q-6 -70 -20.5 -113 q-14.5 -43 -47.5 -75 q-33 -32 -89.5 -45.5 q-56.5 -13.5 -145.5 -13.5 l-178 0 q-173 0 -236 32.5 q-63 32.5 -63 113.5 l0 378 l571 -16 l0 254 l-584 0 l0 79 l665 0 l0 -410 l-572 0 l0 -285 q0 -27 14 -40 q14 -13 61 -20 q47 -7 142 -7 l180 0 q71 0 113 8.5 q42 8.5 65 33 q23 24.5 31 54 q8 29.5 13 85.5 l81 -13 Z" /><glyph glyph-name="Identity.891" unicode="&#x5e72;" d="M537 374 l0 -443 l-82 0 l0 443 l-389 0 l0 82 l389 0 l0 243 l-338 0 l0 81 l772 0 l0 -81 l-352 0 l0 -243 l398 0 l0 -82 l-398 0 Z" /><glyph glyph-name="Identity.892" unicode="&#x5e7f;" d="M237 420 q0 -130 -28.5 -274 q-28.5 -144 -93.5 -229 q-10 12 -32 32 q-22 20 -34 26 q59 78 82 201 q23 123 23 244 l0 282 l360 0 q-19 65 -47 129 l79 18 q37 -75 50 -135 l-33 -12 l365 0 l0 -76 l-691 0 l0 -206 Z" /><glyph glyph-name="Identity.900" unicode="&#x5fc3;" d="M664 599 l-57 -58 q-40 46 -157 141 l-8 7 q-66 51 -99 74 l52 53 q55 -37 126 -92 l8 -7 q96 -75 135 -118 ZM774 217 q-9 -149 -48 -208.5 q-39 -59.5 -147 -59.5 l-95 0 q-106 0 -142.5 30 q-36.5 30 -36.5 104 l0 499 l81 0 l0 -501 q0 -35 16 -46 q16 -11 85 -11 l90 0 q72 0 93.5 42 q21.5 42 26.5 163 l77 -12 ZM954 152 l-78 -30 q-12 63 -46 166 l-4 10 q-5 18 -14 41 l-4 10 q0 2 -1 5.5 q-1 3.5 -2 5.5 l-4 10 q-25 67 -56 135 l73 29 q20 -40 48 -110 l4 -10 q1 -2 2.5 -5 q1.5 -3 1.5 -5 l4 -10 l6 -15 l4 -11 q49 -130 66 -216 ZM226 494 q-8 -56 -27 -159 l-3 -10 q-30 -152 -61 -232 l-78 33 q28 66 54 180 q26 114 37 203 l78 -15 Z" /><glyph glyph-name="Identity.901" unicode="&#x6208;" d="M943 173 q-14 -129 -48.5 -185.5 q-34.5 -56.5 -97.5 -56.5 q-77 0 -148 57 q-71 57 -126 148 q-208 -139 -381 -198 l-33 81 q106 33 232 100 l9 5 q69 38 134 81 q-41 92 -72 227 l-2 10 q-3 10 -7 30 l-2 10 q-1 9 -4.5 26 q-3.5 17 -5.5 25 l-315 -29 l-8 79 l310 23 q-16 120 -18 238 l88 0 q0 -37 1 -55 l0 -10 l0 -5 l0 -11 l0 -5 l1 -10 q2 -75 10 -132 l466 39 l7 -77 l-463 -40 q30 -165 83 -281 q127 99 231 267 l76 -37 q-116 -185 -269 -300 q101 -171 207 -171 q54 0 66 173 l79 -16 ZM810 720 l-52 -60 q-12 8 -111 70 l-10 6 q-14 8 -80 47 l52 53 q131 -72 201 -116 Z" /><glyph glyph-name="Identity.902" unicode="&#x6237;" d="M257 345 q-9 -107 -45.5 -227 q-36.5 -120 -98.5 -195 q-8 9 -31.5 26 q-23.5 17 -36.5 23 q52 63 84.5 164 q32.5 101 42 184 q9.5 83 9.5 167 l0 213 l314 0 q-5 18 -28 72 l-5 9 q-4 8 -11.5 25 q-7.5 17 -11.5 26 l76 21 q36 -71 58 -136 l-45 -17 l306 0 l0 -355 l-577 0 ZM259 419 l495 0 l0 207 l-492 0 l0 -142 q0 -16 -3 -65 Z" /><glyph glyph-name="Identity.903" unicode="&#x624b;" d="M488 -53 q-49 -15 -211 -14 l-7 79 q27 -1 84 -1 l11 0 q57 0 68 1 q30 0 30 29 l0 225 l-402 0 l0 78 l402 0 l0 156 l-334 0 l0 76 l334 0 l0 142 q-63 -6 -132 -12 l-10 -1 l-5 0 l-10 -1 l-10 -1 q-4 0 -10.5 -0.5 q-6.5 -0.5 -9.5 -0.5 l-10 -1 q-40 -3 -124 -7 l-7 71 q51 3 108 6 l11 1 q4 0 13 1 q9 1 14 1 l11 1 q20 2 32 2 l11 1 q16 2 23 2 l11 1 q291 27 414 66 l60 -63 q-99 -30 -256 -52 l-10 -2 q-7 -1 -19 -2.5 q-12 -1.5 -18 -1.5 l0 -150 l344 0 l0 -76 l-344 0 l0 -156 l400 0 l0 -78 l-400 0 l0 -227 q0 -75 -52 -92 Z" /><glyph glyph-name="Identity.904" unicode="&#x652f;" d="M501 79 q-203 -113 -421 -152 l-21 80 q84 13 184 45 l10 3 q8 3 24.5 8.5 q16.5 5.5 24.5 8.5 l9 4 q72 27 121 52 q-124 92 -210 266 l15 11 l-102 0 l0 75 l323 0 l0 144 l-368 0 l0 78 l368 0 l0 146 l78 0 l0 -146 l372 0 l0 -78 l-372 0 l0 -144 l224 0 l12 5 l55 -35 q-41 -97 -107.5 -183 q-66.5 -86 -145.5 -139 q176 -92 364 -115 l-21 -81 q-234 36 -416 147 ZM302 405 q79 -154 202 -233 q125 78 210 233 l-412 0 Z" /><glyph glyph-name="Identity.906" unicode="&#x6587;" d="M63 603 l0 77 l430 0 q-4 9 -37 80 l-5 9 l-30 60 l82 24 q52 -97 77 -152 l-67 -21 l429 0 l0 -77 l-161 0 q-87 -243 -220 -385 q82 -69 183.5 -126 q101.5 -57 197.5 -80 l-29 -80 q-116 33 -223.5 95 q-107.5 62 -190.5 137 q-189 -165 -411 -236 l-30 80 q103 29 205.5 86 q102.5 57 183.5 124 q-103 106 -185 286 l-5 9 q-13 30 -37 90 l-157 0 ZM299 603 q96 -225 201 -329 q120 122 195 329 l-396 0 Z" /><glyph glyph-name="Identity.909" unicode="&#x65b9;" d="M400 380 q-12 -67 -33 -128.5 q-21 -61.5 -55 -124.5 q-34 -63 -86 -116.5 q-52 -53.5 -117 -87.5 l-43 71 q66 33 117 88 q51 55 81 115 q30 60 49.5 136 q19.5 76 27.5 138.5 q8 62.5 11 134.5 l-271 0 l0 74 l425 0 q-19 57 -67 143 l74 31 q47 -80 72 -147 l-72 -27 l410 0 l0 -74 l-498 0 q-1 -16 -1 -49 l0 -10 q2 -57 -3 -91 l405 0 q-1 -28 -3 -38 q-25 -387 -78 -440 q-32 -34 -86 -38 q-47 -3 -172 4 l-3 77 q5 0 11.5 -0.5 q6.5 -0.5 15 -1.5 q8.5 -1 12.5 -1 l12 0 q60 -3 97 -3 q28 0 43 11 q41 36 65 354 l-340 0 Z" /><glyph glyph-name="Identity.910" unicode="&#x65e0;" d="M490 421 q-12 -57 -31.5 -111.5 q-19.5 -54.5 -52.5 -112.5 q-33 -58 -75.5 -107 q-42.5 -49 -102.5 -92.5 q-60 -43.5 -132 -72.5 l-35 73 q144 55 232 171.5 q88 116.5 122 251.5 l-351 0 l0 77 l363 0 q12 71 18 209 l-318 0 l0 77 l754 0 l0 -77 l-361 0 q0 -9 -2 -55 q-2 -46 -4 -71 l-1 -10 q-1 -35 -8 -73 l433 0 l0 -77 l-349 0 l0 -345 q0 -27 14.5 -35.5 q14.5 -8.5 77.5 -8.5 l86 0 q63 0 81.5 31.5 q18.5 31.5 22.5 124.5 l77 -12 q-8 -124 -44.5 -173 q-36.5 -49 -134.5 -49 l-92 0 q-101 0 -135 28 q-34 28 -34 94 l0 345 l-18 0 Z" /><glyph glyph-name="Identity.911" unicode="&#x65e5;" d="M820 784 l0 -791 l-631 0 l0 791 l631 0 ZM269 445 l469 0 l0 259 l-469 0 l0 -259 ZM269 71 l469 0 l0 299 l-469 0 l0 -299 Z" /><glyph glyph-name="Identity.913" unicode="&#x6708;" d="M273 250 q-19 -88 -64 -178 q-45 -90 -108 -145 q-15 25 -58 59 q69 60 110.5 159 q41.5 99 53 181.5 q11.5 82.5 11.5 171.5 l0 301 l591 0 l0 -754 q0 -79 -53 -96 q-45 -15 -216 -15 l-7 82 q36 -1 109 -1 l10 0 l47 0 q28 1 28 31 l0 204 l-454 0 ZM295 565 l432 0 l0 154 l-432 0 l0 -154 ZM288 326 l439 0 l0 165 l-432 0 l0 -9 q0 -104 -7 -156 Z" /><glyph glyph-name="Identity.915" unicode="&#x6b20;" d="M915 673 q-60 -182 -137 -296 l-58 32 q6 14 23.5 53.5 q17.5 39.5 27.5 62.5 l4 9 q22 51 33 82 l-523 0 q-57 -131 -143 -227 l-66 56 q64 65 122.5 179.5 q58.5 114.5 88.5 231.5 l83 -19 q-25 -88 -51 -148 l523 0 l13 7 l60 -23 ZM505 305 q-37 -107 -137 -211.5 q-100 -104.5 -271 -169.5 l-33 71 q99 37 173.5 91 q74.5 54 115 106.5 q40.5 52.5 64.5 115 q24 62.5 31 107.5 q7 45 7 93 l0 62 l82 0 l0 -64 q0 -38 -3 -74 q46 -163 147 -279.5 q101 -116.5 252 -150.5 l-27 -78 q-141 39 -243 141 q-102 102 -158 240 Z" /><glyph glyph-name="Identity.916" unicode="&#x6b62;" d="M936 60 l0 -78 l-875 0 l0 78 l139 0 l0 578 l80 0 l0 -578 l215 0 l0 786 l80 0 l0 -321 l316 0 l0 -79 l-316 0 l0 -386 l361 0 Z" /><glyph glyph-name="Identity.919" unicode="&#x6bcb;" d="M446 159 q-100 -161 -280 -237 l-37 72 q125 40 227 165 l-165 0 l0 1 l-53 0 q11 53 31 167 l2 10 l1 11 q1 2 1 5 l3 16 q0 1 0 3 l1 2 l2 11 l1 10 q1 6 3 16.5 q2 10.5 3.5 19 q1.5 8.5 2.5 15.5 l-123 0 l0 74 l136 0 q1 10 4 30.5 q3 20.5 5 30.5 l1 10 q0 3 0.5 8 q0.5 5 1.5 8 l2 10 q4 30 11 93.5 q7 63.5 11 92.5 l599 0 q0 -36 -1 -45 l0 -6 l-1 -11 q-2 -45 -7 -120.5 q-5 -75.5 -6 -100.5 l114 0 l0 -74 l-118 0 q-5 -76 -17 -214 l108 0 l0 -73 l-116 0 q-18 -143 -45 -178 q-30 -43 -83 -48 q-46 -6 -154 3 l-1 70 q78 -5 124 -5 q25 0 41 19 q22 25 40 139 l-269 0 ZM552 520 l195 0 q10 201 10 208 l-191 0 q-5 -128 -14 -208 ZM279 520 l200 0 q10 88 13 208 l-185 0 q-3 -23 -9 -73 l-1 -10 l-6 -45 l-2 -10 q-2 -13 -5.5 -36 q-3.5 -23 -4.5 -34 ZM226 232 l176 0 q42 82 65 214 l-200 0 q-4 -20 -5 -30 l-2 -11 q0 -3 -1 -5 l-2 -15 l-2 -16 l-2 -10 q-15 -87 -27 -127 ZM485 232 l241 0 q7 65 18 214 l-202 0 q-25 -146 -57 -214 Z" /><glyph glyph-name="Identity.920" unicode="&#x6bd4;" d="M930 249 q-7 -158 -42 -225.5 q-35 -67.5 -129 -67.5 l-75 0 q-91 0 -122.5 34 q-31.5 34 -31.5 115 l0 740 l82 0 l0 -366 q132 89 238 195 l65 -69 q-119 -104 -303 -207 l0 -296 q0 -43 11.5 -55.5 q11.5 -12.5 65.5 -12.5 l68 0 q56 0 73.5 48.5 q17.5 48.5 22.5 178.5 l77 -12 ZM463 66 q-279 -91 -318 -125 l-47 64 q16 10 30 32.5 q14 22.5 14 49.5 l0 752 l81 0 l0 -288 l239 0 l0 -78 l-239 0 l0 -406 l234 79 q-2 -47 6 -80 Z" /><glyph glyph-name="Identity.921" unicode="&#x6bdb;" d="M951 151 q-10 -110 -54 -156.5 q-44 -46.5 -160 -46.5 l-122 0 q-125 0 -170 33.5 q-45 33.5 -45 113.5 l0 135 l-317 -44 l-12 75 l329 43 l0 153 l-285 -42 l-12 75 l297 39 l0 145 q-48 -10 -156 -28 l-10 -1 l-2 -1 q-2 0 -3 0 l-10 -2 l-5 0 l-10 -2 q-27 -4 -96 -13 q-4 33 -23 69 q39 5 121 17 l10 2 l11 2 q8 1 22.5 3.5 q14.5 2.5 20.5 3.5 l11 2 q1 0 3 0.5 q2 0.5 3 0.5 l11 2 l10 2 l33 6 l11 2 q3 1 10 2.5 q7 1.5 11 1.5 l11 2 q2 1 7.5 2 q5.5 1 8.5 1 l11 3 l57 12 l10 2 q170 38 269 78 l66 -62 q-133 -53 -335 -94 l0 -144 l368 53 l11 -75 l-379 -54 l0 -151 l436 59 l11 -74 l-447 -61 l0 -147 q0 -39 25 -53 q25 -14 114 -14 l119 0 q81 0 105 29.5 q24 29.5 29 108.5 l81 -13 Z" /><glyph glyph-name="Identity.923" unicode="&#x6c14;" d="M275 672 q-68 -132 -168 -236 l-60 57 q64 59 126.5 158.5 q62.5 99.5 94.5 198.5 l78 -21 q-17 -46 -38 -90 l607 0 l0 -67 l-640 0 ZM841 609 l0 -68 l-576 0 l0 68 l576 0 ZM951 121 q-9 -191 -86 -191 q-156 0 -180 470 l-520 0 l0 70 l596 0 q0 -20 2 -58 l1 -13 q9 -166 34.5 -278.5 q25.5 -112.5 69.5 -112.5 q24 0 26 126 l57 -13 Z" /><glyph glyph-name="Identity.924" unicode="&#x6c34;" d="M502 -54 q-39 -18 -161 -18 l-6 87 q35 -1 99 -1 l7 0 q11 1 15 6 q4 5 4 18 l0 808 l83 0 l0 -235 q9 -21 18 -45 l3 -9 q29 -73 47 -103 q117 110 190 218 l71 -52 q-34 -40 -89 -96 l-7 -8 l-8 -7 q-5 -6 -15 -16 l-7 -7 q-67 -65 -95 -88 q62 -90 145.5 -170 q83.5 -80 158.5 -115 l-45 -78 q-106 56 -203.5 175 q-97.5 119 -163.5 256 l0 -428 q0 -74 -41 -92 ZM413 586 q-36 -181 -119 -333 q-83 -152 -185 -224 l-51 68 q85 55 160.5 174 q75.5 119 108.5 254 l-243 0 l0 80 l272 0 l9 1 l48 -20 Z" /><glyph glyph-name="Identity.925" unicode="&#x706b;" d="M491 342 q-41 -135 -135.5 -247.5 q-94.5 -112.5 -248.5 -170.5 l-34 73 q89 32 155.5 85 q66.5 53 106.5 113 q40 60 66 139.5 q26 79.5 36.5 152 q10.5 72.5 15.5 162.5 l0 10 q1 6 1 17.5 q0 11.5 1 17.5 l0 10 l0 10 l0 10 q0 2 0.5 5.5 q0.5 3.5 0.5 4.5 l0 10 l0 20 l0 15 l0 5 l1 10 l0 5 l0 10 l0 10 l0 19 l86 0 l0 -53 l0 -10 q-1 -12 -1 -35.5 q0 -23.5 -1 -35.5 l0 -11 q-1 -6 -1 -20 q0 -14 -1 -20 l0 -11 l-1 -10 q-6 -105 -15 -164 l2 0 q43 -171 150.5 -296 q107.5 -125 261.5 -161 l-28 -80 q-155 43 -258.5 151 q-103.5 108 -159.5 260 ZM302 633 q-20 -80 -55.5 -164 q-35.5 -84 -76.5 -131 l-74 38 q41 45 75.5 126.5 q34.5 81.5 52.5 156.5 l78 -26 ZM899 622 q-38 -81 -64 -128 l-5 -10 q-48 -92 -82 -142 l-58 29 q8 17 32 67 q24 50 37 78 l4 10 q33 71 54 130 l82 -34 Z" /><glyph glyph-name="Identity.930" unicode="&#x7247;" d="M259 286 q-13 -97 -50.5 -195 q-37.5 -98 -96.5 -164 q-8 12 -28.5 32.5 q-20.5 20.5 -33.5 30.5 q142 158 142 509 l0 324 l82 0 l0 -224 l263 0 l0 248 l83 0 l0 -248 l271 0 l0 -79 l-617 0 l0 -25 q0 -8 -0.5 -26.5 q-0.5 -18.5 -0.5 -28.5 l0 -10 q-2 -44 -3 -63 l468 0 l0 -437 l-84 0 l0 356 l-395 0 Z" /><glyph glyph-name="Identity.932" unicode="&#x725b;" d="M550 289 l0 -359 l-78 0 l0 359 l-407 0 l0 79 l407 0 l0 228 l-231 0 q-42 -86 -105 -166 l-65 52 q51 55 99.5 151 q48.5 96 73.5 190 l80 -17 q-17 -64 -49 -133 l197 0 l0 176 l78 0 l0 -176 l332 0 l0 -77 l-332 0 l0 -228 l389 0 l0 -79 l-389 0 Z" /><glyph glyph-name="Identity.936" unicode="&#x74dc;" d="M266 691 l0 -134 q0 -97 -11.5 -200.5 q-11.5 -103.5 -48 -227.5 q-36.5 -124 -93.5 -200 q-30 32 -63 50 q53 73 86 186.5 q33 113.5 42.5 206 q9.5 92.5 9.5 185.5 l0 198 l1 0 q37 3 131 11 l10 1 q10 1 28 3 l16 2 l11 1 q7 1 19.5 2.5 q12.5 1.5 18.5 2.5 l11 1 l11 1 l11 2 l5 0 l11 2 l11 1 q3 0 5 1 l11 1 q197 26 286 48 l63 -62 q-53 -13 -85 -18 q4 -67 7 -104 l1 -12 l1 -11 q46 -493 187 -637 l-63 -62 q-122 136 -174 526 l-2 11 q-1 8 -2.5 23 q-1.5 15 -2.5 23 l-1 11 q-4 34 -6 52 l-1 11 q0 8 -1 12 l-1 11 q0 3 -0.5 9 q-0.5 6 -0.5 9 l-1 11 q-1 4 -1 12 l-1 12 q0 2 -0.5 5.5 q-0.5 3.5 -0.5 5.5 l-1 12 q0 12 -1 17 l-1 12 l0 12 l-1 11 l0 6 q-13 -2 -47.5 -7.5 q-34.5 -5.5 -54.5 -8.5 l-10 -1 l-10 -1 q-2 -1 -5 -1 q-3 0 -5 -1 l-10 -1 l-10 -1 q-1 -1 -5 -1 l-10 -1 q-2 -1 -5 -1.5 q-3 -0.5 -5 -0.5 l0 -149 q0 -326 -92 -493 l186 43 q-7 18 -27 74.5 q-20 56.5 -31 80.5 l64 21 q39 -81 95 -248 l3 -9 q13 -39 21 -66 l-69 -27 q-17 72 -31 112 q-233 -52 -274 -77 q-9 20 -50 69 q44 50 71.5 114 q27.5 64 38 140.5 q10.5 76.5 13.5 128 q3 51.5 3 127.5 l0 151 q-124 -14 -174 -18 Z" /><glyph glyph-name="Identity.939" unicode="&#x751f;" d="M936 40 l0 -77 l-869 0 l0 77 l395 0 l0 258 l-286 0 l0 77 l286 0 l0 210 l-222 0 q-50 -96 -104 -164 l-66 55 q53 57 103.5 156.5 q50.5 99.5 77.5 199.5 l80 -18 q-25 -84 -55 -152 l186 0 l0 186 l78 0 l0 -186 l349 0 l0 -77 l-349 0 l0 -210 l312 0 l0 -77 l-312 0 l0 -258 l396 0 Z" /><glyph glyph-name="Identity.940" unicode="&#x7528;" d="M230 245 q-12 -89 -44 -178 q-32 -89 -81 -144 q-7 11 -28.5 29 q-21.5 18 -33.5 24 q122 136 122 450 l0 356 l710 0 l0 -746 q0 -69 -47 -88 q-39 -15 -198 -12 l-5 76 q27 -1 147 -1 q25 1 25 27 l0 207 l-255 0 l0 -307 l-75 0 l0 307 l-237 0 ZM542 556 l255 0 l0 148 l-255 0 l0 -148 ZM242 556 l225 0 l0 148 l-225 0 l0 -148 ZM240 320 l227 0 l0 162 l-225 0 l0 -56 q0 -84 -2 -106 ZM542 320 l255 0 l0 162 l-255 0 l0 -162 Z" /><glyph glyph-name="Identity.945" unicode="&#x767d;" d="M846 695 l0 -708 l-690 0 l0 708 l237 0 q27 63 51 157 l96 -20 q-24 -64 -64 -137 l370 0 ZM234 396 l530 0 l0 222 l-530 0 l0 -222 ZM234 65 l530 0 l0 256 l-530 0 l0 -256 Z" /><glyph glyph-name="Identity.948" unicode="&#x76ee;" d="M825 789 l0 -800 l-655 0 l0 800 l655 0 ZM247 562 l497 0 l0 149 l-497 0 l0 -149 ZM247 326 l497 0 l0 160 l-497 0 l0 -160 ZM247 67 l497 0 l0 184 l-497 0 l0 -184 Z" /><glyph glyph-name="Identity.950" unicode="&#x77e2;" d="M503 295 q-16 -51 -46 -100 q-30 -49 -78 -100 q-48 -51 -122.5 -95.5 q-74.5 -44.5 -166.5 -74.5 l-30 72 q117 37 201.5 101 q84.5 64 125 127.5 q40.5 63.5 55.5 130.5 l-373 0 l0 78 l384 0 q0 22 -1 33 l0 10 q0 3 -0.5 9 q-0.5 6 -0.5 10 l0 154 l-184 0 q-53 -106 -122 -183 l-65 55 q53 53 105 145.5 q52 92.5 79 184.5 l82 -19 q-23 -69 -42 -107 l556 0 l0 -76 l-328 0 l0 -156 q0 -11 -2.5 -31 q-2.5 -20 -2.5 -29 l405 0 l0 -78 l-376 0 q45 -130 147 -225 q102 -95 236 -124 l-28 -80 q-147 41 -251 138 q-104 97 -157 230 Z" /><glyph glyph-name="Identity.952" unicode="&#x793a;" d="M841 777 l0 -79 l-680 0 l0 79 l680 0 ZM496 -55 q-38 -14 -183 -14 l-7 82 q14 0 42 -0.5 q28 -0.5 40 -0.5 l10 0 q33 0 40 1 q12 0 17 4.5 q5 4.5 5 16.5 l0 431 l-388 0 l0 79 l857 0 l0 -79 l-386 0 l0 -433 q0 -71 -47 -87 ZM324 352 q-33 -87 -92.5 -182 q-59.5 -95 -117.5 -150 l-60 59 q51 43 106 128.5 q55 85.5 87 166.5 l77 -22 ZM920 59 l-76 -34 q-20 59 -73 155.5 q-53 96.5 -103 162.5 l72 30 q50 -64 104.5 -159.5 q54.5 -95.5 75.5 -154.5 Z" /><glyph glyph-name="Identity.956" unicode="&#x7acb;" d="M557 694 l-81 -22 q-16 55 -48 159 l76 21 q33 -94 53 -158 ZM894 668 l0 -79 l-785 0 l0 79 l785 0 ZM935 54 l0 -80 l-869 0 l0 80 l474 0 q34 78 71 223 l3 11 l3 10 q2 7 5 19 q3 12 4 19 l3 10 q22 91 46 199 l89 -19 q-7 -23 -21 -74 q-14 -51 -20 -74 l-3 -10 q-3 -13 -8 -31 l-3 -11 l-5 -15 l-4 -16 l-3 -11 q-45 -155 -75 -230 l313 0 ZM416 117 l-75 -20 q-20 102 -42 196 l-2 11 q-4 14 -5 22 l-3 10 l-3 16 q-8 34 -21.5 93 q-13.5 59 -18.5 80 l80 20 q5 -21 15.5 -69 q10.5 -48 15.5 -73 l2 -11 q2 -7 4.5 -19 q2.5 -12 3.5 -18 l2 -10 q1 -3 2.5 -8.5 q1.5 -5.5 1.5 -7.5 l2 -11 l2 -11 q15 -70 32 -155 l1 -8 q3 -15 6 -27 Z" /><glyph glyph-name="Identity.961" unicode="&#x7f51;" d="M180 717 l0 -786 l-79 0 l0 860 l801 0 l0 -757 q0 -69 -47 -88 q-42 -16 -189 -14 l-5 79 q56 -2 91 -2 l11 0 l36 0 q24 1 24 25 l0 683 l-643 0 ZM382 305 q-75 -179 -140 -247 l-55 51 q89 86 154 263 q-74 107 -137 183 l50 44 q55 -64 116 -149 q8 28 13.5 62.5 q5.5 34.5 10.5 78 q5 43.5 9 66.5 l74 -7 q-8 -46 -12 -70 l-2 -10 l-2 -15 q-2 -8 -4 -20 l-2 -10 q-18 -92 -35 -145 q21 -29 90 -155 l-52 -50 q-40 74 -76 130 ZM651 300 q-12 -29 -26 -61 l-4 -9 q-56 -122 -112 -180 l-55 51 q80 71 152 270 q-15 23 -39 58 l-5 8 l-6 9 q-7 8 -11 17 l-6 8 q-23 34 -60 84 l52 40 q24 -29 49 -66 l6 -9 q2 -2 6 -8 l9 -13 q11 -17 33 -49 q15 58 39 205 l70 -8 q-3 -27 -9 -56 l-2 -10 q0 -4 -1 -5 l-1 -11 q-24 -120 -46 -187 q70 -106 105 -191 l-56 -43 q-18 42 -63 123 l-5 9 q-1 1 -2 2.5 q-1 1.5 -1 2.5 l-5 9 q-4 6 -6 10 Z" /><glyph glyph-name="Identity.965" unicode="&#x800c;" d="M197 512 l0 -583 l-80 0 l0 657 l294 0 q4 14 31 134 l-376 0 l0 78 l873 0 l0 -78 l-407 0 q-2 -10 -4 -15 l-2 -10 q0 -1 -1 -2.5 q-1 -1.5 -1 -2.5 l-3 -10 q-15 -52 -31 -94 l397 0 l0 -557 q0 -64 -40 -80 q-34 -14 -164 -14 l-6 74 l113 0 q18 1 18 21 l0 482 l-161 0 l0 -548 l-71 0 l0 548 l-158 0 l0 -548 l-77 0 l0 548 l-144 0 Z" /><glyph glyph-name="Identity.971" unicode="&#x81ea;" d="M841 718 l0 -746 l-666 0 l0 746 l244 0 q20 61 34 131 l90 -13 q-23 -67 -49 -118 l347 0 ZM252 504 l509 0 l0 138 l-509 0 l0 -138 ZM252 288 l509 0 l0 140 l-509 0 l0 -140 ZM252 48 l509 0 l0 164 l-509 0 l0 -164 Z" /><glyph glyph-name="Identity.972" unicode="&#x81f3;" d="M899 455 l-68 -48 q-30 38 -65 73 q-365 -17 -472.5 -25 q-107.5 -8 -133.5 -17 l-21 80 q22 3 64 45 q24 20 68.5 66 q44.5 46 79.5 92 l-262 0 l0 74 l815 0 l0 -74 l-462 0 q-5 -8 -15.5 -21.5 q-10.5 -13.5 -12.5 -15.5 l-6 -8 q-71 -90 -139 -152 l435 18 q-67 60 -123 104 l61 41 q69 -52 145.5 -120 q76.5 -68 111.5 -112 ZM936 46 l0 -76 l-869 0 l0 76 l394 0 l0 187 l-306 0 l0 74 l306 0 l0 132 l75 0 l0 -132 l316 0 l0 -74 l-316 0 l0 -187 l400 0 Z" /><glyph glyph-name="Identity.978" unicode="&#x8272;" d="M952 166 q-7 -62 -20.5 -99.5 q-13.5 -37.5 -45.5 -66.5 q-32 -29 -87 -41 q-55 -12 -141 -12 l-185 0 q-118 0 -181.5 16 q-63.5 16 -86 47 q-22.5 31 -22.5 88 l0 428 q-25 -24 -87 -67 l-45 71 q90 54 178 143 q88 89 134 179 l72 -27 q-11 -20 -39 -62 l240 0 l15 7 l52 -38 q-69 -102 -120 -151 l266 0 l0 -328 l-592 0 l0 -156 q0 -30 14 -45 q14 -15 61.5 -23.5 q47.5 -8.5 142.5 -8.5 l183 0 q69 0 110 8 q41 8 63.5 29.5 q22.5 21.5 30.5 47.5 q8 26 12 74 l78 -13 ZM243 581 l250 0 q55 52 101 115 l-245 0 q-37 -52 -106 -115 ZM257 328 l216 0 l0 180 l-216 0 l0 -180 ZM546 328 l225 0 l0 180 l-225 0 l0 -180 Z" /><glyph glyph-name="Identity.981" unicode="&#x866b;" d="M941 -43 l-78 -37 q-22 46 -39 75 l-5 10 q-1 3 -4.5 9 q-3.5 6 -5.5 9 q-2 0 -5.5 -0.5 q-3.5 -0.5 -4.5 -0.5 l-11 0 q-29 -2 -89 -6 l-11 -1 q-2 0 -7.5 -0.5 q-5.5 -0.5 -8.5 -0.5 l-10 -1 q-4 0 -11.5 -0.5 q-7.5 -0.5 -10.5 -0.5 l-16 -1 l-11 -1 l-16 -1 l-5 0 l-27 -2 l-11 -1 l-11 0 q-50 -4 -74 -5 l-11 -1 l-11 -1 q-15 -1 -44 -2.5 q-29 -1.5 -44 -2.5 l-10 -1 q-61 -4 -161.5 -10.5 q-100.5 -6.5 -113.5 -7.5 l-11 85 q27 1 116.5 5.5 q89.5 4.5 144.5 6.5 l11 1 l6 0 l16 1 l10 0 q5 0 14 1 q9 1 13 1 l11 0 l48 3 l0 229 l-313 0 l0 388 l313 0 l0 154 l79 0 l0 -154 l316 0 l0 -388 l-316 0 l0 -225 q11 1 33.5 2 q22.5 1 33.5 1 l10 1 l10 0 l10 1 l10 0 l10 1 l10 0 l5 1 l10 0 q6 0 10 1 l9 0 q2 0 7 0.5 q5 0.5 8 0.5 l10 0 q4 1 12.5 1.5 q8.5 0.5 12.5 0.5 l9 0 q7 0 10 1 q-57 80 -95 124 l73 32 q52 -59 113.5 -149 q61.5 -90 87.5 -145 ZM532 387 l233 0 l0 230 l-233 0 l0 -230 ZM218 387 l235 0 l0 230 l-235 0 l0 -230 Z" /><glyph glyph-name="Identity.988" unicode="&#x8a00;" d="M938 703 l0 -68 l-871 0 l0 68 l434 0 q-32 56 -88 121 l73 25 q71 -73 96 -131 l-32 -15 l388 0 ZM791 563 l0 -67 l-580 0 l0 67 l580 0 ZM791 415 l0 -67 l-580 0 l0 67 l580 0 ZM802 258 l0 -295 l-600 0 l0 295 l600 0 ZM279 31 l444 0 l0 157 l-444 0 l0 -157 Z" /><glyph glyph-name="Identity.989" unicode="&#x8c37;" d="M911 606 l-67 -51 q-31 29 -144 130 l-8 7 q-58 52 -110 96 l54 44 q120 -97 124 -100 l9 -7 q5 -5 13 -10 l8 -7 q97 -81 121 -102 ZM415 793 q-50 -64 -123.5 -132 q-73.5 -68 -141.5 -112 l-48 66 q61 35 132 94.5 q71 59.5 112 114.5 l69 -31 ZM774 312 l0 -352 l-544 0 l0 361 q-84 -54 -136 -75 l-34 82 q124 39 248 141 q124 102 187 209 l65 -42 q-1 -2 -3.5 -5.5 q-2.5 -3.5 -3.5 -5.5 l-5 -9 q-6 -8 -8 -11 q66 -82 184.5 -163.5 q118.5 -81.5 218.5 -112.5 l-38 -83 q-73 29 -131 66 ZM269 342 l458 0 q-130 85 -231 210 q-106 -130 -227 -210 ZM311 32 l384 0 l0 239 l-384 0 l0 -239 Z" /><glyph glyph-name="Identity.995" unicode="&#x8d70;" d="M255 164 q-64 -169 -153 -241 l-51 59 q74 58 121.5 182.5 q47.5 124.5 58.5 243.5 l83 -11 q-4 -26 -11 -61 l-2 -11 q-6 -34 -14 -68 q63 -151 173 -197 l0 400 l-385 0 l0 76 l385 0 l0 126 l-299 0 l0 74 l299 0 l0 110 l75 0 l0 -110 l315 0 l0 -74 l-315 0 l0 -126 l389 0 l0 -76 l-389 0 l0 -151 l323 0 l0 -73 l-323 0 l0 -199 q82 -17 175 -17 q25 -1 117 -0.5 q92 0.5 124 1.5 q-20 -34 -29 -79 l-216 0 q-324 0 -451 222 Z" /><glyph glyph-name="Identity.996" unicode="&#x8db3;" d="M264 164 q-63 -167 -152 -236 q-33 39 -57 54 q76 59 123.5 180 q47.5 121 58.5 237 l84 -11 q-14 -90 -24 -128 q60 -159 172 -202 l0 408 l-290 0 l0 337 l663 0 l0 -337 l-300 0 l0 -149 l327 0 l0 -74 l-327 0 l0 -207 q82 -16 164 -16 l33 0 l4 0 l10 0 q170 0 199 1 q-20 -34 -29 -77 l-221 0 q-318 0 -438 220 ZM256 543 l506 0 l0 181 l-506 0 l0 -181 Z" /><glyph glyph-name="Identity.997" unicode="&#x8eab;" d="M689 229 q-78 -61 -171 -117 l-8 -5 q-12 -7 -13 -8 l-9 -5 l-8 -5 q-49 -28 -107 -57 l-10 -4 q-22 -12 -41 -20 l-9 -5 q-90 -41 -176 -71 l-10 -3 q-22 -8 -34 -12 l-28 73 q127 32 282 105 l9 5 q10 4 28 14 l9 4 q117 61 202 119 l-504 0 l0 69 l132 0 l0 448 l197 0 q23 50 37 96 l88 -16 q-39 -70 -46 -80 l264 0 l0 -366 q60 70 96 123 l68 -33 q-73 -104 -164 -186 l0 -250 q0 -76 -48 -93 q-48 -15 -205 -15 l-5 80 q20 0 30 -1 l12 0 l63 0 l10 0 l42 0 q27 3 27 29 l0 187 ZM297 607 l392 0 l0 77 l-392 0 l0 -77 ZM297 461 l392 0 l0 84 l-392 0 l0 -84 ZM297 306 l376 0 l16 13 l0 80 l-392 0 l0 -93 Z" /><glyph glyph-name="Identity.999" unicode="&#x8f9b;" d="M535 174 l0 -245 l-76 0 l0 245 l-344 0 l0 76 l344 0 l0 152 l-392 0 l0 75 l258 0 q-15 63 -66 154 l64 21 l-185 0 l0 73 l338 0 q-28 58 -51 104 l72 24 q39 -70 61 -128 l313 0 l0 -73 l-538 0 q53 -98 66 -160 l-51 -15 l261 0 q33 69 62 172 l79 -13 q-46 -109 -72 -159 l256 0 l0 -75 l-399 0 l0 -152 l357 0 l0 -76 l-357 0 Z" /><glyph glyph-name="Identity.1006" unicode="&#x91d1;" d="M921 35 l0 -74 l-841 0 l0 74 l380 0 l0 248 l-335 0 l0 74 l335 0 l0 129 l-206 0 l0 55 q-77 -44 -168 -76 l-34 78 q129 43 255 129 q126 86 190 185 l72 -35 q-24 -35 -27 -38 q66 -71 184.5 -139 q118.5 -68 222.5 -101 l-33 -76 q-70 25 -169 84 l0 -66 l-212 0 l0 -129 l341 0 l0 -74 l-341 0 l0 -248 l386 0 ZM280 558 l453 0 q-47 28 -84 55 l-9 6 q-85 60 -141 118 q-104 -115 -219 -179 ZM372 79 l-70 -30 q-10 33 -39 92.5 q-29 59.5 -55 97.5 l67 27 q26 -39 56 -96.5 q30 -57.5 41 -90.5 ZM793 237 q-93 -150 -120 -189 l-60 26 q37 66 50 90 l6 10 q36 68 48 92 l76 -29 Z" /><glyph glyph-name="Identity.1013" unicode="&#x975e;" d="M435 844 l0 -914 l-75 0 l0 249 l-291 0 l0 76 l291 0 l0 153 l-253 0 l0 77 l253 0 l0 140 l-268 0 l0 77 l268 0 l0 142 l75 0 ZM650 178 l0 -249 l-76 0 l0 914 l76 0 l0 -141 l278 0 l0 -77 l-278 0 l0 -140 l258 0 l0 -77 l-258 0 l0 -153 l295 0 l0 -77 l-295 0 Z" /><glyph glyph-name="Identity.1014" unicode="&#x9762;" d="M884 595 l0 -624 l-768 0 l0 624 l302 0 q6 20 14.5 62 q8.5 42 10.5 52 l-372 0 l0 76 l861 0 l0 -76 l-402 0 q-18 -67 -35 -114 l389 0 ZM393 418 l200 0 l0 104 l-200 0 l0 -104 ZM192 45 l136 0 l0 477 l-136 0 l0 -477 ZM657 45 l148 0 l0 477 l-148 0 l0 -477 ZM393 242 l200 0 l0 110 l-200 0 l0 -110 ZM393 45 l200 0 l0 132 l-200 0 l0 -132 Z" /><glyph glyph-name="Identity.1018" unicode="&#x97f3;" d="M933 534 l0 -72 l-866 0 l0 72 l248 0 q-14 67 -56 139 l68 16 l-203 0 l0 71 l348 0 q-25 55 -39 78 l77 16 q33 -43 46 -94 l328 0 l0 -71 l-196 0 l66 -15 q-31 -69 -71 -140 l250 0 ZM364 534 l246 0 q26 50 59 155 l-335 0 q37 -55 53 -145 l-23 -10 ZM805 382 l0 -425 l-601 0 l0 425 l601 0 ZM280 211 l446 0 l0 102 l-446 0 l0 -102 ZM280 26 l446 0 l0 121 l-446 0 l0 -121 Z" /><glyph glyph-name="Identity.1019" unicode="&#x9801;" d="M828 646 l0 -512 l-639 0 l0 512 l247 0 q0 1 1 2.5 q1 1.5 1 2.5 l2 9 q12 36 17 65 l-364 0 l0 74 l811 0 l0 -74 l-364 0 q-5 -16 -15.5 -45 q-10.5 -29 -12.5 -34 l316 0 ZM268 498 l478 0 l0 84 l-478 0 l0 -84 ZM268 350 l478 0 l0 88 l-478 0 l0 -88 ZM268 199 l478 0 l0 90 l-478 0 l0 -90 ZM433 73 q-68 -40 -162.5 -82.5 q-94.5 -42.5 -172.5 -64.5 l-27 70 q64 17 158 57.5 q94 40.5 142 72.5 l62 -53 ZM939 -16 l-72 -56 q-174 98 -299 140 l48 52 q150 -50 323 -136 Z" /><glyph glyph-name="Identity.1022" unicode="&#x9996;" d="M821 560 l0 -586 l-641 0 l0 586 l254 0 l21 84 l-389 0 l0 71 l258 0 q-20 36 -85 105 l68 31 q67 -65 94 -117 l-44 -19 l251 0 q23 30 80 134 l85 -23 q-32 -50 -89 -111 l252 0 l0 -71 l-392 0 q-23 -72 -29 -84 l306 0 ZM256 396 l486 0 l0 93 l-486 0 l0 -93 ZM256 232 l486 0 l0 99 l-486 0 l0 -99 ZM256 45 l486 0 l0 123 l-486 0 l0 -123 Z" /><glyph glyph-name="Identity.1023" unicode="&#x9999;" d="M460 553 q-63 -83 -166 -161 q-103 -78 -201 -118 l-34 70 q77 27 169.5 88.5 q92.5 61.5 153.5 125.5 l-312 0 l0 69 l390 0 l0 94 q-71 -7 -128 -11 l-15 -1 q-75 -6 -147 -9 q-2 28 -19 68 q81 4 116 7 l11 1 q2 0 8 0.5 q6 0.5 8 0.5 l11 1 q8 0 25 2 q17 2 25 2 l11 1 q8 1 24.5 2.5 q16.5 1.5 24.5 2.5 l11 1 q8 1 22 2 q14 1 22 2 l11 2 q185 20 284 46 l58 -61 q-114 -31 -248 -47 l-10 -1 q-18 -2 -26 -3 l0 -102 l392 0 l0 -69 l-314 0 q63 -60 156.5 -118.5 q93.5 -58.5 168.5 -83.5 l-33 -71 q-97 40 -201 115.5 q-104 75.5 -169 152.5 l0 -193 l-79 0 l0 193 ZM798 337 l0 -380 l-581 0 l0 380 l581 0 ZM292 185 l427 0 l0 89 l-427 0 l0 -89 ZM292 21 l427 0 l0 106 l-427 0 l0 -106 Z" /><glyph glyph-name="Identity.1026" unicode="&#x9ad8;" d="M925 747 l0 -68 l-853 0 l0 68 l398 0 q-18 48 -33 87 l78 18 q15 -37 37 -105 l373 0 ZM786 633 l0 -204 l-563 0 l0 204 l563 0 ZM298 489 l409 0 l-1 83 l-408 0 l0 -83 ZM185 313 l0 -383 l-77 0 l0 451 l785 0 l0 -368 q0 -52 -37 -65 q-33 -12 -145 -9 l-5 58 l93 0 q15 1 15 16 l0 300 l-629 0 ZM696 258 l0 -228 l-405 0 l0 228 l405 0 ZM363 91 l264 0 l0 106 l-264 0 l0 -106 Z" /><glyph glyph-name="Identity.1036" unicode="&#x9ebb;" d="M195 472 q0 -134 -22 -288.5 q-22 -154.5 -72 -248.5 q-8 10 -30.5 26 q-22.5 16 -34.5 22 q81 166 81 489 l0 266 l391 0 q-13 39 -41 92 l77 22 q24 -43 49 -114 l343 0 l0 -76 l-741 0 l0 -190 ZM770 356 l0 -425 l-71 0 l0 410 q-30 -82 -70.5 -158 q-40.5 -76 -80.5 -115 l-51 56 q50 41 102 130.5 q52 89.5 85 180.5 l-119 0 l0 69 l134 0 l0 145 l71 0 l0 -145 l162 0 l0 -69 l-140 0 q27 -78 77 -168.5 q50 -90.5 94 -144.5 l-55 -45 q-34 44 -73.5 123 q-39.5 79 -64.5 156 ZM429 345 l0 -414 l-68 0 l0 393 q-21 -70 -58.5 -142 q-37.5 -72 -74.5 -109 l-52 55 q48 42 99.5 132 q51.5 90 77.5 175 l-134 0 l0 69 l142 0 l0 145 l68 0 l0 -145 l115 0 l0 -69 l-115 0 l0 -12 q123 -131 131 -141 l-42 -62 q-24 41 -89 125 Z" /><glyph glyph-name="Identity.1039" unicode="&#x9ed1;" d="M933 245 l0 -71 l-865 0 l0 71 l394 0 l0 87 l-311 0 l0 66 l311 0 l0 76 l-295 0 l0 338 l663 0 l0 -338 l-296 0 l0 -76 l315 0 l0 -66 l-315 0 l0 -87 l399 0 ZM534 542 l219 0 l0 202 l-219 0 l0 -202 ZM241 542 l221 0 l0 202 l-221 0 l0 -202 ZM708 706 q-8 -15 -26 -49 l-4 -10 q-47 -89 -52 -98 l-51 22 q4 8 16 34.5 q12 26.5 19 42.5 l4 10 q16 36 31 72 l63 -24 ZM412 581 l-57 -21 q-12 62 -62 150 l53 18 q20 -32 40 -76 q20 -44 26 -71 ZM938 -42 l-76 -31 q-19 36 -58.5 93 q-39.5 57 -70.5 91 l71 25 q32 -32 72.5 -86.5 q40.5 -54.5 61.5 -91.5 ZM258 118 q-68 -125 -116 -194 l-73 36 q47 62 113 176 l76 -18 ZM674 -46 l-78 -19 q-22 95 -54 172 l74 15 q39 -85 58 -168 ZM438 -54 l-79 -11 l0 7 q0 115 -11 168 l67 5 q23 -90 23 -169 Z" /><glyph glyph-name="Identity.1044" unicode="&#x9f20;" d="M850 801 l0 -350 l-694 0 l0 340 q39 5 76 12 l11 2 q14 2 21 4 l11 2 q81 15 145 32 l38 -61 q-60 -16 -121 -27 l-10 -2 q-43 -8 -95 -15 l0 -72 l219 0 l0 -64 l-219 0 l0 -84 l542 0 l0 81 l-221 0 l0 64 l221 0 l0 71 l-235 0 l0 67 l311 0 ZM952 81 q-11 -146 -86 -146 q-135 0 -142 495 l79 0 q-1 -197 17 -308 q18 -111 50 -111 q19 0 24 81 l58 -11 ZM708 19 q-230 -53 -254 -73 l-37 62 q34 18 34 63 l0 354 l71 0 l0 -386 l186 45 l0 -9 l0 -28 l0 -5 l0 -23 ZM406 8 q-214 -49 -244 -66 l-35 65 q14 8 26.5 26 q12.5 18 12.5 42 l0 349 l76 0 l0 -386 l164 36 q-3 -8 -3 -21 q0 -13 1.5 -27 q1.5 -14 1.5 -18 ZM428 315 l-42 -48 q-76 60 -108 83 l38 43 q67 -43 112 -78 ZM706 313 l-40 -49 q-90 72 -112 85 l40 44 q29 -16 112 -80 ZM420 159 l-42 -49 q-86 71 -108 85 l40 44 q55 -30 110 -80 ZM708 150 l-42 -50 q-91 73 -117 93 l40 44 q49 -33 119 -87 Z" /><glyph glyph-name="Identity.1051" unicode="&#x3001;" d="M273 -56 q-102 126 -221 223 l65 57 q112 -90 224 -222 l-68 -58 Z" /><glyph glyph-name="Identity.1052" unicode="&#x3002;" d="M194 244 q64 0 108.5 -44.5 q44.5 -44.5 44.5 -107.5 q0 -64 -44.5 -108.5 q-44.5 -44.5 -108.5 -44.5 q-62 0 -107 44.5 q-45 44.5 -45 108.5 q0 63 45 107.5 q45 44.5 107 44.5 ZM194 -10 q43 0 72.5 29.5 q29.5 29.5 29.5 72.5 q0 42 -30 71.5 q-30 29.5 -72 29.5 q-41 0 -71 -30 q-30 -30 -30 -71 q0 -42 29.5 -72 q29.5 -30 71.5 -30 Z" /><glyph glyph-name="Identity.1058" unicode="&#x300a;" d="M591 380 l215 -448 l-54 -18 l-222 466 l222 466 l54 -18 l-215 -448 ZM749 380 l215 -448 l-54 -18 l-222 466 l222 466 l54 -18 l-215 -448 Z" /><glyph glyph-name="Identity.1059" unicode="&#x300b;" d="M248 -86 l-54 18 l215 448 l-215 448 l54 18 l222 -466 l-222 -466 ZM90 -86 l-54 18 l215 448 l-215 448 l54 18 l222 -466 l-222 -466 Z" /><glyph glyph-name="Identity.1060" unicode="&#x300c;" d="M966 846 l0 -69 l-242 0 l0 -578 l-74 0 l0 647 l316 0 Z" /><glyph glyph-name="Identity.1061" unicode="&#x300d;" d="M34 -86 l0 69 l242 0 l0 578 l74 0 l0 -647 l-316 0 Z" /><glyph glyph-name="Identity.1076" unicode="&#xff5e;" d="M952 421 q-99 -179 -259 -179 q-65 0 -116 26.5 q-51 26.5 -107 81.5 q-47 44 -80 62.5 q-33 18.5 -83 18.5 q-58 0 -105.5 -35 q-47.5 -35 -79.5 -96 l-74 39 q99 179 259 179 q65 0 116 -26 q51 -26 107 -82 q46 -44 80 -62.5 q34 -18.5 84 -18.5 q58 0 105.5 35 q47.5 35 79.5 96 l73 -39 Z" /><glyph glyph-name="Identity.1157" unicode="&#x306e;" d="M904 350 q0 -158 -98.5 -260 q-98.5 -102 -275.5 -125 l-48 80 q41 4 88 14 q106 24 176 98.5 q70 74.5 70 195.5 q0 118 -67.5 197.5 q-67.5 79.5 -190.5 89.5 q-3 -21 -9 -62 q-6 -41 -8 -54 l-2 -10 q-16 -94 -36 -160 q-93 -314 -232 -314 q-70 0 -124.5 76 q-54.5 76 -54.5 195 q0 165 126 287.5 q126 122.5 306 122.5 q171 0 275.5 -107 q104.5 -107 104.5 -264 ZM176 318 l1 -3 l0 -21 q4 -76 33 -115.5 q29 -39.5 64 -39.5 q73 0 144 234 q45 150 59 267 q-136 -17 -218.5 -114.5 q-82.5 -97.5 -82.5 -207.5 ZM177 314 l0 -4 l0 -8 l0 12 Z" /><glyph glyph-name="Identity.8329" unicode="&#x4e03;" d="M913 210 q-10 -132 -55.5 -187.5 q-45.5 -55.5 -170.5 -55.5 l-125 0 q-128 0 -174 35.5 q-46 35.5 -46 121.5 l0 305 l-267 -44 l-12 78 l279 44 l0 325 l80 0 l0 -311 l506 82 l13 -79 l-519 -83 l0 -318 q0 -31 9 -46 q9 -15 39.5 -23 q30.5 -8 93.5 -8 l122 0 q86 0 112 37.5 q26 37.5 33 140.5 l82 -14 Z" /><glyph glyph-name="Identity.8333" unicode="&#x4e07;" d="M393 432 q-15 -102 -46 -191.5 q-31 -89.5 -96 -178.5 q-65 -89 -155 -139 l-43 70 q72 38 125.5 102.5 q53.5 64.5 83.5 133.5 q30 69 49 158 q19 89 25 159 q6 70 8 153 l-271 0 l0 77 l853 0 l0 -77 l-512 0 l0 -74 l1 -10 l0 -10 q2 -61 -3 -98 l423 0 q0 -28 -1 -37 q-12 -229 -29 -347.5 q-17 -118.5 -44 -147.5 q-28 -34 -87 -39 q-45 -4 -180 5 l-1 76 q51 -6 145 -6 l9 0 q29 0 43 13 q40 36 60 408 l-357 0 Z" /><glyph glyph-name="Identity.8335" unicode="&#x4e09;" d="M867 757 l0 -80 l-732 0 l0 80 l732 0 ZM789 439 l0 -81 l-590 0 l0 81 l590 0 ZM921 87 l0 -81 l-843 0 l0 81 l843 0 Z" /><glyph glyph-name="Identity.8336" unicode="&#x4e0a;" d="M937 59 l0 -79 l-874 0 l0 79 l363 0 l0 775 l81 0 l0 -296 l362 0 l0 -80 l-362 0 l0 -399 l430 0 Z" /><glyph glyph-name="Identity.8337" unicode="&#x4e0b;" d="M521 469 l0 -538 l-81 0 l0 767 l-372 0 l0 80 l865 0 l0 -80 l-412 0 l0 -165 l12 17 q78 -37 181.5 -101 q103.5 -64 164.5 -109 l-55 -72 q-49 41 -138.5 100.5 q-89.5 59.5 -164.5 100.5 Z" /><glyph glyph-name="Identity.8340" unicode="&#x4e0e;" d="M680 -58 q-76 -2 -184 6 l-2 76 q66 -6 158 -6 l5 0 q35 0 48 13 q53 39 85 367 l-547 0 l-66 1 q16 57 56 231 l3 17 l0 2 q1 2 1 3 l2 11 q2 6 4 16 l2 10 q15 70 29 138 l77 -9 q-3 -16 -10 -52 q-7 -36 -11 -52 l533 0 l0 -74 l-550 0 q-35 -156 -39 -169 l605 0 q-2 -28 -4 -37 q-39 -394 -102 -454 q-33 -35 -93 -38 ZM672 261 l0 -78 l-603 0 l0 78 l603 0 Z" /><glyph glyph-name="Identity.8343" unicode="&#x4e11;" d="M943 38 l0 -78 l-883 0 l0 78 l246 0 q3 22 31 325 l-191 0 l0 76 l191 0 q3 40 9 80 l2 15 q0 5 2 15 l1 10 q0 4 1 6 l1 10 q12 95 14 133 l-243 0 l0 79 l679 0 q-3 -93 -9 -195 l0 -10 q0 -2 -0.5 -6 q-0.5 -4 -0.5 -5 l0 -11 q-2 -26 -4 -76 l-1 -16 q-2 -40 -4 -60 l0 -11 l-3 -54 l-1 -11 l-1 -11 q-6 -115 -20 -283 l184 0 ZM416 439 l290 0 q2 36 3 55 l1 10 q1 14 2.5 41 q1.5 27 2.5 41 l1 10 q4 79 5 112 l-287 0 q-3 -46 -9 -152 l-1 -10 q0 -10 -1 -16 l0 -10 q-4 -57 -7 -81 ZM385 38 l297 0 q8 75 14 179 l1 11 l0 5 l1 16 l0 6 l1 15 q4 64 6 93 l-298 0 q-2 -27 -6 -83 l-1 -11 l0 -11 q-1 -3 -1 -11 l0 -10 q-8 -159 -14 -199 Z" /><glyph glyph-name="Identity.8345" unicode="&#x4e13;" d="M742 -4 l-47 -69 q-78 48 -204 108 q-126 60 -224 89 l44 58 q29 -8 104 -35 l9 -4 l10 -4 l14 -5 q2 0 5 -2 q3 -2 4 -2 l15 -5 q2 -2 4 -2 l10 -4 q3 -1 12.5 -4.5 q9.5 -3.5 15.5 -5.5 q33 31 99 103 l7 8 q12 13 38.5 42 q26.5 29 38.5 42 l-441 0 q6 14 38 104 l4 10 q13 35 23 64 l-253 0 l0 75 l278 0 q7 20 15 58.5 q8 38.5 12 51.5 l-224 0 l0 74 l247 0 q14 46 26 103 l84 0 q-9 -31 -32 -103 l370 0 l0 -74 l-393 0 l-18 -57 l-2 -10 q-4 -10 -13 -43 l498 0 l0 -75 l-524 0 q-6 -18 -13 -54.5 q-7 -36.5 -13 -51.5 l406 0 l13 5 l59 -36 q-4 -4 -117 -125 l-7 -8 l-8 -8 q-2 -2 -3 -4 l-8 -8 l-11 -11 l-7 -8 q-1 -2 -3.5 -4.5 q-2.5 -2.5 -3.5 -3.5 l-8 -7 q-36 -39 -79 -80 q63 -27 153 -82 Z" /><glyph glyph-name="Identity.8346" unicode="&#x4e14;" d="M935 53 l0 -79 l-870 0 l0 79 l158 0 l0 740 l565 0 l0 -740 l147 0 ZM299 555 l410 0 l0 160 l-410 0 l0 -160 ZM299 308 l410 0 l0 173 l-410 0 l0 -173 ZM299 53 l410 0 l0 179 l-410 0 l0 -179 Z" /><glyph glyph-name="Identity.8348" unicode="&#x4e16;" d="M910 76 l0 -79 l-701 0 l0 535 l-147 0 l0 76 l147 0 l0 215 l79 0 l0 -215 l167 0 l0 236 l76 0 l0 -236 l177 0 l0 225 l80 0 l0 -225 l150 0 l0 -76 l-150 0 l0 -316 l-333 0 l0 316 l-167 0 l0 -456 l622 0 ZM531 290 l177 0 l0 242 l-177 0 l0 -242 Z" /><glyph glyph-name="Identity.8352" unicode="&#x4e1a;" d="M929 63 l0 -78 l-856 0 l0 78 l269 0 l0 773 l78 0 l0 -773 l160 0 l0 773 l74 0 l0 -773 l275 0 ZM311 284 l-79 -29 q-27 73 -67 176 l-4 10 q-11 28 -33.5 84.5 q-22.5 56.5 -32.5 81.5 l73 23 q7 -16 23 -54 q16 -38 25 -58 l4 -10 q2 -5 5.5 -13.5 q3.5 -8.5 4.5 -11.5 l5 -11 q46 -111 76 -188 ZM910 592 q-37 -87 -82 -176 l-5 -10 q-45 -92 -88 -161 l-66 36 q41 66 95 175 l5 10 q49 103 69 160 l72 -34 Z" /><glyph glyph-name="Identity.8354" unicode="&#x4e1c;" d="M543 -46 q-39 -16 -165 -16 l-6 82 q29 -1 68 -1.5 q39 -0.5 48 0.5 q11 1 14 5 q3 4 3 15 l0 320 l-206 0 q-15 0 -31 -1 q-16 -1 -27 -2 q-11 -1 -21.5 -1.5 q-10.5 -0.5 -13.5 -1 q-3 -0.5 -4 0.5 l-36 71 q21 5 71 78 q37 48 93 144 l-240 0 l0 74 l280 0 q12 24 28 71 q16 47 23 63 l81 -37 q-29 -64 -49 -97 l450 0 l0 -74 l-491 0 q-1 -1 -2.5 -4 q-1.5 -3 -2.5 -5 l-5 -9 q-4 -7 -12 -23 l-5 -9 l-5 -9 q-58 -104 -94 -153 l219 0 l0 146 l78 0 l0 -146 l279 0 l-3 -76 l-276 0 l0 -321 q0 -68 -40 -84 ZM928 25 l-69 -39 q-33 53 -95.5 134 q-62.5 81 -113.5 132 l64 33 q54 -52 119 -131.5 q65 -79.5 95 -128.5 ZM347 262 q-34 -75 -91.5 -160 q-57.5 -85 -108.5 -133 l-58 60 q47 39 99.5 113.5 q52.5 74.5 81.5 140.5 l77 -21 Z" /><glyph glyph-name="Identity.8360" unicode="&#x4e22;" d="M908 -31 l-78 -35 q-27 59 -55 104 q-359 -28 -472.5 -41 q-113.5 -13 -142.5 -25 l0 1 q-1 2 -10.5 35.5 q-9.5 33.5 -14.5 44.5 q3 0 6 1 q3 1 6 2.5 q3 1.5 7 4 q4 2.5 7 4.5 q3 2 7.5 6 q4.5 4 7 6 q2.5 2 7.5 7 q5 5 7.5 7 q2.5 2 8.5 8 q6 6 8 8 q21 17 75.5 85 q54.5 68 104.5 138 l-316 0 l0 74 l392 0 l0 127 l-310 0 l0 76 l310 0 l0 111 q-31 -3 -95 -7 l-15 -1 l-11 -1 l-15 0 l-15 -1 q-75 -5 -167 -7 q-5 41 -20 74 q36 1 124 5 l11 1 l11 0 l11 1 q7 0 11 1 l11 0 q1 0 5 0.5 q4 0.5 6 0.5 l11 1 l10 0 q4 0 11 0.5 q7 0.5 11 1.5 l11 1 l39 3 l11 1 q11 0 16 1 l11 1 q238 20 355 50 l59 -70 q-87 -20 -203 -36 l-10 -1 q-22 -3 -59 -7 l-10 -2 q-28 -2 -43 -4 l0 -117 l311 0 l0 -76 l-311 0 l0 -127 l393 0 l0 -74 l-484 0 l32 -17 q-14 -17 -27 -36 l-6 -8 l-6 -8 q-2 -3 -6 -8.5 q-4 -5.5 -6 -8.5 l-6 -8 q-4 -6 -12.5 -17 q-8.5 -11 -12.5 -16 l-6 -9 q-66 -85 -109 -125 l452 35 q-101 134 -110 144 l71 30 q55 -61 121 -155 q66 -94 95 -154 Z" /><glyph glyph-name="Identity.8362" unicode="&#x4e24;" d="M192 506 l0 -577 l-78 0 l0 650 l227 0 l0 127 l-270 0 l0 76 l858 0 l0 -76 l-278 0 l0 -127 l237 0 l0 -549 q0 -71 -47 -87 q-40 -14 -196 -14 l-5 80 q37 -2 86.5 -2.5 q49.5 -0.5 59.5 0.5 q15 1 19 6.5 q4 5.5 4 18.5 l0 474 l-159 0 q-1 -12 1 -48 q2 -36 -1 -49 q40 -46 84.5 -109.5 q44.5 -63.5 68.5 -107.5 l-47 -59 q-51 91 -134 195 q-42 -167 -126 -251 l-56 57 q72 67 104.5 169 q32.5 102 37.5 203 l-174 0 q-1 -12 1 -49 q2 -37 -1 -51 q49 -57 96 -143 l-48 -62 q-28 56 -78 121 q-42 -163 -123 -243 l-50 53 q123 116 135 374 l-148 0 ZM409 579 l174 0 l0 127 l-174 0 l0 -127 Z" /><glyph glyph-name="Identity.8363" unicode="&#x4e25;" d="M203 311 q0 -94 -25 -205.5 q-25 -111.5 -76 -176.5 q-9 11 -30 30 q-21 19 -30 24 q83 107 83 329 l0 166 l243 0 l0 246 l-251 0 l0 70 l776 0 l0 -70 l-264 0 l0 -246 l295 0 l0 -71 l-721 0 l0 -96 ZM432 478 l133 0 l0 246 l-133 0 l0 -246 ZM846 679 q-6 -11 -42 -71 l-5 -9 q-1 -1 -3 -4 l-6 -10 q-34 -57 -57 -92 l-64 23 q53 94 98 188 l79 -25 ZM317 518 l-73 -26 q-37 90 -87 187 l68 24 q16 -28 38 -72 l5 -10 q35 -71 49 -103 Z" /><glyph glyph-name="Identity.8367" unicode="&#x4e2a;" d="M499 715 q-82 -107 -210 -206 l-8 -6 q-90 -69 -182 -114 l-43 79 q128 55 254 160.5 q126 105.5 194 220.5 l69 -34 q-3 -5 -12.5 -20.5 q-9.5 -15.5 -14.5 -22.5 q156 -186 403 -306 l-43 -75 q-11 6 -74 41 l-8 5 q-190 116 -325 278 ZM540 565 l0 -635 l-82 0 l0 635 l82 0 Z" /><glyph glyph-name="Identity.8369" unicode="&#x4e2d;" d="M537 251 l0 -321 l-80 0 l0 319 l-348 0 l0 429 l348 0 l0 171 l80 0 l0 -171 l353 0 l0 -427 l-353 0 ZM187 326 l270 0 l0 274 l-270 0 l0 -274 ZM537 327 l272 0 l0 273 l-272 0 l0 -273 Z" /><glyph glyph-name="Identity.8372" unicode="&#x4e30;" d="M538 180 l0 -248 l-78 0 l0 248 l-395 0 l0 78 l395 0 l0 157 l-308 0 l0 77 l308 0 l0 138 l-357 0 l0 77 l357 0 l0 141 l78 0 l0 -141 l358 0 l0 -77 l-358 0 l0 -138 l312 0 l0 -77 l-312 0 l0 -157 l398 0 l0 -78 l-398 0 Z" /><glyph glyph-name="Identity.8376" unicode="&#x4e34;" d="M533 660 q-55 -124 -119 -198 l-62 51 q52 54 98.5 147.5 q46.5 93.5 71.5 191.5 l78 -16 q-12 -46 -33 -101 l371 0 l0 -75 l-405 0 ZM340 836 l0 -899 l-78 0 l0 899 l78 0 ZM173 734 l0 -667 l-76 0 l0 667 l76 0 ZM793 487 l-54 -57 q-19 19 -83 81 l-12 11 l-8 8 q-42 40 -60 56 l45 48 q13 -11 57.5 -49 q44.5 -38 66.5 -57 l8 -6 q6 -5 14.5 -12.5 q8.5 -7.5 15 -13 q6.5 -5.5 10.5 -9.5 ZM911 402 l0 -430 l-486 0 l0 430 l486 0 ZM698 46 l135 0 l0 279 l-135 0 l0 -279 ZM500 46 l126 0 l0 279 l-126 0 l0 -279 Z" /><glyph glyph-name="Identity.8381" unicode="&#x4e3a;" d="M476 540 q-9 -75 -31 -149.5 q-22 -74.5 -62 -156.5 q-40 -82 -107 -159 q-67 -77 -154 -135 l-49 67 q77 50 138 118.5 q61 68.5 98 141.5 q37 73 59 140 q22 67 31 133 l-304 0 l0 78 l315 0 l0 112 l0 116 l80 0 l0 -117 q0 -44 -1 -67 l0 -10 q-1 -2 -1 -5 l0 -10 l0 -9 q-1 -4 -1 -10 l402 0 q-1 -31 -1 -41 q-13 -315 -28 -440 l-2 -9 q-15 -116 -38 -145 q-33 -37 -86 -42 q-53 -3 -162 3 l-2 81 q48 -6 135 -6 q25 0 40 16 q40 40 59 505 l-328 0 ZM351 676 l-72 -36 q-11 17 -60 88 l-7 9 q-31 45 -39 55 l69 30 q8 -10 24 -31 q16 -21 23 -30 l6 -9 q41 -54 56 -76 ZM693 229 l-70 -39 q-59 101 -129 203 l66 32 q9 -12 27.5 -39 q18.5 -27 25.5 -37 l6 -9 q4 -5 34 -49 l5 -8 q8 -12 35 -54 Z" /><glyph glyph-name="Identity.8382" unicode="&#x4e3b;" d="M935 43 l0 -79 l-866 0 l0 79 l392 0 l0 249 l-300 0 l0 77 l300 0 l0 210 l-346 0 l0 76 l428 0 q-28 31 -76.5 73 q-48.5 42 -92.5 72 l60 45 q49 -33 104 -80 q55 -47 81 -78 l-48 -32 l314 0 l0 -76 l-347 0 l0 -210 l306 0 l0 -77 l-306 0 l0 -249 l397 0 Z" /><glyph glyph-name="Identity.8385" unicode="&#x4e3e;" d="M557 701 l-71 -31 q-31 59 -89 153 l66 30 q65 -99 94 -152 ZM380 589 q-45 -84 -125.5 -161 q-80.5 -77 -167.5 -120 l-36 67 q68 28 142.5 89 q74.5 61 116.5 125 l-242 0 l0 69 l203 0 q-28 52 -101 136 l66 33 q77 -81 108 -145 l-54 -24 l336 0 q74 92 119 179 l82 -29 q-47 -71 -118 -150 l225 0 l0 -69 l-238 0 q44 -60 118.5 -118 q74.5 -58 138.5 -84 l-37 -70 q-84 40 -167 116.5 q-83 76.5 -129 155.5 l-240 0 ZM538 133 l0 -206 l-77 0 l0 206 l-356 0 l0 76 l356 0 l0 120 l-216 0 l0 75 l216 0 l0 122 l77 0 l0 -122 l225 0 l0 -75 l-225 0 l0 -120 l365 0 l0 -76 l-365 0 Z" /><glyph glyph-name="Identity.8391" unicode="&#x4e45;" d="M545 337 q-83 -137 -197 -248.5 q-114 -111.5 -240 -166.5 l-41 78 q166 71 310 239.5 q144 168.5 204 377.5 l-246 0 q-94 -182 -222 -298 l-61 65 q87 71 166 198 q79 127 129 267 l84 -20 q-23 -69 -57 -137 l240 0 l4 6 l57 -26 q-2 -6 -4.5 -17.5 q-2.5 -11.5 -3.5 -16.5 l-3 -10 q-30 -123 -70 -208 q48 -131 146 -250.5 q98 -119.5 206 -165.5 l-40 -77 q-110 52 -205.5 165 q-95.5 113 -155.5 245 Z" /><glyph glyph-name="Identity.8394" unicode="&#x4e48;" d="M523 807 q-74 -118 -195 -250 l-7 -8 q-33 -36 -77 -78 l-7 -7 q-57 -54 -107 -91 l-51 64 q97 69 202.5 185 q105.5 116 161.5 213 l80 -28 ZM934 -17 l-74 -42 q-38 82 -57 112 q-396 -34 -510.5 -45.5 q-114.5 -11.5 -142.5 -21.5 l-2 -1 l-1 0 l-27 82 q25 7 129 101 q34 28 109.5 114 q75.5 86 156.5 188 l7 10 q14 17 42 53 l7 10 q33 44 78 107 l80 -40 q-2 -2 -6 -8 l-6 -8 q-2 -3 -6.5 -8.5 q-4.5 -5.5 -6.5 -8.5 l-6 -8 q-4 -5 -12.5 -16 q-8.5 -11 -12.5 -17 l-10 -13 l-9 -12 l-6 -9 l-7 -8 l-42 -54 l-7 -9 l-9 -12 l-7 -8 q-4 -6 -7 -8 l-6 -9 q-5 -5 -7 -8 l-6 -8 q-31 -39 -67 -79 l-7 -8 q-22 -26 -33 -38 l-7 -8 q-89 -99 -163 -163 l485 43 q-8 12 -48 70 l-6 8 l-6 9 q-66 90 -79 106 l71 36 q53 -65 102 -138 l7 -9 q1 -1 2 -2.5 q1 -1.5 1 -2.5 l6 -9 q88 -132 126 -210 Z" /><glyph glyph-name="Identity.8395" unicode="&#x4e49;" d="M583 618 l-72 -29 q-8 22 -61 148 l-5 10 q-24 56 -34 79 l69 26 q76 -165 103 -234 ZM940 5 l-33 -79 q-202 67 -403 253 q-197 -174 -418 -252 l-30 74 q206 69 392 231 q-118 122 -217 319 l-5 9 q-37 75 -69 157 l74 22 q38 -99 91 -200 l5 -9 q78 -144 174 -241 q176 177 276 488 l79 -24 q-2 -7 -6.5 -19 q-4.5 -12 -6.5 -19 l-4 -9 q-114 -303 -280 -472 q195 -172 381 -229 Z" /><glyph glyph-name="Identity.8397" unicode="&#x4e4b;" d="M247 77 q-39 0 -127 -130 l-59 73 q121 133 186 133 l12 -3 q106 61 238 183 l8 8 q16 14 23 22 l8 7 q2 2 5.5 6 q3.5 4 5.5 6 l8 7 q97 97 170 195 l-612 0 l0 76 l403 0 q-49 80 -100 157 l67 35 q8 -10 23.5 -32.5 q15.5 -22.5 18.5 -26.5 l7 -9 q12 -18 61 -91 l-60 -33 l249 0 l15 5 l59 -41 q-70 -106 -178 -220 l-7 -8 q-2 -2 -3 -4 l-8 -7 q-14 -16 -22 -23 l-7 -8 q-10 -10 -29 -28.5 q-19 -18.5 -28 -27.5 l-8 -7 q-131 -121 -236 -185 q21 -16 25 -18 q41 -29 98 -39.5 q57 -10.5 144 -10.5 q165 0 341 18 l0 -84 q-60 -5 -165 -8 l-11 -1 q-94 -3 -168 -3 q-163 0 -258 52 q-5 5 -15.5 14.5 q-10.5 9.5 -15.5 13.5 q-5 4 -13.5 11.5 q-8.5 7.5 -13.5 11 q-5 3.5 -11 7.5 q-6 4 -11 5.5 q-5 1.5 -9 1.5 Z" /><glyph glyph-name="Identity.8400" unicode="&#x4e4e;" d="M496 -57 q-43 -16 -211 -16 l-8 82 q60 -2 160 -2 l4 0 q28 1 28 31 l0 271 l-403 0 l0 81 l403 0 l0 318 q-42 -4 -127 -10 l-10 -1 l-10 0 l-15 -1 q-5 0 -15 -1 q-10 -1 -15 -1 l-10 -1 l-10 0 q-2 0 -7 -0.5 q-5 -0.5 -8 -0.5 l-10 0 q-28 -2 -88 -4 l-6 72 q45 1 154 7 l11 1 q4 0 11 1 q7 1 10 1 l11 0 l11 1 l11 1 l17 1 q1 1 5 1 l11 1 q8 0 22 2 l16 1 q16 2 22 2 l11 1 q224 23 345 54 l41 -69 q-91 -25 -230 -43 l-10 -1 q-28 -4 -42 -5 l-11 -1 q-2 -1 -5 -1 l0 -325 l388 0 l0 -81 l-388 0 l0 -273 q0 -78 -53 -93 ZM849 656 q-12 -24 -50 -95 l-6 -9 q-26 -49 -71 -129 l-65 26 q54 108 110 234 l82 -27 ZM345 449 l-73 -29 q-10 39 -39 106 q-29 67 -57 118 l70 24 q29 -48 59 -114 q30 -66 40 -105 Z" /><glyph glyph-name="Identity.8401" unicode="&#x4e4f;" d="M881 765 q-103 -25 -276 -45 l-10 -1 q-3 -1 -8.5 -1 q-5.5 0 -7.5 -1 l-10 -1 q-14 -2 -38 -4 l-10 -1 l-11 -1 q-14 -2 -22 -2 l-10 -1 q-4 0 -6 -1 l-16 -1 q-45 -4 -65 -5 l-16 -1 q-2 -1 -5 -1 l-11 -1 q-36 -2 -53 -3 l-11 -1 q-77 -4 -150 -6 q-3 29 -18 71 q59 3 134 6 l10 1 q26 2 38 2 l11 1 q4 0 6 1 l11 0 q5 1 16 1 l11 1 q4 1 11 1 l11 1 l11 1 q7 0 11 1 l11 1 l11 1 l11 0 q14 2 22 2 l11 1 q7 1 21.5 2.5 q14.5 1.5 21.5 2.5 l11 1 q200 20 301 45 l52 -66 ZM554 559 l-69 -36 q-15 25 -92 146 l68 33 q11 -16 39 -58 l6 -10 q22 -32 48 -75 ZM236 85 q-32 0 -115 -146 l-62 79 q51 62 99.5 102.5 q48.5 40.5 79.5 40.5 q18 0 54 -28 q108 46 224.5 132.5 q116.5 86.5 202.5 173.5 l-587 0 l0 77 l653 0 l17 5 l56 -43 q-92 -111 -242 -228 l-8 -7 q-136 -103 -256 -159 q74 -53 248 -53 q141 0 344 18 l-2 -85 q-84 -4 -168 -7 l-23 -1 q-116 -4 -155 -4 q-172 0 -266 59 q-15 11 -36.5 31.5 q-21.5 20.5 -35.5 31.5 q-14 11 -22 11 Z" /><glyph glyph-name="Identity.8402" unicode="&#x4e50;" d="M516 -53 q-46 -16 -173 -15 l-5 79 q19 0 47.5 -0.5 q28.5 -0.5 47.5 -1 q19 -0.5 26 -0.5 q23 4 23 25 l0 349 l-221 0 q-107 0 -110 -6 l-36 67 q18 6 32 62 q9 30 22 114 q13 84 14 152 q12 0 37.5 1.5 q25.5 1.5 38.5 2.5 l11 0 q5 1 16 1 l11 1 l10 1 q5 0 16 0.5 q11 0.5 17 0.5 l11 1 q4 0 5 1 l11 0 q4 0 6 1 l11 0 q26 2 38 3 l17 1 q1 0 3 0.5 q2 0.5 3 0.5 l16 1 q4 1 11.5 1 q7.5 0 10.5 1 l11 1 l11 1 q7 1 19.5 2 q12.5 1 18.5 1 l10 1 q172 16 265 41 l45 -66 q-105 -28 -303 -49 l-11 -1 l-5 0 l-11 -1 l-2 -1 q-2 0 -3 0 l-11 -1 l-5 0 l-11 -1 l-75 -6 l-11 0 q-70 -5 -155 -7 q-2 -17 -8 -61 l-1 -10 q-2 -6 -2 -10 l-2 -11 q-14 -92 -30 -152 l265 0 l0 197 l77 0 l0 -197 l354 0 l0 -78 l-354 0 l0 -351 q0 -70 -43 -85 ZM326 276 q-40 -68 -102.5 -151.5 q-62.5 -83.5 -110.5 -131.5 l-58 57 q45 41 102.5 115.5 q57.5 74.5 92.5 136.5 l76 -26 ZM948 37 l-73 -39 q-28 51 -89 134 q-61 83 -109 136 l67 33 q50 -55 113 -136 q63 -81 91 -128 Z" /><glyph glyph-name="Identity.8406" unicode="&#x4e54;" d="M419 536 q-57 -87 -142.5 -158 q-85.5 -71 -188.5 -116 l-36 73 q78 31 155 85.5 q77 54.5 127 115.5 l-268 0 l0 75 l311 0 q33 59 52 114 q-59 -5 -120 -9 l-10 -1 q-10 0 -30 -2 l-10 0 q-62 -4 -120 -6 q-2 35 -19 67 q70 2 147 6 l11 0 q1 0 5 0.5 q4 0.5 6 0.5 l11 0 l10 1 q11 0 17 1 l11 0 q4 1 11.5 1 q7.5 0 10.5 1 l11 0 q4 1 11 1 l17 1 q3 0 5 1 l11 0 q1 0 3 0.5 q2 0.5 3 0.5 l11 0 q1 1 5 1 l11 1 q239 17 351 43 l56 -63 q-101 -22 -239 -36 l-11 -1 q-10 -1 -32 -3 l-10 -1 q-3 0 -11 -1 q-8 -1 -11 -1 l-10 -1 q-3 0 -8.5 -0.5 q-5.5 -0.5 -7.5 -0.5 q-18 -55 -51 -115 l470 0 l0 -75 l-279 0 q48 -60 131 -114.5 q83 -54.5 159 -77.5 l-33 -75 q-103 40 -192.5 111.5 q-89.5 71.5 -141.5 155.5 l-159 0 ZM684 401 l0 -471 l-81 0 l0 471 l81 0 ZM387 283 q0 -46 -9.5 -90.5 q-9.5 -44.5 -32.5 -95.5 q-23 -51 -70 -96.5 q-47 -45.5 -113 -77.5 l-40 68 q55 25 94 62 q39 37 57.5 79 q18.5 42 26 78.5 q7.5 36.5 7.5 74.5 l0 115 l80 0 l0 -117 Z" /><glyph glyph-name="Identity.8414" unicode="&#x4e5f;" d="M941 186 q-6 -64 -19.5 -104.5 q-13.5 -40.5 -43.5 -72 q-30 -31.5 -82 -45 q-52 -13.5 -133 -13.5 l-168 0 q-110 0 -168.5 18 q-58.5 18 -79 52 q-20.5 34 -20.5 96 l0 314 l-163 -52 l-22 72 l185 54 l0 279 l76 0 l0 -255 l191 60 l0 258 l77 0 l0 -236 l217 74 l7 5 l15 12 l55 -24 l-4 -15 q-5 -289 -32 -366 q-13 -35 -35.5 -54.5 q-22.5 -19.5 -47.5 -22.5 q-48 -9 -126 -5 l-1 73 q19 -2 81 -2 l10 0 q34 0 49 46 q23 65 26 279 l-214 -70 l0 -390 l-77 0 l0 365 l-191 -61 l0 -340 q0 -36 10.5 -53.5 q10.5 -17.5 52 -27.5 q41.5 -10 127.5 -10 l169 0 q64 0 102.5 9 q38.5 9 59.5 33 q21 24 28.5 52.5 q7.5 28.5 12.5 80.5 l76 -13 Z" /><glyph glyph-name="Identity.8415" unicode="&#x4e60;" d="M738 -60 q-45 -4 -146 1 l-11 1 l-6 0 l-3 75 q48 -4 132 -4 l8 0 q25 0 37 17 q22 23 33 183 q11 160 16 489 l-667 0 l0 78 l745 0 l0 -44 q-5 -380 -16.5 -546 q-11.5 -166 -36.5 -199 q-30 -46 -85 -51 ZM552 430 l-56 -61 q-42 42 -140 124 l-9 7 l-9 7 q-58 48 -95 73 l52 52 q45 -30 112 -82 l9 -7 l9 -7 q82 -64 127 -106 ZM709 281 q-6 -2 -43.5 -15.5 q-37.5 -13.5 -58.5 -21.5 l-10 -3 q-4 -2 -10 -4 l-10 -4 q-24 -8 -36 -13 l-15 -5 l-15 -6 l-15 -5 q-2 -1 -10 -4 l-10 -4 q-2 -1 -7 -2.5 q-5 -1.5 -8 -2.5 l-10 -4 l-5 -2 l-10 -3 l-10 -4 l-10 -4 l-10 -3 l-10 -4 q-52 -19 -138 -50.5 q-86 -31.5 -114 -41.5 l-28 79 q102 34 316 111 l10 3 l6 2 l10 4 q3 1 10 3.5 q7 2.5 11 3.5 l15 6 q6 1 16 5 l10 4 q2 1 7.5 2.5 q5.5 1.5 8.5 2.5 l16 6 l10 3 q12 5 26 10 l10 3 q20 7 56 20 q36 13 40 14 l15 -76 Z" /><glyph glyph-name="Identity.8421" unicode="&#x4e66;" d="M496 342 l0 -412 l-77 0 l0 412 l-347 0 l0 76 l347 0 l0 186 l-280 0 l0 75 l280 0 l0 165 l77 0 l0 -165 l292 0 l0 -261 l146 0 q-2 -26 -4 -37 q-19 -274 -60 -316 q-27 -29 -80 -32 q-51 -4 -163 3 l-2 74 q46 -4 139 -4 q28 0 40 10 q27 24 45 226 l-353 0 ZM940 686 l-49 -60 q-63 50 -189 141 l46 53 q155 -106 192 -134 ZM496 418 l216 0 l0 186 l-216 0 l0 -186 Z" /><glyph glyph-name="Identity.8431" unicode="&#x4e70;" d="M917 766 q-61 -142 -121 -225 l-66 33 q48 75 78 138 l-684 0 l0 74 l710 0 l0 1 l14 0 l12 3 l57 -24 ZM465 558 l-45 -62 q-88 55 -101 63 l-10 5 q-54 32 -77 45 l42 53 q97 -49 191 -104 ZM541 250 q-40 -117 -149 -202 q-109 -85 -295 -124 l-21 72 q153 28 249.5 95.5 q96.5 67.5 137.5 158.5 l-383 0 l0 74 l410 0 q18 76 24 291 l0 11 q0 6 0.5 17 q0.5 11 0.5 16 l80 0 l0 -5 l0 -11 q-1 -9 -1 -27 l-1 -11 q0 -5 -0.5 -14 q-0.5 -9 -0.5 -13 l0 -10 q-9 -167 -27 -244 l360 0 l0 -74 l-384 0 ZM364 419 l-46 -60 q-30 19 -113 64 l-10 5 q-14 8 -73 39 l43 54 q26 -12 44 -21 l10 -5 q9 -5 29 -15 l10 -5 q82 -42 106 -56 ZM917 -7 l-49 -61 q-186 137 -340 206 l40 56 q50 -22 123 -60 l9 -6 q122 -66 217 -135 Z" /><glyph glyph-name="Identity.8432" unicode="&#x4e71;" d="M527 346 l0 -362 l-423 0 l0 362 l176 0 l0 161 l-229 0 l0 73 l229 0 l0 139 q-45 -7 -82 -11 l-10 -2 q-21 -2 -57.5 -6 q-36.5 -4 -40.5 -4 q-7 36 -22 64 q82 9 140 19 l11 1 q188 31 271 61 l56 -60 q-95 -32 -193 -49 l0 -152 l212 0 l0 -73 l-212 0 l0 -161 l174 0 ZM950 191 q-6 -132 -36.5 -189 q-30.5 -57 -109.5 -57 l-65 0 q-81 0 -111.5 31 q-30.5 31 -30.5 104 l0 758 l79 0 l0 -759 q0 -37 11.5 -49 q11.5 -12 55.5 -12 l58 0 q44 0 58.5 40 q14.5 40 18.5 144 l72 -11 ZM178 56 l271 0 l0 218 l-271 0 l0 -218 Z" /><glyph glyph-name="Identity.8451" unicode="&#x4e86;" d="M491 -56 q-41 -14 -208 -14 l-7 79 q32 -1 163 -1 q23 1 23 25 l0 479 q63 31 137 83 q74 52 130 103 l-620 0 l0 77 l693 0 l18 6 l61 -47 q-62 -67 -157 -141.5 q-95 -74.5 -180 -121.5 l0 -438 q0 -75 -53 -89 Z" /><glyph glyph-name="Identity.8453" unicode="&#x4e88;" d="M499 -54 q-43 -13 -184 -13 l-6 77 q25 -1 139 -1 q19 1 19 21 l0 382 l-402 0 l0 75 l507 0 q-11 5 -58.5 27 q-47.5 22 -75.5 35 l-9 4 q-96 44 -136 61 l41 60 q21 -9 107 -47 l9 -4 q7 -3 19 -9 l10 -4 q5 -2 14 -6 q9 -4 14 -6 q77 44 176 127 l-523 0 l0 72 l600 0 l13 5 l56 -44 q-118 -113 -249 -198 q66 -28 96 -44 l-17 -29 l204 0 l15 7 l63 -30 q-103 -170 -181 -248 l-63 41 q50 54 117 155 l-268 0 l0 -383 q0 -68 -47 -83 Z" /><glyph glyph-name="Identity.8456" unicode="&#x4e8b;" d="M492 -62 q-38 -13 -169 -13 l-6 68 q23 -1 118 -1 q25 1 25 26 l0 71 l-314 0 l0 61 l314 0 l0 74 l-400 0 l0 64 l400 0 l0 66 l-305 0 l0 60 l305 0 l0 64 l-277 0 l0 179 l277 0 l0 48 l-381 0 l0 66 l381 0 l0 76 l74 0 l0 -76 l389 0 l0 -66 l-389 0 l0 -48 l289 0 l0 -179 l-289 0 l0 -64 l303 0 l0 -126 l105 0 l0 -64 l-105 0 l0 -183 l-76 0 l0 48 l-227 0 l0 -71 q0 -65 -42 -80 ZM534 535 l212 0 l0 65 l-212 0 l0 -65 ZM257 535 l203 0 l0 65 l-203 0 l0 -65 ZM534 288 l227 0 l0 66 l-227 0 l0 -66 ZM534 150 l227 0 l0 74 l-227 0 l0 -74 Z" /><glyph glyph-name="Identity.8458" unicode="&#x4e8e;" d="M497 -51 q-42 -15 -207 -15 l-8 83 q68 -2 104 -2 l10 0 q13 0 29 0.5 q16 0.5 18 0.5 q26 1 26 29 l0 339 l-403 0 l0 79 l403 0 l0 238 l-333 0 l0 79 l728 0 l0 -79 l-315 0 l0 -238 l385 0 l0 -79 l-385 0 l0 -339 q0 -80 -52 -96 Z" /><glyph glyph-name="Identity.8461" unicode="&#x4e91;" d="M830 772 l0 -81 l-653 0 l0 81 l653 0 ZM910 -28 l-73 -46 q-4 8 -16 31.5 q-12 23.5 -23.5 44.5 q-11.5 21 -21.5 38 q-357 -32 -473.5 -45.5 q-116.5 -13.5 -145.5 -25.5 l-29 87 q19 5 74 77 q39 46 140 238 l6 11 q7 13 19 37 l-299 0 l0 80 l865 0 l0 -80 l-461 0 q-16 -28 -48 -88 l-5 -9 q-24 -43 -26 -46 l-5 -9 q0 -1 -1 -2.5 q-1 -1.5 -2 -2.5 l-5 -9 q-1 -1 -3 -4 l-5 -9 q-61 -104 -114 -168 l473 39 q-7 11 -21.5 34 q-14.5 23 -21.5 34 l-6 9 q-52 80 -75 110 l70 39 q57 -76 127.5 -187.5 q70.5 -111.5 105.5 -177.5 Z" /><glyph glyph-name="Identity.8462" unicode="&#x4e92;" d="M939 46 l0 -79 l-875 0 l0 79 l555 0 q4 26 9 75 l1 11 l1 2 q0 2 0 3 l1 10 q2 27 8 64 l-432 0 q26 91 55 242 l3 11 q27 136 47 253 l-214 0 l0 76 l811 0 l0 -76 l-524 0 q-2 -17 -6 -53 l0 -9 l-1 -10 q-7 -65 -10 -78 l323 0 l14 6 l59 -7 q-8 -80 -29 -242 l-1 -11 q0 -4 -1 -11.5 q-1 -7.5 -2 -10.5 l-3 -22 q-1 -6 -2.5 -17 q-1.5 -11 -1.5 -16 l-2 -10 q-10 -82 -25 -180 l242 0 ZM308 285 l343 0 q6 40 12.5 114 q6.5 74 9.5 97 l-322 0 q-9 -49 -13 -67 l-2 -11 q-13 -71 -28 -133 Z" /><glyph glyph-name="Identity.8464" unicode="&#x4e94;" d="M935 65 l0 -78 l-866 0 l0 78 l245 0 q7 33 36 240 l1 11 q1 9 3.5 25.5 q2.5 16.5 4.5 30 q2 13.5 4 25.5 l-176 0 l0 76 l191 0 q2 6 4 20 l1 10 l2 11 q0 1 0.5 4.5 q0.5 3.5 0.5 5.5 l1 10 q1 2 1.5 5 q0.5 3 0.5 5 l1 10 q3 25 9 69 q6 44 7 55 l-274 0 l0 77 l730 0 l0 -77 l-375 0 q-3 -19 -8 -57.5 q-5 -38.5 -6 -48.5 l-1 -10 q0 -2 -1 -5 q-1 -3 -1 -5 l-1 -10 q-2 -13 -5.5 -36.5 q-3.5 -23.5 -4.5 -32.5 l236 0 l13 6 l60 -6 q-4 -65 -18 -230 l-2 -16 q0 -2 -0.5 -5.5 q-0.5 -3.5 -0.5 -5.5 l-1 -11 q-2 -17 -5 -47 q-3 -30 -5 -52.5 q-2 -22.5 -4 -40.5 l203 0 ZM397 65 l256 0 q5 54 14.5 175 q9.5 121 12.5 157 l-236 0 q-4 -28 -12 -88 l-2 -11 q-1 -7 -2.5 -21 q-1.5 -14 -2.5 -21 l-1 -11 l-2 -11 q-15 -117 -25 -169 Z" /><glyph glyph-name="Identity.8471" unicode="&#x4e9b;" d="M507 380 q-42 -6 -87 -12 l-11 -1 l-21 -3 l-11 -2 q-5 0 -16 -2 q-11 -2 -16 -2 l-11 -2 l-16 -2 q-147 -20 -255 -33 l-10 78 l67 4 l0 341 l74 0 l0 -330 l82 8 l0 426 l76 0 l0 -164 l148 0 l0 -73 l-148 0 l0 -177 l154 18 l1 -72 ZM945 534 q-8 -103 -41.5 -143 q-33.5 -40 -119.5 -40 l-84 0 q-94 0 -124.5 25 q-30.5 25 -30.5 89 l0 383 l77 0 l0 -191 q44 17 76 32 l10 4 q93 43 125 64 l62 -61 q-115 -61 -273 -110 l0 -121 q0 -25 12 -31.5 q12 -6.5 70 -6.5 l77 0 q54 0 69.5 23 q15.5 23 18.5 96 l76 -12 ZM832 260 l0 -77 l-652 0 l0 77 l652 0 ZM932 34 l0 -79 l-863 0 l0 79 l863 0 Z" /><glyph glyph-name="Identity.8479" unicode="&#x4ea4;" d="M919 716 l0 -78 l-840 0 l0 78 l404 0 q-10 24 -65 114 l72 27 q60 -88 76 -127 l-49 -14 l402 0 ZM925 401 l-66 -52 q-35 44 -112 111.5 q-77 67.5 -142 111.5 l59 47 q69 -47 147.5 -111.5 q78.5 -64.5 113.5 -106.5 ZM403 586 q-47 -60 -123 -126 q-76 -66 -137 -99 q-5 2 -16.5 12 q-11.5 10 -25 23 q-13.5 13 -18.5 17 q64 36 135 94 q71 58 111 110 l74 -31 ZM500 120 q-171 -136 -404 -196 l-26 77 q101 21 202.5 66.5 q101.5 45.5 175.5 102.5 q-81 80 -152 252 l70 23 q56 -152 134 -225 q86 83 137 231 l80 -24 q-69 -173 -157 -258 q75 -57 174.5 -100.5 q99.5 -43.5 197.5 -58.5 l-22 -76 q-234 44 -410 186 Z" /><glyph glyph-name="Identity.8481" unicode="&#x4ea6;" d="M72 605 l0 78 l424 0 q-11 21 -41 77 l-6 10 q-14 26 -33 59 l76 25 q11 -19 37 -63 l5 -10 q10 -17 42 -74 l-57 -24 l409 0 l0 -78 l-261 0 l0 -573 q0 -38 -7.5 -58 q-7.5 -20 -28.5 -28 q-42 -15 -182 -15 l-6 80 q104 -2 131 0 q12 1 14.5 5 q2.5 4 2.5 17 l0 572 l-154 0 l0 -113 q-2 -398 -247 -572 l-51 68 q223 151 223 508 l0 109 l-290 0 ZM933 182 l-75 -32 q-16 63 -60.5 163 q-44.5 100 -90.5 169 l64 28 q48 -68 96.5 -167.5 q48.5 -99.5 65.5 -160.5 ZM282 493 q-21 -84 -62 -174.5 q-41 -90.5 -83 -145.5 l-64 50 q38 44 74 125 q36 81 55 160 l80 -15 Z" /><glyph glyph-name="Identity.8482" unicode="&#x4ea7;" d="M890 732 l0 -75 l-768 0 l0 75 l363 0 q-23 44 -61 93 l77 24 q49 -60 72 -114 l-5 -3 l322 0 ZM218 345 q0 -101 -25.5 -225 q-25.5 -124 -77.5 -197 l-69 52 q50 68 70.5 172.5 q20.5 104.5 20.5 199.5 l0 138 l220 0 q-18 34 -46 81 l-5 10 q-8 12 -32 52 l68 28 q44 -68 89 -141 l-69 -30 l242 0 q27 45 71 165 l83 -27 q-25 -44 -27 -47 l-6 -9 q-22 -39 -52 -82 l243 0 l0 -77 l-698 0 l0 -63 Z" /><glyph glyph-name="Identity.8486" unicode="&#x4eab;" d="M922 764 l0 -69 l-846 0 l0 69 l390 0 q-18 41 -35 73 l79 17 q22 -39 40 -90 l372 0 ZM804 642 l0 -204 l-602 0 l0 204 l602 0 ZM278 498 l446 0 l0 83 l-446 0 l0 -83 ZM492 -64 q-33 -9 -162 -9 l-22 0 l-5 66 q36 -1 80 -1.5 q44 -0.5 54 0.5 q13 1 17.5 5.5 q4.5 4.5 4.5 14.5 l0 118 l-392 0 l0 70 l392 0 l0 61 q90 19 194 59 l-492 0 l0 64 l608 0 l16 4 l53 -45 q-138 -79 -300 -120 l0 -23 l396 0 l0 -70 l-396 0 l0 -120 q0 -60 -46 -74 Z" /><glyph glyph-name="Identity.8487" unicode="&#x4eac;" d="M925 728 l0 -77 l-848 0 l0 77 l398 0 q-40 70 -61 101 l74 25 q46 -63 75 -126 l362 0 ZM500 -61 q-34 -12 -153 -12 l-14 0 l-15 0 l-6 77 q90 -3 130 -1 q13 0 17 4.5 q4 4.5 4 15.5 l0 262 l-263 0 l0 296 l610 0 l0 -296 l-266 0 l0 -264 q0 -66 -44 -82 ZM276 357 l454 0 l0 153 l-454 0 l0 -153 ZM922 6 l-69 -48 q-30 46 -85.5 116 q-55.5 70 -98.5 112 l64 40 q100 -99 189 -220 ZM323 198 q-37 -58 -96 -128 q-59 -70 -108 -111 l-50 56 q43 34 97.5 98.5 q54.5 64.5 81.5 111.5 l75 -27 Z" /><glyph glyph-name="Identity.8489" unicode="&#x4eae;" d="M926 758 l0 -69 l-854 0 l0 69 l406 0 q-30 54 -44 76 l77 19 q30 -40 52 -95 l363 0 ZM795 643 l0 -195 l-582 0 l0 195 l582 0 ZM289 506 l425 0 l0 79 l-425 0 l0 -79 ZM165 326 l0 -108 l-75 0 l0 173 l818 0 l0 -172 l-77 0 l0 107 l-666 0 ZM380 194 q-14 -108 -76.5 -173.5 q-62.5 -65.5 -201.5 -94.5 l-21 71 q128 22 177.5 84.5 q49.5 62.5 53.5 181.5 l373 0 l0 -217 q0 -18 10 -24 q10 -6 49 -6 l50 0 q36 0 46 21 q10 21 12 83 l74 -10 q-6 -89 -34 -126 q-28 -37 -95 -37 l-60 0 q-77 0 -104 23 q-27 23 -27 76 l0 148 l-226 0 Z" /><glyph glyph-name="Identity.8493" unicode="&#x4eb2;" d="M870 729 l0 -68 l-726 0 l0 68 l329 0 q-9 14 -27 49.5 q-18 35.5 -26 49.5 l76 19 q39 -61 58 -118 l316 0 ZM503 -56 q-35 -13 -154 -13 l-5 74 q27 -1 61 -1.5 q34 -0.5 42 0.5 q17 0 17 19 l0 236 l-359 0 l0 73 l359 0 l0 98 l-381 0 l0 70 l244 0 q-24 75 -65 140 l71 19 q40 -62 62 -147 l-21 -12 l219 0 q10 19 67 158 l78 -18 q-57 -108 -78 -140 l258 0 l0 -70 l-377 0 l0 -98 l361 0 l0 -73 l-361 0 l0 -237 q0 -63 -38 -78 ZM884 17 l-71 -46 q-27 43 -83 110 q-56 67 -102 108 l64 40 q47 -42 106 -107 q59 -65 86 -105 ZM356 202 q-34 -60 -89.5 -128.5 q-55.5 -68.5 -105.5 -108.5 l-52 59 q43 30 93.5 89.5 q50.5 59.5 77.5 112.5 l76 -24 Z" /><glyph glyph-name="Identity.8510" unicode="&#x4ec5;" d="M277 609 l0 -678 l-77 0 l0 569 q-51 -74 -109 -128 l-59 69 q80 72 156 182.5 q76 110.5 117 218.5 l77 -26 q-30 -70 -55 -116 l-4 -9 q-11 -22 -46 -82 ZM639 144 q-145 -156 -291 -217 l-33 71 q67 25 139.5 80.5 q72.5 55.5 135.5 123.5 q-120 170 -187 463 l11 7 l-50 0 l0 72 l473 0 l11 4 l52 -18 q-26 -154 -85.5 -293.5 q-59.5 -139.5 -134.5 -233.5 q55 -64 128 -120 q73 -56 142 -81 l-34 -71 q-142 56 -277 213 ZM476 672 q59 -272 154 -409 q59 77 107.5 185 q48.5 108 73.5 224 l-335 0 Z" /><glyph glyph-name="Identity.8515" unicode="&#x4eca;" d="M501 735 q-75 -90 -183 -174 q-108 -84 -220 -139 l-42 74 q123 57 247 156.5 q124 99.5 191 201.5 l73 -36 q-1 -1 -8 -11 l-5 -9 q-8 -10 -8 -11 q66 -76 182.5 -158 q116.5 -82 214.5 -128 l-44 -73 q-62 32 -142 88 l-8 5 q-29 20 -59 44 l-8 6 q-109 84 -181 164 ZM636 439 l-58 -56 q-20 20 -99 88 l-8 8 q-41 35 -82 71 l53 48 q113 -88 194 -159 ZM845 345 q-51 -72 -131 -184 l-6 -9 l-10 -13 q-5 -8 -15 -22 l-13 -18 q-85 -117 -132 -174 l-80 38 q45 52 135 175.5 q90 123.5 114 153.5 l-535 0 l0 78 l600 0 l13 5 l60 -30 Z" /><glyph glyph-name="Identity.8516" unicode="&#x4ecb;" d="M498 730 q-74 -96 -187.5 -181.5 q-113.5 -85.5 -226.5 -130.5 l-34 80 q126 41 256 143.5 q130 102.5 193 209.5 l61 -40 q-16 -25 -17 -28 q62 -84 181 -163 q119 -79 229 -111 l-33 -78 q-118 41 -233.5 123 q-115.5 82 -188.5 176 ZM720 469 l0 -543 l-82 0 l0 543 l82 0 ZM370 336 q0 -52 -9.5 -103 q-9.5 -51 -33 -109 q-23.5 -58 -72.5 -111 q-49 -53 -118 -91 l-45 69 q58 30 99 74 q41 44 61 93 q20 49 28 91.5 q8 42.5 8 87.5 l0 131 l82 0 l0 -132 Z" /><glyph glyph-name="Identity.8518" unicode="&#x4ecd;" d="M237 630 l0 -701 l-75 0 l0 568 q-34 -59 -74 -108 l-60 61 q64 74 123 182 q59 108 91 212 l74 -22 q-28 -85 -79 -192 ZM516 706 q-1 -42 -5 -141 l-1 -11 q-1 -5 -1.5 -15.5 q-0.5 -10.5 -0.5 -15.5 l-1 -10 q0 -11 -2 -31 l-1 -11 q0 -5 -1 -15.5 q-1 -10.5 -2 -15.5 l-1 -11 q-39 -362 -183 -505 l-57 57 q156 147 179 603 l0 10 l1 11 q2 70 2 101 l-110 0 l0 73 l456 0 q-2 -12 -8.5 -45.5 q-6.5 -33.5 -10.5 -52.5 l-2 -10 q-18 -91 -36 -170 l177 0 q0 -27 -1 -35 q-12 -231 -27.5 -347 q-15.5 -116 -39.5 -144 q-28 -34 -77 -38 q-37 -4 -148 2 q-1 17 -8.5 40.5 q-7.5 23.5 -16.5 34.5 q52 -3 135 -3 l8 0 q26 0 40 13 q39 39 58 405 l-191 0 q18 69 38 166 l2 10 q4 16 20 101 l-184 0 Z" /><glyph glyph-name="Identity.8519" unicode="&#x4ece;" d="M651 353 q-74 -297 -210 -424 l-65 66 q183 153 236 606 l1 12 l2 11 q1 13 3.5 38 q2.5 25 3.5 37 l1 11 q1 11 2.5 32.5 q1.5 21.5 2.5 32.5 l1 12 q0 9 2 29 l0 12 l87 -4 q-1 -4 -1 -10 l-1 -11 l0 -5 l-1 -15 q0 -1 -1 -3 l0 -2 l-1 -11 l0 -5 l-1 -15 q0 -4 -1 -5 l0 -11 q-4 -34 -5 -51 l-1 -10 q-10 -95 -21 -166 q30 -141 97.5 -283 q67.5 -142 161.5 -206 l-54 -73 q-78 60 -140.5 176 q-62.5 116 -97.5 235 ZM315 420 q-23 -147 -71 -278.5 q-48 -131.5 -116 -212.5 l-72 60 q138 146 189 520 l1 11 q1 2 1.5 5.5 q0.5 3.5 0.5 5.5 l1 11 q10 73 14 140 l1 12 q6 80 8 121 l0 11 l87 -3 q-2 -24 -2 -35 l-1 -10 q0 -2 -0.5 -8 q-0.5 -6 -0.5 -8 l-1 -10 l0 -5 l-1 -10 l0 -5 l-1 -11 q-2 -30 -3 -46 l-1 -10 q-12 -125 -15 -147 q48 -57 100.5 -139.5 q52.5 -82.5 82.5 -142.5 l-61 -56 q-70 147 -140 240 Z" /><glyph glyph-name="Identity.8524" unicode="&#x4ed3;" d="M857 170 q-6 -60 -17.5 -97.5 q-11.5 -37.5 -38 -65.5 q-26.5 -28 -71 -39.5 q-44.5 -11.5 -113.5 -11.5 l-139 0 q-97 0 -148.5 14.5 q-51.5 14.5 -70 43 q-18.5 28.5 -18.5 79.5 l0 399 q-85 -57 -146 -89 l-42 74 q127 56 251.5 158.5 q124.5 102.5 190.5 212.5 l73 -32 q-3 -4 -12 -17.5 q-9 -13.5 -13 -19.5 q123 -146 347 -260 l9 -4 q9 -5 52 -25 l-40 -72 q-24 12 -36 19 l-8 5 q-1 0 -5 2 l-8 5 q-2 1 -6.5 3.5 q-4.5 2.5 -7.5 3.5 l-8 5 q-2 1 -4 3 l-9 5 q-194 114 -318 259 q-64 -81 -158 -162 l-8 -7 q-42 -35 -74 -58 l486 0 q5 -21 5 -31 q-12 -236 -38 -269 q-25 -26 -70 -28 q-36 -4 -138 1 l-1 70 q51 -5 116 -5 q15 0 25 9 q15 18 24 182 l-349 0 l0 -336 q0 -25 8.5 -36 q8.5 -11 42.5 -17 q34 -6 106 -6 l137 0 q98 0 126.5 30 q28.5 30 34.5 118 l81 -13 Z" /><glyph glyph-name="Identity.8527" unicode="&#x4ed6;" d="M953 145 q-10 -110 -53 -155.5 q-43 -45.5 -161 -45.5 l-125 0 q-126 0 -171 33 q-45 33 -45 112 l0 328 l-86 -39 l-30 69 l116 47 l0 261 l77 0 l0 -229 l133 53 l0 267 l73 0 l0 -238 l151 60 l9 9 l14 12 l54 -22 l-3 -14 q0 -309 -12 -367 q-12 -63 -62 -75 q-39 -11 -113 -7 l-1 74 q16 -1 69 -1 q14 0 21 5.5 q7 5.5 11 22.5 q12 38 15 283 l-153 -56 l0 -372 l-73 0 l0 341 l-133 -54 l0 -358 q0 -43 25.5 -58 q25.5 -15 115.5 -15 l122 0 q44 0 70.5 7.5 q26.5 7.5 40.5 27.5 q14 20 19.5 42.5 q5.5 22.5 8.5 64.5 l76 -13 ZM251 617 l0 -686 l-77 0 l0 573 q-38 -58 -93 -115 l-56 63 q74 73 145 181.5 q71 108.5 109 212.5 l73 -23 q-18 -49 -49 -109 l-5 -9 l-4 -9 q-10 -21 -43 -79 Z" /><glyph glyph-name="Identity.8529" unicode="&#x4ed8;" d="M278 606 l0 -674 l-78 0 l0 560 q-38 -56 -95 -116 l-60 67 q76 71 148.5 181.5 q72.5 110.5 111.5 217.5 l77 -25 q-44 -110 -104 -211 ZM760 -59 q-42 -14 -218 -11 l-6 77 q45 -2 101.5 -2.5 q56.5 -0.5 68.5 0.5 q29 3 29 33 l0 519 l-390 0 l0 79 l390 0 l0 201 l79 0 l0 -201 l129 0 l0 -79 l-129 0 l0 -519 q0 -80 -54 -97 ZM624 212 l-72 -39 q-18 35 -74 132 l-5 9 q-1 1 -3 5 q-2 4 -3 5 l-5 10 q-38 66 -54 93 l68 33 q10 -16 32 -52 q22 -36 30 -50 l5 -10 q7 -12 81 -136 Z" /><glyph glyph-name="Identity.8540" unicode="&#x4ee3;" d="M292 618 l0 -687 l-79 0 l0 580 q-52 -71 -129 -142 l-55 68 q84 72 166.5 183 q82.5 111 127.5 218 l74 -25 q-24 -57 -65 -128 l-5 -9 q-17 -31 -35 -58 ZM964 174 q-16 -123 -48 -184.5 q-32 -61.5 -71 -59.5 q-55 4 -101 48 q-46 44 -78.5 119 q-32.5 75 -55 168.5 q-22.5 93.5 -36.5 206.5 l-231 -29 l-11 75 l230 26 q-5 58 -12 166 l-1 16 q0 2 -0.5 5 q-0.5 3 -0.5 5 l0 11 l-1 10 l0 10 q-2 20 -4 66 l80 0 q1 -11 1 -35 l0 -10 l0 -26 l0 -21 l0 -10 q0 -121 6 -174 l301 38 l11 -75 l-304 -38 q25 -196 78 -324 q53 -128 125 -135 q19 -1 33 46.5 q14 47.5 20 120.5 l70 -16 ZM922 670 l-62 -43 q-29 31 -56 57 l-7 8 q-8 7 -24 23 l-8 8 l-8 8 q-10 10 -30.5 29.5 q-20.5 19.5 -29.5 28.5 l58 39 q15 -15 61 -56 l8 -8 l4 -4 l8 -7 q51 -48 86 -83 Z" /><glyph glyph-name="Identity.8541" unicode="&#x4ee4;" d="M505 728 q-95 -99 -242 -194 l-9 -5 q-78 -49 -157 -89 l-40 74 q123 52 251.5 147 q128.5 95 198.5 191 l72 -39 q-11 -12 -29 -37 q67 -70 184.5 -143.5 q117.5 -73.5 216.5 -115.5 l-40 -76 q-111 51 -239 145 l-9 6 q-92 69 -158 136 ZM609 471 l-58 -50 q-29 31 -82 85 l-8 8 q-44 44 -62 61 l56 46 q16 -15 56 -53 l8 -8 q51 -48 90 -89 ZM679 -10 l-60 -67 q-85 80 -152 135 l-8 7 q-87 71 -143 104 l55 57 q26 -15 80 -55 l8 -6 l9 -6 q24 -19 46 -33 q34 33 97 104.5 q63 71.5 86 94.5 l-518 0 l0 76 l594 0 l13 5 l57 -37 q-24 -25 -81 -88 q-57 -63 -80 -88 l-7 -8 q-60 -65 -100 -104 q24 -17 62.5 -53 q38.5 -36 41.5 -38 Z" /><glyph glyph-name="Identity.8542" unicode="&#x4ee5;" d="M684 180 q-110 -179 -287 -262 l-40 77 q105 42 178 116 q73 74 116 182.5 q43 108.5 64.5 231 q21.5 122.5 29.5 287.5 l84 -5 q-22 -378 -107 -558 q4 -4 11 -10.5 q7 -6.5 10 -9.5 l7 -8 q132 -132 205 -238 l-69 -51 q-30 48 -89.5 122 q-59.5 74 -112.5 126 ZM497 221 q-281 -134 -339 -184 l-45 64 q19 10 39 36 q20 26 20 55 l0 583 l83 0 l0 -590 l221 111 q5 -32 21 -75 ZM596 530 l-72 -41 q-35 59 -87 139 l-6 10 q-4 6 -25 38.5 q-21 32.5 -32 47.5 l67 36 q90 -126 155 -230 Z" /><glyph glyph-name="Identity.8549" unicode="&#x4eec;" d="M562 659 l-66 -38 q-34 80 -118 194 l63 33 q90 -123 121 -189 ZM235 616 l0 -686 l-76 0 l0 543 q-30 -57 -61 -96 l-59 57 q60 77 114 188.5 q54 111.5 85 220.5 l72 -22 q-26 -91 -75 -205 ZM868 -54 q-36 -14 -172 -14 l-4 76 q29 -1 69.5 -1.5 q40.5 -0.5 49.5 0.5 q20 1 20 24 l0 709 l-262 0 l0 74 l340 0 l0 -784 q0 -67 -41 -84 ZM418 657 l0 -728 l-78 0 l0 728 l78 0 Z" /><glyph glyph-name="Identity.8559" unicode="&#x4ef6;" d="M256 612 l0 -681 l-75 0 l0 567 q-27 -44 -85 -110 l-58 63 q71 74 138 182.5 q67 108.5 104 212.5 l75 -24 q-37 -96 -99 -210 ZM668 286 l0 -357 l-77 0 l0 357 l-266 0 l0 77 l266 0 l0 213 l-141 0 l-12 -33 l-3 -10 q-28 -76 -49 -109 l-67 43 q69 96 113 335 l75 -16 q-12 -68 -33 -135 l117 0 l0 186 l77 0 l0 -186 l228 0 l0 -75 l-228 0 l0 -213 l271 0 l0 -77 l-271 0 Z" /><glyph glyph-name="Identity.8560" unicode="&#x4ef7;" d="M607 724 q-122 -200 -295 -302 l-40 65 q76 43 141 108.5 q65 65.5 105.5 128 q40.5 62.5 66.5 126.5 l83 -17 q-7 -13 -22 -48 q48 -80 137 -160.5 q89 -80.5 169 -122.5 l-43 -67 q-80 45 -164 126 q-84 81 -138 163 ZM258 615 l0 -685 l-77 0 l0 565 q-28 -47 -78 -104 l-59 62 q70 75 135.5 183.5 q65.5 108.5 99.5 211.5 l74 -24 q-13 -36 -39 -96 l-5 -10 l-4 -9 q-23 -50 -47 -94 ZM788 474 l0 -542 l-81 0 l0 542 l81 0 ZM518 333 q0 -48 -6.5 -96 q-6.5 -48 -23 -107.5 q-16.5 -59.5 -53 -115.5 q-36.5 -56 -89.5 -96 l-48 62 q137 95 140 352 l0 140 l80 0 l0 -139 Z" /><glyph glyph-name="Identity.8564" unicode="&#x4efb;" d="M277 619 l0 -690 l-77 0 l0 580 q-44 -63 -113 -130 l-59 69 q81 72 158.5 183 q77.5 111 118.5 218 l78 -24 q-4 -7 -7.5 -15 q-3.5 -8 -8 -18 q-4.5 -10 -7.5 -16 l-5 -9 l-4 -9 q-6 -11 -11 -22 l-7 -14 q-1 -3 -5 -9 l-4 -8 q-21 -43 -47 -86 ZM932 47 l0 -78 l-590 0 l0 78 l251 0 l0 311 l-281 0 l0 76 l281 0 l0 253 q-118 -22 -231 -35 l-12 68 q130 16 273.5 46 q143.5 30 226.5 60 l58 -66 q-68 -21 -142 -38 l-11 -3 q-54 -13 -91 -20 l0 -265 l283 0 l0 -76 l-283 0 l0 -311 l268 0 Z" /><glyph glyph-name="Identity.8566" unicode="&#x4efd;" d="M253 614 l0 -685 l-77 0 l0 564 q-16 -26 -77 -104 l-59 61 q68 74 132 182.5 q64 108.5 100 213.5 l76 -22 q-28 -79 -95 -210 ZM961 468 l-53 -65 q-37 51 -75 113 l-5 8 q-2 2 -5 8 q-3 6 -5 8 l-5 8 q-75 127 -142 268 l70 13 q87 -170 183 -310 l6 -7 q20 -30 31 -44 ZM596 397 q-43 -354 -235 -472 l-42 65 q88 48 137.5 156 q49.5 108 63.5 251 l-123 0 l0 66 q-4 -5 -23 -31 q-19 -26 -32 -36 l-52 66 q71 56 126.5 153 q55.5 97 85.5 208 l76 -17 q-53 -188 -175 -339 l434 0 q0 -24 2 -33 q-19 -416 -59 -460 q-24 -32 -67 -37 q-48 -4 -123 2 l0 73 q57 -5 92 -5 q20 0 31 14 q30 33 46 376 l-163 0 Z" /><glyph glyph-name="Identity.8586" unicode="&#x4f11;" d="M275 609 l0 -678 l-77 0 l0 572 q-45 -63 -113 -127 l-58 70 q82 71 159.5 180.5 q77.5 109.5 117.5 216.5 l80 -25 q-22 -54 -62 -128 l-5 -9 q-21 -37 -42 -72 ZM659 470 l0 -541 l-75 0 l0 520 q-48 -118 -114.5 -227 q-66.5 -109 -131.5 -166 l-55 64 q71 56 145 171.5 q74 115.5 120 235.5 l-234 0 l0 76 l270 0 l0 233 l75 0 l0 -233 l282 0 l0 -76 l-248 0 q44 -111 123.5 -227 q79.5 -116 150.5 -173 l-58 -67 q-68 63 -139.5 180.5 q-71.5 117.5 -110.5 229.5 Z" /><glyph glyph-name="Identity.8592" unicode="&#x4f17;" d="M502 720 q-140 -193 -396 -295 l-36 81 q133 42 249.5 135.5 q116.5 93.5 173.5 209.5 l71 -29 q-5 -20 -23 -48 q60 -86 172.5 -161.5 q112.5 -75.5 222.5 -104.5 l-32 -76 q-118 41 -227 119 q-109 78 -175 169 ZM318 261 q-85 -237 -194 -330 l-55 60 q85 65 142 205.5 q57 140.5 76 305.5 l81 -7 q-11 -82 -28 -160 q46 -36 97 -88 q51 -52 80 -89 l-56 -56 q-80 104 -143 159 ZM653 240 q-70 -230 -182 -316 l-50 60 q87 63 136.5 199 q49.5 136 65.5 309 l81 -3 q-6 -68 -18 -132 q13 -44 35.5 -92.5 q22.5 -48.5 53 -98 q30.5 -49.5 71.5 -91.5 q41 -42 85 -64 l-45 -74 q-74 43 -136 129 q-62 86 -97 174 Z" /><glyph glyph-name="Identity.8593" unicode="&#x4f18;" d="M254 602 l0 -672 l-75 0 l0 559 q-32 -52 -77 -99 l-59 63 q71 74 137.5 182 q66.5 108 102.5 211 l74 -24 q-37 -99 -103 -220 ZM584 546 q-32 -458 -245 -615 l-50 64 q190 134 221 551 l-210 0 l0 74 l214 0 q0 3 3 98 l0 10 q0 6 0.5 18 q0.5 12 0.5 17 l0 10 l0 64 l79 0 l0 -54 l0 -10 q0 -3 -0.5 -9.5 q-0.5 -6.5 -0.5 -10.5 l0 -10 q0 -20 -1 -30 l0 -10 q-2 -48 -3 -83 l346 0 l0 -74 l-354 0 ZM878 675 l-59 -41 q-34 39 -76 86 l-8 8 q-12 13 -52 56 l55 40 q99 -101 140 -149 ZM941 171 q-5 -117 -32.5 -164.5 q-27.5 -47.5 -97.5 -47.5 l-59 0 q-73 0 -101 26 q-28 26 -28 85 l0 406 l78 0 l0 -406 q0 -23 9.5 -30.5 q9.5 -7.5 47.5 -7.5 l50 0 q37 0 48.5 30.5 q11.5 30.5 13.5 118.5 l71 -10 Z" /><glyph glyph-name="Identity.8594" unicode="&#x4f19;" d="M264 622 l0 -691 l-79 0 l0 569 q-32 -48 -86 -107 l-59 64 q72 72 140 179.5 q68 107.5 104 210.5 l75 -26 q-31 -85 -95 -199 ZM949 8 l-34 -78 q-110 44 -185 136.5 q-75 92.5 -110 213.5 q-69 -263 -268 -349 q-26 43 -52 60 q46 20 83.5 48 q37.5 28 65 57.5 q27.5 29.5 48.5 71.5 q21 42 35 79.5 q14 37.5 23.5 92.5 q9.5 55 14.5 99.5 q5 44.5 7.5 111 q2.5 66.5 3 116.5 q0.5 50 0.5 127 q0 10 0 15.5 q0 5.5 0 14.5 q0 9 0 16 l86 0 l0 -37 l0 -5 l0 -11 l0 -11 l0 -10 l0 -6 l0 -10 l0 -27 l0 -10 q-2 -175 -6 -247 q16 -112 50 -202.5 q34 -90.5 95 -160 q61 -69.5 143 -95.5 ZM942 647 q-1 -2 -37 -94 l-4 -10 l-4 -10 l-4 -10 l-6 -15 l-4 -10 q-37 -90 -60 -132 l-70 24 q25 50 56.5 136.5 q31.5 86.5 47.5 146.5 l85 -26 ZM478 657 q-33 -159 -68 -281 l-2 -8 q-1 -3 -3 -9.5 q-2 -6.5 -3 -9.5 l-67 31 q17 58 35 141 l3 10 q0 3 2 11 l2 11 q4 17 24 115 l77 -11 Z" /><glyph glyph-name="Identity.8595" unicode="&#x4f1a;" d="M275 540 q-111 -70 -172 -97 l-40 76 q132 55 255 146 q123 91 184 183 l75 -34 q-21 -28 -31 -43 q65 -66 179 -135.5 q114 -69.5 216 -104.5 l-36 -78 q-84 35 -174 91 l0 -69 l-456 0 l0 65 ZM289 549 l435 0 q-133 84 -223 176 q-91 -99 -212 -176 ZM894 -26 l-71 -44 q-37 63 -56 88 q-295 -24 -451 -41 l-9 -1 q-53 -7 -86 -12 l-5 -1 q-18 -3 -38 -8 l-2 -1 l-1 0 q-1 -1 -2 -1 l-24 82 q15 3 68 54 q29 24 119 141 l8 10 l2 2 q1 2 2 3 l7 9 q5 7 22 29 l-275 0 l0 77 l803 0 l0 -77 l-427 0 q-26 -36 -41 -55 l-6 -8 l-6 -8 l-6 -9 q-5 -6 -15 -20 l-6 -8 q-4 -4 -10 -12 l-6 -8 q-50 -63 -94 -104 l426 35 q-73 87 -114 125 l65 37 q60 -55 128.5 -137.5 q68.5 -82.5 100.5 -136.5 Z" /><glyph glyph-name="Identity.8601" unicode="&#x4f20;" d="M250 613 l0 -682 l-77 0 l0 570 q-36 -55 -92 -113 l-58 64 q75 72 146 181 q71 109 109 213 l75 -24 q-35 -88 -103 -209 ZM778 -12 l-60 -60 q-47 50 -119.5 114.5 q-72.5 64.5 -131.5 101.5 l56 48 q17 -14 53.5 -37.5 q36.5 -23.5 41.5 -27.5 q18 21 56 67 l6 9 q61 77 73 91 l-343 0 q17 45 39 118 l4 10 l3 11 q3 8 8 24.5 q5 16.5 7 24.5 l-169 0 l0 72 l192 0 q2 7 13 49 q11 42 17 61 l-174 0 l0 73 l195 0 l1 2 q0 2 0 3 l2 10 q4 17 11 47.5 q7 30.5 10 43.5 l80 -11 q-4 -15 -27 -95 l274 0 l0 -73 l-296 0 q-9 -38 -29 -110 l370 0 l0 -72 l-393 0 q-29 -107 -32 -115 l304 0 l12 6 l54 -35 q-21 -25 -74.5 -86.5 q-53.5 -61.5 -73.5 -85.5 l-7 -9 q-25 -29 -63 -74 q60 -45 110 -95 Z" /><glyph glyph-name="Identity.8605" unicode="&#x4f24;" d="M249 607 l0 -676 l-75 0 l0 568 q-42 -62 -91 -111 l-58 65 q75 73 146 182 q71 109 109 213 l76 -24 q-19 -50 -51 -113 l-4 -9 q-18 -36 -52 -95 ZM472 631 q-61 -104 -104 -147 l-57 55 q52 48 99 132.5 q47 84.5 75 174.5 l77 -17 q-1 -2 -7 -16 q-6 -14 -9 -22 l-6 -14 q-18 -47 -30 -72 l408 0 l0 -74 l-446 0 ZM614 375 q-46 -332 -262 -452 l-39 66 q181 90 231 386 l-200 0 l0 73 l207 0 q3 25 4 80 q1 55 1 65 l79 0 q0 -14 -2 -44 l-1 -10 q-4 -64 -7 -91 l270 0 q0 -26 -1 -36 q-12 -378 -48 -427 q-23 -29 -72 -34 q-44 -5 -143 1 q-1 17 -8 38.5 q-7 21.5 -16 29.5 l138 0 q26 0 34 14 q27 27 37 341 l-202 0 Z" /><glyph glyph-name="Identity.8617" unicode="&#x4f30;" d="M887 366 l0 -403 l-505 0 l0 403 l209 0 l0 195 l-259 0 l0 77 l259 0 l0 210 l72 0 l0 -210 l286 0 l0 -77 l-286 0 l0 -195 l224 0 ZM249 609 l0 -678 l-75 0 l0 571 q-36 -55 -93 -115 l-57 64 q74 71 145 180.5 q71 109.5 110 213.5 l74 -25 q-37 -94 -104 -211 ZM458 39 l349 0 l0 251 l-349 0 l0 -251 Z" /><glyph glyph-name="Identity.8621" unicode="&#x4f34;" d="M261 624 l0 -691 l-74 0 l0 584 q-43 -64 -105 -126 l-56 65 q77 73 150.5 180.5 q73.5 107.5 112.5 209.5 l74 -22 q-36 -90 -102 -200 ZM655 222 l0 -292 l-71 0 l0 292 l-276 0 l0 75 l276 0 l0 169 l-242 0 l0 75 l242 0 l0 296 l71 0 l0 -296 l252 0 l0 -75 l-252 0 l0 -169 l296 0 l0 -75 l-296 0 ZM900 778 q-63 -131 -116 -215 l-65 26 q65 110 102 219 l79 -30 ZM514 592 l-73 -31 q-15 43 -47 118 l-4 10 l-4 10 q-5 11 -16 37 q-11 26 -17 38 l67 26 q64 -132 94 -208 Z" /><glyph glyph-name="Identity.8627" unicode="&#x4f3a;" d="M249 615 l0 -683 l-76 0 l0 570 q-32 -49 -91 -115 l-58 64 q74 73 144 181.5 q70 108.5 107 211.5 l72 -24 q-33 -87 -98 -205 ZM864 -55 q-38 -15 -195 -15 l-5 80 q29 -1 91 -1 l11 0 q35 0 43 1 q23 0 23 26 l0 688 l-488 0 l0 73 l567 0 l0 -763 q0 -72 -47 -89 ZM767 635 l0 -71 l-427 0 l0 71 l427 0 ZM708 474 l0 -350 l-336 0 l0 350 l336 0 ZM444 194 l191 0 l0 210 l-191 0 l0 -210 Z" /><glyph glyph-name="Identity.8629" unicode="&#x4f3c;" d="M241 633 l0 -703 l-75 0 l0 570 q-30 -55 -86 -123 l-58 60 q67 78 129.5 190 q62.5 112 94.5 217 l74 -22 q-27 -82 -79 -189 ZM774 246 q-75 -220 -194 -314 l-54 67 q68 48 115.5 126.5 q47.5 78.5 74.5 185 q27 106.5 40 216.5 q13 110 19 253 l0 12 l0 6 l1 12 l0 13 l81 -2 q-1 -19 -3 -59 l-1 -17 l0 -10 l-1 -17 q-1 -1 -1 -5 l0 -11 q-1 -6 -2 -18.5 q-1 -12.5 -1 -18.5 l-1 -11 q-1 -5 -1 -13 q0 -8 -1 -13 l-1 -11 l-1 -10 q-15 -163 -39 -260 q43 -82 88.5 -186 q45.5 -104 61.5 -161 l-73 -37 q-33 125 -107 283 ZM638 236 q-205 -143 -256 -201 l-56 63 q13 11 24.5 36 q11.5 25 11.5 53 l0 597 l77 0 l0 -602 l177 124 q2 -11 22 -70 ZM673 454 l-72 -28 q-40 116 -61 169 l-5 16 q-2 4 -2 5 l-4 10 q-14 38 -43 111 l64 25 q31 -72 42 -99 l4 -10 q52 -127 77 -199 Z" /><glyph glyph-name="Identity.8639" unicode="&#x4f46;" d="M263 612 l0 -681 l-77 0 l0 569 q-35 -51 -94 -115 l-59 67 q70 68 132 160 l6 8 q77 113 119 226 l77 -25 q-37 -93 -104 -209 ZM869 781 l0 -605 l-478 0 l0 605 l478 0 ZM470 523 l318 0 l0 181 l-318 0 l0 -181 ZM470 252 l318 0 l0 196 l-318 0 l0 -196 ZM954 47 l-1 0 l0 -76 l-637 0 l0 76 l638 0 Z" /><glyph glyph-name="Identity.8646" unicode="&#x4f4d;" d="M681 701 l-76 -22 q0 1 -7 30.5 q-7 29.5 -12 46.5 l-2 10 q-3 11 -9.5 34.5 q-6.5 23.5 -9.5 33.5 l74 21 q15 -52 42 -154 ZM272 617 l0 -686 l-78 0 l0 571 q-33 -51 -92 -115 l-58 64 q75 73 145.5 181.5 q70.5 108.5 107.5 212.5 l74 -24 q-32 -86 -99 -204 ZM900 676 l0 -78 l-532 0 l0 78 l532 0 ZM941 50 l0 -78 l-607 0 l0 78 l332 0 q22 80 45 212 l2 10 q5 26 13 76 l2 11 q17 101 29 195 l82 -16 q-22 -121 -36 -193 l-2 -10 l-2 -11 l-3 -16 q-2 -7 -5 -21.5 q-3 -14.5 -4 -21.5 l-2 -10 l-3 -11 q-25 -120 -45 -194 l204 0 ZM579 118 l-78 -22 q-20 140 -38 248 l-2 11 q0 2 -0.5 6 q-0.5 4 -0.5 5 l-2 11 q-16 100 -26 153 l73 16 q4 -25 14 -80.5 q10 -55.5 14 -78.5 l2 -11 q27 -149 44 -258 Z" /><glyph glyph-name="Identity.8647" unicode="&#x4f4e;" d="M591 4 q-185 -53 -222 -76 l-28 65 q10 2 22.5 20 q12.5 18 12.5 42 l0 690 l1 0 l-1 1 q37 5 115 19 l11 2 q9 1 32 5 l11 2 l11 3 q3 0 11 2 l10 2 q171 34 255 65 l66 -62 q-77 -26 -187 -52 q0 -2 0.5 -5 q0.5 -3 0.5 -5 l0 -10 q0 -9 1 -26 q1 -17 1 -25 l1 -10 q0 -10 1 -15 l0 -10 l1 -10 q6 -93 10 -139 l212 0 l0 -75 l-204 0 q18 -156 52 -262 q34 -106 72 -108 q12 0 22 40 q10 40 14 97 l62 -15 q-14 -107 -41 -161.5 q-27 -54.5 -57 -54.5 q-71 1 -121.5 132 q-50.5 131 -72.5 332 l-217 0 l0 -369 l141 37 q-2 -38 2 -66 ZM257 618 l0 -687 l-76 0 l0 569 q-37 -59 -95 -124 l-58 63 q74 77 142.5 188.5 q68.5 111.5 105.5 217.5 l74 -23 q-16 -44 -43 -103 l-4 -9 l-4 -9 q-23 -48 -42 -83 ZM448 477 l207 0 q-6 64 -9 145 l0 10 q-1 5 -1.5 15.5 q-0.5 10.5 -0.5 15.5 l0 10 l0 10 l-1 11 l0 5 l0 10 l-1 10 l-5 0 l-9 -2 q-6 -2 -10 -2 l-9 -2 q-2 -1 -5 -1 l-10 -2 q-2 -1 -5 -1.5 q-3 -0.5 -5 -0.5 l-9 -2 q-2 0 -5.5 -0.5 q-3.5 -0.5 -4.5 -0.5 l-10 -2 l-10 -2 l-9 -2 l-39 -6 l-10 -1 l-39 -6 l0 -209 ZM715 -32 l-62 -22 q-33 116 -81 204 l58 20 q46 -81 85 -202 Z" /><glyph glyph-name="Identity.8648" unicode="&#x4f4f;" d="M694 692 l-75 -29 q-32 76 -75 162 l71 27 q36 -69 79 -160 ZM271 613 l0 -682 l-78 0 l0 567 q-39 -58 -93 -112 l-58 66 q75 72 145.5 180.5 q70.5 108.5 108.5 212.5 l75 -25 q-32 -87 -100 -207 ZM949 41 l0 -76 l-627 0 l0 76 l277 0 l0 257 l-226 0 l0 77 l226 0 l0 210 l-259 0 l0 77 l595 0 l0 -77 l-268 0 l0 -210 l238 0 l0 -77 l-238 0 l0 -257 l282 0 Z" /><glyph glyph-name="Identity.8652" unicode="&#x4f53;" d="M647 123 l0 -188 l-71 0 l0 188 l-157 0 l0 71 l157 0 l0 340 q-45 -129 -113 -251.5 q-68 -122.5 -138 -186.5 l-55 62 q72 58 145.5 177.5 q73.5 119.5 118.5 242.5 l-227 0 l0 76 l269 0 l0 191 l71 0 l0 -191 l294 0 l0 -76 l-252 0 q41 -118 119 -236.5 q78 -118.5 153 -178.5 l-58 -65 q-73 67 -145.5 193.5 q-72.5 126.5 -110.5 249.5 l0 -347 l154 0 l0 -71 l-154 0 ZM249 618 l0 -687 l-75 0 l0 565 q-14 -23 -44 -61.5 q-30 -38.5 -33 -43.5 l-60 59 q67 73 128 181 l6 9 q60 106 92 205 l74 -24 q-18 -51 -42 -105 l-4 -9 q-1 -3 -3 -7 q-2 -4 -3 -7 l-4 -9 q-5 -11 -16 -33 q-11 -22 -16 -33 Z" /><glyph glyph-name="Identity.8654" unicode="&#x4f55;" d="M264 629 l0 -698 l-77 0 l0 577 q-33 -55 -86 -113 l-57 61 q69 74 133.5 181.5 q64.5 107.5 100.5 209.5 l73 -24 q-34 -91 -87 -194 ZM826 -54 q-48 -15 -212 -15 l-5 81 q98 -3 164 0 q26 1 26 27 l0 640 l-460 0 l0 77 l612 0 l0 -77 l-75 0 l0 -640 q0 -76 -50 -93 ZM674 551 l0 -367 l-306 0 l0 367 l306 0 ZM442 254 l158 0 l0 226 l-158 0 l0 -226 Z" /><glyph glyph-name="Identity.8658" unicode="&#x4f59;" d="M502 -57 q-37 -16 -165 -14 l-6 76 q22 -1 114 -1 q20 1 20 21 l0 260 l-357 0 l0 76 l357 0 l0 120 l-213 0 l0 69 q-101 -67 -168 -99 l-37 71 q121 52 252 147 q131 95 203 189 l63 -35 q-3 -4 -10.5 -11 q-7.5 -7 -10.5 -11 q148 -159 413 -267 l-37 -72 q-2 1 -7 3 q-5 2 -7 3 l-9 4 q-19 10 -23 11 l-9 5 q-60 28 -117 63 l0 -70 l-204 0 l0 -120 l357 0 l0 -76 l-357 0 l0 -260 q0 -66 -42 -82 ZM257 553 l489 0 q-146 88 -246 198 q-82 -89 -227 -187 l-8 -6 q-5 -2 -8 -5 ZM913 18 l-68 -48 q-31 42 -95.5 109.5 q-64.5 67.5 -116.5 110.5 l62 40 q52 -40 118.5 -105.5 q66.5 -65.5 99.5 -106.5 ZM358 199 q-43 -59 -110.5 -127 q-67.5 -68 -123.5 -108 l-48 62 q48 30 109.5 89.5 q61.5 59.5 99.5 110.5 l73 -27 Z" /><glyph glyph-name="Identity.8661" unicode="&#x4f5c;" d="M271 612 l0 -681 l-78 0 l0 567 q-37 -55 -92 -112 l-59 66 q75 72 145.5 180.5 q70.5 108.5 108.5 212.5 l75 -26 q-20 -52 -56 -125 l-5 -8 q-22 -43 -39 -74 ZM642 182 l0 -252 l-70 0 l0 683 l-63 0 q-78 -143 -134 -206 l-60 55 q60 62 116.5 165.5 q56.5 103.5 91.5 209.5 l77 -20 q-20 -57 -56 -131 l405 0 l0 -73 l-307 0 l0 -134 l284 0 l0 -74 l-284 0 l0 -147 l298 0 l0 -76 l-298 0 Z" /><glyph glyph-name="Identity.8665" unicode="&#x4f60;" d="M249 615 l0 -683 l-75 0 l0 572 q-35 -52 -95 -117 l-57 63 q75 74 145.5 182.5 q70.5 108.5 108.5 211.5 l75 -23 q-18 -43 -36 -80 l-4 -9 q-32 -65 -62 -117 ZM648 -55 q-35 -17 -143 -17 l-6 81 q33 -1 92 -1 q6 0 8.5 2.5 q2.5 2.5 2.5 5 q0 2.5 0 10.5 l0 565 l-142 0 q-50 -120 -87 -171 l-63 48 q97 120 155 376 l77 -19 q-24 -91 -52 -163 l391 0 l10 6 l55 -13 q-18 -100 -45 -214 l-67 14 q5 25 14 79 l2 11 q1 6 3.5 22 q2.5 16 4.5 24 l-182 0 l0 -565 q0 -69 -28 -81 ZM939 100 l-76 -26 q-11 64 -47 168 q-36 104 -73 177 l69 23 q39 -72 77 -175 q38 -103 50 -167 ZM525 419 q-60 -245 -145 -350 l-59 46 q73 89 126 320 l78 -16 Z" /><glyph glyph-name="Identity.8677" unicode="&#x4f6c;" d="M926 136 q-8 -105 -44.5 -146.5 q-36.5 -41.5 -135.5 -41.5 l-99 0 q-108 0 -146 26 q-38 26 -38 88 l0 202 q-107 -78 -160 -104 l-41 71 q113 52 251 161 l8 7 q46 38 68 57 l-297 0 l0 71 l217 0 l0 127 l-176 0 l0 70 l176 0 l0 124 l75 0 l0 -124 l167 0 l0 -70 l-167 0 l0 -127 l66 0 q125 135 201 278 l75 -27 q-71 -129 -180 -251 l201 0 l0 -71 l-264 0 l-24 -24 l-7 -7 q-6 -8 -20 -22 l-7 -7 l-7 -7 q-52 -50 -80 -71 l0 -92 q144 52 268 130 l59 -58 q-146 -84 -327 -140 l0 -96 q0 -24 20 -32 q20 -8 92 -8 l94 0 q66 0 85.5 25.5 q19.5 25.5 22.5 99.5 l74 -11 ZM249 612 l0 -681 l-75 0 l0 562 q-28 -47 -78 -104 l-59 61 q69 74 133 182.5 q64 108.5 98 212.5 l74 -23 q-19 -54 -48 -118 l-4 -9 q-14 -29 -41 -83 Z" /><glyph glyph-name="Identity.8684" unicode="&#x4f73;" d="M927 516 l0 -76 l-591 0 l0 76 l247 0 l0 132 l-206 0 l0 75 l206 0 l0 126 l75 0 l0 -126 l224 0 l0 -75 l-224 0 l0 -132 l269 0 ZM258 611 l0 -682 l-77 0 l0 562 q-31 -50 -76 -102 l-59 61 q69 73 133 181.5 q64 108.5 100 212.5 l74 -22 q-19 -53 -51 -123 l-5 -9 q-2 -3 -4.5 -9 q-2.5 -6 -3.5 -9 l-5 -9 q-1 -2 -3 -6.5 q-2 -4.5 -3 -6.5 l-5 -9 l-15 -30 ZM947 46 l0 -78 l-643 0 l0 78 l279 0 l0 170 l-227 0 l0 75 l227 0 l0 116 l75 0 l0 -116 l241 0 l0 -75 l-241 0 l0 -170 l289 0 Z" /><glyph glyph-name="Identity.8696" unicode="&#x4f7f;" d="M261 625 l0 -701 l-75 0 l0 595 q-40 -60 -104 -124 l-56 65 q76 72 149.5 180.5 q73.5 108.5 113.5 211.5 l75 -24 q-18 -44 -60 -125 l-5 -9 l-5 -9 q-18 -31 -33 -60 ZM553 55 q-97 -95 -222 -132 l-27 72 q101 25 190 104 q-85 64 -144 167 l66 21 q50 -86 125 -137 q39 57 50 154 l-241 0 l0 278 l241 0 l0 87 l-260 0 l0 73 l260 0 l0 102 l71 0 l0 -102 l288 0 l0 -73 l-288 0 l0 -87 l255 0 l0 -278 l-261 0 q-5 -43 -9.5 -69 q-4.5 -26 -16.5 -63.5 q-12 -37.5 -29 -62.5 q71 -39 164.5 -69 q93.5 -30 180.5 -40 l-19 -76 q-208 32 -374 131 ZM659 372 l184 0 l0 141 l-181 0 l0 -103 q0 -26 -3 -38 ZM422 372 l173 0 q-4 12 -4 38 l0 103 l-169 0 l0 -141 Z" /><glyph glyph-name="Identity.8708" unicode="&#x4f8b;" d="M229 639 l0 -708 l-74 0 l0 568 q-30 -56 -62 -95 l-57 57 q59 73 110.5 178 q51.5 105 78.5 208 l71 -22 q-10 -36 -33 -99 l-4 -9 q0 -1 -0.5 -2.5 q-0.5 -1.5 -0.5 -2.5 l-4 -9 q-6 -17 -25 -64 ZM870 -48 q-44 -15 -168 -15 l-5 78 l29 0 l12 -1 l70 0 l8 0 q22 1 22 21 l0 809 l74 0 l0 -809 q0 -65 -42 -83 ZM625 574 q-23 -221 -99.5 -396.5 q-76.5 -175.5 -183.5 -250.5 l-46 63 q88 61 171 229 q-56 51 -109 92 l42 54 q19 -14 95 -76 q29 79 50 221 l-124 0 q-6 -22 -17 -50 l-3 -10 q-40 -116 -80 -171 l-62 47 q92 121 145 395 l-98 0 l0 74 l339 0 l0 -74 l-169 0 q0 -4 -1 -5 l-2 -10 l-2 -10 q-15 -77 -27 -115 l123 0 l13 4 l45 -11 ZM745 738 l0 -556 l-71 0 l0 556 l71 0 Z" /><glyph glyph-name="Identity.8724" unicode="&#x4f9b;" d="M254 615 l0 -684 l-77 0 l0 572 q-38 -59 -93 -114 l-57 65 q74 72 145 180.5 q71 108.5 109 212.5 l75 -24 q-33 -86 -102 -208 ZM949 329 l0 -77 l-632 0 l0 77 l144 0 l0 238 l-127 0 l0 75 l127 0 l0 196 l77 0 l0 -196 l179 0 l0 196 l76 0 l0 -196 l143 0 l0 -75 l-143 0 l0 -238 l156 0 ZM538 329 l179 0 l0 238 l-179 0 l0 -238 ZM557 175 q-39 -69 -90 -138 q-51 -69 -97 -109 l-52 58 q40 30 85.5 91 q45.5 61 78.5 122 l75 -24 ZM938 -27 l-67 -45 q-25 45 -78 116.5 q-53 71.5 -97 115.5 l61 36 q46 -43 100.5 -111.5 q54.5 -68.5 80.5 -111.5 Z" /><glyph glyph-name="Identity.8726" unicode="&#x4f9d;" d="M249 603 l0 -676 l-75 0 l0 563 q-24 -38 -77 -99 l-58 62 q71 75 137.5 183.5 q66.5 108.5 102.5 211.5 l75 -22 q-30 -85 -105 -223 ZM308 595 l0 76 l296 0 q-47 116 -63 151 l71 22 q29 -60 66 -152 l-59 -21 l313 0 l0 -76 l-311 0 l-3 -5 q30 -128 82 -244 q93 68 183 162 l58 -55 q-95 -87 -210 -164 q45 -82 105.5 -155 q60.5 -73 117.5 -107 l-48 -71 q-108 71 -193.5 226 q-85.5 155 -135.5 339 q-40 -58 -91 -111 l0 -363 l168 66 q4 -40 12 -69 q-212 -78 -262 -117 l-44 58 q18 13 34.5 37.5 q16.5 24.5 16.5 53.5 l0 261 q-6 -6 -31.5 -31 q-25.5 -25 -43 -40 q-17.5 -15 -35.5 -28 l-48 70 q78 47 158 125.5 q80 78.5 134 161.5 l-237 0 Z" /><glyph glyph-name="Identity.8736" unicode="&#x4fa7;" d="M218 638 l0 -706 l-64 0 l0 570 q-36 -73 -66 -114 l-57 51 q59 82 113 202 l4 9 l4 10 q39 89 66 187 l66 -19 q-23 -82 -66 -190 ZM876 -53 q-31 -15 -141 -15 l-5 70 q31 -1 88 -1 l7 0 q18 1 18 21 l0 817 l68 0 l0 -817 q0 -59 -35 -75 ZM366 726 l0 -556 l-64 0 l0 617 l330 0 l0 -615 l-66 0 l0 554 l-200 0 ZM762 758 l0 -595 l-65 0 l0 595 l65 0 ZM493 331 q0 -53 -7 -103.5 q-7 -50.5 -25 -108.5 q-18 -58 -55.5 -108 q-37.5 -50 -91.5 -82 q-4 8 -18.5 24 q-14.5 16 -22.5 23 q159 98 159 356 l0 337 l61 0 l0 -338 ZM656 -22 l-52 -39 q-19 35 -58 90.5 q-39 55.5 -70 88.5 l48 31 q72 -76 132 -171 Z" /><glyph glyph-name="Identity.8764" unicode="&#x4fc3;" d="M243 637 l0 -708 l-77 0 l0 573 q-31 -58 -86 -123 l-58 60 q68 78 130 189.5 q62 111.5 94 217.5 l74 -21 q-22 -65 -47 -120 l-4 -10 q-25 -55 -26 -58 ZM426 139 q-47 -154 -103 -215 l-59 53 q107 103 136 401 l77 -8 q-11 -91 -23 -133 q50 -135 141 -177 l0 409 l-216 0 l0 336 l498 0 l0 -336 l-217 0 l0 -146 l235 0 l0 -76 l-235 0 l0 -209 q51 -9 112 -9 l175 0 l6 0 q-16 -33 -25 -76 l-161 0 q-242 0 -341 186 ZM454 540 l345 0 l0 192 l-345 0 l0 -192 Z" /><glyph glyph-name="Identity.8784" unicode="&#x4fd7;" d="M249 615 l0 -685 l-75 0 l0 569 q-34 -56 -87 -111 l-57 63 q71 74 138 182.5 q67 108.5 103 211.5 l73 -24 q-35 -94 -95 -206 ZM931 618 l-66 -46 q-46 52 -104 114 l-7 8 q-20 21 -56.5 60 q-36.5 39 -39.5 43 l59 42 q46 -46 71 -72 l8 -8 q92 -93 135 -141 ZM573 810 q-39 -68 -96.5 -140 q-57.5 -72 -108.5 -118 l-53 56 q46 37 97.5 101.5 q51.5 64.5 86.5 127.5 l74 -27 ZM837 313 l0 -353 l-460 0 l0 350 q-8 -5 -27 -23.5 q-19 -18.5 -34 -26.5 l-42 71 q93 47 176 144 q83 97 131 205 l71 -25 q-14 -31 -16 -34 q105 -179 319 -291 l-42 -70 q-16 9 -44 29.5 q-28 20.5 -32 23.5 ZM391 320 l437 0 q-131 91 -222 235 q-85 -139 -215 -235 ZM450 33 l311 0 l0 214 l-311 0 l0 -214 Z" /><glyph glyph-name="Identity.8790" unicode="&#x4fdd;" d="M261 622 l0 -690 l-75 0 l0 581 q-43 -63 -101 -121 l-57 64 q70 66 142 171 l6 9 q74 112 111 211 l76 -23 q-39 -97 -102 -202 ZM662 254 l0 -325 l-72 0 l0 322 q-46 -81 -116.5 -160.5 q-70.5 -79.5 -137.5 -118.5 l-43 70 q64 32 138 106.5 q74 74.5 122 151.5 l-239 0 l0 72 l276 0 l0 118 l-210 0 l0 314 l507 0 l0 -314 l-225 0 l0 -118 l280 0 l0 -72 l-239 0 q46 -74 121.5 -150.5 q75.5 -76.5 137.5 -109.5 l-46 -70 q-63 41 -135 123 q-72 82 -119 161 ZM452 562 l358 0 l0 169 l-358 0 l0 -169 Z" /><glyph glyph-name="Identity.8794" unicode="&#x4fe1;" d="M936 691 l0 -69 l-616 0 l0 69 l287 0 l-1 2 q-5 10 -17.5 33.5 q-12.5 23.5 -17.5 32.5 l-6 10 q-16 30 -29 52 l68 28 q8 -13 24 -45 l5 -9 q24 -46 38 -76 l-61 -28 l326 0 ZM256 632 l0 -707 l-73 0 l0 589 q-29 -50 -88 -122 l-57 58 q68 73 131.5 181.5 q63.5 108.5 99.5 213.5 l70 -23 q-23 -64 -49 -119 l-4 -9 q-10 -22 -30 -62 ZM857 551 l0 -66 l-474 0 l0 66 l474 0 ZM857 412 l0 -66 l-474 0 l0 66 l474 0 ZM867 266 l0 -306 l-498 0 l0 306 l498 0 ZM437 26 l360 0 l0 172 l-360 0 l0 -172 Z" /><glyph glyph-name="Identity.8807" unicode="&#x4fee;" d="M242 629 l0 -700 l-75 0 l0 570 q-33 -60 -85 -122 l-58 60 q67 77 129 188.5 q62 111.5 95 217.5 l72 -23 q-32 -93 -78 -191 ZM554 681 q46 -77 125 -132 q91 57 139 132 l-264 0 ZM375 579 l0 -1 l0 -484 l-60 0 l0 485 l60 0 ZM744 383 q-42 -44 -112.5 -85 q-70.5 -41 -136.5 -60 q-3 2 -19 19 q-16 17 -24 23 q64 21 130 57 q66 36 102 72 l60 -26 ZM838 283 q-51 -56 -145.5 -107.5 q-94.5 -51.5 -196.5 -81.5 l-21 57 q84 19 171.5 62.5 q87.5 43.5 131.5 93.5 l60 -24 ZM939 170 q-69 -82 -205.5 -147.5 q-136.5 -65.5 -292.5 -92.5 l-18 68 q134 19 261 75.5 q127 56.5 188 126.5 l67 -30 ZM428 531 q-9 11 -53 47 q55 49 106.5 123 q51.5 74 79.5 147 l66 -19 q-9 -42 -37 -87 l267 0 l13 5 l46 -23 q-27 -62 -75 -118.5 q-48 -56.5 -106 -95.5 q88 -45 214 -71 l-23 -69 q-145 35 -248 99 q-118 -69 -278 -104 l-19 64 q124 23 246 83 q-60 41 -113 118 q-46 -64 -86 -99 Z" /><glyph glyph-name="Identity.8836" unicode="&#x500b;" d="M243 634 l0 -705 l-75 0 l0 580 q-41 -70 -89 -124 l-58 62 q70 76 132.5 183 q62.5 107 96.5 215 l74 -21 q-21 -58 -50 -121 l-6 -14 l-4 -9 l-2 -5 l-7 -13 l-4 -9 l-4 -9 q-1 -2 -2.5 -5.5 q-1.5 -3.5 -1.5 -4.5 ZM914 791 l0 -813 l-571 0 l0 813 l571 0 ZM415 49 l424 0 l0 671 l-424 0 l0 -671 ZM770 421 l0 -273 l-279 0 l0 273 l103 0 l0 105 l-144 0 l0 60 l144 0 l0 112 l60 0 l0 -112 l154 0 l0 -60 l-154 0 l0 -105 l116 0 ZM550 208 l158 0 l0 153 l-158 0 l0 -153 Z" /><glyph glyph-name="Identity.8843" unicode="&#x5012;" d="M231 627 l0 -698 l-73 0 l0 567 q-30 -57 -78 -118 l-58 58 q65 79 123.5 190 q58.5 111 90.5 217 l70 -21 q-24 -80 -75 -195 ZM864 -35 q-37 -14 -170 -14 l-7 72 q34 -1 76 -1.5 q42 -0.5 52 0.5 q20 1 20 24 l0 775 l73 0 l0 -775 q0 -64 -44 -81 ZM675 469 l-60 -29 q-2 5 -5.5 19 q-3.5 14 -8 26 q-4.5 12 -9.5 22 q-251 -37 -277 -51 l-24 69 q14 3 37 39 q25 39 68 148 l-94 0 l0 68 l358 0 l0 -68 l-190 0 q-46 -117 -89 -174 l183 24 q-9 14 -27.5 42.5 q-18.5 28.5 -26.5 40.5 l54 24 q33 -43 66.5 -103 q33.5 -60 44.5 -97 ZM763 770 l0 -585 l-70 0 l0 585 l70 0 ZM663 99 l-15 -3 l-10 -2 q-2 0 -8 -1 q-6 -1 -8 -2 l-10 -3 q-20 -4 -31 -7 l-10 -2 l-10 -2 l-11 -3 l-15 -3 l-10 -3 l-11 -2 q-5 -1 -15 -3.5 q-10 -2.5 -15 -3.5 l-10 -2 q-4 -1 -10 -3 l-10 -2 q-163 -38 -179 -41 l-14 74 q43 6 127 24 l10 2 q5 1 13.5 2.5 q8.5 1.5 12.5 2.5 l0 154 l-137 0 l0 68 l137 0 l0 113 l70 0 l0 -113 l156 0 l0 -68 l-156 0 l0 -141 q25 6 81 18 l15 3 q46 10 68 15 l5 -66 Z" /><glyph glyph-name="Identity.8850" unicode="&#x5019;" d="M234 608 l0 -681 l-75 0 l0 547 q-32 -59 -64 -97 l-59 58 q63 77 119.5 189 q56.5 112 87.5 219 l72 -22 q-24 -84 -81 -213 ZM668 136 q-70 -146 -254 -213 l-30 66 q103 34 161.5 92.5 q58.5 58.5 75.5 118.5 l-217 0 l0 69 l223 0 l0 127 l-98 0 q-36 -70 -75 -112 l-55 47 q33 34 66.5 98.5 q33.5 64.5 53.5 127.5 l-117 0 l0 69 l351 0 q4 22 9.5 61.5 q5.5 39.5 6.5 47.5 l-311 0 l0 66 l328 0 l12 5 l55 -6 q-9 -70 -28 -174 l113 0 l0 -69 l-415 0 l67 -16 q-3 -10 -14.5 -38.5 q-11.5 -28.5 -14.5 -40.5 l346 0 l0 -66 l-204 0 l0 -127 l238 0 l0 -68 l-229 -1 q22 -59 82 -116.5 q60 -57.5 152 -80.5 l-26 -71 q-93 27 -156.5 84.5 q-63.5 57.5 -95.5 119.5 ZM377 642 l0 -510 l-70 0 l0 510 l70 0 Z" /><glyph glyph-name="Identity.8856" unicode="&#x501f;" d="M248 613 l0 -681 l-74 0 l0 572 q-46 -69 -101 -119 q-36 61 -45 72 q70 68 139.5 176 q69.5 108 108.5 212 l73 -24 q-23 -62 -66 -144 l-4 -9 q-6 -11 -17 -30.5 q-11 -19.5 -14 -24.5 ZM956 532 l0 -72 l-664 0 l0 72 l167 0 l0 127 l-126 0 l0 70 l126 0 l0 110 l72 0 l0 -110 l173 0 l0 110 l74 0 l0 -110 l141 0 l0 -70 l-141 0 l0 -127 l178 0 ZM531 532 l173 0 l0 127 l-173 0 l0 -127 ZM867 385 l0 -423 l-478 0 l0 423 l478 0 ZM463 215 l327 0 l0 104 l-327 0 l0 -104 ZM463 30 l327 0 l0 122 l-327 0 l0 -122 Z" /><glyph glyph-name="Identity.8885" unicode="&#x503c;" d="M946 30 l0 -69 l-650 0 l0 69 l86 0 l0 566 l172 0 q4 13 8.5 42.5 q4.5 29.5 7.5 42.5 l-234 0 l0 68 l247 0 q3 19 2.5 51.5 q-0.5 32.5 0.5 46.5 l83 -7 q-4 -23 -5 -39 l0 -10 q-5 -39 -6 -42 l258 0 l0 -68 l-281 0 q-3 -13 -6 -42.5 q-3 -29.5 -7 -42.5 l233 0 l0 -566 l91 0 ZM246 603 l0 -673 l-73 0 l0 563 q-27 -43 -78 -102 l-57 62 q70 75 136 183 q66 108 101 211 l72 -24 q-40 -112 -101 -220 ZM451 457 l334 0 l0 77 l-334 0 l0 -77 ZM451 316 l334 0 l0 81 l-334 0 l0 -81 ZM451 173 l334 0 l0 85 l-334 0 l0 -85 ZM451 30 l334 0 l0 84 l-334 0 l0 -84 Z" /><glyph glyph-name="Identity.8896" unicode="&#x5047;" d="M231 625 l0 -695 l-75 0 l0 544 q-31 -61 -67 -106 q-14 39 -42 79 q53 69 101.5 178.5 q48.5 109.5 74.5 217.5 l75 -16 q-20 -77 -67 -202 ZM388 140 l0 -208 l-66 0 l0 874 l268 0 l0 -307 l-202 0 l0 -101 l180 0 l0 -68 l-180 0 l0 -122 l191 0 l0 -68 l-191 0 ZM899 806 l0 -306 l-285 0 l0 68 l212 0 l0 168 l-212 0 l0 70 l285 0 ZM388 566 l132 0 l0 171 l-132 0 l0 -171 ZM745 66 q-103 -103 -199 -142 l-29 64 q92 32 185 134 q-57 89 -96 232 l49 11 l-70 0 l0 65 l270 0 l11 2 l45 -15 q-15 -83 -49 -163.5 q-34 -80.5 -74 -133.5 q34 -39 78.5 -75.5 q44.5 -36.5 80.5 -50.5 l-34 -67 q-86 40 -168 139 ZM666 365 q33 -118 80 -187 q53 77 82 187 l-162 0 Z" /><glyph glyph-name="Identity.8904" unicode="&#x504f;" d="M429 504 q0 -148 -14 -279 l-1 -11 q-19 -174 -61 -274 q-8 10 -29.5 26.5 q-21.5 16.5 -31.5 20.5 q66 159 66 552 l0 205 l240 0 q-1 3 -4 11 q-3 8 -4 10 l-4 9 q-16 44 -23 56 l70 19 q11 -18 42 -105 l227 0 l0 -240 l-473 0 ZM262 613 l0 -681 l-75 0 l0 572 q-42 -63 -95 -116 l-56 64 q74 72 145 180 q71 108 110 213 l73 -25 q-41 -103 -102 -207 ZM429 573 l397 0 l0 104 l-397 0 l0 -104 ZM501 169 l0 -234 l-63 0 l0 508 l479 0 l0 -432 q0 -48 -26 -62 q-25 -14 -103 -14 l-4 63 q49 0 57 1 q11 0 11 12 l0 158 l-88 0 l0 -203 l-55 0 l0 203 l-74 0 l0 -207 l-55 0 l0 207 l-79 0 ZM501 230 l79 0 l0 151 l-79 0 l0 -151 ZM635 230 l74 0 l0 151 l-74 0 l0 -151 ZM764 230 l88 0 l0 151 l-88 0 l0 -151 Z" /><glyph glyph-name="Identity.8915" unicode="&#x505a;" d="M755 116 q-91 -138 -175 -191 l-40 60 q95 54 179 203 q-48 113 -72 284 q-5 -12 -15 -44.5 q-10 -32.5 -19 -47.5 q-2 3 -27 23 l0 -374 l-277 0 l0 378 l105 0 l0 182 l-131 0 l0 74 l131 0 l0 173 l71 0 l0 -173 l129 0 l0 -74 l-129 0 l0 -182 l103 0 q-20 22 -29 30 q75 115 115 364 l2 10 q4 27 5 37 l73 -12 q-17 -98 -39 -175 l233 0 l0 -67 l-49 0 l0 -5 l-2 -11 l-1 -11 q-2 -12 -2 -16 l-2 -11 q-31 -224 -96 -355 q30 -57 72.5 -110 q42.5 -53 88.5 -81 l-45 -66 q-88 60 -157 188 ZM239 629 l0 -700 l-73 0 l0 573 q-33 -59 -86 -122 l-58 60 q67 77 129 187.5 q62 110.5 95 215.5 l72 -22 q-28 -83 -79 -192 ZM693 578 q24 -203 64 -313 q50 120 73 318 l1 11 l-135 0 q-1 -3 -1.5 -8 q-0.5 -5 -1.5 -8 ZM378 97 l147 0 l0 242 l-147 0 l0 -242 Z" /><glyph glyph-name="Identity.8917" unicode="&#x505c;" d="M939 761 l0 -63 l-606 0 l0 63 l258 0 q-5 9 -14.5 33.5 q-9.5 24.5 -16.5 35.5 l70 22 q18 -27 41 -91 l268 0 ZM245 603 l0 -673 l-73 0 l0 562 q-22 -36 -76 -101 l-58 61 q73 77 137.5 182.5 q64.5 105.5 98.5 212.5 l72 -22 q-22 -63 -59 -139 l-4 -10 q-26 -50 -38 -73 ZM856 650 l0 -194 l-459 0 l0 194 l459 0 ZM467 516 l314 0 l0 75 l-314 0 l0 -75 ZM384 333 l0 -100 l-65 0 l0 167 l619 0 l0 -167 l-71 0 l0 100 l-483 0 ZM626 -56 q-30 -11 -155 -11 l-14 0 l-5 70 q32 -1 72 -1.5 q40 -0.5 49 0.5 q17 1 17 17 l0 177 l-193 0 l0 66 l450 0 l0 -66 l-188 0 l0 -180 q0 -63 -33 -72 Z" /><glyph glyph-name="Identity.8941" unicode="&#x5074;" d="M241 632 l0 -702 l-75 0 l0 572 q-38 -69 -86 -125 l-58 60 q67 78 128.5 189 q61.5 111 94.5 217 l73 -22 q-16 -47 -43 -112 l-4 -9 q-20 -46 -30 -68 ZM881 -56 q-29 -15 -142 -15 q-5 44 -22 72 q94 2 111 2 q19 0 19 21 l0 811 l72 0 l0 -810 q0 -65 -38 -81 ZM617 791 l0 -611 l-282 0 l0 611 l282 0 ZM751 751 l0 -587 l-71 0 l0 587 l71 0 ZM395 613 l153 0 l0 112 l-153 0 l0 -112 ZM395 433 l153 0 l0 117 l-153 0 l0 -117 ZM395 247 l153 0 l0 123 l-153 0 l0 -123 ZM647 -6 l-62 -36 q-24 73 -87 174 l58 31 q23 -34 51 -86.5 q28 -52.5 40 -82.5 ZM454 129 q-77 -146 -129 -196 l-51 51 q28 25 60 78.5 q32 53.5 52 99.5 l68 -33 Z" /><glyph glyph-name="Identity.8993" unicode="&#x50a8;" d="M222 629 l0 -697 l-69 0 l0 567 q-30 -55 -68 -108 l-56 52 q60 76 114.5 187 q54.5 111 85.5 219 l66 -19 q-25 -86 -73 -201 ZM903 383 l0 -409 l-340 0 l0 334 q-59 -45 -75 -55 l-42 66 q77 42 196 159 l6 7 l-179 0 l0 70 l150 0 l0 117 l-122 0 l0 68 l122 0 l0 108 l71 0 l0 -108 l115 0 l0 -54 q30 50 63 130 l70 -20 q-49 -116 -143 -241 l151 0 l0 -70 l-206 0 q-45 -57 -96 -102 l259 0 ZM458 654 l-54 -39 q-42 63 -105 144 l54 37 q68 -83 105 -142 ZM690 555 l20 0 q9 13 29 39 l7 7 q40 53 51 71 l-107 0 l0 -117 ZM529 95 q-59 -36 -97 -63 q-38 -27 -58 -44 q-20 -17 -21 -18 l-39 60 q14 10 24.5 33 q10.5 23 10.5 50 l0 353 l-92 0 l0 76 l162 0 l0 -442 l91 59 q12 -55 19 -64 ZM621 220 l211 0 l0 98 l-211 0 l0 -98 ZM621 41 l211 0 l0 118 l-211 0 l0 -118 Z" /><glyph glyph-name="Identity.9012" unicode="&#x50bb;" d="M886 764 l0 -321 l-543 0 l0 321 l195 0 q25 38 44 80 l74 -18 q-30 -49 -42 -62 l272 0 ZM249 632 l0 -699 l-75 0 l0 567 q-30 -55 -86 -123 l-57 58 q68 81 129.5 191 q61.5 110 94.5 214 l70 -19 q-16 -43 -19 -50 l-4 -10 q-3 -8 -9 -23.5 q-6 -15.5 -9 -23.5 l-4 -9 q-16 -42 -31 -73 ZM469 502 l346 0 l0 204 l-412 0 l0 -204 l57 0 l-26 52 q72 23 130 53 q-3 1 -9 3.5 q-6 2.5 -9 3.5 l-9 4 q-54 24 -93 40 l36 40 q56 -17 143 -58 q42 22 88 63 l55 -23 q-29 -28 -95 -69 q94 -49 110 -61 l-39 -47 q-95 61 -119 73 q-68 -38 -154 -74 ZM929 340 l-40 -54 q-37 23 -109 56.5 q-72 33.5 -126 52.5 l40 48 q141 -48 235 -103 ZM565 400 q-66 -34 -109 -55 l-10 -5 q-4 -2 -5 -2 l-9 -5 q-92 -45 -97 -47 l-33 49 q45 19 102 47 l15 7 q76 36 105 51 l41 -40 ZM618 32 q-155 -79 -310 -105 l-15 64 q124 16 263 79 q-62 40 -120 113 q-62 -46 -88 -60 l-34 57 q116 50 214 171 l73 -14 q-18 -26 -56 -62 l233 0 l12 5 l46 -22 q-27 -54 -71 -105 q-44 -51 -93 -83 q135 -58 257 -74 l-17 -63 q-148 24 -294 99 ZM482 216 q54 -68 134 -113 q65 38 121 117 l-255 0 l0 -4 Z" /><glyph glyph-name="Identity.9032" unicode="&#x50cf;" d="M661 -34 q-33 -36 -81 -36 q-41 0 -71 3 l1 67 q21 -3 58 -3 q28 0 38 20 q15 15 23.5 57.5 q8.5 42.5 2.5 84.5 q-161 -144 -308 -195 l-26 62 q78 23 171 81.5 q93 58.5 146 115.5 q-2 5 -3.5 17.5 q-1.5 12.5 -4.5 22.5 q-3 10 -9 17 q-49 -45 -125 -93 q-76 -48 -140 -72 l-26 58 q61 18 140.5 62.5 q79.5 44.5 127.5 87.5 q-28 37 -40 45 q-93 -69 -203 -105 l-25 56 q117 37 203 111 l-146 0 l0 152 q-14 -21 -51 -48 l-43 54 q68 50 125.5 121 q57.5 71 90.5 137 l74 -14 q-8 -11 -19.5 -31.5 q-11.5 -20.5 -13.5 -23.5 l170 0 l10 7 l47 -34 q-36 -57 -80 -106 l212 0 l0 -214 l-288 0 q-10 -15 -23 -21 q44 -34 88 -129 q117 64 181 113 l53 -50 q-17 -11 -59 -35 l-9 -5 q-30 -16 -44 -24 q24 -69 71.5 -135.5 q47.5 -66.5 95.5 -91.5 l-42 -66 q-56 35 -105 110.5 q-49 75.5 -73 154.5 q-8 -3 -26 -12 q-18 -9 -25 -12 q23 -74 17 -151.5 q-6 -77.5 -37 -109.5 ZM248 605 l0 -673 l-75 0 l0 559 q-10 -17 -24 -35.5 q-14 -18.5 -32.5 -40.5 q-18.5 -22 -21.5 -26 l-59 61 q70 75 136 183.5 q66 108.5 102 211.5 l74 -25 q-19 -52 -51 -119 l-4 -9 q-30 -60 -45 -87 ZM423 644 l181 0 q11 13 29 42.5 q18 29.5 20 32.5 l-164 0 q-33 -45 -66 -75 ZM635 491 l179 0 l0 94 l-162 0 q-5 -70 -17 -94 ZM427 491 l134 0 q19 26 30 94 l-164 0 l0 -94 Z" /><glyph glyph-name="Identity.9145" unicode="&#x5141;" d="M422 434 q-5 -78 -15.5 -139 q-10.5 -61 -34.5 -122.5 q-24 -61.5 -60.5 -107 q-36.5 -45.5 -94 -83.5 q-57.5 -38 -134.5 -61 l-28 74 q66 18 116 48.5 q50 30.5 82 69 q32 38.5 53.5 90 q21.5 51.5 31.5 105 q10 53.5 14 120.5 q-156 -15 -190 -28 l-25 81 q24 5 78 66 q31 33 97.5 128 q66.5 95 111.5 180 l84 -30 q-12 -20 -19 -31 l-5 -8 q-30 -46 -34 -52 l-6 -9 q-5 -7 -13 -19.5 q-8 -12.5 -13 -18.5 l-6 -8 q-8 -12 -12 -17 l-7 -9 q-22 -30 -33 -44 l-6 -8 q-50 -63 -89 -105 l445 31 q-4 5 -11 14.5 q-7 9.5 -10 14.5 l-6 8 q-1 0 -2 2 l-1 2 l-6 9 q-65 89 -85 115 l56 41 q10 -13 44 -54.5 q34 -41.5 53 -65.5 l11 -13 l7 -9 q0 -1 4 -5.5 q4 -4.5 6 -7.5 l7 -8 q74 -93 110 -146 l-71 -47 q-29 45 -59 85 l-114 -10 l0 -382 q0 -27 12 -35 q12 -8 65 -8 l69 0 q54 0 70 36.5 q16 36.5 19 144.5 l77 -11 q-7 -137 -41 -192.5 q-34 -55.5 -123 -55.5 l-76 0 q-89 0 -118.5 27.5 q-29.5 27.5 -29.5 94.5 l0 377 l-145 -14 Z" /><glyph glyph-name="Identity.9147" unicode="&#x5143;" d="M846 773 l0 -76 l-686 0 l0 76 l686 0 ZM398 425 q-6 -65 -16.5 -119 q-10.5 -54 -32 -113 q-21.5 -59 -52.5 -105 q-31 -46 -80.5 -88.5 q-49.5 -42.5 -113.5 -70.5 l-34 68 q232 89 259 428 l-256 0 l0 78 l858 0 l0 -78 l-275 0 l0 -358 q0 -30 10 -36.5 q10 -6.5 61 -6.5 l63 0 q49 0 64 36 q15 36 18 140 l75 -11 q-6 -133 -38 -187 q-32 -54 -117 -54 l-71 0 q-84 0 -112.5 27.5 q-28.5 27.5 -28.5 90.5 l0 359 l-181 0 Z" /><glyph glyph-name="Identity.9149" unicode="&#x5145;" d="M585 716 l-79 -19 q-13 24 -84 131 l79 24 q55 -85 84 -136 ZM426 350 q-6 -61 -17.5 -111.5 q-11.5 -50.5 -35 -101 q-23.5 -50.5 -58 -89 q-34.5 -38.5 -87 -71.5 q-52.5 -33 -121.5 -53 l-29 76 q136 37 199 125 q63 88 77 220 q-163 -11 -190 -20 l-21 81 q16 2 63 46 q47 45 140 167 l-267 0 l0 77 l844 0 l0 -77 l-476 0 q-3 -3 -8 -10 q-5 -7 -7 -10 l-6 -8 q-1 -2 -3 -4 l-7 -8 q-78 -104 -142 -164 l441 21 q-15 15 -51 49 l-8 7 q-34 33 -70 60 l63 39 q68 -54 144 -126.5 q76 -72.5 112 -119.5 l-68 -45 q-12 16 -59 70 l-130 -8 l0 -292 q0 -25 11 -32 q11 -7 61 -7 l67 0 q49 0 64.5 31.5 q15.5 31.5 18.5 121.5 l77 -12 q-6 -120 -39 -169 q-33 -49 -118 -49 l-75 0 q-88 0 -117.5 25.5 q-29.5 25.5 -29.5 89.5 l0 289 l-142 -8 Z" /><glyph glyph-name="Identity.9152" unicode="&#x5148;" d="M403 356 q-8 -74 -25 -135 q-17 -61 -50.5 -121 q-33.5 -60 -91 -106 q-57.5 -46 -136.5 -74 l-31 74 q236 73 266 362 l-262 0 l0 77 l388 0 l0 190 l-193 0 q-36 -86 -87 -153 l-63 46 q43 53 82 142.5 q39 89.5 57 167.5 l80 -17 q-14 -49 -37 -112 l161 0 l0 151 l76 0 l0 -151 l319 0 l0 -74 l-319 0 l0 -190 l391 0 l0 -77 l-272 0 l0 -297 q0 -22 12.5 -29.5 q12.5 -7.5 60.5 -7.5 l63 0 q46 0 60 30 q14 30 16 116 l75 -10 q-6 -117 -37.5 -164.5 q-31.5 -47.5 -110.5 -47.5 l-71 0 q-83 0 -110.5 26 q-27.5 26 -27.5 87 l0 297 l-183 0 Z" /><glyph glyph-name="Identity.9153" unicode="&#x5149;" d="M404 405 q-6 -67 -16.5 -121 q-10.5 -54 -33.5 -112 q-23 -58 -57 -102 q-34 -44 -87.5 -82 q-53.5 -38 -123.5 -61 l-30 73 q75 23 128 64.5 q53 41.5 82.5 98 q29.5 56.5 44 113.5 q14.5 57 20.5 129 l-264 0 l0 75 l390 0 l0 368 l78 0 l0 -368 l401 0 l0 -75 l-278 0 l0 -357 q0 -25 11 -33.5 q11 -8.5 59 -8.5 l64 0 q49 0 64 34 q15 34 18 131 l74 -12 q-7 -126 -38.5 -176.5 q-31.5 -50.5 -114.5 -50.5 l-71 0 q-84 0 -113 26.5 q-29 26.5 -29 88.5 l0 358 l-178 0 ZM859 783 q-72 -154 -139 -250 l-67 27 q32 50 70.5 124 q38.5 74 57.5 127 l78 -28 ZM342 560 l-73 -29 q-27 63 -69 147 l-5 9 q-7 14 -14.5 29.5 q-7.5 15.5 -16.5 33 q-9 17.5 -13 25.5 l71 27 q25 -47 62 -120 l5 -9 q41 -84 53 -113 Z" /><glyph glyph-name="Identity.9155" unicode="&#x514b;" d="M420 280 q-7 -51 -20.5 -93.5 q-13.5 -42.5 -38 -84.5 q-24.5 -42 -60 -74.5 q-35.5 -32.5 -89 -60 q-53.5 -27.5 -121.5 -43.5 l-25 78 q251 52 282 278 l-156 0 l0 300 l268 0 l0 99 l-379 0 l0 74 l379 0 l0 95 l74 0 l0 -95 l388 0 l0 -74 l-388 0 l0 -99 l279 0 l0 -300 l-175 0 l0 -229 q0 -22 12.5 -28.5 q12.5 -6.5 65.5 -6.5 l70 0 q53 0 68.5 28.5 q15.5 28.5 17.5 114.5 l77 -11 q-7 -116 -40.5 -162.5 q-33.5 -46.5 -118.5 -46.5 l-78 0 q-89 0 -119 26 q-30 26 -30 86 l0 229 l-143 0 ZM266 354 l469 0 l0 153 l-469 0 l0 -153 Z" /><glyph glyph-name="Identity.9157" unicode="&#x514d;" d="M503 296 q-18 -57 -49 -108.5 q-31 -51.5 -78.5 -100.5 q-47.5 -49 -118 -87.5 q-70.5 -38.5 -158.5 -62.5 l-25 73 q139 34 225.5 111.5 q86.5 77.5 122.5 174.5 l-255 0 l0 238 q-24 -23 -62 -49 l-47 63 q87 58 165 143 q78 85 118 158 l80 -17 q-2 -4 -14.5 -26.5 q-12.5 -22.5 -20.5 -33.5 l234 0 l3 8 l53 -37 q-46 -84 -93 -138 l282 0 l0 -309 l-241 0 l0 -236 q0 -23 12.5 -30 q12.5 -7 68.5 -7 l75 0 q56 0 72 27.5 q16 27.5 18 108.5 l75 -11 q-8 -110 -41.5 -153.5 q-33.5 -43.5 -121.5 -43.5 l-82 0 q-93 0 -124 24 q-31 24 -31 83 l0 238 l-42 0 ZM245 605 l252 0 q50 58 78 104 l-234 0 q-43 -56 -96 -104 ZM242 367 l202 0 q14 54 23 158 l1 10 l-226 0 l0 -168 ZM524 367 l261 0 l0 168 l-241 0 q0 -9 -2 -26 q-2 -17 -2 -25 l-1 -10 q-8 -74 -15 -107 Z" /><glyph glyph-name="Identity.9170" unicode="&#x515a;" d="M163 597 l0 -146 l-77 0 l0 216 l195 0 q-37 62 -97 133 l65 35 q29 -30 59 -70.5 q30 -40.5 43 -67.5 l-61 -30 l170 0 l0 181 l77 0 l0 -181 l118 0 q70 113 93 169 l81 -28 q-31 -53 -96 -141 l183 0 l0 -216 l-78 0 l0 146 l-675 0 ZM438 239 q-22 -119 -101.5 -198 q-79.5 -79 -244.5 -113 l-22 76 q247 42 289 235 l-118 0 l0 287 l520 0 l0 -287 l-132 0 l0 -192 q0 -21 13 -27.5 q13 -6.5 68 -6.5 l74 0 q53 0 68.5 24.5 q15.5 24.5 18.5 95.5 l73 -11 q-7 -102 -39.5 -143.5 q-32.5 -41.5 -116.5 -41.5 l-81 0 q-92 0 -122 25 q-30 25 -30 85 l0 192 l-117 0 ZM316 311 l365 0 l0 142 l-365 0 l0 -142 Z" /><glyph glyph-name="Identity.9172" unicode="&#x515c;" d="M331 457 q11 -58 12 -62 l0 350 l90 0 q21 59 30 105 l80 -15 q-22 -62 -36 -90 l147 0 l0 -417 l-311 0 l0 57 q-208 -94 -218 -104 l-40 63 q41 23 41 67 l0 322 q118 49 171 87 l59 -57 q-64 -37 -154 -69 l0 -291 l129 54 ZM883 774 l0 -458 l-211 0 l0 76 l135 0 l0 306 l-135 0 l0 76 l211 0 ZM410 570 l174 0 l0 112 l-174 0 l0 -112 ZM410 393 l174 0 l0 118 l-174 0 l0 -118 ZM947 143 q-6 -114 -38.5 -159.5 q-32.5 -45.5 -115.5 -45.5 l-75 0 q-88 0 -117 25 q-29 25 -29 85 l0 248 l80 0 l0 -252 q0 -18 11.5 -23.5 q11.5 -5.5 59.5 -5.5 l67 0 q51 0 65.5 27 q14.5 27 17.5 111 l74 -10 ZM420 296 q-8 -69 -26.5 -123.5 q-18.5 -54.5 -55 -105 q-36.5 -50.5 -98.5 -87.5 q-62 -37 -148 -57 l-23 74 q139 29 201.5 105.5 q62.5 76.5 74.5 193.5 l75 0 Z" /><glyph glyph-name="Identity.9182" unicode="&#x5167;" d="M201 557 l0 -627 l-79 0 l0 704 l328 0 q-51 94 -130 147 l54 52 q92 -64 154 -199 l356 0 l0 -601 q0 -72 -45 -88 q-32 -14 -173 -14 l-14 0 l-6 80 q27 -1 86 -1 l11 0 q34 0 41 1 q20 1 20 22 l0 524 l-247 0 q3 -8 9 -23.5 q6 -15.5 9 -23.5 l3 -9 q37 -93 84 -157 q47 -64 130 -104 q-8 -8 -22.5 -31.5 q-14.5 -23.5 -20.5 -37.5 q-52 24 -91.5 59.5 q-39.5 35.5 -67.5 82.5 q-28 47 -44.5 84.5 q-16.5 37.5 -37.5 92.5 q-1 4 -2.5 7.5 q-1.5 3.5 -2.5 6.5 q-31 -113 -94 -202 q-63 -89 -155 -136 l-37 66 q89 43 148 128 q59 85 83 197 l-247 0 Z" /><glyph glyph-name="Identity.9183" unicode="&#x5168;" d="M916 32 l0 -74 l-827 0 l0 74 l374 0 l0 166 l-249 0 l0 72 l249 0 l0 150 l-254 0 l0 70 q-65 -47 -122 -75 l-40 70 q124 57 250.5 161.5 q126.5 104.5 194.5 210.5 l69 -32 q-1 -1 -2.5 -4 q-1.5 -3 -2.5 -4 l-9 -13 q-3 -3 -5 -7 q108 -127 292 -243 l8 -5 q52 -32 117 -67 l-45 -70 q-59 36 -117 78 l0 -70 l-260 0 l0 -150 l260 0 l0 -72 l-260 0 l0 -166 l379 0 ZM213 492 l580 0 q-171 113 -295 253 q-111 -139 -285 -253 Z" /><glyph glyph-name="Identity.9186" unicode="&#x516c;" d="M950 459 l-63 -70 q-48 58 -136 176 l-6 8 q-5 6 -14.5 19 q-9.5 13 -14.5 20 l-6 9 q0 1 -1 2.5 q-1 1.5 -2 2.5 l-7 8 l-6 9 q-6 8 -17.5 24 q-11.5 16 -16.5 24 l-6 8 q-40 57 -68 98 l70 31 q63 -89 126 -166 l10 -13 l7 -8 q3 -4 13 -17 l7 -9 l7 -8 q77 -96 124 -148 ZM410 796 q-47 -113 -123 -226 q-76 -113 -155 -184 l-62 66 q74 58 148.5 162 q74.5 104 115.5 207 l76 -25 ZM909 -21 l-76 -43 q-32 65 -66 118 q-342 -23 -453 -34 q-111 -11 -139 -22 l-27 85 q23 5 88 87 q30 34 104 156 q74 122 126 230 l83 -37 q-32 -58 -49 -88 l-5 -9 q-1 -2 -3.5 -6.5 q-2.5 -4.5 -3.5 -6.5 l-6 -9 q-6 -11 -13 -23 l-5 -9 q-3 -6 -11 -18 l-5 -9 q-3 -6 -11 -18 l-5 -9 l-6 -9 l-5 -9 q-80 -129 -139 -198 l437 29 q-85 119 -123 168 l74 35 q48 -58 106 -142 l6 -9 q5 -7 13 -19 l6 -9 q70 -103 108 -172 Z" /><glyph glyph-name="Identity.9187" unicode="&#x516d;" d="M581 642 l-82 -32 q-27 71 -93 206 l79 26 q77 -149 96 -200 ZM933 595 l0 -82 l-864 0 l0 82 l864 0 ZM938 -11 l-79 -46 q-35 68 -116 200 l-6 10 q-2 2 -2 4 l-6 10 l-6 9 q-1 1 -2 2.5 q-1 1.5 -1 2.5 l-6 10 q-3 4 -9 14 l-6 9 q-55 90 -107 164 l72 36 q42 -58 116 -170 l6 -10 q100 -153 152 -245 ZM403 377 q-34 -72 -81 -156 l-5 -9 q-104 -183 -185 -279 l-72 63 q61 63 135.5 182.5 q74.5 119.5 123.5 227.5 l84 -29 Z" /><glyph glyph-name="Identity.9191" unicode="&#x5171;" d="M943 340 l0 -77 l-882 0 l0 77 l231 0 l0 229 l-190 0 l0 75 l190 0 l0 196 l79 0 l0 -196 l258 0 l0 196 l78 0 l0 -196 l200 0 l0 -75 l-200 0 l0 -229 l236 0 ZM371 340 l258 0 l0 229 l-258 0 l0 -229 ZM921 -22 l-73 -50 q-67 67 -133 128 l-9 7 q-1 1 -2 2.5 q-1 1.5 -3 3 q-2 1.5 -3 2.5 l-8 7 q-67 60 -108 91 l59 41 q53 -37 144 -113 l9 -7 q71 -60 127 -112 ZM420 176 q-53 -64 -136.5 -138 q-83.5 -74 -155.5 -115 l-45 67 q60 31 138.5 98 q78.5 67 118.5 121 l80 -33 Z" /><glyph glyph-name="Identity.9193" unicode="&#x5173;" d="M513 262 q-37 -94 -137 -184.5 q-100 -90.5 -270 -150.5 l-34 76 q163 56 255.5 142 q92.5 86 118.5 172 l-366 0 l0 79 l381 0 q1 11 0 30 q-1 19 -1 24 l0 116 l-319 0 l0 78 l457 0 q42 67 99 202 l83 -31 q-54 -95 -108 -171 l197 0 l0 -78 l-322 0 l0 -117 q0 -9 -2.5 -27.5 q-2.5 -18.5 -2.5 -25.5 l381 0 l0 -79 l-360 0 q54 -104 156.5 -188.5 q102.5 -84.5 216.5 -112.5 l-30 -82 q-126 36 -229.5 125.5 q-103.5 89.5 -163.5 202.5 ZM406 673 l-68 -29 q-20 52 -104 163 l67 33 q30 -37 61.5 -86.5 q31.5 -49.5 43.5 -80.5 Z" /><glyph glyph-name="Identity.9196" unicode="&#x5176;" d="M932 226 l1 -74 l-866 0 l0 74 l184 0 l0 436 l-155 0 l0 74 l155 0 l0 110 l74 0 l0 -110 l347 0 l0 110 l75 0 l0 -110 l162 0 l0 -74 l-162 0 l0 -436 l185 0 ZM325 573 l347 0 l0 89 l-347 0 l0 -89 ZM325 402 l347 0 l0 102 l-347 0 l0 -102 ZM325 226 l347 0 l0 107 l-347 0 l0 -107 ZM433 91 q-60 -43 -155 -89 q-95 -46 -180 -75 l-30 69 q65 19 159.5 63 q94.5 44 144.5 78 l61 -46 ZM937 -13 l-71 -54 q-161 97 -297 148 l45 51 q28 -10 113 -45 l10 -4 q2 0 5.5 -1.5 q3.5 -1.5 4.5 -2.5 l10 -5 q124 -53 180 -87 Z" /><glyph glyph-name="Identity.9197" unicode="&#x5177;" d="M938 231 l0 -73 l-875 0 l0 73 l160 0 l0 572 l566 0 l0 -572 l149 0 ZM297 661 l416 0 l0 74 l-416 0 l0 -74 ZM297 523 l416 0 l0 77 l-416 0 l0 -77 ZM297 381 l416 0 l0 81 l-416 0 l0 -81 ZM297 231 l416 0 l0 88 l-416 0 l0 -88 ZM949 -11 l-62 -61 q-161 111 -294 174 l49 55 q129 -57 307 -168 ZM411 106 q-54 -42 -143.5 -94.5 q-89.5 -52.5 -167.5 -87.5 l-36 68 q61 23 147 73.5 q86 50.5 128 88.5 l72 -48 Z" /><glyph glyph-name="Identity.9198" unicode="&#x5178;" d="M947 247 l0 -75 l-896 0 l0 75 l101 0 l0 485 l207 0 l0 117 l70 0 l0 -117 l139 0 l0 118 l69 0 l0 -118 l218 0 l0 -485 l92 0 ZM637 501 l140 0 l0 158 l-140 0 l0 -158 ZM429 501 l139 0 l0 158 l-139 0 l0 -158 ZM228 501 l131 0 l0 158 l-131 0 l0 -158 ZM637 247 l140 0 l0 181 l-140 0 l0 -181 ZM429 247 l139 0 l0 181 l-139 0 l0 -181 ZM228 247 l131 0 l0 181 l-131 0 l0 -181 ZM927 -13 l-69 -54 q-158 113 -277 174 l54 52 q49 -24 121 -65 l9 -5 q83 -48 162 -102 ZM423 112 q-55 -48 -145.5 -103 q-90.5 -55 -168.5 -86 l-35 67 q61 23 147 75 q86 52 129 92 l73 -45 Z" /><glyph glyph-name="Identity.9202" unicode="&#x517c;" d="M428 201 l0 -272 l-66 0 l0 219 q-50 -58 -125 -116 q-75 -58 -143 -88 l-34 69 q60 22 138.5 78 q78.5 56 126.5 110 l-181 0 l0 64 l218 0 l0 92 l-293 0 l0 69 l293 0 l0 79 l-209 0 l0 65 l209 0 l0 79 l-277 0 l0 67 l229 0 q-26 38 -96 101 l70 33 q77 -67 110 -119 l-39 -15 l260 0 q44 52 89 134 l83 -28 q-38 -54 -90 -106 l216 0 l0 -67 l-289 0 l0 -79 l204 0 l0 -144 l102 0 l0 -69 l-102 0 l0 -156 l-166 0 q52 -52 133.5 -105.5 q81.5 -53.5 142.5 -75.5 l-35 -71 q-69 30 -148.5 90.5 q-79.5 60.5 -130.5 119.5 l0 -230 l-67 0 l0 272 l-133 0 ZM428 570 l133 0 l0 79 l-133 0 l0 -79 ZM628 426 l131 0 l0 79 l-131 0 l0 -79 ZM428 426 l133 0 l0 79 l-133 0 l0 -79 ZM628 265 l131 0 l0 92 l-131 0 l0 -92 ZM428 265 l133 0 l0 92 l-133 0 l0 -92 Z" /><glyph glyph-name="Identity.9210" unicode="&#x5185;" d="M189 609 l0 -682 l-78 0 l0 756 l350 0 l0 165 l80 0 l0 -165 l350 0 l0 -649 q0 -73 -47 -89 q-33 -14 -184 -14 l-14 0 l-5 80 q54 -2 149 -2 q22 1 22 27 l0 573 l-276 0 q-4 -85 -14 -126 q46 -41 105 -101 l8 -8 q3 -3 9 -9.5 q6 -6.5 10 -10.5 l7 -8 q51 -53 131 -143 l-61 -52 q-136 168 -235 260 q-29 -77 -87.5 -150 q-58.5 -73 -149.5 -126 l-44 67 q70 37 120 89.5 q50 52.5 75 110 q25 57.5 36.5 107 q11.5 49.5 13.5 100.5 l-271 0 Z" /><glyph glyph-name="Identity.9217" unicode="&#x518c;" d="M238 390 q-5 -123 -37.5 -255 q-32.5 -132 -90.5 -213 q-8 12 -28 31.5 q-20 19.5 -30 24.5 q53 74 80.5 188 q27.5 114 32.5 224 l-112 0 l0 75 l113 0 l0 321 l278 0 l0 -321 l96 0 l0 321 l298 0 l0 -321 l108 0 l0 -75 l-108 0 l0 -364 q0 -65 -38 -82 q-31 -15 -156 -15 l-5 76 q27 -1 62 -1.5 q35 -0.5 42 0.5 q18 1 18 22 l0 364 l-149 0 q-5 -126 -32.5 -255 q-27.5 -129 -79.5 -209 q-8 11 -29.5 30 q-21.5 19 -31.5 25 q47 73 70.5 186 q23.5 113 28.5 223 l-94 0 l0 -360 q0 -62 -36 -79 q-33 -14 -143 -14 l-6 72 q72 -2 99 0 q4 0 6 0.5 q2 0.5 3 3 q1 2.5 1 4 q0 1.5 -0.5 6 q-0.5 4.5 -0.5 7.5 l0 360 l-129 0 ZM242 465 l125 0 l0 247 l-125 0 l0 -247 ZM615 465 l146 0 l0 247 l-146 0 l0 -247 Z" /><glyph glyph-name="Identity.9218" unicode="&#x518d;" d="M247 180 l0 -254 l-75 0 l0 254 l-120 0 l0 74 l120 0 l0 376 l287 0 l0 85 l-370 0 l0 75 l824 0 l0 -75 l-381 0 l0 -85 l296 0 l0 -376 l123 0 l0 -74 l-123 0 l0 -154 q0 -67 -44 -85 q-38 -14 -185 -14 l-6 77 q83 -3 136 0 q23 0 23 22 l0 154 l-505 0 ZM532 444 l220 0 l0 113 l-220 0 l0 -113 ZM247 444 l212 0 l0 113 l-212 0 l0 -113 ZM247 254 l212 0 l0 120 l-212 0 l0 -120 ZM532 254 l220 0 l0 120 l-220 0 l0 -120 Z" /><glyph glyph-name="Identity.9223" unicode="&#x5192;" d="M204 741 l0 -271 l-74 0 l0 334 l735 0 l0 -332 l-79 0 l0 269 l-582 0 ZM733 684 l0 -58 l-467 0 l0 58 l467 0 ZM733 561 l0 -57 l-466 0 l0 57 l466 0 ZM799 432 l0 -466 l-595 0 l0 466 l595 0 ZM277 303 l445 0 l0 68 l-445 0 l0 -68 ZM277 174 l445 0 l0 71 l-445 0 l0 -71 ZM277 28 l445 0 l0 88 l-445 0 l0 -88 Z" /><glyph glyph-name="Identity.9229" unicode="&#x5199;" d="M169 722 l0 -120 l-78 0 l0 195 l818 0 l0 -195 l-80 0 l0 120 l-660 0 ZM643 -56 q-40 -4 -165 3 l-2 74 q71 -7 143 -7 q29 0 42 12 q44 39 71 312 l-505 0 q17 60 50 214 l2 11 q22 106 30 148 l79 -8 q-13 -67 -22 -106 l421 0 l0 -68 l-438 0 q-3 -12 -11.5 -56.5 q-8.5 -44.5 -13.5 -64.5 l491 0 q-2 -26 -4 -35 q-31 -343 -84 -396 q-30 -31 -84 -33 ZM658 234 l0 -75 l-554 0 l0 75 l554 0 Z" /><glyph glyph-name="Identity.9253" unicode="&#x51b2;" d="M659 267 l0 -337 l-74 0 l0 335 l-244 0 l0 404 l244 0 l0 178 l74 0 l0 -178 l260 0 l0 -402 l-260 0 ZM295 638 l-59 -57 q-59 61 -172 159 l57 53 q23 -19 66 -57 l8 -7 l9 -8 q58 -50 91 -83 ZM415 342 l170 0 l0 249 l-170 0 l0 -249 ZM659 344 l181 0 l0 247 l-181 0 l0 -247 ZM297 364 q-11 -21 -35 -67 q-24 -46 -32 -61 l-5 -9 l-5 -10 q-6 -12 -10 -18 l-5 -10 q-40 -78 -85 -158 l-71 49 q27 45 83 143 l5 10 q1 1 3 5 l5 9 q1 1 2 2.5 q1 1.5 1 2.5 l5 9 q10 17 11 19 l5 10 q1 1 2 2.5 q1 1.5 1 2.5 l5 9 l6 10 q38 68 54 97 l60 -47 Z" /><glyph glyph-name="Identity.9254" unicode="&#x51b3;" d="M600 297 q-66 -261 -292 -374 l-40 71 q115 52 181 143 q66 91 89 189 l-223 0 l0 75 l238 0 q3 38 3 118 l0 102 l-198 0 l0 77 l198 0 l0 148 l76 0 l0 -148 l217 0 l0 -297 l100 0 l0 -75 l-282 0 q35 -109 111.5 -200.5 q76.5 -91.5 167.5 -122.5 l-35 -76 q-108 44 -190 145 q-82 101 -121 225 ZM288 616 l-70 -46 q-50 73 -155 202 l63 39 q109 -126 162 -195 ZM630 401 l143 0 l0 220 l-141 0 l0 -98 q0 -106 -2 -122 ZM281 317 q-20 -51 -66 -151 l-5 -9 q-3 -7 -9.5 -20 q-6.5 -13 -11.5 -23.5 q-5 -10.5 -9 -19.5 l-5 -9 q-29 -60 -57 -109 l-68 50 q36 58 98 178 l5 10 q10 20 15 29 l5 10 q50 106 53 112 l55 -48 Z" /><glyph glyph-name="Identity.9256" unicode="&#x51b5;" d="M556 395 q-4 -68 -12 -122 q-8 -54 -26.5 -110.5 q-18.5 -56.5 -46.5 -98.5 q-28 -42 -73 -78.5 q-45 -36.5 -105 -58.5 l-31 68 q64 22 107 61 q43 39 66 94 q23 55 33 111.5 q10 56.5 14 133.5 l-115 0 l0 408 l518 0 l0 -408 l-149 0 l0 -342 q0 -21 9.5 -28.5 q9.5 -7.5 41.5 -7.5 l43 0 q23 0 35 16 q12 16 15.5 45 q3.5 29 5.5 91 l71 -11 q-6 -116 -32.5 -164 q-26.5 -48 -91.5 -48 l-51 0 q-69 0 -95 24.5 q-26 24.5 -26 81.5 l0 343 l-105 0 ZM313 631 l-59 -58 q-31 35 -104 108 l-8 8 q-9 9 -19 19.5 q-10 10.5 -22 22 q-12 11.5 -18 17.5 l55 48 q9 -8 30.5 -28 q21.5 -20 33.5 -31 l8 -8 q80 -74 103 -98 ZM438 471 l366 0 l0 255 l-366 0 l0 -255 ZM307 385 q-28 -53 -76 -139 l-5 -9 q-1 -1 -3 -5 q-2 -4 -3 -5 l-5 -9 q-58 -103 -101 -168 l-62 56 q41 58 113 178 l5 9 q6 10 9 14 l5 10 q40 69 69 121 l54 -53 Z" /><glyph glyph-name="Identity.9271" unicode="&#x51c4;" d="M618 38 q-139 -77 -356 -105 l-15 68 q159 13 286 66 q-15 4 -43 11.5 q-28 7.5 -34 9.5 l-10 3 q-81 21 -107 27 q10 10 23.5 25.5 q13.5 15.5 29.5 35.5 q16 20 25 30 l-160 0 l0 64 l205 0 q5 7 44 67 l-197 0 l0 61 l229 0 l0 70 l-296 0 l0 58 l296 0 l0 65 l-224 0 l0 61 l224 0 l0 53 l-282 0 l0 65 l282 0 l0 74 l71 0 l0 -74 l318 0 l0 -65 l-318 0 l0 -53 l242 0 l0 -124 l94 0 l0 -66 l-94 0 l0 -125 l-269 0 q-31 -57 -38 -67 l397 0 l0 -64 l-181 0 q-30 -73 -86 -132 q114 -27 235 -88 l-62 -52 q-129 69 -229 101 ZM240 594 l-64 -35 q-23 64 -119 217 l59 33 q97 -140 124 -215 ZM609 529 l169 0 l0 65 l-169 0 l0 -65 ZM609 401 l169 0 l0 70 l-169 0 l0 -70 ZM235 325 q-7 -20 -21.5 -64 q-14.5 -44 -22.5 -66 l-4 -10 q-3 -11 -7 -20 l-3 -10 q-8 -24 -12 -35 l-4 -10 q-24 -69 -43 -126 l-69 34 q31 81 66 178 l4 11 q42 117 54 154 l62 -36 ZM454 148 q24 -5 90 -22 l9 -3 q7 -2 25 -6.5 q18 -4.5 27 -7.5 q41 28 75 100 l-180 0 q-4 -5 -21 -28 q-17 -23 -25 -33 Z" /><glyph glyph-name="Identity.9273" unicode="&#x51c6;" d="M438 4 l0 -75 l-67 0 l0 593 q-33 -64 -91 -126 l-59 58 q67 63 127 169 q60 106 97 217 l72 -20 q-16 -54 -60 -147 l212 0 q-17 44 -77 139 l68 31 q62 -89 80 -140 l-67 -30 l248 0 l0 -66 l-215 0 l0 -123 l195 0 l0 -71 l-195 0 l0 -128 l194 0 l0 -71 l-194 0 l0 -137 l235 0 l0 -73 l-503 0 ZM269 591 l-72 -38 q-26 45 -73 120 l-6 9 q-9 15 -19 31 q-10 16 -21.5 34 q-11.5 18 -17.5 27 l70 32 q30 -44 57 -86 l6 -9 q56 -86 76 -120 ZM438 484 l196 0 l0 123 l-196 0 l0 -123 ZM438 285 l196 0 l0 128 l-196 0 l0 -128 ZM284 324 q-19 -46 -65 -160 l-4 -10 l-4 -10 q-1 -1 -2 -2.5 q-1 -1.5 -1 -2.5 l-4 -10 q-48 -116 -63 -151 l-80 39 q15 31 101 222 l4 10 q29 65 49 113 l69 -38 ZM438 77 l196 0 l0 137 l-196 0 l0 -137 Z" /><glyph glyph-name="Identity.9296" unicode="&#x51dd;" d="M591 662 q-10 -69 -33 -94.5 q-23 -25.5 -84 -25.5 l-60 0 q-73 0 -96.5 19 q-23.5 19 -23.5 69 l0 217 l71 0 l0 -106 q75 22 156 69 l43 -55 q-90 -43 -199 -72 l0 -53 q0 -17 6 -20 q6 -3 47 -3 l53 0 q35 0 44 12 q9 12 10 53 l66 -10 ZM631 107 q-32 -126 -73 -175 l-47 43 q82 89 88 406 l62 0 q0 -2 -0.5 -7.5 q-0.5 -5.5 -0.5 -8.5 l0 -10 q-3 -82 -9 -133 q28 -117 70 -159 l0 388 l-143 0 l0 68 l236 0 q-30 30 -92 73 q-62 43 -114 71 l43 50 q12 -6 89 -50 q57 55 86 94 l-237 0 l0 64 l287 0 l14 4 l49 -36 q-52 -78 -144 -164 q57 -41 66 -50 l-43 -56 l74 0 l12 2 l43 -11 q-21 -105 -43 -162 l-52 14 q5 13 21 89 l-87 0 l0 -160 l148 0 l0 -66 l-148 0 l0 -201 q33 -9 73 -9 l99 0 q-14 -27 -21 -69 l-82 0 q-71 0 -131 39.5 q-60 39.5 -93 121.5 ZM274 646 l-56 -58 q-62 63 -158 148 l53 51 q7 -6 30.5 -26 q23.5 -20 36.5 -31 l9 -8 q48 -41 85 -76 ZM428 119 q-50 -129 -150 -194 l-38 54 q64 39 98.5 104 q34.5 65 45.5 131 l-121 0 l0 68 l128 0 l0 113 l-40 0 q-26 -58 -45 -85 l-56 40 q51 68 82 196 l65 -15 q-11 -51 -19 -71 l186 0 l0 -65 l-105 0 l0 -113 l122 0 l0 -68 l-129 0 q0 -4 0 -13.5 q0 -9.5 -1 -11.5 q65 -57 109 -117 l-47 -54 q-40 59 -85 101 ZM253 341 q-25 -66 -50 -124 l-4 -10 q-12 -28 -14 -35 l-5 -10 l-4 -9 q-42 -99 -59 -134 l-68 40 q35 64 82 172 l4 10 l5 10 q0 1 0.5 2.5 q0.5 1.5 1.5 2.5 l4 11 l5 10 q39 95 42 104 l60 -40 Z" /><glyph glyph-name="Identity.9299" unicode="&#x51e1;" d="M328 517 q0 -72 -10 -146.5 q-10 -74.5 -32.5 -158 q-22.5 -83.5 -68.5 -159.5 q-46 -76 -109 -128 l-57 68 q58 45 99 111.5 q41 66.5 61 140.5 q20 74 28.5 139 q8.5 65 8.5 131 l0 280 l474 0 l0 -709 q0 -32 9 -42 q9 -10 43 -10 l46 0 q35 0 46.5 40 q11.5 40 14.5 145 l75 -11 q-6 -135 -34 -193.5 q-28 -58.5 -99 -58.5 l-55 0 q-72 0 -98.5 29 q-26.5 29 -26.5 102 l0 629 l-315 0 l0 -199 ZM609 331 l-61 -54 q-35 56 -117 145 l-7 8 q-52 54 -81 84 l59 45 q77 -80 85 -89 l7 -8 l8 -8 q68 -75 107 -123 Z" /><glyph glyph-name="Identity.9311" unicode="&#x51ed;" d="M263 682 l0 -330 l-76 0 l0 248 q-36 -38 -97 -87 l-49 62 q69 46 138 122 q69 76 106 151 l68 -22 q-25 -61 -90 -144 ZM917 451 l0 -68 l-572 0 l0 68 l237 0 l0 112 l-271 0 l0 70 l271 0 l0 98 q-16 -2 -24 -2 l-10 -1 q-26 -3 -71 -7 l-10 -1 q-66 -6 -97 -8 q-1 7 -17 59 q76 6 176 17 l11 1 l10 2 l6 0 l11 2 q1 0 5 0.5 q4 0.5 6 0.5 l10 1 q159 20 243 43 l55 -57 q-43 -10 -135 -27 l-10 -1 q-64 -10 -94 -14 l0 -106 l287 0 l0 -70 l-287 0 l0 -112 l270 0 ZM353 212 q0 -38 -13.5 -76 q-13.5 -38 -42.5 -78 q-29 -40 -82 -74.5 q-53 -34.5 -124 -57.5 l-28 73 q113 34 162 93 q49 59 49 123 l0 95 l444 0 l0 -260 q0 -19 10 -25 q10 -6 48 -6 l51 0 q36 0 47 24 q11 24 13 94 l71 -10 q-5 -103 -32.5 -142 q-27.5 -39 -95.5 -39 l-59 0 q-75 0 -103 24 q-28 24 -28 79 l0 189 l-287 0 l0 -26 Z" /><glyph glyph-name="Identity.9323" unicode="&#x51fa;" d="M883 364 l0 -388 l-766 0 l0 388 l85 0 l0 -310 l255 0 l0 366 l-296 0 l0 342 l82 0 l0 -263 l214 0 l0 350 l81 0 l0 -350 l221 0 l0 264 l85 0 l0 -343 l-306 0 l0 -366 l260 0 l0 310 l85 0 Z" /><glyph glyph-name="Identity.9324" unicode="&#x51fb;" d="M840 325 l0 -351 l-680 0 l0 351 l82 0 l0 -274 l221 0 l0 344 l-385 0 l0 79 l385 0 l0 148 l-312 0 l0 78 l312 0 l0 147 l78 0 l0 -147 l315 0 l0 -78 l-315 0 l0 -148 l384 0 l0 -79 l-384 0 l0 -344 l219 0 l0 274 l80 0 Z" /><glyph glyph-name="Identity.9326" unicode="&#x51fd;" d="M503 115 q-26 -11 -132 -11 l-13 0 l-3 71 q65 -3 92 -1 q15 1 15 16 l0 159 q-21 -15 -65 -49 l-8 -7 l-9 -6 q-2 -2 -8 -6 l-8 -7 q-90 -70 -127 -95 l-40 66 q42 24 165 106 l9 6 l9 6 q2 1 5 3.5 q3 2.5 4 3.5 l9 6 l9 6 q6 4 25.5 16.5 q19.5 12.5 29.5 18.5 l0 207 q89 42 185 112 l-453 0 l0 71 l531 0 l17 5 l53 -41 q-112 -105 -256 -179 l0 -133 q6 -4 46 -37 q45 49 133 182 l67 -34 q-11 -14 -34.5 -44 q-23.5 -30 -34.5 -43 l-7 -8 q-39 -49 -81 -91 q81 -69 163 -162 l-51 -55 q-118 140 -201 213 l0 -191 q0 -59 -36 -74 ZM902 637 l0 -665 l-801 0 l0 662 l78 0 l0 -589 l645 0 l0 592 l78 0 ZM410 450 l-54 -49 q-63 76 -136 152 l51 42 q81 -79 139 -145 Z" /><glyph glyph-name="Identity.9333" unicode="&#x5206;" d="M945 478 l-59 -71 q-39 47 -120 152 l-7 9 q-1 1 -3 4 l-6 9 q-4 4 -10 12 l-6 9 l-7 9 q-1 1 -2 2 q-1 1 -1 2 l-7 9 q-4 6 -6 8 l-10 13 q-7 10 -20.5 28.5 q-13.5 18.5 -20.5 28.5 l-6 8 q-51 73 -64 93 l72 30 q58 -83 127 -168 l7 -8 q0 -1 1 -2.5 q1 -1.5 2 -2.5 l7 -8 q69 -86 139 -166 ZM460 407 q-51 -378 -342 -485 l-32 74 q250 84 294 411 l-181 0 l0 72 q-63 -68 -79 -82 l-58 69 q80 57 156 157 q76 100 116 205 l82 -23 q-68 -168 -212 -321 l597 0 q-2 -29 -3 -38 q-16 -418 -61 -467 q-30 -35 -80 -38 q-50 -3 -160 3 l-2 78 q73 -6 131 -6 q27 0 40 14 q32 32 49 377 l-255 0 Z" /><glyph glyph-name="Identity.9334" unicode="&#x5207;" d="M447 231 q-237 -108 -278 -143 l-43 66 q16 9 31 29 q15 20 15 45 l0 270 l-119 -26 l-14 73 l133 25 l0 241 l76 0 l0 -224 l179 41 l14 -73 l-193 -40 l0 -300 l185 85 q1 -8 6.5 -31 q5.5 -23 7.5 -38 ZM645 690 q-1 -11 -1 -31 l0 -11 q0 -1 -0.5 -4.5 q-0.5 -3.5 -0.5 -5.5 l0 -10 q0 -6 -0.5 -16 q-0.5 -10 -0.5 -15 l-1 -11 q0 -15 -2 -47 l-1 -10 q-6 -101 -20 -181.5 q-14 -80.5 -42.5 -163.5 q-28.5 -83 -80 -148.5 q-51.5 -65.5 -124.5 -108.5 l-45 70 q67 37 115 96.5 q48 59.5 74.5 136.5 q26.5 77 40 153 q13.5 76 19.5 170 l1 10 q0 14 1 22 l0 10 q2 38 2 58 l1 16 l0 10 l0 11 l-162 0 l0 75 l509 0 q0 -34 -1 -43 q-10 -367 -24 -532 q-14 -165 -41 -201 q-36 -41 -80 -45 q-39 -4 -152 0 l-2 80 q52 -4 117 -4 l6 0 q23 0 37 19 q46 52 60 651 l-202 0 Z" /><glyph glyph-name="Identity.9345" unicode="&#x5212;" d="M593 153 q-11 -115 -38 -167.5 q-27 -52.5 -75 -52.5 q-89 0 -164 190 q-44 -45 -97 -88 l-8 -7 q-64 -51 -107 -81 l-47 71 q106 55 227 182 q-25 75 -44 183 l-2 10 l-1 10 q-12 70 -17 105 l-163 -20 l-9 76 l161 14 q-7 77 -11 133 l-1 10 l-1 10 l-3 66 l0 10 q0 7 -0.5 20 q-0.5 13 -0.5 19 l81 0 q0 -42 2 -126 l0 -10 q1 -2 1 -5 l0 -10 q4 -72 8 -105 l305 35 l8 -75 l-302 -33 q2 -13 6 -41 l1 -10 q0 -2 1 -5.5 q1 -3.5 1 -5.5 l1 -10 q20 -118 36 -176 q57 72 120 230 l74 -24 q-80 -190 -162 -289 q64 -174 111 -174 q31 0 39 155 l70 -14 ZM857 -54 q-44 -16 -169 -16 q-9 42 -26 78 q26 2 56 2 q30 0 55 -1 q25 -1 27 -1 q24 0 24 24 l0 806 l77 1 l0 -806 q0 -70 -44 -87 ZM510 692 l-56 -49 q-38 42 -82 86 l-7 8 l-47 47 l52 43 q77 -70 140 -135 ZM709 743 l0 -546 l-77 0 l0 546 l77 0 Z" /><glyph glyph-name="Identity.9350" unicode="&#x5217;" d="M868 -52 q-34 -15 -164 -15 l-6 77 l98 0 l15 0 q20 0 20 22 l0 812 l80 0 l0 -812 q0 -66 -43 -84 ZM544 571 q-33 -234 -145 -407.5 q-112 -173.5 -265 -243.5 l-36 73 q62 24 129 81.5 q67 57.5 118 127.5 q-116 96 -154 120 l45 59 q69 -45 148 -114 q38 69 74 243 l-217 0 q-43 -127 -114 -214 l-63 54 q53 60 99.5 162.5 q46.5 102.5 72.5 208.5 l-163 0 l0 76 l499 0 l0 -76 l-261 0 q-6 -29 -20 -79 q-14 -50 -17 -61 l210 0 l12 5 l48 -15 ZM706 738 l0 -558 l-79 0 l0 558 l79 0 Z" /><glyph glyph-name="Identity.9352" unicode="&#x5219;" d="M848 -50 q-47 -17 -191 -15 l-6 79 q10 0 32 -0.5 q22 -0.5 33 -0.5 l11 0 q17 0 40 0.5 q23 0.5 25 0.5 q24 1 24 26 l0 801 l79 0 l0 -800 q0 -73 -47 -91 ZM190 725 l0 -529 l-75 0 l0 602 l423 0 l0 -600 l-76 0 l0 527 l-272 0 ZM709 764 l0 -597 l-75 0 l0 597 l75 0 ZM366 384 q0 -59 -12.5 -118.5 q-12.5 -59.5 -40 -124.5 q-27.5 -65 -82.5 -122 q-55 -57 -131 -94 l-37 68 q67 32 114 80 q47 48 70.5 103.5 q23.5 55.5 33 106 q9.5 50.5 9.5 103.5 l0 281 l76 0 l0 -283 ZM556 13 l-53 -59 q-99 119 -172 178 l48 50 q77 -61 177 -169 Z" /><glyph glyph-name="Identity.9353" unicode="&#x521a;" d="M866 -51 q-36 -14 -168 -14 l-5 73 q23 -1 119 -1 q22 1 22 24 l0 800 l73 0 l0 -800 q0 -65 -41 -82 ZM173 731 l0 -798 l-74 0 l0 868 l488 0 l0 -758 q0 -62 -39 -78 q-34 -13 -159 -13 l-5 70 q29 -1 66 -1.5 q37 -0.5 45 0.5 q18 0 18 23 l0 687 l-340 0 ZM741 746 l0 -556 l-72 0 l0 556 l72 0 ZM361 315 q-4 -11 -13.5 -33 q-9.5 -22 -14.5 -33 l-5 -9 q-3 -8 -11 -24 l-4 -9 q-43 -90 -79 -149 l-59 39 q58 79 123 229 l4 10 q5 12 22 51 q-3 6 -8.5 16.5 q-5.5 10.5 -10.5 19.5 q-5 9 -9 17 l-5 9 q-50 92 -97 170 l56 28 q35 -59 49 -83 l5 -8 l5 -9 l6 -9 l5 -9 q24 -44 35 -65 q17 46 29 99 l2 10 q2 6 3 10 l2 9 q2 8 2 10 l3 10 q12 56 18 82 l65 -14 q-4 -18 -14 -56 l-3 -10 l0 -2 q-1 -2 -1 -3 l-3 -9 q0 -4 -1 -5 l-3 -10 q-2 -9 -6.5 -25 q-4.5 -16 -5.5 -19 l-2 -10 q-1 -3 -3 -10 q-2 -7 -3 -10 l-3 -9 q-17 -58 -36 -111 q28 -54 94 -228 l-59 -36 q-33 100 -69 188 Z" /><glyph glyph-name="Identity.9354" unicode="&#x521b;" d="M578 140 q-7 -108 -40.5 -151.5 q-33.5 -43.5 -124.5 -43.5 l-87 0 q-97 0 -134.5 26.5 q-37.5 26.5 -37.5 89.5 l0 431 q-40 -36 -60 -52 l-50 62 q85 61 164.5 157.5 q79.5 96.5 116.5 185.5 l71 -22 q-3 -8 -10 -22.5 q-7 -14.5 -9 -19.5 q23 -24 75 -80 l7 -8 l7 -8 l8 -9 q84 -94 123 -152 l-57 -51 q-76 115 -199 248 q-69 -119 -182 -225 l352 0 q0 -24 -1 -32 q-9 -128 -18 -190 q-9 -62 -24 -78 q-19 -22 -59 -27 q-46 -3 -100 1 l0 67 q24 -2 69 -2 q18 0 26 8 q18 25 28 183 l-201 0 l0 -365 q0 -28 17.5 -37 q17.5 -9 80.5 -9 l81 0 q60 0 76.5 27.5 q16.5 27.5 20.5 108.5 l71 -11 ZM853 -53 q-41 -16 -192 -14 l-5 76 q27 -1 142 -1 q23 1 23 26 l0 800 l79 0 l0 -800 q0 -69 -47 -87 ZM705 737 l0 -552 l-76 0 l0 552 l76 0 Z" /><glyph glyph-name="Identity.9356" unicode="&#x521d;" d="M291 341 l0 -411 l-78 0 l0 399 q-19 -23 -61 -60.5 q-42 -37.5 -56 -54.5 l-54 63 q75 58 154 151.5 q79 93.5 123 179.5 l-252 0 l0 71 l189 0 q-14 25 -44 73 l-6 9 q-6 9 -18 27.5 q-12 18.5 -17 26.5 l62 34 q57 -84 86 -136 l-52 -34 l89 0 l11 4 l46 -33 q-48 -119 -122 -221 l0 -2 q4 -4 29 -34 q19 20 74 100 l55 -45 q-9 -9 -28.5 -30 q-19.5 -21 -36 -37.5 q-16.5 -16.5 -32.5 -28.5 q25 -20 82 -87 l-51 -64 q-63 102 -92 140 ZM644 690 q-3 -72 -9 -141 l-1 -12 q-19 -216 -71.5 -369 q-52.5 -153 -156.5 -241 l-53 64 q113 89 164.5 268 q51.5 179 59.5 431 l-164 0 l0 78 l497 0 l0 -43 q-10 -363 -25 -534.5 q-15 -171.5 -42 -206.5 q-28 -40 -81 -46 q-40 -5 -155 2 l-1 75 q57 -5 128 -5 q24 0 38 18 q45 51 62 662 l-190 0 Z" /><glyph glyph-name="Identity.9359" unicode="&#x5220;" d="M872 -56 q-27 -15 -140 -15 l-5 71 q32 -1 89 -1 l5 0 q17 1 17 21 l0 812 l70 0 l0 -813 q0 -61 -36 -75 ZM463 401 l0 -11 q0 -323 -67 -461 q-19 21 -58 36 q59 124 59 424 l0 12 l-54 0 l0 -375 q0 -55 -30 -71 q-24 -14 -117 -14 l-4 70 l71 0 q12 1 12 16 l0 374 l-88 0 l0 -53 q-1 -119 -19 -236 q-18 -117 -60 -183 q-5 6 -29 22 q-24 16 -28 19 q70 110 70 382 l0 49 l-66 0 l0 70 l66 0 l0 347 l222 0 l0 -347 l54 0 l0 346 l220 0 l0 -346 l42 0 l0 -70 l-42 0 l0 -375 q0 -55 -30 -71 q-24 -14 -116 -14 l-3 70 q10 0 24.5 0 q14.5 0 29 0 q14.5 0 15.5 0 q13 0 13 16 l0 374 l-87 0 ZM187 471 l88 0 l0 276 l-88 0 l0 -276 ZM463 471 l87 0 l0 276 l-87 0 l0 -276 ZM759 743 l0 -561 l-65 0 l0 561 l65 0 Z" /><glyph glyph-name="Identity.9370" unicode="&#x522b;" d="M855 -57 q-40 -15 -174 -15 q-8 49 -27 76 q84 4 144 4 q23 0 23 25 l0 797 l79 0 l0 -797 q0 -69 -45 -90 ZM496 806 l0 -323 l-391 0 l0 323 l391 0 ZM177 556 l245 0 l0 178 l-245 0 l0 -178 ZM690 734 l0 -551 l-78 0 l0 551 l78 0 ZM306 305 q-16 -124 -68 -224.5 q-52 -100.5 -147 -157.5 l-40 65 q78 40 124 126.5 q46 86.5 60 190.5 l-167 0 l0 73 l173 0 q3 36 5 88 l77 0 q-5 -75 -7 -88 l197 0 q-1 -25 -1 -35 q-15 -333 -46 -371 q-24 -29 -62 -32 q-38 -3 -114 1 l-1 75 q39 -4 88 -4 q5 0 8 1 q3 1 4.5 1.5 q1.5 0.5 4.5 3.5 q3 3 5 5 q24 30 36 282 l-129 0 Z" /><glyph glyph-name="Identity.9375" unicode="&#x5230;" d="M857 -33 q-40 -15 -169 -15 l-6 78 q22 0 33 -1 l12 0 q65 0 76 1 q11 1 14.5 5.5 q3.5 4.5 3.5 16.5 l0 781 l79 0 l0 -780 q0 -71 -43 -86 ZM587 477 l-60 -38 q-17 34 -35 61 q-333 -32 -356 -43 l-26 74 q17 3 44 40 q48 58 88 144 l-159 0 l0 70 l504 0 l0 -70 l-261 0 q-46 -88 -113 -177 l241 21 q-21 30 -75 98 l58 35 q110 -134 150 -215 ZM702 766 l0 -602 l-75 0 l0 602 l75 0 ZM581 82 q-47 -8 -92 -18 l-10 -2 q-5 -1 -16 -3 q-11 -2 -16 -3 l-11 -2 l-10 -3 l-11 -2 q-1 0 -2.5 -0.5 q-1.5 -0.5 -2.5 -0.5 l-11 -2 l-21 -5 q-3 0 -5 -1 l-11 -2 l-2 0 q-2 -1 -3 -1 l-10 -2 l-11 -2 q-151 -33 -244 -50 l-16 74 q7 1 156 29 l15 3 q20 4 58 10 l0 169 l-196 0 l0 72 l196 0 l0 107 l71 0 l0 -107 l191 0 l0 -72 l-191 0 l0 -156 q25 5 81 17 l10 2 q10 1 25 5 l10 2 l15 3 l10 2 q17 4 49 10 l5 -71 Z" /><glyph glyph-name="Identity.9381" unicode="&#x5236;" d="M374 302 l0 -371 l-73 0 l0 371 l-125 0 l0 -286 l-73 0 l0 358 l198 0 l0 95 l-245 0 l0 70 l245 0 l0 99 l-128 0 q-27 -58 -54 -99 l-61 36 q28 40 55.5 111 q27.5 71 42.5 139 l73 -16 q-16 -62 -30 -99 l102 0 l0 134 l73 0 l0 -134 l192 0 l0 -72 l-192 0 l0 -99 l231 0 l0 -70 l-231 0 l0 -95 l196 0 l0 -280 q0 -54 -31 -69 q-27 -13 -126 -13 l-5 70 q60 -2 78 0 q8 0 9.5 2.5 q1.5 2.5 1.5 10.5 l0 207 l-123 0 ZM872 -51 q-44 -16 -172 -16 l-5 83 q38 -1 113 -1 l11 0 q20 1 20 23 l0 801 l76 0 l0 -802 q0 -70 -43 -88 ZM737 763 l0 -551 l-76 0 l0 551 l76 0 Z" /><glyph glyph-name="Identity.9382" unicode="&#x5237;" d="M863 -54 q-42 -15 -169 -15 l-6 81 q78 -2 124 1 q20 0 20 22 l0 794 l75 0 l0 -794 q0 -71 -44 -89 ZM415 373 l0 -441 l-67 0 l0 441 l-84 0 l0 -329 l-60 0 l0 395 l144 0 l0 98 l-158 0 l0 -77 q0 -132 -20.5 -277.5 q-20.5 -145.5 -68.5 -233.5 q-7 10 -27.5 25.5 q-20.5 15.5 -31.5 20.5 q77 147 77 469 l0 331 l455 0 l0 -258 l-159 0 l0 -98 l164 0 l0 -311 q0 -51 -26 -63 q-27 -13 -111 -13 l-4 66 q49 -2 66 0 q6 0 7.5 2 q1.5 2 1.5 10 l0 243 l-98 0 ZM708 749 l0 -558 l-76 0 l0 558 l76 0 ZM190 605 l311 0 l0 118 l-311 0 l0 -118 Z" /><glyph glyph-name="Identity.9383" unicode="&#x5238;" d="M448 256 q-46 -257 -305 -329 l-26 73 q210 51 253 256 l-144 0 l0 38 q-73 -50 -137 -80 l-36 70 q130 56 237 161 l-215 0 l0 70 l274 0 q18 23 38 61 l4 9 l4 8 q2 3 5 8.5 q3 5.5 4 8.5 l-268 0 l0 69 l168 0 q-15 35 -83 115 l63 33 q62 -70 89 -126 l-58 -22 l122 0 q27 68 42 171 l83 -10 q-16 -85 -44 -161 l106 0 q60 78 93 145 l72 -26 q-47 -73 -92 -119 l163 0 l0 -69 l-373 0 q-34 -67 -54 -95 l495 0 l0 -70 l-249 0 q48 -51 125.5 -97 q77.5 -46 145.5 -64 l-29 -72 q-87 29 -169 82 l0 -2 q-18 -287 -51 -321 q-20 -26 -67 -31 q-58 -2 -137 3 l0 73 q34 -4 106 -4 l6 0 q15 0 26 10 q28 28 43 234 l-230 0 ZM271 327 l437 0 q-53 39 -106 118 l-219 0 q-63 -80 -112 -118 Z" /><glyph glyph-name="Identity.9386" unicode="&#x523b;" d="M529 574 q-63 -124 -174 -236.5 q-111 -112.5 -233 -176.5 l-39 68 q68 33 143.5 89.5 q75.5 56.5 131.5 117.5 q-211 -13 -237 -25 l-22 73 q19 3 53 39 q57 57 111 134 l-198 0 l0 71 l257 0 q-7 19 -29 59 l-5 9 q-14 24 -20 35 l72 20 q35 -50 55 -120 l-3 -3 l208 0 l0 -71 l-250 0 q-46 -69 -139 -168 l191 12 q41 62 57 97 l70 -24 ZM869 -54 q-46 -14 -178 -14 l-5 76 q25 -1 80 -1 l10 0 l36 0 q24 1 24 25 l0 803 l77 0 l0 -803 q0 -67 -44 -86 ZM733 737 l0 -553 l-77 0 l0 553 l77 0 ZM402 138 q-49 -46 -107 -92 l-8 -6 q-92 -72 -172 -112 l-38 73 q128 55 252.5 170 q124.5 115 193.5 240 l71 -29 q-71 -120 -141 -194 q102 -90 159 -158 l-58 -54 q-80 100 -152 162 Z" /><glyph glyph-name="Identity.9404" unicode="&#x524d;" d="M935 695 l0 -71 l-870 0 l0 71 l248 0 q-18 37 -93 126 l72 28 q29 -30 57.5 -71 q28.5 -41 37.5 -67 l-46 -16 l278 0 q58 87 89 158 l81 -29 q-28 -51 -87 -129 l233 0 ZM827 -53 q-36 -16 -170 -14 l-6 76 q21 -1 66 -1 l11 0 q37 0 43 1 q13 0 16 4 q3 4 3 16 l0 536 l79 0 l0 -536 q0 -65 -42 -82 ZM203 159 l0 -225 l-75 0 l0 611 l359 0 l0 -525 q0 -57 -37 -73 q-23 -11 -127 -13 l-14 0 l-5 70 q25 -1 55.5 -1.5 q30.5 -0.5 34.5 0.5 q18 1 18 19 l0 137 l-209 0 ZM666 535 l0 -415 l-74 0 l0 415 l74 0 ZM203 383 l209 0 l0 92 l-209 0 l0 -92 ZM203 222 l209 0 l0 98 l-209 0 l0 -98 Z" /><glyph glyph-name="Identity.9432" unicode="&#x5269;" d="M391 205 l0 -271 l-67 0 l0 259 q-47 -66 -108.5 -131.5 q-61.5 -65.5 -113.5 -99.5 l-43 65 q62 35 140 116.5 q78 81.5 125 156.5 l0 293 l-256 0 l0 68 l256 0 l0 73 q-15 -2 -44.5 -4.5 q-29.5 -2.5 -42.5 -3.5 l-11 -1 l-10 0 q-2 -1 -5 -1 l-16 -1 l-10 -1 q-14 -1 -39 -2.5 q-25 -1.5 -36 -1.5 l-7 64 q64 3 151 11 l11 1 q193 22 279 50 l55 -56 q-88 -31 -208 -46 l0 -81 l253 0 l0 -68 l-253 0 l0 -318 q38 -22 109 -75 l9 -7 q23 -17 47 -35.5 q24 -18.5 45 -35.5 q21 -17 25 -20 l-44 -65 q-98 92 -191 168 ZM867 -54 q-37 -15 -169 -15 l-5 76 q32 -1 98 -1 l8 0 l3 0 l7 0 q21 1 21 24 l0 808 l78 0 l0 -808 q0 -65 -41 -84 ZM746 733 l0 -550 l-73 0 l0 550 l73 0 ZM270 573 l0 -321 l-62 0 l0 65 q-16 -5 -52 -15 l-10 -3 q-13 -4 -35.5 -10 q-22.5 -6 -25.5 -7 l-17 59 q58 12 108 22 l11 3 q1 0 2.5 0.5 q1.5 0.5 2.5 0.5 l11 2 q1 1 5 1 l0 73 l-122 0 l0 58 l122 0 l0 72 l62 0 ZM643 369 q-4 -60 -22 -85 q-18 -25 -60 -25 l-34 0 q-50 0 -69 17 q-19 17 -19 57 l0 239 l61 0 l0 -104 q52 28 82 58 l47 -47 q-57 -38 -129 -66 l0 -80 q0 -14 4.5 -17 q4.5 -3 25.5 -3 l26 0 q20 0 26 12.5 q6 12.5 7 51.5 l54 -8 Z" /><glyph glyph-name="Identity.9433" unicode="&#x526a;" d="M925 751 l0 -62 l-848 0 l0 62 l226 0 q-26 45 -56 80 l71 19 q44 -52 59 -85 l-37 -14 l280 0 q24 37 51 98 l78 -18 q-30 -47 -60 -80 l236 0 ZM809 294 q-21 -9 -113 -9 l-13 0 l-5 56 q59 -2 80 0 q9 1 11 3 q2 2 2 10 l0 307 l72 0 l0 -309 q0 -45 -34 -58 ZM458 299 q-19 -9 -102 -9 l-4 52 q19 -1 51 -1 l6 0 q11 1 11 11 l0 35 l-206 0 l0 -97 l-66 0 l0 356 l338 0 l0 -294 q0 -40 -28 -53 ZM660 635 l0 -259 l-70 0 l0 259 l70 0 ZM214 539 l206 0 l0 53 l-206 0 l0 -53 ZM214 435 l206 0 l0 56 l-206 0 l0 -56 ZM487 185 q-29 -103 -120.5 -169 q-91.5 -66 -277.5 -92 l-16 71 q283 32 336 190 l-313 0 l0 65 l768 0 l-3 -34 q-23 -219 -59 -253 q-26 -25 -74 -28 q-65 -2 -149 4 l-1 68 q49 -6 117 -6 l6 0 q29 0 39 10 q27 21 44 174 l-297 0 Z" /><glyph glyph-name="Identity.9438" unicode="&#x526f;" d="M866 -55 q-40 -17 -180 -15 l-5 79 q25 -1 128 -1 q23 0 23 24 l0 797 l78 0 l0 -797 q0 -70 -44 -87 ZM611 804 l0 -70 l-541 0 l0 70 l541 0 ZM731 733 l0 -551 l-71 0 l0 551 l71 0 ZM555 675 l0 -235 l-423 0 l0 235 l423 0 ZM203 505 l278 0 l0 104 l-278 0 l0 -104 ZM596 374 l0 -398 l-499 0 l0 398 l499 0 ZM377 218 l145 0 l0 92 l-145 0 l0 -92 ZM169 218 l148 0 l0 92 l-148 0 l0 -92 ZM169 39 l148 0 l0 117 l-148 0 l0 -117 ZM377 39 l145 0 l0 117 l-145 0 l0 -117 Z" /><glyph glyph-name="Identity.9441" unicode="&#x5272;" d="M550 243 l0 -271 l-412 0 l0 271 l180 0 l0 75 l-237 0 l0 61 l237 0 l0 62 l-159 0 l0 58 l159 0 l0 59 l-183 0 l0 46 l-56 0 l0 153 l240 0 q-14 35 -34 75 l71 20 q14 -25 35 -95 l218 0 l0 -148 l-59 0 l0 -51 l-170 0 l0 -59 l148 0 l0 -58 l-148 0 l0 -62 l220 0 l0 -61 l-220 0 l0 -75 l170 0 ZM872 -54 q-37 -17 -170 -15 l-4 76 q24 -1 74 -1 l10 0 l36 0 q21 0 21 22 l0 815 l75 0 l0 -814 q0 -65 -42 -83 ZM731 718 l0 -540 l-72 0 l0 540 l72 0 ZM149 617 l169 0 l0 57 l62 0 l0 -57 l159 0 l0 80 l-390 0 l0 -80 ZM205 33 l277 0 l0 141 l-277 0 l0 -141 Z" /><glyph glyph-name="Identity.9444" unicode="&#x5275;" d="M336 739 q-45 -56 -112.5 -109.5 q-67.5 -53.5 -134.5 -92.5 l-37 65 q82 42 160 108 q78 66 118 136 l65 -25 q-9 -14 -22 -38 q34 -21 62 -38 l9 -6 l14 -8 q100 -64 128 -87 l-43 -56 q-75 65 -207 151 ZM854 -52 q-37 -17 -172 -15 l-5 78 q92 -2 122 0 q20 0 20 23 l0 810 l78 0 l0 -809 q0 -67 -43 -87 ZM703 744 l0 -550 l-74 0 l0 550 l74 0 ZM410 590 l-59 -30 q-29 50 -72 110 l53 24 q47 -55 78 -104 ZM204 265 q-12 -80 -39.5 -161.5 q-27.5 -81.5 -66.5 -133.5 l-59 47 q61 78 87 197 q26 119 26 230 l0 113 l382 0 l0 -292 l-330 0 ZM216 439 l252 0 l0 59 l-252 0 l0 -59 ZM208 326 l260 0 l0 60 l-253 0 q-2 -42 -7 -60 ZM540 215 l0 -241 l-332 0 l0 241 l332 0 ZM274 37 l196 0 l0 116 l-196 0 l0 -116 Z" /><glyph glyph-name="Identity.9484" unicode="&#x529e;" d="M468 594 q-3 -66 -13 -129.5 q-10 -63.5 -35 -142 q-25 -78.5 -63 -146.5 q-38 -68 -101 -136.5 q-63 -68.5 -144 -119.5 l-51 74 q90 55 155.5 132 q65.5 77 100 161 q34.5 84 50.5 158 q16 74 20 149 l-288 0 l0 79 l291 0 l0 174 l82 0 l0 -174 l273 0 q-1 -33 -1 -43 q-12 -307 -27.5 -455 q-15.5 -148 -41.5 -180 q-33 -41 -79 -45 q-43 -4 -153 1 l-12 0 l-6 0 l-2 84 q55 -5 132 -5 l8 0 q13 -1 18.5 2.5 q5.5 3.5 15.5 13.5 q44 44 62 548 l-191 0 ZM949 213 l-79 -28 q-9 55 -42.5 150 q-33.5 95 -66.5 167 l72 25 q23 -45 55 -128 l4 -10 q45 -121 57 -176 ZM269 489 q-26 -74 -64.5 -156.5 q-38.5 -82.5 -74.5 -129.5 l-72 43 q39 45 78.5 125 q39.5 80 60.5 148 l72 -30 Z" /><glyph glyph-name="Identity.9485" unicode="&#x529f;" d="M653 555 q-6 -103 -21 -187 q-15 -84 -46 -171 q-31 -87 -86 -156.5 q-55 -69.5 -133 -115.5 l-43 69 q234 126 261 561 l-162 0 l0 75 l158 0 q2 72 2 121 l0 10 l0 16 l1 10 l0 45 l80 0 q0 -33 -1 -50 l0 -10 l0 -15 l0 -11 l0 -10 q0 -18 -0.5 -53.5 q-0.5 -35.5 -1.5 -52.5 l267 0 q0 -30 -1 -39 q-12 -297 -27 -437.5 q-15 -140.5 -41 -171.5 q-29 -36 -79 -42 q-54 -4 -158 3 l-1 77 q41 -5 124 -5 l5 0 q25 0 40 16 q38 32 59 524 l-196 0 ZM447 233 q-51 -15 -54 -16 l-11 -3 q-6 -2 -10 -3 l-10 -3 q-2 0 -5.5 -1 q-3.5 -1 -4.5 -2 l-10 -3 l-42 -12 l-10 -3 q-151 -47 -220 -65 l-21 81 q18 4 61.5 14 q43.5 10 64.5 15 l11 3 q8 2 26 6 l0 419 l-149 0 l0 76 l362 0 l0 -76 l-140 0 l0 -397 q6 2 37 11 q31 9 48 14 l10 3 q4 1 57 16 l10 -74 Z" /><glyph glyph-name="Identity.9486" unicode="&#x52a0;" d="M279 592 q-1 -6 -1 -19 q0 -13 -1 -19 l0 -11 q-1 -10 -2 -30 q-1 -20 -2 -30 l-1 -11 q-33 -394 -171 -544 l-60 56 q149 157 163 608 l-138 0 l0 75 l140 0 q1 27 1 88 l0 10 l0 10 l0 11 l0 15 l0 10 l0 5 l0 20 l79 0 l0 -71 l-1 -10 q0 -16 -0.5 -45.5 q-0.5 -29.5 -0.5 -42.5 l210 0 l0 -38 q-5 -321 -15 -465 q-10 -144 -30 -173 q-25 -36 -68 -41 q-40 -8 -122 0 l0 79 q28 -3 91 -3 l6 0 q4 -1 6.5 -1 q2.5 0 4 0.5 q1.5 0.5 3.5 2.5 q2 2 2.5 3 q0.5 1 2.5 5 q2 4 3 6 q29 36 38 550 l-137 0 ZM901 731 l0 -727 l-334 0 l0 727 l334 0 ZM637 79 l185 0 l0 574 l-185 0 l0 -574 Z" /><glyph glyph-name="Identity.9487" unicode="&#x52a1;" d="M507 474 q-89 -34 -201 -59 l-10 -3 q-2 0 -10 -2 l-10 -2 q-11 -3 -35 -7 l-10 -2 l-10 -2 q-2 -1 -5 -1 l-10 -2 q-59 -11 -124 -21 l-15 72 q91 8 186 27 l10 2 q83 16 162 40 q-74 41 -137 114 q-2 -1 -20 -14 l-8 -5 l-8 -6 q-2 -1 -6 -3.5 q-4 -2.5 -6 -4.5 l-12 -9 q-52 -36 -81 -52 l-38 64 q88 45 162 115 q74 70 112 136 l82 -19 q-8 -10 -26 -39.5 q-18 -29.5 -31 -42.5 l379 0 l14 7 l48 -34 q-84 -126 -258 -209 q147 -42 342 -53 l-14 -74 q-246 20 -412 89 ZM337 670 q61 -76 171 -123 q141 58 221 137 l-379 0 l-13 -14 ZM483 235 q-45 -115 -142 -194 q-97 -79 -239 -113 l-22 73 q119 21 200.5 82 q81.5 61 122.5 152 l-264 0 l0 68 l290 0 q15 63 14 101 l82 -10 q-13 -76 -18 -91 l349 0 q-2 -26 -4 -35 q-30 -255 -78 -298 q-19 -25 -83 -29 q-84 0 -150 4 l-2 70 q73 -7 133 -7 q28 0 41 10 q35 30 58 217 l-288 0 Z" /><glyph glyph-name="Identity.9489" unicode="&#x52a3;" d="M764 642 q-147 -182 -591 -255 l-11 -2 q-67 -9 -70 -9 l-16 75 q41 3 89 9 l10 2 q19 1 41 6 l10 1 q7 1 21 3.5 q14 2.5 21 3.5 l10 2 l11 2 q2 0 10 2 l10 2 q126 24 215 61 l-71 0 l0 303 l77 0 l0 -296 q99 46 157 120 l77 -30 ZM933 599 l-67 -44 q-29 41 -93 102.5 q-64 61.5 -122 106.5 l60 39 q169 -130 222 -204 ZM356 776 q-34 -66 -92.5 -135.5 q-58.5 -69.5 -117.5 -116.5 l-50 57 q49 35 102 96.5 q53 61.5 82 119.5 l76 -21 ZM489 255 q-77 -260 -406 -328 l-21 71 q147 29 233 97 q86 68 117 160 l-283 0 l0 71 l302 0 q4 16 8 55.5 q4 39.5 7 56.5 l74 0 q-7 -79 -14 -112 l360 0 q-2 -25 -4 -35 q-23 -279 -67 -320 q-25 -29 -80 -32 q-87 0 -157 4 l-2 76 q70 -6 132 -6 q29 0 40 10 q32 25 52 232 l-291 0 Z" /><glyph glyph-name="Identity.9494" unicode="&#x52a8;" d="M707 553 l0 -5 l-1 -11 l-1 -10 q0 -17 -3 -37 l-1 -10 q-1 -16 -5 -53 l-1 -11 q-43 -357 -180 -488 l-59 61 q155 142 177 564 l-130 0 l0 74 l133 0 q1 13 1.5 40.5 q0.5 27.5 0.5 41.5 l0 10 l0 85 l0 10 l0 5 l0 14 l76 0 l0 -63 l0 -10 q-1 -7 -1 -21 l0 -10 l0 -10 l0 -10 q-2 -56 -3 -82 l224 0 q-2 -29 -2 -38 q-17 -549 -59 -604 q-31 -37 -75 -40 q-40 -4 -149 1 l-2 77 q55 -4 115 -4 l6 0 q21 -1 34 16 q36 39 52 518 l-147 0 ZM481 770 l0 -72 l-378 0 l0 72 l378 0 ZM103 58 l0 4 l0 -2 q-8 35 -26 73 q19 5 47 70 q51 123 81 265 l-140 0 l0 72 l433 0 l0 -72 l-214 0 q-16 -66 -45 -156 l-3 -10 q-29 -86 -53 -140 l223 52 q-7 21 -25 69 l-3 10 q-6 14 -16 39.5 q-10 25.5 -14 36.5 l67 19 q29 -73 41 -105 l4 -11 q41 -108 56 -170 l-71 -22 q-3 9 -7.5 33.5 q-4.5 24.5 -7.5 35.5 q-280 -63 -327 -91 Z" /><glyph glyph-name="Identity.9495" unicode="&#x52a9;" d="M687 556 q-27 -475 -264 -632 l-47 65 q211 131 237 567 l-150 0 l0 75 l153 0 q0 6 3 142 l0 15 l0 10 l0 20 l0 15 l0 5 l0 10 l78 0 l-1 -10 l0 -5 l0 -15 l0 -20 l0 -10 l0 -15 q0 -56 -2 -142 l224 0 q-1 -29 -1 -38 q-7 -299 -19 -442 q-12 -143 -35 -173 q-28 -35 -74 -41 q-34 -3 -136 1 l-12 1 l-2 75 q37 -3 112 -3 l8 0 q24 -1 36 15 q35 42 49 530 l-157 0 ZM497 141 q-30 -8 -94 -24 l-11 -3 q-2 -1 -5 -1.5 q-3 -0.5 -5 -0.5 l-10 -3 q-4 -1 -11 -2.5 q-7 -1.5 -10 -2.5 l-10 -3 l-6 -1 l-10 -3 q-8 -2 -22 -5.5 q-14 -3.5 -19 -4.5 l-11 -3 l-2 0 q-2 -1 -3 -1 l-10 -3 q-116 -30 -198 -48 l-14 81 l72 13 l0 676 l319 0 l0 -603 l54 12 l6 -70 ZM190 593 l178 0 l0 135 l-178 0 l0 -135 ZM190 383 l178 0 l0 140 l-178 0 l0 -140 ZM190 314 l0 -173 q8 2 73.5 17.5 q65.5 15.5 104.5 23.5 l0 132 l-178 0 Z" /><glyph glyph-name="Identity.9496" unicode="&#x52aa;" d="M343 450 q-101 -84 -263 -120 l-19 67 q136 23 222 90 q-25 12 -81 38 l-15 6 l-9 4 q-14 6 -59 26 q46 69 69 114 l-123 0 l0 65 l159 0 q23 54 44 112 l75 -14 q-22 -59 -45 -98 l143 0 l13 3 l41 -12 q-24 -144 -98 -232 q21 -11 54.5 -33.5 q33.5 -22.5 38.5 -25.5 l-56 -54 q-76 55 -91 64 ZM500 215 q-84 -235 -393 -295 l-20 73 q137 24 218.5 83 q81.5 59 113.5 139 l-289 0 l0 70 l311 0 q3 13 6.5 41.5 q3.5 28.5 5.5 39.5 l70 0 l-22 57 q85 27 157 80 q-62 70 -113 205 l37 14 l-62 0 l0 66 l339 0 l11 3 l48 -17 q-44 -165 -159 -274 q77 -55 178 -84 l-28 -70 q-110 36 -198 110 q-88 -66 -184 -99 l-3 -15 l-1 -10 q-1 -10 -4 -27 q-3 -17 -3 -20 l358 0 q-2 -25 -4 -35 q-24 -242 -67 -287 q-22 -26 -74 -29 q-46 -4 -142 4 l-1 69 q68 -5 111 -5 q25 0 38 10 q32 28 50 203 l-285 0 ZM609 722 q40 -111 100 -172 q80 72 117 172 l-217 0 ZM218 584 q60 -24 112 -53 q53 54 81 144 l-144 0 q-18 -38 -49 -91 Z" /><glyph glyph-name="Identity.9504" unicode="&#x52b2;" d="M714 552 l0 -11 q-2 -44 -4 -67 l-1 -12 q-29 -404 -208 -539 l-49 62 q162 117 186 504 l1 12 q2 34 2 51 l-124 0 l0 73 l126 0 q1 41 1 136 l0 10 l0 15 l0 11 l0 5 l0 20 l0 6 l0 20 l77 0 l0 -20 l0 -16 l0 -20 l0 -21 l-1 -10 q0 -81 -4 -136 l202 0 q-1 -30 -1 -38 q-4 -315 -10.5 -442.5 q-6.5 -127.5 -24.5 -152.5 q-21 -34 -62 -39 q-35 -5 -116 -1 l-1 75 q24 -2 77 -2 l6 0 q18 0 28 17 q22 32 26 510 l-126 0 ZM323 542 q-94 -81 -233 -137 l-32 68 q84 29 176 97.5 q92 68.5 145 145.5 l-296 0 l0 70 l336 0 l12 4 l52 -27 q-47 -109 -110 -174 q64 -36 164 -112 l-55 -57 q-60 57 -159 122 ZM499 73 q-9 -2 -29.5 -6.5 q-20.5 -4.5 -31.5 -6.5 l-10 -3 l-11 -2 q-8 -2 -24 -5.5 q-16 -3.5 -23 -5.5 l-10 -2 q-13 -4 -22 -5 l-10 -3 q-18 -4 -26 -6 l-11 -2 q-188 -44 -216 -50 l-17 78 q66 13 160 32 l10 2 q4 1 13 2.5 q9 1.5 13 2.5 l0 209 l-169 0 l0 73 l398 0 l0 -73 l-156 0 l0 -194 q27 5 85 19 l10 2 l9 2 q42 10 62 13 l6 -71 Z" /><glyph glyph-name="Identity.9505" unicode="&#x52b3;" d="M374 684 l0 -82 l-78 0 l0 82 l-225 0 l0 76 l225 0 l0 88 l78 0 l0 -88 l251 0 l0 88 l77 0 l0 -88 l228 0 l0 -76 l-228 0 l0 -82 l-77 0 l0 82 l-251 0 ZM169 496 l0 -108 l-77 0 l0 180 l812 0 l0 -174 l-78 0 l0 102 l-657 0 ZM475 276 q-60 -274 -382 -348 l-23 76 q270 55 326 272 l-248 0 l0 74 l264 0 q2 18 4 60.5 q2 42.5 3 57.5 l83 0 q-1 -17 -3.5 -38 q-2.5 -21 -6 -45 q-3.5 -24 -4.5 -35 l351 0 q-1 -27 -2 -36 q-17 -301 -55 -341 q-24 -28 -79 -33 q-43 -3 -167 4 l-2 77 q76 -6 140 -6 q26 0 40 10 q25 23 41 251 l-280 0 Z" /><glyph glyph-name="Identity.9517" unicode="&#x52bf;" d="M473 232 q-81 -240 -384 -307 l-22 74 q131 26 211.5 89 q80.5 63 112.5 144 l-288 0 l0 70 l315 0 q1 9 3.5 32 q2.5 23 4.5 37 l5 0 q-7 17 -40 47 q101 46 136 118 q-12 7 -38 23 l-13 8 q-32 20 -46 28 l40 53 q54 -31 85 -53 q7 23 16 92 l-139 0 l0 68 l147 0 q1 16 1 45 q0 29 0 48 l75 0 q-1 -17 -7.5 -49 q-6.5 -32 -7.5 -44 l188 0 q-4 -172 1.5 -245.5 q5.5 -73.5 33.5 -74.5 q21 0 26 79 l61 -10 q-6 -74 -27.5 -105.5 q-21.5 -31.5 -61.5 -31.5 q-65 0 -86 79 q-21 79 -18 241 l-123 0 q-1 -9 -2.5 -34.5 q-1.5 -25.5 -2.5 -37.5 q-1 -12 -4.5 -29.5 q-3.5 -17.5 -8.5 -30.5 q81 -51 121 -85 l-43 -64 q-36 39 -109 88 q-43 -73 -139 -123 l58 0 q-3 -36 -10 -69 l357 0 q-2 -25 -4 -35 q-23 -252 -68 -296 q-33 -27 -79 -30 q-57 -2 -160 4 l-1 72 q59 -6 134 -6 q28 0 41 10 q30 25 50 211 l-291 0 ZM265 372 q-36 -14 -133 -12 q-9 38 -24 68 l13 0 l12 0 l65 0 l14 0 q9 0 12 2.5 q3 2.5 3 9.5 l0 85 l-151 -27 l-15 74 q3 0 67 8.5 q64 8.5 99 14.5 l0 90 l-151 0 l0 70 l151 0 l0 92 l71 0 l0 -92 l120 0 l0 -70 l-120 0 l0 -77 q36 7 124 22 l4 -69 q-2 -1 -5 -1.5 q-3 -0.5 -5 -0.5 l-9 -1 q-4 -1 -12.5 -2.5 q-8.5 -1.5 -12.5 -2.5 l-9 -1 q-8 -2 -24.5 -5 q-16.5 -3 -25.5 -4 l-10 -1 l-15 -3 l0 -99 q0 -53 -33 -68 Z" /><glyph glyph-name="Identity.9539" unicode="&#x52d5;" d="M708 553 l0 -16 l-1 -11 q-24 -456 -220 -602 q-22 32 -58 56 q20 16 43 39 q-48 -6 -73 -9 l-16 -2 l-21 -3 l-27 -3 l-11 -2 l-11 -1 l-10 -1 l-11 -2 q-223 -27 -227 -27 l-11 69 q33 2 152 15 l10 1 q3 0 8.5 0.5 q5.5 0.5 7.5 0.5 l11 1 q20 2 31 3 l0 87 l-192 0 l0 62 l192 0 l0 59 l-190 0 l0 301 l190 0 l0 55 l-219 0 l0 62 l219 0 l0 56 q-20 -1 -71 -5 l-10 0 q-54 -4 -109 -6 q-7 35 -19 59 q100 7 141 11 l11 1 q7 0 11 1 l10 1 l6 0 l11 1 l11 2 q149 16 223 32 l38 -61 q-27 -6 -92.5 -15 q-65.5 -9 -94.5 -14 l0 -63 l203 0 l0 -62 l96 0 q2 54 2 176 l0 11 l0 5 l0 21 l76 0 l0 -20 l0 -5 l0 -10 l0 -20 l0 -10 l0 -10 l0 -16 q0 -48 -2 -122 l211 0 q-1 -28 -1 -37 q-8 -302 -19.5 -442 q-11.5 -140 -34.5 -168 q-28 -36 -70 -40 q-39 -6 -132 1 l-1 74 q45 -4 102 -4 q21 0 34 16 q29 37 48 530 l-144 0 ZM340 67 q21 2 78 8 l10 2 q7 0 19 2 l15 2 l5 1 l10 1 q5 0 15 2 l10 1 q4 0 12.5 1 q8.5 1 12.5 2 l0 -4 q88 121 107 410 l1 10 q2 26 2 38 l1 10 l-101 1 l0 69 l-197 0 l0 -55 l186 0 l0 -301 l-186 0 l0 -59 l188 0 l0 -62 l-188 0 l0 -79 ZM340 445 l121 0 l0 67 l-121 0 l0 -67 ZM148 445 l126 0 l0 67 l-126 0 l0 -67 ZM340 323 l121 0 l0 69 l-121 0 l0 -69 ZM148 323 l126 0 l0 69 l-126 0 l0 -69 Z" /><glyph glyph-name="Identity.9579" unicode="&#x52fe;" d="M733 -61 q-46 -4 -196 4 l-3 83 q59 -5 164 -5 l12 0 q29 -3 47 15 q53 47 74 593 l-538 0 q-67 -133 -170 -254 l-66 55 q66 69 135 187 q69 118 110 230 l80 -24 q-23 -61 -52 -118 l583 0 q0 -32 -2 -42 q-12 -325 -30 -482 q-18 -157 -50 -194 q-35 -43 -98 -48 ZM729 153 l-70 -41 q-8 23 -34 73 q-395 -44 -444 -63 l-25 82 q18 4 62 68 q28 36 96 169 l6 11 q39 80 57 125 l85 -32 q-32 -66 -62 -123 l-5 -9 q-1 -1 -2 -4 q-1 -3 -2 -5 l-5 -9 q-63 -115 -111 -179 l322 36 q-15 27 -38 65 l-5 9 q-27 45 -56 93 l64 34 q29 -46 63 -106 l6 -9 q2 -4 3 -5 l5 -10 q65 -117 90 -170 Z" /><glyph glyph-name="Identity.9586" unicode="&#x5305;" d="M950 138 q-6 -52 -19 -84 q-13 -32 -43 -56.5 q-30 -24.5 -81.5 -35 q-51.5 -10.5 -132.5 -10.5 l-181 0 q-117 0 -179.5 16 q-62.5 16 -84.5 45.5 q-22 29.5 -22 84.5 l0 450 q-42 -46 -99 -94 l-56 65 q75 55 148 148.5 q73 93.5 112 185.5 l80 -24 q-25 -55 -60 -110 l529 0 l0 -35 q-14 -437 -49 -483 q-24 -32 -66 -35 q-39 -5 -126 0 l0 75 q54 -5 92 -3 q19 -1 29 12 q30 38 41 394 l-496 0 q-31 -44 -76 -92 l396 0 l0 -301 l-322 0 l0 -153 q0 -28 11.5 -41 q11.5 -13 56.5 -21 q45 -8 138 -8 l182 0 q64 0 102 6.5 q38 6.5 58.5 23.5 q20.5 17 27.5 37 q7 20 11 57 l79 -14 ZM284 324 l246 0 l0 155 l-246 0 l0 -155 Z" /><glyph glyph-name="Identity.9602" unicode="&#x5316;" d="M302 632 l0 -704 l-81 0 l0 589 q-53 -75 -111 -127 l-59 68 q78 71 154.5 179 q76.5 108 117.5 211 l77 -26 q-38 -93 -98 -190 ZM951 225 q-8 -149 -46 -212.5 q-38 -63.5 -139 -63.5 l-87 0 q-98 0 -131.5 33.5 q-33.5 33.5 -33.5 115.5 l0 175 q-75 -53 -144 -87 l-41 69 q78 39 185 111 l0 465 l82 0 l0 -404 q151 125 254 286 l78 -53 q-140 -191 -332 -331 l0 -233 q0 -42 13.5 -55 q13.5 -13 73.5 -13 l81 0 q63 0 82 44.5 q19 44.5 25 164.5 l80 -12 Z" /><glyph glyph-name="Identity.9605" unicode="&#x5319;" d="M948 292 q-7 -95 -37.5 -135.5 q-30.5 -40.5 -106.5 -40.5 l-74 0 q-85 0 -116 27 q-31 27 -31 92 l0 594 l77 0 l0 -277 q36 18 86 48 l9 6 q71 41 114 76 l59 -58 q-86 -57 -268 -138 l0 -252 q0 -28 12.5 -36.5 q12.5 -8.5 63.5 -8.5 l66 0 q45 0 58.5 23.5 q13.5 23.5 16.5 90.5 l71 -11 ZM516 812 l0 -313 l-404 0 l0 313 l404 0 ZM182 685 l261 0 l0 68 l-261 0 l0 -68 ZM182 558 l261 0 l0 72 l-261 0 l0 -72 ZM178 113 q-29 -127 -81 -186 l-57 53 q43 47 66.5 144.5 q23.5 97.5 28.5 200.5 l72 0 q-3 -47 -11 -123 q37 -88 97 -124 l0 292 l-234 0 l0 68 l496 0 l0 -68 l-194 0 l0 -110 l178 0 l0 -66 l-178 0 l0 -149 q91 -27 233 -27 l32 0 l4 0 l13 0 l122 0 l13 0 q29 0 70.5 0.5 q41.5 0.5 68.5 1 q27 0.5 39 0.5 q-20 -27 -30 -71 l-332 0 q-154 0 -257 38 q-103 38 -159 126 Z" /><glyph glyph-name="Identity.9625" unicode="&#x532e;" d="M937 36 l0 -70 l-830 0 l0 851 l809 0 l0 -71 l-733 0 l0 -710 l754 0 ZM901 490 l0 -53 l-688 0 l0 53 l301 0 l0 51 l-230 0 l0 156 l230 0 l0 36 l73 0 l0 -36 l247 0 l0 -156 l-247 0 l0 -51 l314 0 ZM587 587 l171 0 l0 63 l-171 0 l0 -63 ZM356 587 l158 0 l0 63 l-158 0 l0 -63 ZM377 340 l0 -177 l-76 0 l0 232 l513 0 l0 -227 l-78 0 l0 172 l-359 0 ZM588 278 q0 -21 -6 -41 q-6 -20 -27.5 -48 q-21.5 -28 -57 -51.5 q-35.5 -23.5 -100.5 -47 q-65 -23.5 -152 -39.5 l-18 59 q289 41 289 171 l0 30 l72 0 l0 -33 ZM867 102 l-36 -53 q-97 45 -148 68 l-10 5 q-23 10 -95 41 l32 47 q105 -40 257 -108 Z" /><glyph glyph-name="Identity.9635" unicode="&#x5339;" d="M927 72 l0 -78 l-820 0 l0 793 l807 0 l0 -77 l-238 0 l0 -403 q0 -24 9 -30 q9 -6 48 -6 l49 0 q39 0 49.5 28 q10.5 28 12.5 117 l73 -10 q-6 -117 -33.5 -163.5 q-27.5 -46.5 -97.5 -46.5 l-58 0 q-73 0 -99 25 q-26 25 -26 86 l0 403 l-160 0 q-4 -226 -40 -358.5 q-36 -132.5 -141 -200.5 l-43 64 q47 30 77 77 q30 47 45 116.5 q15 69.5 20 135 q5 65.5 7 166.5 l-185 0 l0 -638 l744 0 Z" /><glyph glyph-name="Identity.9636" unicode="&#x533a;" d="M939 37 l0 -76 l-830 0 l0 835 l805 0 l0 -77 l-729 0 l0 -682 l754 0 ZM552 337 q-8 -8 -23.5 -24.5 q-15.5 -16.5 -23.5 -24.5 l-7 -7 l-7 -7 l-7 -7 q-114 -114 -192 -163 l-48 67 q95 55 218 177 l8 7 q6 6 16 17 q10 11 16 16 q-4 3 -88 82 l-8 7 l-45 42 l-7 7 q-36 33 -86 75 l55 47 q52 -41 123 -109 l11 -11 q3 -4 10.5 -11 q7.5 -7 11.5 -10 l11 -10 l8 -7 q34 -32 51 -47 q79 88 167 240 l73 -31 q-40 -67 -80 -126 l-6 -8 q-1 -2 -11 -17 l-6 -8 q-49 -68 -80 -101 q115 -106 216 -228 l-64 -56 q-121 149 -206 229 Z" /><glyph glyph-name="Identity.9641" unicode="&#x533f;" d="M939 36 l0 -78 l-832 0 l0 838 l811 0 l0 -77 l-735 0 l0 -683 l756 0 ZM468 575 l0 -59 l-71 0 l0 59 l-148 0 l0 64 l148 0 l0 64 l71 0 l0 -64 l168 0 l0 64 l69 0 l0 -64 l161 0 l0 -64 l-161 0 l0 -59 l-69 0 l0 59 l-168 0 ZM801 331 l0 -234 l-415 0 l0 161 q-50 -57 -120 -98 l-40 62 q52 27 104 77 q52 50 92 107 l-188 0 l0 62 l225 0 q12 22 32 78 l71 -16 q-15 -39 -27 -62 l357 0 l0 -62 l-391 0 q-36 -58 -51 -75 l351 0 ZM452 157 l274 0 l0 114 l-274 0 l0 -114 Z" /><glyph glyph-name="Identity.9644" unicode="&#x5343;" d="M536 389 l0 -461 l-77 0 l0 461 l-394 0 l0 79 l394 0 l0 226 q-34 -5 -98 -13 l-10 -2 q-6 0 -20 -2 l-10 -1 q-30 -4 -45 -5 l-10 -1 q-7 -1 -126 -13 q-2 22 -22 71 q26 2 88 8 l11 1 l75 9 l16 2 q6 1 19 2.5 q13 1.5 19 2.5 l11 1 q2 1 6 1 l16 2 q6 1 16 3 l11 1 q252 36 374 75 l59 -65 q-92 -27 -197 -46 l-11 -2 q-46 -9 -95 -15 l0 -240 l401 0 l0 -79 l-401 0 Z" /><glyph glyph-name="Identity.9648" unicode="&#x5347;" d="M362 382 q-3 -63 -16.5 -122.5 q-13.5 -59.5 -41.5 -122 q-28 -62.5 -79 -118.5 q-51 -56 -121 -96 l-44 67 q60 33 104.5 81 q44.5 48 69.5 101.5 q25 53.5 37.5 105 q12.5 51.5 15.5 104.5 l-224 0 l0 76 l227 0 l0 212 q-30 -9 -100 -27 l-10 -2 q-56 -14 -80 -19 q-9 36 -29 64 q79 19 146 39 l11 3 q1 1 2 1 q1 0 1.5 0.5 q0.5 0.5 1.5 0.5 l10 3 q1 0 2.5 0.5 q1.5 0.5 2.5 1.5 l11 3 q157 49 241 97 l55 -65 q-100 -49 -192 -78 l0 -234 l281 0 l0 372 l79 0 l0 -372 l215 0 l0 -76 l-215 0 l0 -453 l-79 0 l0 453 l-282 0 Z" /><glyph glyph-name="Identity.9651" unicode="&#x534a;" d="M536 225 l0 -293 l-77 0 l0 293 l-393 0 l0 78 l393 0 l0 156 l-329 0 l0 79 l329 0 l0 309 l77 0 l0 -309 l342 0 l0 -79 l-342 0 l0 -156 l401 0 l0 -78 l-401 0 ZM844 796 q-13 -26 -47 -86 l-6 -9 q-49 -83 -81 -127 l-70 27 q28 40 66 109 l5 9 q37 73 51 108 l82 -31 ZM349 605 l-73 -31 q-43 89 -116 220 l71 29 q6 -10 24.5 -43 q18.5 -33 29.5 -52 l5 -10 q50 -93 59 -113 Z" /><glyph glyph-name="Identity.9655" unicode="&#x534e;" d="M314 695 l0 -337 l-77 0 l0 260 q-55 -53 -124 -101 l-47 65 q73 45 149.5 119.5 q76.5 74.5 120.5 147.5 l71 -27 q-34 -58 -93 -127 ZM928 543 q-6 -90 -38.5 -125 q-32.5 -35 -118.5 -35 l-87 0 q-95 0 -126 23 q-31 23 -31 82 l0 84 q-24 -8 -70 -19 l-10 -3 q-47 -14 -63 -19 l-21 63 q14 4 50 13.5 q36 9.5 56 15.5 l10 3 q16 4 48 14 l0 196 l77 0 l0 -167 q147 55 236 118 l60 -61 q-81 -51 -211 -100 l-10 -3 q-50 -18 -75 -26 l0 -109 q0 -24 12 -29.5 q12 -5.5 73 -5.5 l80 0 q53 0 68.5 19.5 q15.5 19.5 18.5 81.5 l72 -11 ZM539 166 l0 -238 l-80 0 l0 238 l-396 0 l0 77 l396 0 l0 115 l80 0 l0 -115 l397 0 l0 -77 l-397 0 Z" /><glyph glyph-name="Identity.9656" unicode="&#x534f;" d="M249 550 l0 -620 l-75 0 l0 620 l-113 0 l0 74 l113 0 l0 224 l75 0 l0 -224 l106 0 l0 -74 l-106 0 ZM617 591 q-14 -450 -270 -666 l-53 59 q237 196 253 607 l-177 0 l0 75 l175 0 l0 173 l76 0 l0 -173 l199 0 l0 -38 q-8 -319 -19.5 -466.5 q-11.5 -147.5 -34.5 -178.5 q-27 -36 -75 -42 q-43 -3 -140 2 l-1 75 q55 -4 112 -4 q22 0 35 17 q33 40 45 560 l-125 0 ZM457 482 q-38 -196 -97 -284 l-60 42 q53 68 87 256 l70 -14 ZM960 208 l-74 -19 q-15 122 -64 291 l67 14 q25 -87 30 -105 l3 -11 q28 -106 38 -170 Z" /><glyph glyph-name="Identity.9662" unicode="&#x5355;" d="M535 116 l0 -186 l-75 0 l0 186 l-394 0 l0 75 l394 0 l0 92 l-300 0 l0 398 l183 0 q-43 70 -96 130 l66 33 q79 -85 109 -145 l-44 -18 l228 0 q32 46 88 163 l84 -30 q-28 -44 -95 -133 l166 0 l0 -398 l-314 0 l0 -92 l400 0 l0 -75 l-400 0 ZM535 518 l236 0 l0 97 l-236 0 l0 -97 ZM236 518 l224 0 l0 97 l-224 0 l0 -97 ZM535 352 l236 0 l0 102 l-236 0 l0 -102 ZM236 352 l224 0 l0 102 l-224 0 l0 -102 Z" /><glyph glyph-name="Identity.9667" unicode="&#x535a;" d="M664 343 l0 -48 l-61 0 l0 48 l-212 0 l0 290 l212 0 l0 47 l-258 0 l0 62 l258 0 l0 106 l61 0 l0 -106 l171 0 q-7 4 -16.5 9 q-9.5 5 -22.5 11 q-13 6 -21 10 l-9 5 q-27 12 -49 23 l36 44 q103 -41 145 -72 l-27 -30 l75 0 l0 -62 l-282 0 l0 -47 l231 0 l0 -290 l-231 0 ZM252 521 l0 -590 l-74 0 l0 590 l-127 0 l0 73 l127 0 l0 253 l74 0 l0 -253 l117 0 l0 -73 l-117 0 ZM458 522 l145 0 l0 52 l-145 0 l0 -52 ZM664 522 l160 0 l0 52 l-160 0 l0 -52 ZM458 397 l145 0 l0 71 l-145 0 l0 -71 ZM664 397 l160 0 l0 71 l-160 0 l0 -71 ZM759 -59 q-26 -10 -151 -10 l-4 66 q77 -4 103 0 q16 1 16 16 l0 165 l-407 0 l0 68 l407 0 l0 80 l74 0 l0 -80 l154 0 l0 -68 l-154 0 l0 -166 q0 -57 -38 -71 ZM601 39 l-58 -44 q-20 30 -58.5 72.5 q-38.5 42.5 -69.5 67.5 l53 39 q33 -24 74 -65.5 q41 -41.5 59 -69.5 Z" /><glyph glyph-name="Identity.9672" unicode="&#x5360;" d="M833 405 l0 -425 l-666 0 l0 425 l276 0 l0 442 l79 0 l0 -177 l390 0 l0 -76 l-390 0 l0 -189 l311 0 ZM244 56 l510 0 l0 274 l-510 0 l0 -274 Z" /><glyph glyph-name="Identity.9673" unicode="&#x5361;" d="M521 414 l0 -486 l-80 0 l0 486 l-377 0 l0 78 l373 0 l0 357 l80 0 l0 -136 l318 0 l0 -77 l-318 0 l0 -144 l419 0 l0 -78 l-415 0 ZM890 169 l-41 -71 q-63 33 -156 79 l-10 5 q-91 44 -154 69 l41 61 q70 -27 137 -57 l10 -5 q119 -53 173 -81 Z" /><glyph glyph-name="Identity.9681" unicode="&#x536b;" d="M938 48 l0 -79 l-875 0 l0 79 l356 0 l0 654 l-292 0 l0 78 l731 0 l0 -417 q0 -65 -49 -81 q-40 -14 -202 -14 l-7 78 q75 -4 156 0 q13 0 17.5 4 q4.5 4 4.5 15 l0 337 l-281 0 l0 -654 l441 0 Z" /><glyph glyph-name="Identity.9686" unicode="&#x5370;" d="M461 162 q-301 -80 -351 -108 l-39 79 q44 22 44 68 l0 536 q24 5 76 19 l11 3 q133 39 197 71 l61 -63 q-105 -46 -267 -84 l0 -174 l268 0 l0 -78 l-268 0 l0 -265 l263 68 q-2 -38 5 -72 ZM607 702 l0 -771 l-77 0 l0 851 l371 0 l0 -590 q0 -69 -42 -86 q-36 -16 -171 -16 l-6 84 q20 -1 63 -1 l11 0 l47 0 q12 1 16 4.5 q4 3.5 4 15.5 l0 509 l-216 0 Z" /><glyph glyph-name="Identity.9689" unicode="&#x5373;" d="M409 86 q-256 -91 -291 -120 l-42 76 q44 21 44 65 l0 692 l376 0 l0 -467 l-299 0 l0 -246 l178 62 q-9 16 -25 53.5 q-16 37.5 -25 52.5 l67 32 q20 -33 49 -88 l5 -10 q34 -66 78 -168 l-72 -39 q-38 96 -43 105 ZM652 717 l0 -788 l-73 0 l0 864 l323 0 l0 -568 q0 -61 -37 -79 q-32 -17 -158 -12 l-4 74 q78 -2 103 0 q18 0 18 17 l0 492 l-172 0 ZM197 606 l223 0 l0 119 l-223 0 l0 -119 ZM197 405 l223 0 l0 131 l-223 0 l0 -131 Z" /><glyph glyph-name="Identity.9690" unicode="&#x5374;" d="M547 45 l-69 -34 q-15 66 -23 88 q-290 -52 -333 -75 l-28 70 q17 6 51 62 q17 27 52.5 102 q35.5 75 57.5 139 l-184 0 l0 75 l207 0 l0 153 l-174 0 l0 75 l174 0 l0 148 l74 0 l0 -148 l152 0 l0 -75 l-152 0 l0 -153 l177 0 l0 -75 l-191 0 q-64 -170 -133 -277 l223 41 q-35 89 -63 138 l64 27 q32 -60 68 -145.5 q36 -85.5 50 -135.5 ZM657 718 l0 -788 l-75 0 l0 862 l324 0 l0 -601 q0 -66 -36 -81 q-32 -16 -154 -16 l-5 80 q75 -2 103 0 q9 0 12 3.5 q3 3.5 3 14.5 l0 526 l-172 0 Z" /><glyph glyph-name="Identity.9694" unicode="&#x5378;" d="M543 77 q-8 -1 -26.5 -4.5 q-18.5 -3.5 -28.5 -5.5 l-10 -2 l-10 -2 q-1 0 -2.5 -0.5 q-1.5 -0.5 -2.5 -0.5 l-10 -2 q-6 -1 -16 -3 l-10 -2 l-10 -2 q-1 0 -3 -0.5 q-2 -0.5 -3 -0.5 l-15 -3 q-4 -1 -13 -2.5 q-9 -1.5 -13 -2.5 l-21 -4 l-5 -1 l-10 -2 q-3 -1 -10.5 -2 q-7.5 -1 -10.5 -2 l-10 -2 q-5 -1 -15.5 -3 q-10.5 -2 -15.5 -3 l-10 -2 q-138 -28 -205 -38 l-13 77 l79 13 l0 326 l64 0 l0 -315 l95 16 l0 371 l-223 0 l0 70 l223 0 l0 135 l-79 0 q-33 -68 -82 -125 l-57 49 q40 43 76 112 q36 69 54 137 l73 -17 q-13 -49 -32 -89 l288 0 l0 -67 l-170 0 l0 -135 l185 0 l0 -70 l-185 0 l0 -117 l158 0 l0 -68 l-158 0 l0 -172 q51 8 97 18 l15 2 q2 1 5 1 l10 2 l10 2 l48 9 l5 -73 ZM639 717 l0 -786 l-72 0 l0 861 l346 0 l0 -601 q0 -65 -38 -83 q-31 -15 -153 -15 l-5 82 q75 -2 103 0 q10 0 13.5 4 q3.5 4 3.5 14 l0 524 l-198 0 Z" /><glyph glyph-name="Identity.9707" unicode="&#x5386;" d="M207 491 q0 -141 -21 -301 q-21 -160 -68 -255 l-73 39 q82 164 82 513 l0 315 l807 0 l0 -77 l-727 0 l0 -234 ZM556 449 q-40 -393 -288 -518 l-38 64 q215 106 250 454 l-216 0 l0 74 l224 0 q2 25 2 82 l0 10 l0 10 q0 40 1 59 l82 0 q-1 -16 -4.5 -74.5 q-3.5 -58.5 -3.5 -86.5 l319 0 q-1 -28 -2 -38 q-12 -236 -28 -354 q-16 -118 -42 -146 q-28 -33 -80 -38 q-60 -4 -154 3 l-1 77 q39 -4 118 -4 l10 0 q22 -3 39 13 q37 35 57 413 l-245 0 Z" /><glyph glyph-name="Identity.9712" unicode="&#x538b;" d="M204 725 l0 -240 q0 -143 -22.5 -302 q-22.5 -159 -73.5 -255 q-22 24 -64 45 q83 160 83 515 l0 315 l816 0 l0 -78 l-739 0 ZM940 50 l0 -77 l-735 0 l0 77 l325 0 l0 346 l-261 0 l0 77 l261 0 l0 210 l75 0 l0 -210 l287 0 l0 -77 l-287 0 l0 -346 l335 0 ZM871 175 l-60 -47 q-21 34 -63 83 q-42 49 -79 80 l53 39 q40 -32 84.5 -78.5 q44.5 -46.5 64.5 -76.5 Z" /><glyph glyph-name="Identity.9727" unicode="&#x539a;" d="M221 724 l0 -216 q0 -149 -25 -313 q-25 -164 -83 -264 q-32 27 -67 40 q97 172 97 542 l0 285 l788 0 l0 -74 l-710 0 ZM833 681 l0 -281 l-527 0 l0 281 l527 0 ZM377 569 l380 0 l0 57 l-380 0 l0 -57 ZM377 455 l380 0 l0 62 l-380 0 l0 -62 ZM573 -53 q-28 -10 -161 -10 l-14 0 l-6 65 q34 -1 76.5 -1.5 q42.5 -0.5 51.5 0.5 q19 0 19 18 l0 99 l-316 0 l0 64 l316 0 l0 51 q53 16 153 58 l-389 0 l0 56 l479 0 l16 5 l48 -42 q-119 -75 -233 -111 l0 -17 l330 0 l0 -64 l-330 0 l0 -102 q0 -57 -40 -69 Z" /><glyph glyph-name="Identity.9732" unicode="&#x539f;" d="M221 722 l0 -207 q0 -144 -25 -305 q-25 -161 -82 -260 q-28 26 -67 41 q96 183 96 528 l0 276 l787 0 l0 -73 l-709 0 ZM575 -57 q-28 -13 -150 -13 l-14 0 l-6 71 q35 -1 100 -1 l14 0 q11 1 15 4.5 q4 3.5 4 12.5 l0 249 l-233 0 l0 363 l187 0 q15 30 35 90 l90 -15 q-30 -53 -44 -75 l278 0 l0 -363 l-238 0 l0 -250 q0 -59 -38 -73 ZM379 480 l394 0 l0 86 l-394 0 l0 -86 ZM379 330 l394 0 l0 89 l-394 0 l0 -89 ZM446 195 q-69 -99 -81 -115 l-6 -9 q-50 -66 -86 -99 l-54 53 q88 76 155 196 l72 -26 ZM927 11 l-66 -43 q-68 97 -178 217 l62 34 q19 -20 72 -79 l8 -8 q82 -94 102 -121 Z" /><glyph glyph-name="Identity.9759" unicode="&#x53bb;" d="M893 -19 l-74 -42 q-31 64 -49 92 q-354 -28 -467.5 -40.5 q-113.5 -12.5 -142.5 -24.5 l-25 79 q19 4 71 66 q19 20 68.5 95.5 q49.5 75.5 96.5 155.5 l-306 0 l0 79 l394 0 l0 179 l-316 0 l0 78 l316 0 l0 151 l79 0 l0 -151 l327 0 l0 -78 l-327 0 l0 -179 l401 0 l0 -79 l-474 0 q-11 -17 -26 -42 l-6 -9 l-24 -39 l-6 -9 q-2 -3 -5.5 -9 q-3.5 -6 -5.5 -9 l-6 -9 q-75 -117 -126 -173 l466 37 q-11 16 -37 52 l-6 9 q-59 82 -90 118 l68 33 q50 -56 96 -120 l7 -9 q83 -114 129 -202 Z" /><glyph glyph-name="Identity.9766" unicode="&#x53c2;" d="M404 467 q-113 -159 -301 -261 l-42 68 q67 31 137.5 83.5 q70.5 52.5 118.5 109.5 l-252 0 l0 71 l301 0 q12 19 28 61 l4 9 q4 12 7 18 q-164 -7 -212 -24 l-18 76 q18 1 66 32 q25 10 84.5 54 q59.5 44 106.5 90 l69 -42 q-40 -34 -83 -65 l-8 -5 l-24 -18 l-9 -5 q-10 -7 -27.5 -19 q-17.5 -12 -24.5 -17 l361 14 q-20 14 -29 21 l-8 6 q-5 3 -13 9 l-8 6 q-35 26 -55 38 l53 42 q68 -41 144 -98.5 q76 -57.5 112 -96.5 l-65 -48 q-17 22 -64 63 l-267 -12 l3 -2 q-29 -66 -42 -87 l490 0 l0 -71 l-256 0 q48 -53 125 -106.5 q77 -53.5 138 -75.5 l-35 -72 q-84 37 -168.5 108 q-84.5 71 -138.5 146 l-198 0 ZM610 389 q-55 -40 -141.5 -81 q-86.5 -41 -166.5 -64 l-25 63 q62 16 143.5 50 q81.5 34 126.5 66 l63 -34 ZM686 270 q-68 -52 -180.5 -101.5 q-112.5 -49.5 -224.5 -73.5 l-21 66 q96 18 201 58 q105 40 163 87 l62 -36 ZM817 163 q-88 -87 -251 -150.5 q-163 -63.5 -352 -87.5 l-15 72 q165 18 317.5 73 q152.5 55 228.5 128 l72 -35 Z" /><glyph glyph-name="Identity.9773" unicode="&#x53ca;" d="M619 82 q-145 -108 -295 -154 l-27 76 q115 28 259 128 q-116 110 -209 349 q-13 -139 -72.5 -285.5 q-59.5 -146.5 -170.5 -250.5 q-7 12 -26.5 34.5 q-19.5 22.5 -30.5 31.5 q70 66 118.5 151.5 q48.5 85.5 71.5 174 q23 88.5 32 161.5 q9 73 9 146 l0 75 l-174 0 l0 77 l595 0 q-6 -27 -18 -87 l-1 -11 l-3 -15 l-2 -10 q-16 -78 -24 -111 l181 0 l12 6 l52 -22 q-30 -122 -90.5 -232 q-60.5 -110 -133.5 -178 q125 -88 267 -122 l-28 -80 q-148 39 -292 148 ZM357 672 q2 -6 3 -10 l3 -10 q6 -24 10 -36 l3 -10 q87 -296 230 -421 q60 54 111.5 136 q51.5 82 79.5 169 l-247 0 q8 24 35 144 l2 10 q2 12 16 75 l-246 0 l0 -47 Z" /><glyph glyph-name="Identity.9774" unicode="&#x53cb;" d="M566 80 q-153 -114 -295 -154 l-26 72 q125 32 264 132 q-85 78 -161 242 q-36 -119 -96.5 -232 q-60.5 -113 -139.5 -181 l-58 63 q75 60 135.5 172 q60.5 112 90.5 215 q30 103 45 203 l-244 0 l0 76 l257 0 q4 33 4 66.5 q0 33.5 -2 61.5 q-2 28 -2 33 l83 0 q-1 -9 -0.5 -37 q0.5 -28 -1 -61 q-1.5 -33 -5.5 -63 l507 0 l0 -76 l-526 0 q-1 -10 -4 -55.5 q-3 -45.5 -9 -69.5 l368 0 l16 6 l49 -24 q-29 -102 -78 -192.5 q-49 -90.5 -110 -146.5 q149 -97 307 -127 l-24 -76 q-186 36 -344 153 ZM395 414 q63 -149 167 -235 q93 85 150 235 l-317 0 Z" /><glyph glyph-name="Identity.9775" unicode="&#x53cc;" d="M944 -4 l-48 -72 q-62 41 -119 101 q-57 60 -97 123 q-120 -158 -232 -221 l-42 73 q110 54 232 226 q-57 119 -101 340 l-2 10 l-3 21 l-2 10 q-1 5 -3 15.5 q-2 10.5 -3 16.5 l-2 10 l-3 21 l-2 10 q0 4 -1 6 l-1 10 q-1 2 -1 5 l-26 0 l0 74 l355 0 l14 3 l51 -15 q-19 -158 -66 -301.5 q-47 -143.5 -109 -242.5 q40 -69 97 -130.5 q57 -61.5 114 -92.5 ZM325 232 q-43 -91 -102.5 -173.5 q-59.5 -82.5 -119.5 -130.5 l-52 66 q59 43 120 130.5 q61 87.5 103 184.5 q-39 59 -81 115 l-6 9 q-6 8 -9 13 l-7 8 q-48 64 -85 107 l59 45 q45 -53 86 -107 l7 -8 q1 -1 3 -4 q2 -3 3 -4 l7 -9 q12 -15 32.5 -43 q20.5 -28 27.5 -37 q26 72 48 210 l1 10 q0 1 0.5 2.5 q0.5 1.5 0.5 2.5 l1 10 q1 2 1 6 l2 15 q1 2 1 5 q0 3 1 5 l1 10 q1 6 3 16 l1 10 q0 3 1 5 l-296 0 l0 74 l318 0 l13 3 l48 -13 q-2 -24 -8 -80 l-2 -11 l0 -5 l-2 -11 q-1 -10 -5 -37 l-2 -10 q-26 -176 -71 -293 q20 -30 40 -66.5 q20 -36.5 39.5 -76.5 q19.5 -40 28.5 -56 l-68 -53 q-51 119 -81 166 ZM588 701 q0 -2 1 -5.5 q1 -3.5 1 -4.5 l1 -11 q36 -248 96 -378 q95 168 134 399 l-233 0 Z" /></font>
</defs>
</svg>
